<?xml version="1.0" encoding="UTF-8" standalone="no"?>
<!-- Created with Inkscape (http://www.inkscape.org/) -->

<svg
   width="395.16751"
   height="399.99982"
   viewBox="0 0 395.1675 399.9998"
   id="svg2"
   version="1.1">
  <g
     id="layer1"
     transform="translate(1229.7524,-500.49736)">
    <path
       style="fill:#163078"
       d="m -1041.092,900.28763 c -1.19,-0.16539 -3.6634,-0.72432 -5.4964,-1.24204 -1.833,-0.51773 -4.1134,-1.15985 -5.0676,-1.4269 -0.9542,-0.26709 -2.3106,-0.94361 -3.0142,-1.50339 -0.7036,-0.55978 -1.5585,-1.12173 -1.8998,-1.24878 -0.4016,-0.14944 -0.6206,-0.60596 -0.6206,-1.29343 0,-1.40374 -0.8512,-1.82863 -4.3751,-2.18388 -1.5449,-0.15574 -3.9452,-0.53467 -5.3339,-0.84205 -1.3887,-0.30737 -4.9983,-1.04144 -8.0213,-1.63126 -3.2995,-0.64375 -7.9768,-1.90476 -11.702,-3.15486 -3.4131,-1.14534 -6.8439,-2.19671 -7.624,-2.33636 -1.9282,-0.34514 -4.7453,-1.39459 -8.236,-3.06809 -1.6044,-0.76914 -3.0759,-1.3002 -3.2702,-1.18016 -0.1942,0.12003 -0.7868,-0.0676 -1.3168,-0.41702 -0.53,-0.34943 -1.6914,-0.82066 -2.5809,-1.04719 -0.8895,-0.22655 -2.4151,-0.65588 -3.3903,-0.9541 -0.9751,-0.29822 -3.3828,-1.0279 -5.3503,-1.62154 -3.3309,-1.00496 -8.9792,-3.28139 -14.2097,-5.72686 -1.2203,-0.57053 -2.4647,-1.03729 -2.7654,-1.03729 -0.3006,0 -0.5467,-0.15546 -0.5467,-0.3455 0,-0.19003 -0.5186,-0.61322 -1.1524,-0.94041 -2.5964,-1.34024 -14.0859,-10.78007 -17.4903,-14.37007 -0.9895,-1.04336 -2.4941,-2.77469 -3.3437,-3.84737 -2.4452,-3.08724 -4.2454,-4.88881 -6.914,-6.91911 -1.3652,-1.03872 -3.616,-2.91316 -5.0018,-4.16546 -1.3858,-1.25232 -4.3532,-3.50319 -6.5943,-5.00193 -8.6628,-5.79349 -14.3624,-11.09811 -20.0298,-18.64183 -1.4015,-1.86551 -3.0614,-3.87056 -3.6886,-4.45566 -2.5827,-2.40902 -4.0952,-4.06312 -4.5884,-5.01761 -0.2872,-0.55588 -0.8881,-1.56176 -1.3354,-2.23526 -0.7241,-1.09035 -4.4636,-8.30705 -4.6445,-8.96314 -0.039,-0.1423 -0.4517,-1.11892 -0.9167,-2.17026 -1.0697,-2.4187 -3.4406,-9.91692 -3.5416,-11.20027 -0.042,-0.53365 -0.1673,-1.1174 -0.2784,-1.29722 -0.1112,-0.17986 -0.3214,-0.96407 -0.4672,-1.74272 -0.2446,-1.3063 -0.2185,-1.37708 0.3386,-0.91566 0.332,0.27507 0.5184,0.72215 0.4142,0.9936 -0.1041,0.27142 -0.037,0.39922 0.1497,0.28397 0.1864,-0.11524 1.2028,1.5919 2.2586,3.79362 1.1396,2.37675 1.7753,4.09435 1.5647,4.22765 -0.2035,0.12872 -0.072,0.3889 0.3082,0.60978 0.3647,0.21188 0.5321,0.3901 0.3719,0.39602 -0.1603,0.006 -0.041,0.26156 0.2659,0.56805 0.6323,0.63226 0.7295,1.21577 0.2026,1.21577 -0.195,0 -0.3546,0.25645 -0.3546,0.56985 0,0.3607 0.1951,0.49499 0.5316,0.36585 0.3746,-0.14373 0.8007,0.32698 1.4423,1.59303 0.5009,0.98839 0.9886,1.71906 1.084,1.62374 0.095,-0.0953 -0.076,-1.13428 -0.38,-2.30881 -0.3044,-1.17449 -0.8637,-3.64375 -1.243,-5.48728 -1.0355,-5.03247 -3.1725,-10.79624 -6.2754,-16.92553 -1.5309,-3.02412 -3.1446,-6.61451 -3.5859,-7.97865 -1.1877,-3.67124 -2.4847,-9.74117 -2.9482,-13.79737 -0.2247,-1.96697 -0.7779,-5.0125 -1.2293,-6.76781 -1.0491,-4.08002 -2.0217,-9.67897 -1.756,-10.1089 0.1128,-0.18255 -0.1295,-2.05186 -0.5384,-4.15393 -0.4089,-2.10214 -0.7406,-4.6997 -0.7371,-5.77237 0.01,-3.06366 -0.2928,-4.25528 -1.0817,-4.25528 -0.3744,0 -0.7697,-0.27925 -0.8784,-0.62056 -0.1086,-0.34131 -0.5759,-1.41843 -1.0384,-2.39359 -0.659,-1.38942 -0.8123,-2.21094 -0.7082,-3.79688 0.073,-1.11311 0.219,-2.16335 0.3244,-2.33384 0.1054,-0.1705 0.3006,-1.37414 0.4339,-2.67469 0.1332,-1.30059 0.3798,-2.36469 0.5479,-2.36469 0.1681,0 0.3056,-0.73762 0.3056,-1.63917 0,-1.49502 0.053,-1.59633 0.6,-1.15247 0.5112,0.41468 0.5555,0.41283 0.2992,-0.0124 -0.3775,-0.62631 -0.2829,-3.65402 0.1224,-3.91606 0.1657,-0.10713 0.4256,-0.59247 0.5775,-1.07853 0.2488,-0.79599 0.2176,-0.83502 -0.3149,-0.3931 -0.5146,0.42704 -0.5622,0.41519 -0.3679,-0.0914 0.1229,-0.32013 0.4286,-0.58206 0.6793,-0.58206 0.3182,0 0.465,0.65284 0.4863,2.16263 0.025,1.80311 -0.06,2.128 -0.5123,1.95438 -0.2984,-0.11453 -0.4535,-0.0641 -0.3447,0.11203 0.1089,0.17616 0,0.41219 -0.2475,0.52456 -0.245,0.11238 -0.1263,0.12795 0.2637,0.0344 0.6274,-0.15017 0.7092,0.01 0.7092,1.38786 0,0.85669 -0.1196,1.48364 -0.2659,1.39325 -0.1463,-0.0904 -0.266,-0.009 -0.266,0.18163 0,0.19028 0.155,0.39914 0.3444,0.46418 0.1894,0.065 0.3888,0.99584 0.4432,2.06852 0.105,2.07041 0.2294,2.33991 1.8208,3.94383 1.0294,1.0375 0.772,1.33651 -0.5441,0.63212 -0.7013,-0.37532 -0.7082,-0.35425 -0.2005,0.62056 0.7218,1.38622 2.7461,7.95942 2.7461,8.91728 0,1.25031 0.7055,0.8974 0.7453,-0.3728 0.1024,-3.27025 0,-5.69692 -0.3376,-8.42189 -1.5382,-12.22935 -1.6007,-13.75243 -1.1641,-28.36851 0.2302,-7.70382 0.581,-14.96439 0.7797,-16.13459 0.1986,-1.1702 0.9129,-3.74818 1.5873,-5.72883 0.6745,-1.98066 1.2263,-3.90748 1.2263,-4.28182 0,-0.37434 0.3785,-1.79359 0.8412,-3.15389 0.4627,-1.36029 1.1976,-4.06109 1.6333,-6.00176 0.4357,-1.94068 1.2805,-5.2838 1.8773,-7.42917 0.5969,-2.14537 1.1568,-4.61875 1.2443,-5.4964 0.088,-0.87765 0.311,-1.69149 0.4966,-1.80853 0.1855,-0.11704 0.3831,-0.43618 0.439,-0.70921 0.056,-0.27303 0.3695,-1.10183 0.6969,-1.84179 0.3274,-0.73996 0.4967,-1.50492 0.3761,-1.69991 -0.1205,-0.195 -0.067,-0.54701 0.1194,-0.78226 0.1861,-0.23525 0.3498,-0.98302 0.3637,-1.66171 0.014,-0.6787 0.1776,-1.28475 0.3637,-1.34678 0.1861,-0.062 0.2623,-0.40367 0.1693,-0.75918 -0.1201,-0.45944 0.076,-0.70795 0.6789,-0.8592 0.6497,-0.16309 0.988,-0.65743 1.4477,-2.11597 0.33,-1.04674 0.6,-2.16217 0.6,-2.47874 0,-0.31657 0.3396,-0.89201 0.7547,-1.27876 0.4538,-0.42273 0.6676,-0.93057 0.536,-1.27335 -0.1203,-0.3136 -0.07,-0.47802 0.1126,-0.36538 0.1822,0.11264 0.4987,-0.39769 0.7031,-1.13405 0.5707,-2.05479 0.4658,-2.53894 -0.3283,-1.51616 l -0.6883,0.88652 0.502,-1.68438 c 0.276,-0.92641 0.4158,-1.68438 0.3105,-1.68438 -0.1052,0 1.0194,-2.31295 2.4992,-5.13988 1.4798,-2.82693 2.6906,-5.38166 2.6906,-5.67717 0,-0.29551 0.3191,-0.81056 0.7092,-1.14454 0.3901,-0.33399 0.7092,-0.89272 0.7092,-1.24163 0,-0.75972 1.4835,-3.7943 1.8617,-3.80815 0.3891,-0.0142 0.3248,0.62125 -0.089,0.87678 -0.195,0.12054 -0.351,0.40921 -0.3467,0.64149 0,0.23228 0.3125,0.026 0.6847,-0.45845 0.4543,-0.59139 0.5494,-0.95947 0.2892,-1.12029 -0.2631,-0.16258 -0.2074,-0.41968 0.1734,-0.80043 0.3994,-0.39946 0.6018,-0.43823 0.703,-0.13468 0.078,0.23444 1.1483,-0.8441 2.3781,-2.39676 1.2298,-1.55265 2.3704,-2.87451 2.5347,-2.93746 0.1643,-0.063 0.4011,-0.65996 0.5261,-1.32668 0.1251,-0.66671 0.3695,-1.1244 0.5431,-1.01708 0.1737,0.10732 0.3158,-0.15931 0.3158,-0.59251 0,-0.4332 0.392,-1.45657 0.8711,-2.27416 l 0.8712,-1.48653 -0.8712,-0.46623 c -1.1798,-0.63145 -1.0969,-0.96591 0.1927,-0.77664 0.807,0.11844 1.0638,0.018 1.0638,-0.41602 0,-0.31469 0.214,-0.57216 0.4755,-0.57216 0.548,0 3.2508,-2.5576 3.813,-3.60812 0.2084,-0.38934 0.4709,-0.61583 0.5835,-0.50329 0.3546,0.35465 1.1563,-0.55371 1.1563,-1.3102 0,-0.39869 0.099,-0.62611 0.2195,-0.50538 0.3072,0.30717 1.2873,-0.7353 1.0509,-1.11775 -0.1062,-0.17197 0.1954,-0.6045 0.6704,-0.96117 0.5719,-0.42953 0.7523,-0.78257 0.534,-1.04551 -0.2157,-0.26 0.096,-1.05707 0.9028,-2.3097 0.6778,-1.05198 1.2323,-2.11412 1.2323,-2.36031 0,-0.5612 1.7158,0.12395 2.3823,0.95128 0.3714,0.46105 0.4336,0.42684 0.4433,-0.24401 0.01,-0.42913 -0.2456,-0.92397 -0.5595,-1.09963 -0.5245,-0.29356 -0.5245,-0.33711 0,-0.5384 0.3139,-0.12046 0.582,-0.58306 0.5957,-1.02801 0.023,-0.76404 0.041,-0.76958 0.314,-0.0998 0.264,0.6479 0.3118,0.62244 0.5525,-0.29447 0.1967,-0.7492 0.08,-1.25156 -0.4592,-1.98127 -0.4846,-0.65555 -0.6183,-1.14261 -0.4056,-1.47856 0.2239,-0.35366 0.3187,-0.37063 0.3225,-0.0577 0,0.24379 0.3119,0.44325 0.6865,0.44325 0.4808,0 0.7545,-0.33892 0.9306,-1.15247 0.2649,-1.22316 1.4101,-3.0888 2.19,-3.56785 0.5741,-0.35259 0.2173,-1.05884 -0.3687,-0.72984 -0.2824,0.15855 -0.2744,0.0796 0.024,-0.24244 0.2438,-0.26265 0.4559,-0.80467 0.4713,-1.20449 0.015,-0.39982 0.1088,-0.52648 0.2076,-0.28147 0.099,0.245 0.2924,0.37574 0.4303,0.29052 0.1379,-0.0852 0.2742,0.15659 0.3029,0.53736 0.029,0.38077 -0.096,0.60079 -0.277,0.48893 -0.181,-0.11186 -0.2408,0.0266 -0.1329,0.30775 0.1156,0.30145 0.4777,0.43751 0.8824,0.33167 0.8168,-0.2136 0.9142,0.48116 0.1815,1.29374 -0.4367,0.48429 -0.4367,0.65272 0,1.24817 0.4812,0.6561 0.5048,0.64267 0.5048,-0.28688 0,-0.53637 0.1383,-0.88978 0.3072,-0.78535 0.5407,0.33417 1.5754,-1.12922 1.2863,-1.81918 -0.2179,-0.51985 -0.323,-0.42661 -0.5851,0.5187 -0.3973,1.43354 -0.7927,1.52865 -0.4825,0.11605 0.2064,-0.93947 0.1509,-1.02146 -0.5923,-0.87651 l -0.8201,0.1599 0.8134,-0.35892 c 0.6303,-0.27815 0.7409,-0.49987 0.4912,-0.98517 -0.1772,-0.34444 -0.2392,-0.86034 -0.1376,-1.14646 0.1529,-0.43116 0.034,-0.42178 -0.693,0.0548 -0.8111,0.53142 -0.9051,0.53054 -1.2402,-0.0117 -0.5241,-0.84788 -0.2072,-1.42017 0.6946,-1.25434 0.4295,0.079 0.5814,0.0487 0.3376,-0.0672 -0.2438,-0.11593 -0.4433,-0.36267 -0.4433,-0.54831 0,-0.19808 0.2971,-0.17852 0.7192,0.0473 0.3955,0.21168 0.6459,0.50332 0.5564,0.64808 -0.089,0.14476 0.1211,0.28457 0.4678,0.31069 0.4759,0.0358 0.5921,-0.15331 0.474,-0.77134 -0.086,-0.45035 0.016,-0.92561 0.2274,-1.05611 0.2384,-0.14731 0.3039,-0.0286 0.1728,0.31304 -0.3013,0.78508 0.4418,0.68156 1.0185,-0.14191 0.2667,-0.38073 0.8342,-0.66591 1.2612,-0.63375 0.7774,0.0586 0.792,0.26163 0.1422,1.98747 -0.134,0.35605 0.02,0.4201 0.5806,0.24206 0.4725,-0.14998 0.7628,-0.0901 0.7628,0.15731 0,0.21968 0.1454,0.30959 0.323,0.19979 0.4498,-0.27798 0.2037,-1.45786 -0.2814,-1.3493 -0.2179,0.0488 -0.3645,-0.031 -0.3259,-0.1773 0.1482,-0.56116 -0.4925,-1.86174 -0.8181,-1.66053 -0.2007,0.12407 -0.3068,-0.31344 -0.2566,-1.05867 0.047,-0.69856 0.222,-1.27012 0.3886,-1.27012 0.1667,0 0.2113,-0.14854 0.099,-0.3301 -0.1122,-0.18156 -0.06,-0.41912 0.116,-0.52792 0.1761,-0.1088 0.4031,0.11953 0.5045,0.50741 0.2514,0.96118 0.9575,0.8938 0.9708,-0.0926 0.01,-0.71255 0.05,-0.73151 0.3723,-0.17731 0.1988,0.34131 0.5928,0.62056 0.8757,0.62056 0.2829,0 0.5143,0.15396 0.5143,0.34213 0,0.18818 0.3309,0.51926 0.7354,0.73575 0.6227,0.33323 0.765,0.28075 0.9279,-0.34213 0.1058,-0.40466 0.3334,-0.73575 0.5057,-0.73575 0.1723,0 0.3132,-0.15957 0.3132,-0.3546 0,-0.19504 -0.1197,-0.32928 -0.2659,-0.29831 -0.526,0.11133 -1.4988,-0.49213 -1.3033,-0.80845 0.1099,-0.17778 0.3498,-0.23055 0.5331,-0.11726 0.5327,0.3292 1.7764,-0.20401 1.5469,-0.6632 -0.1148,-0.22975 0.036,-0.11711 0.3346,0.25032 0.515,0.63318 0.8356,0.38151 6.1432,-4.82259 3.08,-3.01984 6.2518,-5.89894 7.0486,-6.39799 0.7968,-0.49905 2.6319,-1.25895 4.078,-1.68865 1.4461,-0.42971 2.749,-0.9629 2.8952,-1.18487 0.1891,-0.28693 0.3669,-0.24984 0.6152,0.12832 0.3263,0.49721 0.523,0.23815 0.382,-0.50328 -0.034,-0.17929 0.1863,-0.11986 0.4899,0.13207 0.4659,0.38662 0.5538,0.3545 0.5637,-0.20593 0.011,-0.61039 0.064,-0.60157 0.6576,0.10938 0.5113,0.61233 1.081,0.78964 2.7364,0.85158 1.9613,0.0734 2.277,-0.0366 5.1048,-1.77867 3.443,-2.12115 7.2924,-4.12423 9.3831,-4.88264 2.418,-0.87713 6.6156,-1.42685 7.8153,-1.02349 1.4701,0.4943 1.509,0.55435 0.7295,1.12436 -2.3147,1.69256 4.3142,-1.16824 11.1498,-4.81184 3.6081,-1.92325 7.6772,-3.92384 9.0424,-4.44575 9.9629,-3.80867 20.8,-6.53345 30.3189,-7.62316 1.8528,-0.21211 5.2836,-0.61196 7.624,-0.88856 4.26,-0.50346 8.9908,-0.61415 28.5458,-0.66792 11.2224,-0.0309 14.0749,0.2496 17.8011,1.75016 1.1117,0.44765 2.5462,0.92923 3.1879,1.07018 0.64178,0.14094 1.70885,0.66968 2.37132,1.17497 0.66247,0.5053 1.6215,0.94046 2.13118,0.96704 0.60398,0.0315 0.91122,0.24087 0.88225,0.60127 -0.0289,0.35978 0.18788,0.50821 0.62056,0.42489 0.36575,-0.0704 0.66745,0.0622 0.67043,0.29483 0.003,0.25489 0.14199,0.21158 0.34918,-0.10902 0.19441,-0.30082 0.34611,-0.35296 0.34918,-0.12002 0.006,0.45029 0.62531,0.44386 1.35879,-0.0141 0.25677,-0.16032 0.55243,-0.20591 0.65702,-0.10132 0.1046,0.1046 0.53872,0.0577 0.96472,-0.10431 0.46455,-0.17662 1.26602,-0.12738 2.00253,0.12303 0.67538,0.22963 1.67523,0.38125 2.22187,0.33693 0.57848,-0.0469 1.0721,0.12321 1.181,0.40699 0.10386,0.27066 0.64817,0.47447 1.22346,0.45811 0.57,-0.0162 1.356,0.25981 1.74668,0.61336 0.39068,0.35356 0.81434,0.53882 0.94147,0.41168 0.12713,-0.12713 0.4483,-0.0509 0.71369,0.16932 0.36836,0.30571 0.6539,0.24539 1.20675,-0.25493 0.56523,-0.51153 0.78613,-0.55522 1.00627,-0.19901 0.15514,0.25101 0.58422,0.40424 0.95352,0.3405 0.4473,-0.0772 0.63199,0.0617 0.55325,0.41603 -0.065,0.29255 10e-5,0.41361 0.14468,0.26903 0.14458,-0.14458 0.47703,-0.0851 0.73876,0.13207 0.35004,0.29051 0.47589,0.28969 0.47589,-0.003 0,-0.21892 -0.18617,-0.39803 -0.41371,-0.39803 -0.41243,0 -0.0945,-0.50435 0.3546,-0.56254 0.13003,-0.0168 0.51156,-0.15202 0.84786,-0.30039 0.38667,-0.1706 0.8164,-0.0648 1.16895,0.28773 0.33082,0.33082 0.98338,0.50793 1.60485,0.43557 0.57603,-0.0671 1.04733,0.0167 1.04733,0.18614 0,0.59109 0.66313,0.30271 0.88077,-0.38302 0.2981,-0.93922 1.10085,-0.60252 2.79227,1.17117 0.75245,0.78905 1.75054,1.63306 2.21798,1.87557 0.79532,0.41262 0.83655,0.38778 0.64216,-0.38675 -0.11425,-0.45523 -0.0352,-0.9343 0.1756,-1.0646 0.21084,-0.1303 0.38334,-0.0679 0.38334,0.13862 0,0.20654 0.39894,0.37553 0.88652,0.37553 0.89374,0 2.30494,1.09835 2.30494,1.79396 0,0.20655 0.15925,0.27712 0.35388,0.15683 0.50922,-0.31472 2.44847,0.91797 2.25153,1.43119 -0.091,0.23715 0.20309,0.52413 0.65355,0.63771 0.45046,0.11359 1.74162,0.98732 2.86926,1.94163 1.12763,0.9543 3.36973,2.38011 4.98244,3.16847 1.96139,0.95881 3.25591,1.85779 3.90995,2.71528 1.16498,1.52736 2.67827,2.34696 6.25577,3.3881 3.38253,0.98441 5.57461,1.79722 8.68785,3.2214 2.37647,1.08714 7.92675,4.24256 9.04246,5.14078 0.29255,0.23552 1.10304,0.61134 1.80108,0.83515 1.03904,0.33315 5.08506,2.71667 6.53217,3.8481 0.19503,0.1525 2.26149,1.46267 4.59214,2.9115 3.95618,2.45934 8.97862,6.69359 9.83286,8.28975 0.35153,0.65683 0.27853,0.68035 -1.41442,0.45578 -1.00044,-0.13272 -3.44331,-1.02893 -5.55763,-2.03891 -2.07491,-0.99116 -3.8469,-1.72776 -3.93777,-1.63689 -0.0909,0.0909 0.75655,0.8606 1.88317,1.7105 1.12661,0.84991 4.08294,3.52829 6.56961,5.95196 2.57508,2.50983 4.52123,4.16044 4.52123,3.83464 0,-0.37446 0.19256,-0.49814 0.55751,-0.3581 0.30663,0.11767 0.98481,-0.0976 1.50708,-0.47833 0.52226,-0.38075 1.21715,-0.79169 1.54421,-0.9132 0.64875,-0.24104 1.54126,0.56818 1.21282,1.09963 -0.11216,0.18147 0.0409,0.53317 0.34021,0.78155 0.29929,0.24838 0.46212,0.6654 0.36184,0.9267 -0.10656,0.27769 0.0709,0.48978 0.42712,0.51044 0.39216,0.0227 0.29337,0.13657 -0.27709,0.31926 -0.66471,0.21288 -0.34751,0.29276 1.26786,0.31926 l 2.15438,0.0353 1.79122,2.21629 c 3.90329,4.82955 13.85461,18.37216 15.95991,21.71964 2.67873,4.25915 3.84194,6.95948 5.79671,13.45638 1.27534,4.23867 1.70115,5.1872 3.09713,6.89907 2.56398,3.14418 4.72783,6.69041 6.18767,10.14069 l 1.3503,3.19146 -0.0971,-2.18227 c -0.0823,-1.85009 -0.016,-2.13797 0.43482,-1.89124 0.92619,0.50675 8.47494,13.94461 10.08652,17.95549 1.62445,4.04283 3.31969,10.41628 4.27762,16.08225 0.31322,1.85282 1.04314,5.54394 1.62197,8.2025 1.67381,7.68744 2.46458,22.97334 1.74803,33.78994 -0.22067,3.33119 -0.54269,9.2168 -0.71556,13.07917 -0.17287,3.86234 -0.41475,7.77187 -0.53751,8.68786 -0.46503,3.47003 -1.97207,11.05789 -2.48494,12.51156 -0.29386,0.8329 -0.70694,2.64274 -0.91794,4.02191 -0.21099,1.37917 -0.84009,3.94375 -1.39807,5.69905 -0.55793,1.7553 -1.5103,5.47225 -2.11636,8.25992 -0.60609,2.78767 -1.41012,5.96419 -1.78679,7.059 -0.37666,1.09478 -0.68527,2.48413 -0.68584,3.08746 -0.004,3.92354 -6.541,21.7319 -7.93414,21.61279 -0.46613,-0.0398 -0.51127,0.056 -0.20188,0.42875 0.49783,0.59985 0.1478,2.31363 -0.80095,3.92166 -0.75066,1.27226 -1.34562,1.55722 -1.34562,0.6445 0,-0.30407 0.15986,-0.45404 0.35528,-0.33329 0.19539,0.12077 0.51599,-0.20316 0.71244,-0.71985 0.41453,-1.09035 0.34528,-3.04242 -0.0982,-2.76831 -0.16599,0.10259 -0.19191,0.6868 -0.0576,1.29828 0.21947,0.99925 0.18571,1.06319 -0.33383,0.63202 -0.344,-0.28549 -0.57804,-0.32705 -0.57804,-0.10262 0,0.20741 0.15957,0.47574 0.35461,0.59627 0.50038,0.30925 0.44187,0.90439 -0.0784,0.79786 -0.26443,-0.0542 -0.525,0.53258 -0.66925,1.50708 -0.34167,2.30827 -0.58606,3.18376 -1.12588,4.03347 -0.26333,0.41453 -0.84573,1.67126 -1.29413,2.7927 -0.44844,1.12144 -0.95638,2.03899 -1.12875,2.03899 -0.17241,0 -0.31344,0.22109 -0.31344,0.49137 0,0.83687 -0.97977,2.46952 -1.16257,1.93729 -0.0904,-0.26308 -0.11036,-0.0457 -0.0444,0.48311 0.0713,0.57127 -0.1272,1.20822 -0.489,1.56953 -0.33493,0.33443 -0.62705,0.89878 -0.64918,1.2541 -0.022,0.35535 -0.32113,1.38176 -0.66453,2.2809 -0.44805,1.17318 -0.71056,1.49885 -0.92953,1.15321 -0.19872,-0.31365 -0.30709,-0.33609 -0.31064,-0.0644 -0.004,0.22947 -0.28467,0.49021 -0.62598,0.57943 -0.45532,0.11897 -0.40255,0.17312 0.19822,0.2033 0.48361,0.0245 0.72297,0.1962 0.58471,0.41992 -0.12876,0.20833 -0.46776,0.28911 -0.75332,0.17954 -0.38826,-0.14901 -0.46191,-0.0188 -0.29202,0.51662 0.14766,0.46532 0.0782,0.68174 -0.19844,0.61833 -0.23411,-0.0536 -0.5062,0.12411 -0.60464,0.39507 -0.11642,0.32042 -0.027,0.39868 0.25571,0.22397 0.29659,-0.18333 0.39138,-0.0582 0.29836,0.39389 -0.075,0.3644 -0.40946,0.64039 -0.74329,0.6133 -0.33382,-0.027 -0.60698,0.0926 -0.60698,0.26595 0,0.17337 -0.15957,0.31521 -0.3546,0.31521 -0.55071,0 -0.4183,-1.16974 0.23861,-2.10757 0.32628,-0.46581 0.40652,-0.73155 0.17837,-0.59052 -0.31039,0.19184 -0.324,0.006 -0.054,-0.73907 0.5785,-1.59584 1.15116,-2.59115 1.49087,-2.59115 0.17358,0 0.22379,0.14855 0.11159,0.33011 -0.11219,0.18155 -0.0596,0.41935 0.11695,0.52847 0.17926,0.11078 0.24731,-0.34805 0.15415,-1.03932 -0.12588,-0.93403 -0.0373,-1.23768 0.36085,-1.23768 0.35163,0 0.46627,-0.23468 0.34365,-0.70354 -0.10117,-0.38691 -0.0679,-1.14488 0.0738,-1.68438 0.2368,-0.90084 0.28141,-0.92301 0.54687,-0.27163 0.24252,0.59507 0.29305,0.5334 0.31397,-0.38315 0.0138,-0.60081 0.42319,-1.87739 0.90995,-2.83685 0.48677,-0.95946 0.8857,-1.94395 0.88652,-2.18774 0,-0.2438 0.13447,-0.44326 0.29698,-0.44326 0.16255,0 0.29553,-0.20004 0.29553,-0.44454 0,-0.61191 1.98377,-5.02402 2.32459,-5.17005 0.1517,-0.065 0.27585,-0.33727 0.27585,-0.60496 0,-0.26773 0.48687,-1.3125 1.08197,-2.32178 0.59506,-1.00925 1.1735,-2.29285 1.28545,-2.85246 0.12312,-0.61566 0.43102,-1.0196 0.77971,-1.02286 0.46818,-0.004 0.484,-0.0639 0.0844,-0.31691 -0.46298,-0.29319 -0.4573,-0.5046 0.0742,-2.77022 0.0559,-0.23815 0.21259,-0.544 0.34826,-0.67964 0.13567,-0.13567 0.24666,-0.45471 0.24666,-0.70896 0,-0.25429 0.41617,-1.3846 0.92478,-2.51182 2.85167,-6.31983 3.26121,-7.91889 3.29908,-12.88235 0.0206,-2.67501 0.24723,-4.12716 1.08006,-6.91482 0.92049,-3.08096 1.71381,-6.38121 2.26597,-9.42622 0.0895,-0.49368 0.56503,-2.17097 1.05669,-3.7273 0.49166,-1.55637 1.06854,-4.39581 1.28198,-6.30986 0.21343,-1.9141 0.50261,-3.65961 0.64265,-3.87897 0.14003,-0.2194 0.35198,-2.95206 0.47099,-6.07259 0.119,-3.12053 0.6257,-8.38644 1.12605,-11.70201 0.50031,-3.31556 0.98797,-7.70382 1.08364,-9.75167 0.0957,-2.04785 0.1045,-3.16484 0.0195,-2.48223 -0.264,2.12284 -1.57558,8.98582 -1.94122,10.15776 -0.285,0.91357 -0.4895,1.07952 -1.13055,0.91761 -0.81152,-0.20496 -1.30797,-0.7113 -1.29786,-1.32371 0.004,-0.19503 0.22017,-0.0721 0.48216,0.27312 0.439,0.57857 0.4763,0.55825 0.4763,-0.25947 0,-0.48797 -0.13961,-0.80091 -0.31028,-0.69545 -0.17063,0.10546 -0.3156,0.0627 -0.32209,-0.0951 -0.006,-0.1578 -0.0561,-3.71772 -0.11014,-7.91094 -0.11294,-8.75886 -0.81758,-16.84615 -1.52984,-17.55842 -0.26174,-0.26171 -0.47585,-0.62973 -0.47585,-0.81782 0,-0.39259 -0.84758,-0.77357 -1.71338,-0.77015 -0.39542,10e-4 -0.23887,0.23591 0.47226,0.70688 l 1.06382,0.70454 -0.99609,0.002 c -0.54787,10e-4 -0.91393,-0.13064 -0.81347,-0.29317 0.10046,-0.16253 -0.0427,-0.29551 -0.31808,-0.29551 -0.27538,0 -0.41854,0.13298 -0.31808,0.29551 0.10046,0.16253 0.0337,0.2955 -0.14858,0.2955 -0.18216,0 -0.43092,-0.49866 -0.55283,-1.10814 -0.30415,-1.52064 -0.27964,-1.80641 0.13298,-1.5514 0.64329,0.39757 0.36882,-0.36212 -0.35461,-0.98154 -0.79556,-0.68119 -0.94006,-1.86578 -0.26595,-2.18037 0.3546,-0.16548 0.3546,-0.24822 0,-0.4137 -0.2438,-0.11378 -0.44326,-0.73901 -0.44326,-1.38943 0,-1.97135 -0.2416,-2.25206 -1.76268,-2.04804 -1.1168,0.14979 -1.39431,0.0638 -1.54899,-0.48019 -0.14741,-0.51854 -0.17411,-0.49264 -0.12273,0.11907 0.0361,0.42996 -0.0939,0.76363 -0.28897,0.74149 -1.14257,-0.12974 -1.58214,-0.49086 -2.16157,-1.77583 -0.35514,-0.78753 -0.70556,-1.25233 -0.77868,-1.0329 -0.0732,0.21944 -0.35908,0.39898 -0.63535,0.39898 -0.27631,0 -0.50237,0.31914 -0.50237,0.70921 0,0.57158 -0.25805,0.72182 -1.32977,0.77417 -2.33548,0.11409 -3.09015,-0.0257 -3.63472,-0.67343 -0.44198,-0.52567 -1.22147,-0.65175 -4.60988,-0.74558 -2.24288,-0.0621 -5.35455,-0.25623 -6.91482,-0.43137 -4.12074,-0.46256 -9.41991,-0.47432 -10.57262,-0.0234 -0.54904,0.21475 -1.42669,0.39426 -1.95034,0.39891 -2.05016,0.0182 -3.73571,0.67796 -5.07616,1.98689 -0.81016,0.7911 -1.36913,1.12898 -1.36453,0.82481 0.0122,-0.80929 1.23673,-3.30117 1.88634,-3.83875 0.32347,-0.26767 0.58812,-0.76234 0.58812,-1.09927 0,-0.33692 0.47871,-1.27343 1.06381,-2.08114 0.5851,-0.80771 1.06382,-1.59673 1.06382,-1.75337 0,-0.50411 3.3633,-2.86836 5.41973,-3.80982 1.92931,-0.88326 1.98282,-0.94504 1.61946,-1.86989 -0.20667,-0.52604 -0.6551,-2.31173 -0.99652,-3.96819 l -0.62074,-3.01174 -3.86343,0.1539 c -2.12491,0.0847 -4.34216,0.16149 -4.92726,0.17075 -1.3708,0.0217 -1.58313,0.35591 -1.59297,2.50738 -0.0169,3.69827 -0.85252,6.6155 -5.17444,18.06478 -5.4193,14.35648 -5.42858,14.38153 -5.32709,14.38153 0.0452,0 1.42867,-0.45274 3.07428,-1.00609 1.64561,-0.55335 4.48598,-1.22526 6.31193,-1.49315 1.92424,-0.28229 3.3913,-0.67304 3.48967,-0.92945 0.26305,-0.68544 2.90561,-2.0941 5.12697,-2.73298 1.78643,-0.5138 2.21607,-0.52129 3.90067,-0.068 1.04119,0.28014 1.58193,0.51985 1.20161,0.53268 -0.42971,0.0145 -0.56396,0.14725 -0.3546,0.35067 0.18528,0.18003 0.76439,0.24338 1.2869,0.14077 0.67982,-0.1335 0.8896,-0.34399 0.73758,-0.74011 -0.29861,-0.77825 0.26805,-0.40425 3.63149,2.39667 1.56027,1.29933 3.87407,2.93769 5.14179,3.64079 1.26772,0.70311 3.71801,2.24669 5.44509,3.43017 3.21727,2.20464 3.6368,2.43475 3.22542,1.76911 -0.29826,-0.48256 -0.25223,-9.94171 0.0543,-11.16302 0.15174,-0.60459 0.40082,-0.84146 0.74563,-0.70913 0.31465,0.12073 0.45979,0.0247 0.36997,-0.24481 -0.0813,-0.24392 -0.3556,-0.4435 -0.60957,-0.4435 -0.25394,0 -0.59755,-0.36713 -0.76354,-0.81584 -0.19248,-0.52039 -0.17511,-0.73754 0.048,-0.59963 0.19241,0.11891 0.34982,0.035 0.34982,-0.18654 0,-0.71382 1.6476,1.54727 2.4593,3.37504 0.9668,2.17704 1.6709,10.172 1.18768,13.48579 -0.30769,2.11002 -0.30482,2.12034 0.88524,3.18071 1.3558,1.20806 1.29034,2.30493 -0.13759,2.30493 -0.46669,0 -0.84857,0.15957 -0.84857,0.3546 0,0.19504 0.12805,0.35461 0.28457,0.35461 0.15652,0 0.46262,0.75797 0.68024,1.68438 0.21759,0.92641 0.76297,2.64182 1.21198,3.81202 0.63137,1.64562 0.81871,2.85766 0.82683,5.34994 l 0.0106,3.22228 1.30548,0.63495 c 1.47584,0.71783 1.98977,1.75211 2.03289,4.09092 0.0259,1.39984 -0.1156,1.71183 -1.15031,2.53742 -2.87656,2.29525 -6.81291,2.27869 -17.61343,-0.0742 -7.5906,-1.6536 -11.57478,-3.18397 -13.73125,-5.27427 -2.54256,-2.46455 -3.91049,-6.19366 -2.71174,-7.39241 0.37567,-0.3757 0.48255,-0.8941 0.33567,-1.62849 l -0.21546,-1.07733 0.98059,0.93304 c 0.53936,0.51319 1.61892,1.16736 2.39906,1.45378 0.78013,0.28638 2.21629,0.83932 3.19145,1.22874 1.04297,0.41653 2.66537,0.71982 3.9401,0.73659 l 2.16704,0.0284 -0.29025,-1.49821 c -0.15964,-0.82403 -0.19794,-2.46905 -0.0851,-3.65564 l 0.20514,-2.15746 -1.57388,-0.92233 c -0.86567,-0.5073 -2.0419,-1.03775 -2.61384,-1.17878 -0.57198,-0.14103 -1.37183,-0.47109 -1.77746,-0.73347 -0.40564,-0.26237 -0.8407,-0.37389 -0.96684,-0.24776 -0.1261,0.1261 -0.33028,-0.034 -0.45372,-0.35553 -0.18109,-0.47191 -0.70325,-0.15652 -2.70483,1.63364 -2.68915,2.40515 -5.1547,4.43697 -5.87295,4.83988 -0.28567,0.16024 -0.64677,2.00973 -0.98045,5.02172 -0.29051,2.62242 -0.61786,5.05204 -0.72744,5.39913 -0.27047,0.85665 3.24358,2.46061 11.06067,5.0486 8.08463,2.67655 14.43822,5.93088 16.00288,8.19671 0.34553,0.50042 1.14687,1.51179 1.78073,2.24753 1.44601,1.67842 1.45367,2.56036 0.0319,3.67308 l -1.12059,0.87698 0.76623,3.84723 c 0.42145,2.11601 0.76613,4.76995 0.76599,5.89763 -1.4e-4,1.12772 0.25049,2.64367 0.55701,3.36876 0.30653,0.72514 0.6972,2.6498 0.86815,4.27705 l 0.31081,2.95866 -1.27651,1.92253 c -0.70205,1.0574 -1.2124,1.96761 -1.13406,2.02268 0.0783,0.0551 0.55393,0.27617 1.0569,0.49134 l 0.91453,0.39117 1.98055,-5.01793 c 2.40107,-6.08338 8.77179,-25.47406 10.9107,-33.20906 l 0.63737,-2.30493 0.45439,1.06382 c 0.55929,1.30934 0.53737,7.75867 -0.0434,12.76578 -0.81311,7.01075 -3.40993,15.99374 -7.53446,26.06356 -1.52116,3.71383 -1.80052,4.73868 -1.72297,6.32037 0.0568,1.15846 -0.0871,2.10948 -0.37247,2.46164 -0.32106,0.39623 -0.33113,0.4935 -0.0326,0.31421 1.02769,-0.61698 -0.60673,8.57807 -2.29111,12.88937 -0.11432,0.29255 -0.24156,0.65159 -0.28276,0.79787 -0.0412,0.14627 -0.10713,0.30585 -0.14642,0.3546 -0.0393,0.0488 -0.12978,0.40099 -0.20102,0.78273 -0.0713,0.3817 -0.27759,1.01999 -0.45844,1.41842 -0.18085,0.3984 -0.70872,1.59428 -1.17307,2.65753 -0.46432,1.06325 -1.70126,3.37706 -2.74877,5.14179 -1.04751,1.76473 -2.22239,3.76712 -2.61086,4.44974 -0.38847,0.68262 -1.32935,2.27835 -2.09083,3.54606 -3.29021,5.47764 -3.54383,5.82204 -3.88304,5.27314 -0.2228,-0.36049 -0.34372,-0.32102 -0.53379,0.17429 -0.19326,0.50365 -0.30972,0.53939 -0.54556,0.16737 -0.23078,-0.36411 -0.30106,-0.33272 -0.30525,0.13642 -0.004,0.36943 -0.19688,0.53595 -0.49159,0.4229 -0.26737,-0.10262 -0.58787,0.0785 -0.71219,0.40252 -0.12528,0.32652 -0.45159,0.50255 -0.73205,0.39489 -0.27833,-0.10677 -0.55624,-0.0482 -0.61758,0.13028 -0.0614,0.17844 -0.51049,0.38393 -0.99808,0.45666 -0.7341,0.10954 -0.90545,0.35514 -0.99658,1.42868 -0.10025,1.18115 -0.76117,1.89696 -0.78773,0.85318 -0.008,-0.30213 -0.14882,-0.26979 -0.44325,0.10156 -0.23759,0.29964 -0.71124,0.4874 -1.05255,0.41726 -0.3413,-0.0702 -0.62056,0.0684 -0.62056,0.30801 0,0.29702 -0.19737,0.25752 -0.62056,-0.12425 -0.51403,-0.46368 -0.72708,-0.48163 -1.24112,-0.1045 -0.34131,0.25038 -0.61811,0.83662 -0.61514,1.30271 0.004,0.475 0.11993,0.6783 0.26596,0.46255 0.1433,-0.21166 0.97861,-0.57974 1.85626,-0.81793 2.25703,-0.61262 2.56327,-0.6268 2.73958,-0.12699 0.0879,0.24933 -0.12808,0.44564 -0.49375,0.44869 -0.5033,0.004 -0.54074,0.0747 -0.16578,0.31226 0.37701,0.23887 0.21982,0.55986 -0.70922,1.44846 -0.65644,0.6279 -1.14747,1.42208 -1.09116,1.76488 0.16114,0.98084 -3.00858,7.4184 -4.80895,9.76671 -1.43892,1.87689 -4.49765,5.47682 -7.1672,8.43534 -2.91508,3.23067 -10.2674,9.33015 -15.0711,12.50299 -1.16733,0.77102 -3.65011,2.83802 -5.51729,4.59332 -1.86717,1.7553 -5.61947,4.82396 -8.33845,6.81922 -10.20979,7.49226 -13.90372,10.14107 -17.20996,12.3408 -3.71075,2.4688 -4.30781,3.01177 -3.93659,3.57999 0.15579,0.23844 2.45143,-0.70368 6.27398,-2.57472 6.48338,-3.17351 11.81043,-6.7967 30.11746,-20.48444 4.49901,-3.36379 9.37682,-6.95354 10.83957,-7.97718 1.46275,-1.02365 3.61698,-2.65902 4.78718,-3.63422 1.83935,-1.53279 5.91289,-4.20404 6.41104,-4.20404 0.40464,0 -1.18513,2.55686 -3.42426,5.50722 -3.06366,4.03676 -5.0019,5.71238 -16.82923,14.54885 -21.50672,16.06821 -24.36016,17.9251 -33.49749,21.79865 -2.43791,1.03346 -5.03691,2.25735 -5.77554,2.71976 -0.73863,0.46237 -1.53649,0.72956 -1.77303,0.59375 -0.24263,-0.13933 -0.30409,-0.10904 -0.14101,0.0694 0.16257,0.17791 -0.4581,0.52003 -1.41843,0.7818 -2.27089,0.61904 -2.25897,0.61521 -3.47329,1.11088 -0.58113,0.23719 -1.17709,0.62077 -1.32435,0.85236 -0.19009,0.29897 -0.27583,0.26681 -0.29564,-0.11085 -0.0155,-0.29478 -0.17641,-0.16127 -0.36098,0.2994 -0.1832,0.45723 -0.6518,0.91467 -1.04135,1.01651 -0.38954,0.10188 -0.70826,0.30057 -0.70826,0.44156 0,0.14099 -0.38838,0.43329 -0.86307,0.64956 -0.64995,0.29614 -0.90168,0.2883 -1.01949,-0.0319 -0.11578,-0.31454 -0.28313,-0.29627 -0.64401,0.0703 -0.41389,0.42042 -0.4123,0.45233 0.0105,0.21117 0.3115,-0.1777 0.41318,-0.14681 0.27148,0.0825 -0.32617,0.52776 -1.72056,0.85173 -1.42238,0.33046 0.12905,-0.22561 0.10406,-0.29188 -0.0555,-0.14731 -0.1596,0.14461 -0.54422,0.0648 -0.85471,-0.1773 -0.49486,-0.38585 -0.50672,-0.36631 -0.0961,0.15837 0.42136,0.53843 0.22996,0.67219 -1.90585,1.33186 -1.30584,0.40337 -2.87299,0.79836 -3.48256,0.87779 -0.60957,0.0794 -1.38756,0.25514 -1.72887,0.39043 -0.35886,0.14226 -0.62056,0.0852 -0.62056,-0.13539 0,-0.20979 -0.23431,-0.29152 -0.52069,-0.18163 -0.28639,0.10989 -0.48585,0.35496 -0.44326,0.54457 0.0718,0.3195 -3.78269,1.66377 -9.91847,3.45918 -1.40205,0.41024 -2.75842,0.95088 -3.01416,1.20137 -0.25573,0.25053 -1.74156,0.8312 -3.30182,1.29041 -1.56027,0.45922 -3.52815,1.1302 -4.37308,1.49112 -2.33536,0.99758 -6.26026,1.91279 -14.06645,3.27993 -3.9007,0.68312 -8.2092,1.50779 -9.5744,1.83254 -1.9661,0.46769 -4.731,0.61329 -13.2977,0.70017 -5.9486,0.0603 -11.7892,-0.0255 -12.9792,-0.19106 z m 34.4328,-24.99403 c 5.5368,-0.95489 9.88582,-2.35072 18.43955,-5.91828 4.04761,-1.68813 4.25716,-1.82604 4.29398,-2.82603 0.0308,-0.83595 -0.0782,-1.00237 -0.53191,-0.81255 -0.98232,0.41092 -3.60174,1.20829 -8.19465,2.49455 -4.06129,1.1374 -5.06479,1.27279 -11.97997,1.61651 -7.2702,0.36135 -7.6219,0.34791 -9.5744,-0.36546 -1.1148,-0.4073 -3.3035,-0.83226 -4.8638,-0.94435 -1.5603,-0.11209 -3.4352,-0.27031 -4.1666,-0.35155 -0.7314,-0.0813 -1.3298,0.007 -1.3298,0.19641 0,0.18929 -0.1596,0.34418 -0.3546,0.34418 -0.195,0 -0.3546,-0.23936 -0.3546,-0.53191 0,-0.29255 -0.2394,-0.53191 -0.5319,-0.53191 -0.2926,0 -0.5319,-0.14095 -0.5319,-0.31326 0,-0.17226 -0.3192,-0.39669 -0.7092,-0.49868 -0.5596,-0.14634 -0.7093,-0.48372 -0.7093,-1.5986 0,-1.31201 0.099,-1.45279 1.3854,-1.96743 2.0338,-0.81378 10.0299,-1.45023 12.4949,-0.99456 1.1826,0.21862 4.6153,0.28705 8.5018,0.16947 5.96281,-0.18036 6.69311,-0.27383 8.56882,-1.09669 l 2.05047,-0.89953 -0.6832,-0.74429 c -0.37575,-0.40935 -1.34364,-1.77452 -2.15085,-3.03372 -1.119,-1.74552 -1.84931,-2.47335 -3.07424,-3.0637 -0.8836,-0.42584 -1.8831,-0.70194 -2.2212,-0.61354 -0.4022,0.10518 -0.7906,-0.16794 -1.1236,-0.79017 -0.2799,-0.52297 -1.6848,-2.04905 -3.122,-3.39127 -1.4373,-1.34222 -2.4374,-2.4404 -2.2227,-2.4404 0.2148,0 0.3906,-0.23936 0.3906,-0.53191 0,-0.33096 0.3349,-0.53191 0.8865,-0.53191 1.1556,0 1.1421,-0.69712 -0.062,-3.19146 -0.5176,-1.07268 -0.9126,-2.07714 -0.8778,-2.23214 0.1884,-0.83712 -1.3086,-4.68789 -2.7853,-7.16493 -1.6383,-2.74795 -3.0492,-5.31381 -5.0301,-9.14753 -2.1234,-4.10942 -1.6132,-8.7171 1.6667,-15.05151 2.3407,-4.52077 2.8245,-7.26113 1.8083,-10.24355 -0.3232,-0.94828 -0.7681,-3.24081 -0.9889,-5.09448 -0.2207,-1.85364 -0.4502,-3.43053 -0.5099,-3.50422 -0.06,-0.0737 -0.9172,0.59311 -1.9056,1.48172 -2.6648,2.39586 -6.3611,4.71751 -11.1569,7.00748 -14.7668,7.05106 -23.2731,10.87766 -24.8294,11.16964 -0.9517,0.17851 -1.5262,0.83765 -4.0174,4.60903 -1.5988,2.4204 -3.1328,5.00162 -3.4087,5.73608 -1.8749,4.98973 -2.4961,6.50603 -3.4552,8.43317 l -1.0817,2.17335 1.0638,2.10725 c 0.585,1.15896 1.7186,2.89975 2.5191,3.86843 1.6286,1.97087 1.8788,2.84292 0.709,2.47164 -0.7001,-0.22219 -0.7312,-0.14666 -0.5008,1.21722 0.2476,1.46563 -0.025,1.81265 -0.8095,1.02861 -0.8757,-0.8757 -0.4326,0.63081 0.6,2.04005 0.974,1.32914 3.048,4.93708 4.7285,8.2258 0.6704,1.31187 0.9214,1.50708 1.9375,1.50708 1.143,0 4.1352,-1.15087 8.502,-3.27007 1.9093,-0.92659 2.4021,-1.39052 3.8857,-3.65816 0.9344,-1.42832 1.8319,-2.51486 1.9942,-2.41451 0.3696,0.2284 0.021,4.08006 -0.5406,5.97398 -0.2313,0.78013 -0.9023,1.96189 -1.491,2.62607 -3.5751,4.03344 -6.0571,6.3871 -7.8717,7.46457 -1.1351,0.67404 -2.4687,1.55169 -2.9636,1.95034 -0.4948,0.39868 -2.0033,1.28335 -3.3523,1.96597 -2.2368,1.1319 -2.7194,1.24077 -5.4832,1.23726 -3.3246,-0.004 -5.0597,-0.58631 -5.2821,-1.77187 -0.073,-0.38857 -0.3541,-0.83414 -0.6249,-0.99009 -0.5513,-0.31752 -0.6735,-2.22214 -0.1628,-2.53778 0.3755,-0.23212 -2.4004,-6.3349 -3.9266,-8.63246 -0.557,-0.83868 -1.0129,-1.64378 -1.0129,-1.78917 0,-0.14535 -0.878,-1.85275 -1.9512,-3.79421 -1.0733,-1.94147 -2.1353,-4.08635 -2.3602,-4.76637 -0.8828,-2.66959 -2.0548,-4.77332 -2.6799,-4.81038 -0.348,-0.0206 -1.0886,-0.0648 -1.6458,-0.0982 -0.811,-0.0486 -0.9644,-0.18446 -0.7691,-0.68123 0.1342,-0.34131 0.3976,-1.578 0.5854,-2.7482 0.7275,-4.53311 3.5618,-14.43499 5.6435,-19.71653 0.7396,-1.87619 0.545,-2.80097 -0.5894,-2.80097 -0.3938,0 -0.4885,-1.05772 -0.4885,-5.4531 l 0,-5.4531 1.8033,-1.96877 c 2.3122,-2.52451 3.8109,-3.20224 9.6011,-4.34166 4.3267,-0.85144 8.8398,-2.26937 9.6769,-3.04029 0.1945,-0.17911 -1.0832,-0.31024 -3.0234,-0.31024 -4.774,0 -8.6072,-0.55624 -12.1983,-1.77013 -3.0942,-1.04587 -3.1488,-1.05098 -9.0076,-0.84112 -6.488,0.23241 -10.8601,-0.13411 -15.3933,-1.29034 l -2.9139,-0.74326 -3.0134,1.71381 c -1.6574,0.94262 -4.1304,2.44643 -5.4957,3.34188 -2.9264,1.91938 -8.1379,4.57666 -10.633,5.42169 -1.7147,0.58066 -1.7852,0.5774 -2.3405,-0.10837 -0.5601,-0.69163 -0.6006,-0.67358 -1.8544,0.82641 -2.591,3.09968 -4.2385,7.73829 -5.0358,14.17865 -0.8698,7.02524 -0.9667,6.6428 2.0448,8.06814 1.414,0.66921 3.4485,1.50704 4.5212,1.86183 2.7111,0.89662 2.5907,0.84747 3.2887,1.34179 0.5223,0.36986 0.8637,0.31766 2.0106,-0.30734 1.0476,-0.57091 1.3324,-0.6252 1.1788,-0.22471 -0.1692,0.44088 -0.075,0.45968 0.5717,0.11369 0.7275,-0.38933 0.7604,-0.35425 0.5435,0.57932 -0.3385,1.45668 -0.9914,2.36253 -2.7289,3.78627 -1.6971,1.39066 -3.6991,2.34927 -4.9063,2.34927 -0.857,0 -5.9765,1.83608 -5.9826,2.14565 0,0.10741 0.7542,0.56304 1.6806,1.01251 3.5836,1.73863 6.5137,3.66829 9.0125,5.93508 1.4305,1.29771 3.1852,2.8877 3.8994,3.53333 0.7142,0.64563 1.7244,1.2808 2.2449,1.41144 0.5205,0.13064 1.03,0.45542 1.1322,0.72176 0.1022,0.26631 0.3035,0.41153 0.4473,0.32263 0.1438,-0.0889 2.1512,0.86233 4.4609,2.1138 2.3098,1.25148 4.6467,2.46062 5.1933,2.68703 0.5466,0.22642 0.9066,0.55269 0.8001,0.7251 -0.1066,0.17241 0.1153,0.31344 0.493,0.31344 0.3776,0 0.8853,0.23936 1.1281,0.53191 0.2428,0.29255 0.6368,0.53191 0.8755,0.53191 0.9171,0 5.1381,2.4904 7.2219,4.26095 0.4555,0.38694 1.0184,0.70353 1.251,0.70353 0.2327,0 0.6748,0.27926 0.9826,0.62057 0.706,0.78297 2.1654,1.85827 3.6086,2.6588 0.6145,0.34088 2.0779,1.56023 3.2519,2.70965 2.4736,2.42175 4.2908,3.28014 11.2552,5.31668 2.5919,0.7579 5.3144,1.62946 6.0498,1.93676 2.1239,0.8874 5.4917,1.63534 8.9428,1.98601 6.4202,0.65236 12.8078,1.44299 14.4677,1.79072 0.936,0.1961 2.9306,0.36227 4.4325,0.36929 4.0541,0.0188 9.3077,0.80283 10.4546,1.55991 0.5425,0.35812 2.1382,0.93223 3.5461,1.2758 1.4078,0.34362 3.4374,0.95326 4.5101,1.35478 1.0727,0.40152 2.1897,0.66566 2.4822,0.58694 0.2926,-0.0787 2.9255,-0.55591 5.851,-1.06048 z m -24.9997,-6.71869 c -1.0727,-0.25259 -2.1099,-0.50656 -2.305,-0.56447 -0.195,-0.0579 -0.6214,0.0121 -0.9474,0.15568 -0.3261,0.14351 -0.914,0.0891 -1.3065,-0.121 -0.3925,-0.21003 -1.1116,-0.38191 -1.5981,-0.38191 -0.4865,0 -1.1234,-0.23889 -1.4154,-0.53088 -0.292,-0.29198 -0.7659,-0.4407 -1.0533,-0.33045 -0.2873,0.11028 -0.6128,0.0541 -0.7233,-0.12468 -0.1105,-0.17887 0.2723,-0.33862 0.8506,-0.35507 0.5784,-0.0163 1.0516,0.10191 1.0516,0.26305 0,0.16113 0.2572,0.39162 0.5714,0.51222 0.4089,0.15688 0.5129,0.0668 0.3658,-0.31669 -0.1131,-0.29475 -0.051,-0.53592 0.1378,-0.53592 0.1889,0 0.3435,0.14464 0.3435,0.32141 0,0.17677 0.3191,0.23794 0.7092,0.13592 0.3965,-0.10368 0.7092,-0.011 0.7092,0.21053 0,0.21777 0.169,0.39596 0.3755,0.39596 0.2066,0 0.2769,-0.15958 0.1564,-0.35461 -0.1205,-0.19503 -0.05,-0.35461 0.1564,-0.35461 0.2065,0 0.3755,0.16901 0.3755,0.37553 0,0.21156 0.1936,0.25475 0.4433,0.0989 0.7772,-0.48506 1.8013,-0.50389 2.0967,-0.0386 0.1849,0.29142 0.2879,0.30879 0.2914,0.0492 0.01,-0.59379 2.7189,-0.52872 4.2981,0.10316 1.1747,0.47003 1.2931,0.61417 0.8603,1.04701 -0.7419,0.74187 -2.2482,0.85722 -4.4437,0.34028 z m 3.9006,-0.75028 c 0,-0.0645 -0.308,-0.0942 -0.6846,-0.0658 -0.3766,0.0284 -0.6108,0.17106 -0.5206,0.31709 0.1498,0.24237 1.2052,0.0223 1.2052,-0.25131 z m -1.773,-0.19606 c 0,-0.13046 -0.3191,-0.32071 -0.7092,-0.42269 -0.4163,-0.1089 -0.7092,-0.011 -0.7092,0.23723 0,0.23251 0.3191,0.42273 0.7092,0.42273 0.3901,0 0.7092,-0.10678 0.7092,-0.23727 z m 57.11103,-14.73797 c 1.14597,-1.05003 1.44962,-1.0401 2.79438,0.0915 l 1.09517,0.92155 5.38256,-2.37175 c 2.9604,-1.30445 7.54626,-3.08585 10.19079,-3.95864 2.64452,-0.8728 5.83883,-2.16147 7.09844,-2.86377 1.25963,-0.70226 3.70363,-1.7815 5.43113,-2.39831 l 3.14091,-1.12144 -2.41697,-0.40099 c -1.32934,-0.22053 -3.5873,-0.50489 -5.01769,-0.63187 -1.43039,-0.12698 -4.53453,-0.81173 -6.89809,-1.52165 -4.02301,-1.20839 -4.29589,-1.3474 -4.27401,-2.17732 0.0128,-0.48758 0.13294,-1.14194 0.26686,-1.45417 0.13392,-0.31219 0.2068,-0.71113 0.16196,-0.88651 -0.0448,-0.17536 0.21639,-0.91776 0.5805,-1.64977 0.6494,-1.30556 0.64893,-1.34081 -0.0248,-1.85041 -0.37773,-0.28571 -0.94597,-0.52457 -1.26276,-0.53078 -1.50741,-0.0294 -3.91452,-1.33126 -7.98886,-4.32034 -6.86873,-5.03913 -8.43921,-6.81483 -10.41532,-11.77616 -1.35125,-3.39252 -1.61141,-4.80005 -2.2704,-12.28328 -0.28339,-3.21805 -0.80817,-6.80039 -1.16616,-7.96073 l -0.65091,-2.10977 -1.92795,2.99629 c -1.06038,1.64792 -2.7568,4.53796 -3.76983,6.42224 -1.01303,1.8843 -2.50464,4.26445 -3.31467,5.28923 -2.05834,2.60398 -2.40722,3.39628 -3.00503,6.82433 -0.28915,1.65814 -0.9372,4.74424 -1.44011,6.85805 -0.5029,2.11381 -1.0716,4.96027 -1.26377,6.3255 -0.19216,1.36524 -0.50144,2.84128 -0.68729,3.28011 -0.25526,0.60272 -0.21955,0.79786 0.146,0.79786 0.26614,0 0.74564,0.5984 1.06554,1.32978 0.3199,0.73137 0.8168,1.78154 1.10422,2.3337 0.28742,0.55212 0.52849,1.19041 0.53572,1.41842 0.0222,0.7017 4.10396,7.70393 4.34832,7.45957 0.12632,-0.12635 0.87265,0.3512 1.6585,1.06116 0.78585,0.70996 1.67006,1.29084 1.96492,1.29084 0.29485,0 0.8292,0.48198 1.18743,1.07105 l 0.65133,1.07102 2.67555,-3.81922 c 1.47155,-2.10058 3.24742,-4.85647 3.94638,-6.12419 3.231,-5.86015 4.47213,-5.51526 4.46622,1.24112 -0.004,4.00546 -1.78155,9.66841 -4.43339,14.12003 -0.67669,1.13598 -1.23034,2.14675 -1.23034,2.24619 0,0.2874 2.56927,-1.32559 3.56547,-2.23842 z m 57.42681,-21.404 c 2.42185,-1.41531 7.49556,-5.45214 9.42652,-7.5001 0.79634,-0.84457 2.06858,-2.41324 2.8272,-3.48592 0.75863,-1.07269 4.31216,-5.91125 7.89674,-10.75234 6.68828,-9.03278 16.42286,-23.22781 18.52496,-27.01323 0.64985,-1.1702 1.26949,-2.20743 1.37697,-2.30494 0.10749,-0.0975 0.55241,-0.93528 0.98868,-1.86169 0.43631,-0.9264 0.96432,-1.68438 1.17339,-1.68438 0.20908,0 0.28153,-0.15957 0.161,-0.3546 -0.12053,-0.19504 -0.0502,-0.35461 0.15638,-0.35461 0.20652,0 0.37553,-0.2079 0.37553,-0.46205 0,-0.25411 0.46113,-1.09187 1.02474,-1.86168 1.58257,-2.16154 3.22684,-5.08484 2.9488,-5.24254 -0.13759,-0.078 -0.88847,-0.25659 -1.6686,-0.39677 -1.95757,-0.35173 -7.35007,-2.46451 -9.99784,-3.91716 -2.84576,-1.56126 -7.53603,-5.50742 -10.1576,-8.54615 -2.2883,-2.65242 -4.10753,-6.13075 -4.39819,-8.40927 -0.10407,-0.81578 -0.39841,-1.89828 -0.6541,-2.40562 -0.30492,-0.60503 -0.34481,-1.0425 -0.11592,-1.2714 0.19194,-0.19192 0.38323,-1.09219 0.42509,-2.00062 0.0745,-1.61569 0.10154,-1.65169 1.2447,-1.6541 1.30912,-0.004 1.60415,0.26394 4.85972,4.39301 1.71101,2.17008 2.54427,2.8989 4.25528,3.72191 1.1702,0.5629 3.07234,1.7587 4.22698,2.65738 1.15463,0.89865 2.15097,1.58233 2.21402,1.51924 0.21936,-0.21932 -3.00721,-8.59267 -4.64371,-12.05108 -0.90581,-1.91427 -1.74336,-3.96251 -1.86119,-4.55173 -0.2694,-1.34693 -0.98198,-1.63313 -2.23026,-0.89577 -0.60581,0.35787 -2.56795,0.72287 -5.19091,0.96563 -8.25605,0.76407 -8.10264,0.72801 -8.22965,1.93399 -0.0616,0.5851 -0.73757,4.75914 -1.5021,9.27565 -1.34031,7.91797 -1.38598,8.45729 -1.27617,15.07077 0.0626,3.7724 0.0205,10.28975 -0.0936,14.48297 -0.19939,7.32574 -0.24119,7.67261 -1.06826,8.86516 -0.79263,1.14289 -3.76848,4.25527 -4.06861,4.25527 -0.0714,0 -0.21834,-0.3389 -0.32666,-0.75311 -0.15561,-0.59507 -0.37902,-0.70741 -1.0646,-0.53532 -0.55647,0.13965 -1.02381,0.0294 -1.30302,-0.3068 -0.23945,-0.28854 -0.57686,-0.43716 -0.74979,-0.33025 -0.17294,0.10688 -0.31443,0.0255 -0.31443,-0.18124 0,-0.20652 -0.23435,-0.37552 -0.52078,-0.37552 -0.34004,0 -0.44219,0.20478 -0.29435,0.5901 0.14856,0.38712 0.0886,0.50489 -0.17421,0.34244 -0.29618,-0.18305 -0.30025,0.0404 -0.0156,0.85691 0.27032,0.77541 0.2743,1.33374 0.0134,1.87381 -0.20441,0.42315 -0.46248,1.19055 -0.57349,1.70537 -0.34541,1.60197 -1.09709,1.47385 -1.07475,-0.18319 0.0109,-0.80414 -0.16154,-2.0947 -0.38308,-2.86791 -0.36466,-1.27276 -0.43978,-1.33988 -0.79373,-0.70922 -0.36484,0.65014 -0.4071,0.65468 -0.63306,0.0682 -0.20366,-0.52864 -0.33416,-0.44754 -0.8217,0.51078 -0.74578,1.46587 -1.46612,1.71243 -1.46612,0.50184 0,-1.58612 -1.31245,-0.81166 -1.5006,0.88549 -0.16313,1.47129 -1.10517,2.20522 -2.4588,1.91558 -1.78969,-0.38294 -2.26445,-0.89471 -1.28361,-1.38371 0.44228,-0.22049 0.85431,-0.66134 0.91561,-0.97967 0.0938,-0.48734 -0.0848,-0.53446 -1.13158,-0.2984 -0.68367,0.15422 -1.30919,0.21418 -1.39005,0.13333 -0.0809,-0.0808 -0.41848,0.26727 -0.75025,0.77361 -0.49096,0.74932 -0.78816,0.88006 -1.59682,0.70244 -0.67457,-0.14816 -2.68063,0.30553 -6.24774,1.413 -3.75025,1.16431 -6.32654,1.73558 -9.00075,1.99583 -5.85875,0.57013 -6.55301,0.66563 -7.03783,0.96804 -0.2499,0.15585 -1.06388,2.62057 -1.80884,5.47714 l -1.35448,5.19371 0.68344,1.51601 c 0.3759,0.83378 1.24212,3.19149 1.92494,5.23934 2.14758,6.44086 3.30764,8.49357 6.05282,10.71042 l 2.40322,1.94073 3.75881,0.24241 3.75879,0.24237 0.21467,-2.93323 c 0.11807,-1.61328 0.70052,-4.65034 1.29434,-6.74901 0.59381,-2.09867 1.07966,-4.13822 1.07966,-4.53237 0,-0.39414 0.21928,-0.80073 0.48728,-0.9036 0.268,-0.10284 0.77492,-0.72109 1.12648,-1.37389 0.60088,-1.11577 0.60355,-1.24133 0.0446,-2.09434 -0.78516,-1.19832 -0.75087,-1.38243 0.2033,-1.09166 2.07716,0.63301 2.97116,2.35853 4.7475,9.16321 1.05127,4.02709 1.32462,5.76228 1.40133,8.89533 0.0608,2.48427 0.23929,3.94032 0.49336,4.025 0.21894,0.073 1.3126,-0.76443 2.43037,-1.86087 2.50792,-2.46005 4.99579,-4.28237 7.35278,-5.38569 1.55516,-0.72801 1.92575,-0.78219 2.74544,-0.40159 1.2672,0.58847 1.20115,1.18839 -0.40353,3.66517 -1.40621,2.17044 -3.07598,3.70383 -6.48989,5.9598 -1.85547,1.22612 -1.96768,1.37772 -1.59862,2.15977 0.39489,0.83676 0.40238,0.83772 1.46363,0.19049 0.58669,-0.3578 1.94436,-1.16343 3.01704,-1.7903 z m 6.82618,-11.97835 c -0.63386,-0.064 -1.15247,-0.18181 -1.15247,-0.26177 0,-0.0799 0.35298,-0.87191 0.78441,-1.75991 0.58281,-1.1996 1.06129,-1.68988 1.86168,-1.90764 0.60632,-0.16493 1.25725,-0.15334 1.48896,0.0266 0.25597,0.19876 0.51142,0.1583 0.67535,-0.10695 0.1777,-0.28755 0.10128,-0.34237 -0.23438,-0.16822 -0.27393,0.14209 -0.18075,0 0.20707,-0.31209 0.4208,-0.34046 0.75473,-0.42166 0.82815,-0.20142 0.0677,0.20301 0.30887,0.27617 0.536,0.16255 0.22713,-0.11358 0.0607,0.105 -0.36981,0.48571 -0.43054,0.3807 -0.70044,0.77453 -0.59979,0.8752 0.10065,0.10064 -0.0485,0.73716 -0.33154,1.41445 -0.5711,1.36683 -1.79061,1.9458 -3.69363,1.75353 z m 5.05314,-5.39059 c 0.12053,-0.19503 0.28952,-0.3546 0.37553,-0.3546 0.086,0 0.15637,0.15957 0.15637,0.3546 0,0.19504 -0.16899,0.35461 -0.37553,0.35461 -0.20654,0 -0.27691,-0.15957 -0.15637,-0.35461 z m 0.1773,17.73032 c 0,-0.19503 -0.0704,-0.35461 -0.15638,-0.35461 -0.086,0 -0.25499,0.15958 -0.37553,0.35461 -0.12054,0.19503 -0.0502,0.35461 0.15637,0.35461 0.20655,0 0.37554,-0.15958 0.37554,-0.35461 z m 2.01526,-2.19413 c -0.11319,-0.28287 -0.19722,-0.19886 -0.21423,0.21426 -0.0154,0.37382 0.0684,0.58325 0.18624,0.46542 0.11783,-0.11784 0.13043,-0.42369 0.028,-0.67968 z m 7.95896,-1.9725 c 0.44106,-0.5624 0.42854,-0.57495 -0.1339,-0.13386 -0.34131,0.26766 -0.62056,0.54691 -0.62056,0.62056 0,0.29184 0.2912,0.10401 0.75446,-0.4867 z M -905.951,827.2381 c 0.12054,-0.19504 0.0502,-0.35461 -0.15637,-0.35461 -0.20654,0 -0.37553,0.15957 -0.37553,0.35461 0,0.19503 0.0704,0.3546 0.15637,0.3546 0.086,0 0.255,-0.15957 0.37553,-0.3546 z m 15.51545,-8.2446 c 0.11631,-0.34556 0.27914,-0.33599 0.73879,0.0434 0.38325,0.31638 0.58956,0.34741 0.58956,0.0887 0,-0.21893 0,-0.47783 0,-0.57535 0,-0.0975 -0.10184,-0.16365 -0.22631,-0.14702 -0.12446,0.0167 -0.35669,-0.18067 -0.51602,-0.4385 -0.22588,-0.36546 -0.44953,-0.29727 -1.01481,0.3095 -0.39883,0.42804 -0.7251,0.86474 -0.7251,0.97041 0,0.39472 1.01056,0.17479 1.15389,-0.25113 z m 4.69711,-2.03899 c -0.12053,-0.19503 -0.40921,-0.35215 -0.64148,-0.34918 -0.25376,0.004 -0.21003,0.14266 0.10957,0.34918 0.68124,0.44028 0.804,0.44028 0.53191,0 z m -258.93906,-1.02988 c 0.3346,-0.56641 0.6084,-1.35523 0.6084,-1.75292 0,-0.39766 0.3405,-0.96159 0.7568,-1.25315 0.7086,-0.4963 0.7291,-0.63886 0.3209,-2.23639 -0.5166,-2.02161 -0.5227,-15.3702 -0.01,-18.9047 0.5095,-3.50344 0.4626,-3.87521 -0.5371,-4.25528 -0.8113,-0.30847 -0.8865,-0.51971 -0.8865,-2.49107 0,-1.1847 0.229,-2.59692 0.509,-3.13823 0.6225,-1.20378 2.9417,-3.33954 4.5032,-4.14702 1.4707,-0.76055 5.5258,-1.92568 6.702,-1.92568 0.4956,0 2.2514,-0.5722 3.9018,-1.27152 1.6505,-0.69935 5.0273,-2.12384 7.5042,-3.16557 6.4414,-2.70919 11.6682,-5.64934 15.4432,-8.68711 2.8845,-2.32111 3.2801,-2.77429 3.2801,-3.7567 0,-1.4687 0.7431,-2.10983 1.7937,-1.54757 0.4264,0.22819 1.2355,0.32284 1.798,0.21032 0.7646,-0.15294 1.1279,-0.0361 1.4396,0.46294 0.3401,0.54464 0.5845,0.60354 1.3275,0.31999 1.1302,-0.4313 2.367,-0.0861 12.5777,3.51043 7.2482,2.55306 12.0032,2.79486 21.8433,1.11091 2.2942,-0.39262 6.8885,-1.57516 9.9289,-2.55568 1.9224,-0.61993 1.7254,-0.70021 -3.546,-1.44605 -2.2429,-0.3173 -6.5458,-1.2113 -9.5619,-1.98665 -5.2996,-1.36232 -5.539,-1.46392 -7.1209,-3.02209 l -1.637,-1.6124 -2.297,0.36695 c -1.2633,0.2018 -4.4418,0.52474 -7.0633,0.71758 -3.9879,0.2934 -5.3532,0.25351 -8.3591,-0.24422 l -3.5928,-0.59485 -3.1447,1.44623 c -7.1925,3.30762 -11.9194,4.0102 -27.79,4.13059 -2.5952,0.0199 -3.9387,-0.16 -5.851,-0.78254 -5.5542,-1.80811 -10.1359,-4.81995 -13.4109,-8.81587 -1.2055,-1.4708 -3.1453,-3.56918 -4.3107,-4.66307 -1.1654,-1.09393 -3.1435,-2.98629 -4.3957,-4.20524 -1.7264,-1.68055 -2.524,-2.21629 -3.2999,-2.21629 -0.6548,0 -1.1019,0.22343 -1.2418,0.62056 -0.3512,0.99697 -1.8866,2.9255 -2.329,2.9255 -0.2234,0 -0.9923,0.4062 -1.7087,0.90269 l -1.3025,0.90265 -1.8745,-0.71223 c -1.0309,-0.39173 -2.0272,-0.6178 -2.214,-0.50234 -0.1868,0.11543 -0.2699,1.05074 -0.1847,2.07846 l 0.155,1.86852 -0.9128,-0.40425 c -1.7243,-0.76375 -2.4562,-1.78962 -3.1968,-4.48098 -0.8746,-3.1778 -0.9377,-6.98181 -0.1737,-10.46801 1.3994,-6.38558 2.6352,-13.56719 2.6352,-15.31395 0,-1.05946 0.1364,-1.84196 0.3031,-1.73892 0.1668,0.10305 0.3054,-0.24655 0.3082,-0.77694 0.01,-1.01166 0.3712,-5.43764 0.4938,-5.97246 0.039,-0.17102 -0.054,-0.59783 -0.2068,-0.94853 -0.1919,-0.43996 -0.078,-0.78386 0.3673,-1.10946 0.6098,-0.44592 0.6124,-0.52219 0.047,-1.38502 -0.477,-0.72797 -0.5219,-1.11421 -0.2213,-1.90466 0.2073,-0.54535 0.3657,-1.03144 0.352,-1.0802 -0.1593,-0.5667 0.084,-1.50545 0.5333,-2.05987 0.307,-0.37858 0.4572,-0.48887 0.3337,-0.24507 -0.1235,0.24379 -0.053,0.44325 0.1577,0.44325 0.2365,0 0.2924,-0.3584 0.1466,-0.93942 -0.1817,-0.72368 -0.1287,-0.87318 0.2308,-0.65102 0.3375,0.20861 0.4039,0.12514 0.2401,-0.30173 -0.1245,-0.32454 -0.084,-0.59007 0.091,-0.59007 0.1746,0 0.3904,0.27925 0.4796,0.62056 0.101,0.38635 0.1777,0.2567 0.2033,-0.34347 0.032,-0.75535 0.1755,-0.91776 0.6617,-0.75017 0.555,0.19128 0.5516,0.16 -0.032,-0.29595 -0.7187,-0.56122 -0.662,-2.02336 0.1364,-3.51506 0.7972,-1.48963 2.3671,-3.4988 2.5729,-3.29295 0.1103,0.11025 0.1155,-0.12453 0.012,-0.52174 -0.1039,-0.39721 0.067,-1.08679 0.3786,-1.5324 0.3122,-0.44562 0.5675,-1.32246 0.5675,-1.94853 0,-0.80895 0.196,-1.20052 0.6772,-1.35326 0.9407,-0.29856 1.6131,-1.13308 0.9129,-1.13308 -0.2894,0 -0.5263,0.15957 -0.5263,0.3546 0,0.19504 -0.1012,0.25334 -0.225,0.12958 -0.1238,-0.12377 -0.024,-0.70887 0.2204,-1.30023 0.3188,-0.7698 0.6842,-1.07519 1.2864,-1.07519 0.7333,0 1.2075,-0.7387 3.6997,-5.76235 2.2453,-4.52599 3.1621,-6.86557 4.2729,-10.90414 3.0307,-11.01796 4.057,-13.673 7.1613,-18.52585 1.7382,-2.71719 5.4589,-6.4427 7.1753,-7.18455 2.7172,-1.1744 3.5511,-1.23278 4.538,-0.31769 l 0.8963,0.83106 3.8164,-2.9854 c 4.7966,-3.75212 8.9932,-6.06479 14.7801,-8.14509 6.2497,-2.2466 8.1811,-2.64784 13.9024,-2.88805 4.0215,-0.16885 5.9075,-0.44477 9.929,-1.45263 3.8327,-0.96054 6.1367,-1.31263 10.1063,-1.54441 7.3295,-0.42797 16.3703,-1.32042 19.6806,-1.94274 4.8124,-0.9047 10.6027,-1.06281 13.4751,-0.36795 3.6729,0.88851 4.244,1.17402 5.8263,2.91262 0.7937,0.87214 1.4431,1.64354 1.4431,1.71422 0,0.45962 -4.3166,2.45013 -6.952,3.20575 -1.7349,0.49741 -4.6884,1.44543 -6.5635,2.10671 -1.8751,0.66128 -4.4283,1.38437 -5.6737,1.60686 -4.9022,0.87575 -13.553,3.77283 -17.9736,6.01921 -1.6861,0.8568 -3.2481,2.22795 -7.0578,6.19515 -2.6908,2.80215 -5.7779,5.82076 -6.8602,6.70803 -1.0823,0.88726 -3.8748,3.66765 -6.2056,6.17865 -5.2648,5.67183 -7.0954,8.80007 -9.2568,15.81799 -1.7494,5.6808 -4.378,10.57687 -4.378,8.15476 0,-0.31342 -0.1995,-0.49489 -0.4433,-0.40327 -1.8231,0.68513 -2.1461,0.70001 -1.9113,0.0881 0.1943,-0.5065 0.085,-0.57471 -0.6315,-0.39482 -0.6719,0.16865 -0.9183,0.0537 -1.0979,-0.51199 -0.1273,-0.40118 -0.367,-0.68075 -0.5325,-0.62126 -0.1657,0.0595 -3.2504,3.15882 -6.855,6.88738 -4.3504,4.4999 -6.864,7.39113 -7.4762,8.59921 -0.5072,1.00099 -0.8366,1.81999 -0.7319,1.81999 0.1047,0 1.597,-0.70644 3.3162,-1.56986 4.1551,-2.08683 11.3986,-5.11928 12.8754,-5.39019 0.6507,-0.11937 2.6887,-0.91991 4.5289,-1.77897 3.0111,-1.40562 3.7741,-1.97979 7.6241,-5.73715 4.7528,-4.63849 7.3899,-6.90476 9.7745,-8.4 1.7859,-1.11985 9.1637,-8.5192 11.4871,-11.52064 0.8304,-1.07269 2.6147,-4.09459 3.9651,-6.71534 1.4718,-2.85625 3.0236,-5.33845 3.8738,-6.19655 1.4142,-1.42719 1.8337,-1.91923 5.4638,-6.40795 1.0547,-1.30421 2.2515,-2.52061 2.6595,-2.70314 0.4081,-0.18252 1.6195,-0.88641 2.6922,-1.56419 1.0727,-0.67779 2.07,-1.233 2.2163,-1.2338 0.8641,-0.005 -0.5194,4.06439 -1.8717,5.50502 -0.935,0.99607 -1.6861,3.28624 -1.942,5.92172 -0.1955,2.01308 -0.7599,3.88411 -2.6694,8.84919 -1.515,3.93954 -5.696,10.02585 -10.5756,15.39508 -1.578,1.7363 -2.8756,3.47605 -2.8835,3.86612 -0.01,0.39007 -0.8893,3.32586 -1.9586,6.52398 -3.8089,11.39242 -7.3006,15.65434 -15.7316,19.20157 -5.0946,2.14353 -7.6719,3.41266 -10.9784,5.40619 -2.9057,1.7519 -3.2052,2.02175 -2.4532,2.21051 0.4712,0.11826 3.7159,-0.21379 7.2105,-0.73787 3.4946,-0.52407 7.6501,-0.98062 9.2342,-1.0146 l 2.8804,-0.0618 1.7798,-2.1387 c 2.1185,-2.54561 8.3961,-8.4431 11.2969,-10.61277 1.3546,-1.01321 3.0807,-1.86842 5.0126,-2.4836 3.7609,-1.19752 5.0031,-1.34474 8.1156,-0.96181 l 2.5334,0.31168 -1.3839,-2.64288 c -2.0291,-3.87524 -2.1191,-5.45256 -0.5633,-9.87848 0.6888,-1.95935 1.294,-4.2611 1.345,-5.11499 0.1829,-3.06217 2.3803,-6.36387 5.0684,-7.61553 2.1034,-0.97939 4.5029,-1.0999 6.3697,-0.31991 0.7002,0.29255 1.8766,0.53381 2.6142,0.53612 5.7461,0.0181 11.1633,4.18246 13.3706,10.27852 l 0.7761,2.14334 0.7605,-0.80946 0.7604,-0.80946 -1.6865,-1.94616 c -3.6277,-4.18614 -4.9495,-7.57349 -4.2899,-10.9933 0.1688,-0.87508 0.3139,-1.71073 0.3224,-1.85701 0.01,-0.14627 0.4847,-0.26595 1.0583,-0.26595 0.5736,0 1.1415,-0.15958 1.2621,-0.35461 0.3985,-0.64479 1.2411,-0.37146 1.2411,0.4026 0,0.73044 1.484,2.43425 2.1202,2.43425 0.1708,0 0.6244,0.39893 1.0079,0.88652 0.3835,0.48758 0.9721,0.88651 1.3079,0.88651 0.3358,0 1.3686,0.26922 2.295,0.59826 1.6715,0.59366 1.6928,0.59161 2.7755,-0.26596 0.7174,-0.56832 1.2801,-1.48993 1.6432,-2.69182 0.7071,-2.33996 0.7254,-2.25036 -0.4597,-2.25036 -0.5758,0 -1.4065,-0.36557 -1.9272,-0.84809 -0.7019,-0.65055 -0.959,-0.73362 -1.1037,-0.35663 -0.5597,1.45864 -4.0285,2.27582 -3.6588,0.86193 0.31,-1.1852 -1.5641,-2.68415 -2.6376,-2.10965 -1.3842,0.74079 -1.2519,-2.89005 0.1534,-4.21026 1.0321,-0.96961 4.4721,-2.48557 6.3056,-2.77875 1.0107,-0.16162 1.3818,-0.37313 1.2512,-0.71325 -0.1179,-0.30734 0.069,-0.48349 0.5126,-0.48349 0.3839,0 0.6981,-0.14817 0.6981,-0.32927 0,-0.18111 0.2389,-0.56818 0.5309,-0.86017 0.5876,-0.58762 0.3601,-1.64741 -0.3536,-1.64741 -0.4972,0 -0.8865,-0.76486 -0.8865,-1.74154 0,-0.41059 -0.2633,-0.61021 -0.7801,-0.59155 -0.4402,0.0159 -0.9422,-0.28081 -1.1524,-0.68106 -0.4191,-0.79803 -2.1872,-1.08593 -2.9223,-0.47585 -0.3634,0.30159 -0.4643,0.17557 -0.4643,-0.57958 l 0,-0.96496 -1.2412,0.73228 c -0.6826,0.40276 -1.2411,0.56142 -1.2411,0.3526 0,-0.20883 1.3709,-3.16386 3.0465,-6.56674 2.929,-5.94851 4.1056,-7.6808 7.3633,-10.84133 1.3606,-1.32009 1.614,-1.24058 1.3891,0.43596 -0.203,1.51368 -0.091,1.63021 1.0017,1.04523 0.615,-0.32915 0.6753,-0.27683 0.511,0.44326 -0.217,0.95065 0.9846,2.60403 1.6111,2.21685 0.3936,-0.24327 0.2883,-1.81466 -0.2051,-3.06081 -0.3145,-0.79425 1.45,-1.71233 3.2611,-1.69677 1.6447,0.0141 4.8243,1.0739 5.7584,1.91928 0.8905,0.80592 1.3564,0.48253 1.6502,-1.14543 0.1308,-0.72454 0.4062,-1.63648 0.6121,-2.02655 0.2059,-0.39007 0.5691,-2.59281 0.8072,-4.89498 0.4203,-4.06419 0.4091,-4.24444 -0.3855,-6.20561 -0.4501,-1.11092 -1.2577,-4.28577 -1.7947,-7.05524 l -0.9764,-5.03541 -1.8044,-0.38697 c -2.1512,-0.46135 -8.1292,-3.5586 -11.2465,-5.82691 -1.2268,-0.89261 -2.3264,-1.62293 -2.4437,-1.62293 -0.1173,0 -1.6412,1.32703 -3.3865,2.94896 -3.359,3.12171 -12.6966,10.29332 -13.899,10.67492 -0.461,0.14634 -0.8659,0.77433 -1.1474,1.77993 -0.3962,1.41504 -0.6139,1.63272 -2.4369,2.43711 -2.4119,1.06429 -6.8856,2.15355 -11.2215,2.73228 -1.7553,0.23429 -5.0268,0.80138 -7.2699,1.26019 -6.6107,1.35217 -11.0999,1.92523 -15.0819,1.92523 -4.1911,0 -10.0242,0.55023 -11.7942,1.11251 -2.0491,0.65093 -10.0076,2.41142 -11.7195,2.59246 -0.9085,0.0961 -2.9885,0.26232 -4.6224,0.36945 -1.6338,0.10713 -3.1105,0.28122 -3.2814,0.38688 -0.7115,0.43968 -6.0559,0.16361 -7.1212,-0.36785 -0.6035,-0.30106 -1.2926,-0.54739 -1.5313,-0.54739 -0.2387,0 -0.628,-0.23373 -0.8651,-0.51941 -0.847,-1.0206 0.7567,-2.43545 5.3862,-4.75181 3.4335,-1.71796 5.4249,-2.44372 9.41,-3.42944 2.7801,-0.68768 6.5301,-1.73578 8.3332,-2.32913 1.8031,-0.59335 4.6348,-1.45207 6.2926,-1.90827 1.6578,-0.45621 4.5301,-1.41467 6.3829,-2.12992 1.8528,-0.71525 4.6431,-1.77339 6.2007,-2.35143 1.5575,-0.57804 3.6319,-1.42825 4.6098,-1.88936 0.9779,-0.46112 3.7727,-1.76566 6.2106,-2.89898 6.4624,-3.00418 9.1828,-5.06669 20.9637,-15.89403 l 2.3469,-2.15692 -3.588,0.005 c -1.9734,0.003 -5.1837,-0.12254 -7.1341,-0.27896 l -3.546,-0.28439 -2.2067,2.65319 c -2.5221,3.03247 -5.8506,5.55345 -8.4315,6.38586 -0.9752,0.31451 -3.8475,0.96903 -6.3829,1.45447 -24.6051,4.71101 -37.6159,8.75977 -53.0137,16.49711 -1.7297,0.8692 -7.4446,2.493 -9.4731,2.69164 -1.1908,0.11662 -2.0023,0.45198 -2.7561,1.13907 -1.5019,1.36883 -5.8514,4.57373 -7.5505,5.5635 -0.3356,0.19548 -1.6234,1.07313 -2.8618,1.95033 -1.2384,0.8772 -2.5947,1.81757 -3.0141,2.08972 -0.4194,0.27215 -1.4806,1.35292 -2.3583,2.40172 -1.7767,2.12323 -4.5797,4.3729 -5.4484,4.3729 -0.8041,0 -1.0631,-1.43314 -0.7945,-4.39659 0.2456,-2.71139 0.9647,-4.93165 2.538,-7.83733 0.528,-0.97517 1.676,-3.1294 2.551,-4.78718 2.6044,-4.93458 4.1882,-6.81604 14.1784,-16.8438 11.1838,-11.22573 14.2081,-14.12272 17.8193,-17.06908 1.4666,-1.19659 3.225,-2.77581 3.9077,-3.50939 l 1.2411,-1.33377 -1.2411,0.84201 c -0.6827,0.46311 -1.7667,1.32241 -2.4091,1.90956 -0.991,0.90575 -1.2244,0.98756 -1.5406,0.53974 -0.3108,-0.4403 -0.3394,-0.42492 -0.1729,0.0928 0.2249,0.6991 -0.3356,0.86599 -0.5955,0.1773 -0.092,-0.24379 -0.4152,0.12795 -0.7183,0.8261 -0.737,1.69788 -1.5899,2.42065 -2.032,1.722 -0.3025,-0.47809 -0.4924,-0.19901 -0.3559,0.52319 0.08,0.42176 -3.1377,3.71985 -4.0551,4.15676 -0.7112,0.33875 -1.0662,0.54989 -3.3687,2.00342 -1.8722,1.18186 -2.0835,1.03408 -1.4542,-1.0168 0.3859,-1.25752 1.0114,-2.22524 2.0675,-3.19877 0.8329,-0.76768 1.5168,-1.59197 1.5197,-1.83175 0,-0.28093 0.1277,-0.24681 0.3492,0.096 0.2834,0.43849 0.3447,0.40423 0.3492,-0.19503 0.01,-0.72652 0.6146,-1.578 1.129,-1.578 0.1499,0 0.1679,0.27925 0.04,0.62056 -0.2037,0.54343 -0.1582,0.56007 0.3658,0.13388 0.329,-0.26767 0.5983,-0.86106 0.5983,-1.31864 0,-0.63029 0.143,-0.77708 0.59,-0.60553 0.3968,0.15225 0.5061,0.0905 0.3337,-0.18843 -0.3871,-0.62635 -0.6282,-0.54429 -3.4532,1.17491 -2.5227,1.53525 -7.0016,3.00163 -9.208,3.01466 -0.7469,0.004 -1.4231,0.662 -3.5608,3.46285 -4.6507,6.09337 -8.4028,11.88153 -11.5456,17.81054 -3.0867,5.82324 -4.5662,7.61348 -11.2892,13.66077 -3.0217,2.71795 -6.725,6.88666 -8.3686,9.42037 -0.756,1.16537 -1.5945,1.8859 -2.9923,2.57145 -1.1407,0.55948 -2.0649,1.28136 -2.2399,1.74973 -0.164,0.43852 -0.3209,2.15367 -0.3488,3.81146 -0.1324,7.85256 -1.0506,12.60249 -4.1643,21.54107 -5.3277,15.2948 -6.1637,17.94997 -6.165,19.57999 0,0.88495 -0.7072,5.51853 -1.5699,10.29685 -2.9467,16.32133 -3.3979,20.76859 -2.6918,26.5326 0.37,3.02026 0.5266,3.55944 0.9352,3.22025 0.3892,-0.32294 0.4909,-0.26609 0.4909,0.27433 0,0.37496 0.1436,0.83332 0.3191,1.0186 0.1755,0.18529 0.8138,1.51038 1.4184,2.94469 1.5793,3.7468 2.9308,12.49873 2.9102,18.84582 -0.01,3.20075 0.2125,6.10572 0.6727,8.76587 0.7165,4.14195 1.2775,5.51651 4.9561,12.14449 1.8995,3.4223 4.0492,8.73253 5.7239,14.13875 0.6247,2.01654 1.3983,3.99067 1.7191,4.38691 0.5481,0.67687 0.6198,0.68414 1.1837,0.12025 0.5527,-0.55276 0.7614,-0.46227 0.6334,0.27467 -0.028,0.16075 0.1127,0.19124 0.3126,0.0677 0.1998,-0.12351 0.3634,-0.45454 0.3634,-0.73556 0,-0.66347 1.0933,-0.6556 1.9712,0.0142 0.5303,0.40457 0.5841,0.59411 0.2344,0.82538 -0.3639,0.24068 -0.3467,0.50581 0.087,1.33651 0.2972,0.56996 0.5413,1.23577 0.5425,1.47956 0,0.2438 0.1712,0.44326 0.3778,0.44326 0.2065,0 0.2696,-0.17138 0.1401,-0.38085 -0.3294,-0.53307 -0.4318,-2.456 -0.1307,-2.456 0.3747,0 0.7117,1.07843 0.4629,1.48105 -0.129,0.20858 0.1478,0.30521 0.6759,0.23599 0.716,-0.0938 1.1817,0.24372 2.3354,1.69275 0.7926,0.99545 1.3617,1.88934 1.2646,1.9864 -0.097,0.0971 0.067,0.37829 0.364,0.62503 0.2973,0.2467 0.5405,0.66013 0.5405,0.91875 0,0.25865 0.4146,0.91729 0.9213,1.46367 1.461,1.5753 4.0668,7.21741 3.801,8.22967 -0.1435,0.54648 -0.092,0.77169 0.1432,0.6263 0.206,-0.12734 0.4581,0.19855 0.5741,0.74244 0.1137,0.53315 1.1456,2.13881 2.2931,3.56808 1.1475,1.42928 3.2367,4.49439 4.6426,6.81139 1.4059,2.31703 3.4653,5.22101 4.5762,6.4533 1.111,1.23229 2.713,3.07405 3.5601,4.09273 0.847,1.01871 1.6504,1.85217 1.7852,1.85217 0.1348,0 0.5189,-0.46343 0.8535,-1.02988 z m 254.1717,-2.39334 c -0.36145,-0.57964 -0.38166,-0.55812 -0.17606,0.18755 0.17248,0.6256 0.11713,0.77113 -0.21518,0.56574 -0.30194,-0.1866 -0.35893,-0.13337 -0.17524,0.16379 0.17971,0.29081 0.39138,0.32103 0.62343,0.089 0.23202,-0.23202 0.21269,-0.57365 -0.057,-1.00605 z m 4.59006,0.2429 c 0,-0.1889 -0.23936,-0.25163 -0.53191,-0.13936 -0.29255,0.11227 -0.53191,0.26684 -0.53191,0.34347 0,0.0767 0.23936,0.13936 0.53191,0.13936 0.29255,0 0.53191,-0.15457 0.53191,-0.34347 z m 1.92002,-1.15818 c 0.25701,-0.17393 0.22921,-0.2623 -0.0837,-0.26595 -0.69031,-0.008 -1.56608,0.98967 -1.278,1.45583 0.16695,0.27011 0.3689,0.18334 0.61287,-0.26326 0.20014,-0.36634 0.53709,-0.78332 0.74879,-0.92662 z m -5.94044,-0.36003 c -0.0984,-0.24379 -0.17886,-0.0443 -0.17886,0.44326 0,0.48758 0.0805,0.68705 0.17886,0.44326 0.0984,-0.24379 0.0984,-0.64273 0,-0.88652 z m 1.97711,0.0294 c 0.0811,-0.55258 0.0273,-1.0047 -0.11975,-1.0047 -0.14695,0 -0.34014,-0.27925 -0.42936,-0.62056 -0.11897,-0.45532 -0.17312,-0.40255 -0.2033,0.19822 -0.0227,0.45035 -0.20021,0.72049 -0.39467,0.60031 -0.23192,-0.14333 -0.23968,0.0809 -0.0227,0.65181 0.18199,0.47868 0.26128,0.93992 0.17624,1.02499 -0.0851,0.0851 0.0705,0.15468 0.34567,0.15468 0.27826,0 0.56578,-0.44592 0.6478,-1.00475 z m -313.43385,-5.45256 c -0.1155,-0.30096 -0.2861,-0.47117 -0.379,-0.37819 -0.093,0.0929 -0.064,0.33918 0.065,0.54719 0.3496,0.56578 0.554,0.45585 0.3143,-0.169 z m 320.19662,0.22216 c 0.1578,-0.0163 0.19535,-0.17766 0.0835,-0.35865 -0.11185,-0.18099 0.11808,-0.4311 0.51098,-0.55581 0.75663,-0.24014 0.95804,-1.05028 0.35397,-1.42364 -0.19822,-0.12248 -0.26858,-0.37127 -0.15638,-0.55283 0.37195,-0.60184 -0.15376,-0.34195 -0.87559,0.43283 -0.79744,0.85595 -0.67135,1.43073 0.25123,1.14513 0.5628,-0.17418 0.56213,-0.15826 -0.009,0.20897 -0.33986,0.21862 -0.89258,0.35035 -1.22825,0.29273 -0.33571,-0.0577 -0.66269,0.14826 -0.72666,0.45758 -0.0831,0.40181 0.11574,0.53681 0.69638,0.4728 0.44694,-0.0493 0.94176,-0.10287 1.09952,-0.11911 z m -1.28879,-1.86406 c 0.73783,0.14219 0.95666,-0.73801 0.30241,-1.21641 -0.35989,-0.26315 -0.54013,-0.69673 -0.41992,-1.01002 0.41485,-1.08116 -0.37755,-0.51957 -1.56867,1.11169 -1.92183,2.63199 -1.93271,2.7066 -0.26773,1.83721 0.84556,-0.44148 1.72484,-0.76662 1.95391,-0.72247 z m 4.98385,-1.21659 c -0.11783,-0.11783 -0.42368,-0.13046 -0.67967,-0.028 -0.28287,0.11319 -0.19886,0.1972 0.21425,0.21422 0.37379,0.0153 0.58326,-0.0684 0.46542,-0.18624 z m 1.40208,-0.91609 c -0.11319,-0.28286 -0.19723,-0.19886 -0.21425,0.21426 -0.0152,0.37382 0.0684,0.58325 0.18627,0.46542 0.11784,-0.11784 0.13043,-0.42369 0.028,-0.67968 z m -5.56132,-0.8791 c 0,-1.5263 -0.23397,-1.45474 -0.51819,0.15851 -0.11762,0.66765 -0.0518,1.14169 0.15851,1.14169 0.19783,0 0.35968,-0.5851 0.35968,-1.3002 z m 0.88651,-0.47283 c 0.12053,-0.19504 0.0502,-0.35461 -0.15638,-0.35461 -0.20652,0 -0.37553,0.15957 -0.37553,0.35461 0,0.19503 0.0704,0.3546 0.15638,0.3546 0.086,0 0.255,-0.15957 0.37553,-0.3546 z m 3.36876,-0.21546 c 0,-0.29351 -0.68854,-0.45946 -0.84641,-0.20404 -0.10241,0.16574 0.0461,0.30131 0.3301,0.30131 0.28397,0 0.51631,-0.0438 0.51631,-0.0973 z m -2.12764,-1.51963 c 0,-0.17415 -0.23124,-0.40539 -0.51386,-0.51386 -0.34343,-0.13177 -0.44843,-0.0266 -0.31666,0.3167 0.21525,0.56088 0.83052,0.70694 0.83052,0.19716 z m 19.50821,-11.8286 c 0.004,-0.24379 0.10758,-0.82723 0.23315,-1.29655 0.16167,-0.60428 0.10684,-0.77825 -0.18794,-0.59606 -0.22893,0.14149 -0.33478,0.38908 -0.23521,0.55017 0.0996,0.16114 -0.0547,0.38344 -0.34283,0.49401 -0.29763,0.11418 -0.43351,0.43655 -0.31465,0.74637 0.25124,0.65468 0.84063,0.72567 0.84748,0.10206 z m 1.76817,-3.84908 c 0,-0.15038 -0.30808,-0.25024 -0.68464,-0.22187 -0.37655,0.0284 -0.62293,0.15141 -0.54751,0.27343 0.19652,0.31801 1.23215,0.27465 1.23215,-0.0516 z m 0.35461,-0.82853 c 0,-0.086 -0.15958,-0.255 -0.35461,-0.37553 -0.19503,-0.12053 -0.35461,-0.0502 -0.35461,0.15638 0,0.20656 0.15958,0.37553 0.35461,0.37553 0.19503,0 0.35461,-0.0704 0.35461,-0.15638 z m -311.69896,-1.75052 c 0,-0.0737 -0.2792,-0.3529 -0.6205,-0.62056 -0.5625,-0.44109 -0.575,-0.42854 -0.1339,0.13386 0.4632,0.59071 0.7544,0.77854 0.7544,0.4867 z m -4.6808,-3.1367 c 0.059,-0.29922 -0.1409,-0.79134 -0.4433,-1.09364 -0.3022,-0.30227 -0.5496,-0.95053 -0.5496,-1.44052 0,-0.49003 -0.1571,-0.98808 -0.3492,-1.1068 -0.4867,-0.30078 -0.046,1.91988 0.5802,2.92572 0.3313,0.53183 0.3615,0.77034 0.09,0.70921 -0.2252,-0.0507 -0.4783,0.0945 -0.5625,0.32265 -0.088,0.2377 0.1206,0.37482 0.4876,0.32114 0.3524,-0.0516 0.6885,-0.33855 0.747,-0.63776 z m 312.36671,-4.59726 c -0.11319,-0.28287 -0.19723,-0.19886 -0.21425,0.21425 -0.0153,0.37383 0.0684,0.58326 0.18627,0.46542 0.11784,-0.11783 0.13043,-0.42368 0.028,-0.67967 z m 8.86516,-0.70921 c -0.11319,-0.28287 -0.19723,-0.19887 -0.21425,0.21425 -0.0153,0.37383 0.0684,0.58326 0.18627,0.46542 0.11784,-0.11784 0.13043,-0.42368 0.028,-0.67967 z m -314.18117,-69.8574 c -0.1132,-0.28287 -0.1972,-0.19886 -0.2142,0.21426 -0.015,0.37379 0.068,0.58322 0.1862,0.46542 0.1179,-0.11784 0.1305,-0.42369 0.028,-0.67968 z m -59.9934,-4.18878 c 0.1206,-0.19504 0.05,-0.35461 -0.1564,-0.35461 -0.2065,0 -0.3755,0.15957 -0.3755,0.35461 0,0.19503 0.07,0.3546 0.1564,0.3546 0.086,0 0.255,-0.15957 0.3755,-0.3546 z m 62.8658,-6.02831 c 0.4566,0 0.4836,-0.0896 0.133,-0.4403 -0.3507,-0.35065 -0.5084,-0.3326 -0.7747,0.0886 -0.1839,0.29092 -0.3243,0.68852 -0.3118,0.88356 0.012,0.19503 0.103,0.15514 0.2014,-0.0887 0.098,-0.24379 0.4368,-0.44325 0.7521,-0.44325 z m 323.728,-2.5709 c -0.0845,-0.43882 -0.15365,-0.0798 -0.15365,0.79787 0,0.87765 0.0691,1.23668 0.15365,0.79786 0.0845,-0.43883 0.0845,-1.1569 0,-1.59573 z m -7.34237,-15.13738 c 0,-0.18291 -0.30808,-0.30936 -0.68464,-0.281 -0.37655,0.0284 -0.60651,0.17803 -0.51098,0.33258 0.24301,0.39319 1.19562,0.35209 1.19562,-0.0516 z m -0.9291,-4.94009 c -0.23365,-0.30293 -1.06478,0.88677 -0.92095,1.31824 0.1044,0.31315 0.30266,0.19283 0.58957,-0.35777 0.23776,-0.45628 0.38687,-0.88849 0.33138,-0.96047 z m 1.46101,1.37199 c -0.12053,-0.19503 -0.36932,-0.35461 -0.55283,-0.35461 -0.18354,0 -0.33368,0.15958 -0.33368,0.35461 0,0.19503 0.24879,0.35461 0.55283,0.35461 0.30407,0 0.45421,-0.15958 0.33368,-0.35461 z m 6.08051,-6.11696 c -0.27284,-4.66734 -2.63249,-16.89136 -2.68203,-13.89401 -0.0163,0.98853 0.19393,2.58426 0.4673,3.54607 0.27336,0.9618 0.61815,2.38703 0.76616,3.16716 0.14801,0.78014 0.32755,1.65779 0.3989,1.95034 0.24425,1.00105 0.38875,2.30729 0.63747,5.76235 0.13688,1.90158 0.33808,3.45741 0.44713,3.45741 0.10904,0 0.0933,-1.79519 -0.0348,-3.98932 z m -11.57691,1.1636 c 0,-0.18891 -0.23935,-0.25163 -0.5319,-0.13936 -0.29255,0.11226 -0.53191,0.26682 -0.53191,0.34347 0,0.0766 0.23936,0.13937 0.53191,0.13937 0.29255,0 0.5319,-0.15457 0.5319,-0.34348 z m -1.77303,-1.42955 c 0,-0.19504 -0.0704,-0.35461 -0.15638,-0.35461 -0.086,0 -0.255,0.15957 -0.37553,0.35461 -0.12053,0.19503 -0.0502,0.3546 0.15639,0.3546 0.20652,0 0.37552,-0.15957 0.37552,-0.3546 z m -6.20614,-12.67718 c -1.14417,-13.97219 -0.95261,-13.09806 -4.82949,-22.03467 -3.69907,-8.52678 -4.60981,-10.96407 -4.19315,-11.22159 0.18443,-0.11398 0.33287,-0.39729 0.32989,-0.62957 -0.004,-0.28788 -0.10092,-0.27168 -0.30542,0.0509 -0.22805,0.35979 -0.34631,0.29604 -0.49326,-0.26596 -0.10634,-0.40655 -0.0373,-0.73919 0.15341,-0.73919 0.1907,0 0.096,-0.25075 -0.2105,-0.55724 -0.30648,-0.30647 -0.55215,-0.7453 -0.54595,-0.97516 0.006,-0.22986 0.24557,-0.10818 0.53191,0.27041 0.28634,0.37858 0.52063,0.50966 0.52063,0.29128 0,-0.21838 -0.22989,-0.62693 -0.51084,-0.9079 -0.30667,-0.30666 -0.42606,-0.83501 -0.29876,-1.3219 0.13092,-0.50064 0.0755,-0.72661 -0.14493,-0.5904 -0.35964,0.22227 -0.9658,-0.74734 -1.28793,-2.06009 -0.31765,-1.29449 -1.8276,-4.60165 -2.34756,-5.14179 -0.45312,-0.47065 -0.48503,-0.46044 -0.27709,0.0887 0.12922,0.34131 0.0977,0.62056 -0.0701,0.62056 -0.16776,0 -0.40617,0.40296 -0.52978,0.89546 -0.12362,0.4925 -0.79287,1.52431 -1.48726,2.29292 l -1.26254,1.39748 1.12372,2.93751 c 0.61804,1.61563 1.67477,3.9313 2.3483,5.14593 0.67351,1.21463 1.44237,2.82572 1.70857,3.5802 0.2662,0.75448 1.20172,2.4201 2.07891,3.70138 1.75655,2.5657 2.26402,4.29703 2.72728,9.30414 0.16241,1.7553 0.47773,3.98588 0.7007,4.95685 0.22301,0.97097 0.36766,2.96563 0.32149,4.43258 -0.0462,1.46695 0.0453,3.41629 0.20315,4.33186 0.31369,1.81892 0.0717,2.95207 -0.54847,2.56875 -0.2773,-0.17138 -0.25163,-0.33492 0.0861,-0.54896 0.36045,-0.22838 0.30088,-0.30621 -0.23745,-0.31028 -0.6202,-0.005 -0.70059,-0.19397 -0.5873,-1.38235 0.0807,-0.84651 -0.0392,-1.48232 -0.31134,-1.65052 -0.28617,-0.17685 -0.35322,-0.12883 -0.18968,0.1358 0.13915,0.22517 0.084,0.4094 -0.12252,0.4094 -0.20652,0 -0.37552,-0.19508 -0.37552,-0.43351 0,-0.23843 -0.26255,-0.0586 -0.58347,0.39952 -0.45376,0.64782 -0.51291,1.1187 -0.26596,2.11789 l 0.31752,1.28486 2.48224,0.27544 c 1.95924,0.21741 6.00923,1.01489 6.46614,1.27323 0.0457,0.0259 0.008,-0.87049 -0.0838,-1.99193 z m -53.01311,-8.75422 c 0.68262,-0.96297 1.9991,-2.60029 2.92551,-3.63847 0.9264,-1.03819 1.68438,-2.12528 1.68438,-2.41577 0,-0.29048 0.25,-0.52815 0.55556,-0.52815 0.77255,0 2.9905,-1.74897 2.9905,-2.35816 0,-0.27553 0.23844,-0.59245 0.52987,-0.70428 0.29143,-0.11184 0.45477,-0.32486 0.36297,-0.47339 -0.0918,-0.14853 0.14848,-0.55548 0.53394,-0.90432 0.38547,-0.34884 0.7033,-0.96857 0.70628,-1.37717 0.008,-1.02681 0.34244,-1.41794 1.67611,-1.95735 1.2178,-0.49254 3.23079,-0.56115 4.70138,-0.16025 0.48758,0.13292 1.88482,0.3108 3.10497,0.39528 1.22016,0.0845 2.14129,0.27848 2.04696,0.4311 -0.34202,0.5534 4.03528,1.05337 10.72305,1.22476 l 6.83255,0.17509 -1.38544,-1.66689 c -2.9548,-3.55503 -6.29437,-9.55011 -6.79738,-12.2023 -0.19,-1.00194 -0.39124,-1.86749 -0.4472,-1.92344 -0.056,-0.0559 -1.61065,0.65435 -3.45489,1.57842 -6.66607,3.34011 -12.66432,4.78507 -19.15568,4.61455 l -4.45507,-0.11703 -3.52357,-1.73622 c -5.67867,-2.79815 -7.50618,-4.33332 -9.24318,-7.76462 -0.67064,-1.32479 -1.18263,-2.60137 -1.13775,-2.83685 0.15907,-0.83466 -0.43575,-1.9167 -1.31121,-2.38523 -1.42465,-0.76245 -0.31548,-1.02934 2.01675,-0.48527 2.2218,0.51831 4.0364,1.33851 6.18066,2.79364 0.72119,0.48942 1.67851,0.88985 2.12737,0.88985 0.44886,0 0.90546,0.14459 1.01469,0.32131 0.10922,0.17673 0.50339,0.24161 0.87594,0.14419 0.66127,-0.17293 0.66183,-0.20372 0.0236,-1.29649 -0.35954,-0.61564 -0.99701,-1.997 -1.41661,-3.06968 -0.4196,-1.07268 -0.80039,-1.98788 -0.84621,-2.03377 -0.15986,-0.16013 -9.67013,1.30573 -11.93534,1.83965 -1.25594,0.29603 -2.96172,0.5406 -3.79061,0.54348 -1.89553,0.007 -1.91617,0.42227 -0.0625,1.25817 0.79452,0.35828 2.13,1.41376 2.96772,2.34551 2.61408,2.90748 5.78972,9.6957 6.53953,13.97886 0.32571,1.86054 1.35892,14.22271 2.00694,24.01254 l 0.22967,3.46965 2.18227,-3.11505 c 1.20026,-1.71327 2.74079,-3.90293 3.4234,-4.8659 z m -218.61356,-5.81286 c -0.109,-0.10903 -0.5528,0.17119 -0.9862,0.62269 l -0.788,0.82091 0.9862,-0.62269 c 0.5424,-0.34248 0.897,-0.71189 0.788,-0.82091 z m 188.48724,-18.66066 c -0.21839,-2.5445 -0.62241,-5.57191 -0.89783,-6.72757 -0.27542,-1.15567 -0.42271,-2.2275 -0.32731,-2.38186 0.0954,-0.15435 -0.30075,-1.20347 -0.88033,-2.33137 -1.30642,-2.54237 -3.37111,-7.89832 -3.86628,-10.02937 -0.20393,-0.87765 -0.61274,-2.63295 -0.90848,-3.90067 -0.29574,-1.26772 -0.63486,-3.15757 -0.75361,-4.19966 -0.18867,-1.6557 -0.0742,-2.43295 0.73091,-4.9609 0.11598,-0.36417 0.36707,-0.31499 1.09352,0.2142 0.87755,0.63925 1.05594,0.65089 2.57073,0.16786 2.35466,-0.75085 12.10635,-0.97728 19.88996,-0.46182 3.60812,0.23894 9.89375,0.3812 13.96807,0.31615 l 7.40784,-0.11829 -4.90865,-3.19146 c -2.69976,-1.7553 -6.13002,-4.33024 -7.62279,-5.72209 -3.98962,-3.71989 -9.82925,-7.86383 -14.16356,-10.0508 -0.87765,-0.44284 -2.43083,-1.54314 -3.45151,-2.44511 -5.02976,-4.44478 -9.00106,-7.49489 -11.2044,-8.60539 -0.81327,-0.4099 -2.5159,-1.50666 -3.78362,-2.43726 -1.41991,-1.04232 -3.21952,-1.97297 -4.68686,-2.42376 -1.31005,-0.40248 -2.83868,-0.96798 -3.39695,-1.25667 -0.55827,-0.28869 -2.91276,-1.17926 -5.2322,-1.97903 -2.31944,-0.79978 -4.9397,-1.90839 -5.82281,-2.46357 -1.10756,-0.6963 -2.29518,-1.0828 -3.82845,-1.24592 -2.48079,-0.26392 -4.7758,-1.0657 -10.61505,-3.70842 -2.18498,-0.98888 -5.85515,-2.36842 -8.15594,-3.06565 -2.30079,-0.69723 -4.90133,-1.72437 -5.77898,-2.28252 -0.89211,-0.56734 -2.37756,-1.12172 -3.36876,-1.25726 -3.1566,-0.43163 -8.0869,-1.58603 -10.9928,-2.57389 -2.6061,-0.88595 -3.2839,-0.96439 -8.3332,-0.96439 l -5.4964,0 -5.1418,1.67653 c -6.4684,2.10908 -8.5088,2.55757 -14.8935,3.27369 -8.8413,0.99165 -10.6802,1.26853 -15.6027,2.34933 -6.4641,1.41929 -11.8029,3.21682 -16.5042,5.5568 -4.3599,2.1701 -4.7102,2.67919 -3.3537,4.87411 0.3901,0.63106 0.7092,1.5503 0.7092,2.04276 0,0.49245 0.2234,0.98112 0.4965,1.08592 0.2732,0.10481 0.6037,0.82432 0.7346,1.59893 0.1575,0.93268 0.4551,1.46518 0.881,1.57655 0.4714,0.12328 0.5974,0.40728 0.472,1.06366 -0.1258,0.65789 0.01,0.95155 0.4946,1.1068 0.3662,0.11623 0.8466,0.69044 1.0677,1.27603 0.2994,0.79326 0.6285,1.0647 1.291,1.0647 0.7042,0 0.9389,-0.22654 1.1284,-1.08918 0.1315,-0.59904 0.1841,-1.13914 0.1168,-1.2002 -0.067,-0.0611 -0.6543,-0.43098 -1.3043,-0.82203 -0.6946,-0.41783 -1.0236,-0.80886 -0.7979,-0.94836 0.5989,-0.3701 0.4542,-1.18924 -0.3525,-1.99596 -0.8356,-0.83558 -0.8178,-0.89636 1.0007,-3.40648 1.7381,-2.39928 3.2914,-3.58969 7.4694,-5.72423 7.5788,-3.87202 14.0026,-5.64422 21.6988,-5.98628 5.2286,-0.23239 17.8586,0.38968 23.7586,1.1702 11.5317,1.52552 29.86296,4.5577 33.93651,5.61346 1.20957,0.31349 2.96487,0.90769 3.90066,1.32045 0.9358,0.41275 2.73868,1.08871 4.00639,1.50213 3.34459,1.09071 9.00278,4.72761 12.01747,7.72443 2.85171,2.8348 5.00363,5.82803 5.00363,6.95983 0,1.19223 -2.40296,1.36435 -5.85783,0.41958 -1.55651,-0.42565 -3.75831,-0.85189 -4.8929,-0.94721 l -2.06287,-0.17331 0.75495,1.47982 c 1.1415,2.23754 2.06763,6.31203 2.34279,10.30715 l 0.24685,3.58411 1.4544,0.91465 c 2.20756,1.3883 5.95853,5.30319 7.73711,8.07522 1.98957,3.10086 2.63988,4.98062 3.4705,10.03155 0.6527,3.96905 0.67413,4.02181 2.19049,5.3932 1.62876,1.47306 2.41785,1.75687 2.41785,0.86965 0,-0.44601 0.13684,-0.47115 0.75724,-0.13913 0.70768,0.37874 0.74103,0.34069 0.50961,-0.58136 -0.22379,-0.89164 -0.19068,-0.93936 0.34387,-0.49572 0.86477,0.71769 3.06359,4.05327 4.55007,6.90238 0.95645,1.83321 1.33217,3.03856 1.43694,4.60988 0.078,1.1702 0.48232,3.208 0.89843,4.52844 0.4161,1.32044 0.65562,2.56412 0.53225,2.76373 -0.12337,0.19962 -0.02,0.60905 0.2296,0.90986 0.48785,0.58782 2.70247,5.16743 3.06437,6.33683 0.18214,0.58852 0.27363,0.50081 0.53761,-0.51542 0.1964,-0.75604 0.16619,-2.99485 -0.079,-5.851 z m 69.13302,-14.37805 c 0,-0.19503 -0.0704,-0.3546 -0.15639,-0.3546 -0.086,0 -0.25499,0.15957 -0.37552,0.3546 -0.12053,0.19504 -0.0502,0.35461 0.15638,0.35461 0.20652,0 0.37553,-0.15957 0.37553,-0.35461 z m -261.89186,-21.60648 c 0.1122,-0.18155 0.059,-0.42 -0.1192,-0.52987 -0.1778,-0.10987 -0.4148,0.0387 -0.5266,0.3301 -0.2205,0.57451 0.3123,0.73932 0.6458,0.19977 z m 231.947,-6.31876 c -1.11492,-2.21985 -1.36516,-2.47383 -3.44763,-3.49908 -1.235,-0.60801 -3.02001,-1.69674 -3.96671,-2.4194 -2.98482,-2.27845 -1.40506,-0.67877 2.26397,2.29251 1.9339,1.56613 4.11277,3.56122 4.84194,4.43354 0.72916,0.87231 1.36734,1.58602 1.41818,1.58602 0.0508,0 -0.44856,-1.07711 -1.10975,-2.39359 z m -219.3631,-6.24968 c -0.087,-0.0838 -0.4598,0.27077 -0.8292,0.78801 l -0.6717,0.94044 0.8293,-0.78801 c 0.4561,-0.43341 0.7583,-0.85661 0.6716,-0.94044 z m 0.3743,1.19654 c 0,-0.19503 -0.07,-0.35461 -0.1563,-0.35461 -0.086,0 -0.255,0.15958 -0.3756,0.35461 -0.1205,0.19503 -0.05,0.35461 0.1564,0.35461 0.2065,0 0.3755,-0.15958 0.3755,-0.35461 z m 206.81903,-6.11696 c -3.87664,-4.51224 -8.32399,-7.7205 -15.33159,-11.06 -2.24289,-1.06886 -5.15509,-2.50049 -6.47157,-3.18142 -1.31647,-0.68092 -2.39359,-1.18945 -2.39359,-1.13005 0,0.0594 1.07712,0.85338 2.39359,1.76441 3.51483,2.43231 5.89181,4.2048 7.31746,5.45653 0.69447,0.60976 2.35979,1.65925 3.70071,2.33221 3.28573,1.649 7.86896,4.64825 10.83521,7.09052 1.34127,1.10435 2.51274,2.00791 2.60326,2.00791 0.0905,0 -1.10355,-1.47605 -2.65348,-3.28011 z m -198.05023,-3.36819 c 0.078,-0.53666 0.1577,-1.16834 0.1779,-1.40374 0.054,-0.63292 1.0578,-0.90826 1.3918,-0.38187 0.2024,0.31906 0.2905,0.23448 0.2943,-0.28268 0,-0.44341 0.3946,-0.93854 0.9806,-1.24055 0.5363,-0.27644 1.055,-0.59164 1.1525,-0.70044 0.098,-0.10881 0.9633,-0.79115 1.924,-1.51632 1.3333,-1.0064 1.8238,-1.21152 2.0725,-0.86656 0.2355,0.32689 0.2732,0.2876 0.1362,-0.14198 -0.2392,-0.75016 2.4694,-2.85852 6.0722,-4.72648 1.4194,-0.73597 2.5137,-1.40518 2.4318,-1.48714 -0.4335,-0.43348 -9.7814,4.59523 -13.3558,7.18475 -2.0063,1.45353 -4.7361,4.63861 -4.2389,4.94591 0.2011,0.12429 0.3218,0.0346 0.2682,-0.1993 -0.054,-0.23391 0.1242,-0.50583 0.3952,-0.60427 0.2967,-0.10778 0.3962,-0.0229 0.2501,0.21332 -0.3122,0.50529 -0.5924,2.6817 -0.3086,2.39792 0.1182,-0.11816 0.2784,-0.65392 0.356,-1.19057 z m -54.1848,-7.97921 c -0.1274,-0.98068 0.048,-1.29916 0.5996,-1.08757 0.4935,0.18936 0.5141,0.10964 0.1486,-0.57341 -0.3742,-0.69911 -0.8892,-0.74609 -0.9045,-0.0825 0,0.13002 -0.098,0.39598 -0.2113,0.59101 -0.5788,0.99711 -0.6205,1.59573 -0.1112,1.59573 0.295,0 0.5104,-0.19947 0.4788,-0.44326 z m 4.9909,-7.15985 c 0,-0.086 -0.1595,-0.255 -0.3546,-0.37553 -0.195,-0.12054 -0.3546,-0.0502 -0.3546,0.15637 0,0.20654 0.1596,0.37554 0.3546,0.37554 0.1951,0 0.3546,-0.0704 0.3546,-0.15638 z m 3.5461,-2.87871 c 0,-0.58512 -0.5604,-0.68398 -0.8865,-0.15637 -0.2892,0.46791 0.1348,1.13193 0.5564,0.87137 0.1816,-0.11221 0.3301,-0.43396 0.3301,-0.715 z m 0.8714,-1.9049 c 0.1122,-0.18156 0.042,-0.43034 -0.1564,-0.55284 -0.1982,-0.1225 -0.3604,0.026 -0.3604,0.33011 0,0.62287 0.2128,0.71458 0.5168,0.22273 z m 242.3885,-0.16839 c 0,-0.24587 -3.29224,-2.33836 -3.67908,-2.33836 -0.20132,0 0.50423,0.55442 1.56788,1.23205 2.03306,1.29522 2.1112,1.33616 2.1112,1.10631 z m -6.02831,-3.20993 c 0,-0.0893 -0.75797,-0.59136 -1.68438,-1.11571 -0.92641,-0.52435 -2.64181,-1.54071 -3.81201,-2.25858 -4.50013,-2.76066 -6.41452,-3.8316 -7.26943,-4.06663 -0.71035,-0.19528 -0.63988,-0.0856 0.3546,0.55176 0.68262,0.43751 2.55997,1.64255 4.1719,2.67786 3.19588,2.05265 5.34766,3.25222 6.9982,3.90134 1.33342,0.52439 1.24112,0.50134 1.24112,0.30996 z m 57.00296,273.95621 c -0.87992,-0.89223 -0.78506,-1.24658 0.62057,-2.31874 1.45463,-1.10949 1.57565,-1.61977 0.38414,-1.61977 -0.47131,0 -0.92531,-0.19946 -1.00882,-0.44326 -0.23017,-0.6718 1.08201,-3.50868 2.13225,-4.60988 0.9313,-0.97648 1.86119,-1.28651 1.86119,-0.62056 0,0.19504 0.17095,0.35461 0.37992,0.35461 0.20897,0 0.62787,0.24794 0.93091,0.55099 0.49822,0.49822 0.67404,0.34974 1.83637,-1.55063 1.34573,-2.20022 3.02532,-4.31946 3.4234,-4.31946 0.27659,0 -0.14982,3.39018 -0.56428,4.48627 -0.21177,0.56003 -0.10578,0.92822 0.39868,1.38474 0.90779,0.82155 0.86662,1.16257 -0.17184,1.42321 -0.65482,0.16432 -0.83694,0.42205 -0.76634,1.08435 0.051,0.47783 0.2779,1.05407 0.50435,1.28052 1.14549,1.14548 -0.22028,3.92464 -2.11487,4.30354 -0.80669,0.16134 -1.66452,-0.0216 -3.0289,-0.64631 l -1.90342,-0.87144 -0.92755,1.40161 c -1.04381,1.57733 -1.12197,1.60605 -1.98576,0.73021 z m -1.10339,-9.4349 c -0.11227,-0.29255 -0.0666,-0.53191 0.10142,-0.53191 0.16805,0 0.39737,0.23936 0.50964,0.53191 0.11227,0.29255 0.0666,0.5319 -0.10142,0.5319 -0.16805,0 -0.39737,-0.23935 -0.50964,-0.5319 z m -361.14466,-109.8215 c -0.4994,-0.49946 -0.576,-2.41132 -0.097,-2.41132 0.182,0 0.2572,-0.88278 0.1682,-1.97686 -0.088,-1.08727 -0.022,-1.89133 0.1469,-1.7868 0.2382,0.1472 0.4939,6.60051 0.2615,6.60051 -0.03,0 -0.2459,-0.19149 -0.48,-0.42553 z m 0,-7.90772 c 0.01,-0.5851 0.087,-0.78153 0.1766,-0.43651 0.09,0.34502 0.084,0.82374 -0.013,1.06382 -0.097,0.24008 -0.1706,-0.0422 -0.1634,-0.62731 z m 365.01316,-13.27323 c -0.1122,-0.18156 -0.0684,-0.4139 0.0973,-0.51631 0.1657,-0.10242 0.3013,0.0461 0.3013,0.3301 0,0.59793 -0.11184,0.65017 -0.39857,0.18621 z m 10.59297,-61.86743 c -1.59611,-0.70663 -2.4766,-2.03278 -2.95117,-4.44496 -0.33812,-1.71867 -0.32819,-2.30759 0.0512,-3.03159 l 0.47077,-0.89855 1.46212,2.21928 c 0.80414,1.2206 1.79632,2.60273 2.2048,3.0714 0.4085,0.46867 0.74272,0.99868 0.74272,1.1778 0,0.17912 0.24649,0.57216 0.54772,0.87342 1.22535,1.22533 -0.50077,1.93075 -2.52813,1.0332 z m -339.29423,-35.89059 c -0.1605,-0.41821 -0.068,-0.51327 0.3457,-0.35461 0.3107,0.11924 0.7115,0.21679 0.8905,0.21679 0.1791,0 0.3256,0.15957 0.3256,0.35461 0,0.58408 -1.325,0.40016 -1.5618,-0.21679 z m 24.7227,-30.54531 c -0.1214,-0.34131 -0.2878,-0.78013 -0.3698,-0.97517 -0.082,-0.19503 0.1023,-0.0448 0.4093,0.33373 0.5575,0.68744 0.7259,1.262 0.3698,1.262 -0.1036,0 -0.2878,-0.27925 -0.4093,-0.62056 z m 202.90062,-34.48546 c 0.12054,-0.19503 0.36932,-0.35461 0.55284,-0.35461 0.18352,0 0.33368,0.15958 0.33368,0.35461 0,0.19503 -0.24878,0.35461 -0.55284,0.35461 -0.30406,0 -0.45421,-0.15958 -0.33368,-0.35461 z"
       id="path3345"
       />
  </g>
</svg>
