<?xml version="1.0" encoding="UTF-8" standalone="no"?>
<!-- Created with Inkscape (http://www.inkscape.org/) -->

<svg
   width="387.24457"
   height="400.00336"
   viewBox="0 0 387.24458 400.00335"
   id="svg2"
   version="1.1">
  <g
     id="layer1"
     transform="translate(1612.1659,-1752.8916)">
    <path
       style="fill:#1d6922"
       d="m -1434.0076,2152.7947 c -8.6485,-0.2996 -12.6064,-0.9507 -17.8168,-2.931 -1.2346,-0.4693 -3.9375,-1.1233 -6.0063,-1.4535 -4.1081,-0.6556 -11.8816,-3.1504 -16.1209,-5.1738 -1.4777,-0.7053 -2.9756,-1.261 -3.3286,-1.2347 -0.353,0.026 -1.2828,-0.1785 -2.0662,-0.4549 -1.4058,-0.496 -2.4865,-0.3982 -2.4865,0.225 0,0.5663 -2.6919,0.3411 -4.8697,-0.4074 -1.1638,-0.4 -3.8087,-1.7489 -5.8776,-2.9974 -2.0688,-1.2485 -5.9277,-3.4391 -8.5754,-4.868 -10.4568,-5.6432 -16.0201,-9.196 -21.3836,-13.656 -1.9451,-1.6174 -5.2293,-4.0352 -7.2981,-5.3729 -10.4448,-6.7533 -12.3996,-8.1179 -16.6838,-11.6463 -6.1715,-5.0828 -7.5932,-6.4815 -10.8829,-10.7069 -1.534,-1.9703 -4.4908,-5.3916 -6.5708,-7.6029 -2.0799,-2.2113 -3.8854,-4.3473 -4.0122,-4.7467 -0.1267,-0.3994 -0.3699,-0.7262 -0.5404,-0.7262 -0.1705,0 -0.4199,-0.3627 -0.5543,-0.806 -0.1344,-0.4434 -0.6692,-1.2335 -1.1885,-1.756 -1.4801,-1.4893 -1.8818,-2.0643 -1.9349,-2.7692 -0.027,-0.3603 -0.2989,-0.6382 -0.604,-0.6175 -0.3507,0.024 -0.5128,-0.2059 -0.4411,-0.6251 0.072,-0.4207 -0.035,-0.5712 -0.2927,-0.4118 -0.2398,0.1482 -0.4866,-0.056 -0.6021,-0.4974 -0.1077,-0.4117 -0.3143,-0.6752 -0.4593,-0.5856 -0.2753,0.1701 -1.3313,-0.9146 -2.9199,-2.9994 -0.8531,-1.1195 -1.0543,-2.8214 -0.2768,-2.3409 0.1747,0.1079 0.3175,-0.2163 0.3175,-0.7205 0,-1.2259 -0.3115,-1.1577 -0.7741,0.1695 -0.3041,0.8722 -0.4768,1.0047 -0.877,0.6726 -0.2741,-0.2275 -0.5029,-0.5954 -0.5085,-0.8175 -0.01,-0.2222 -1.0476,-1.4472 -2.3155,-2.7223 -1.9552,-1.9664 -2.2711,-2.4559 -2.0798,-3.2242 0.1965,-0.7895 0.1536,-0.8466 -0.3341,-0.4451 -0.4771,0.3929 -0.6698,0.2826 -1.3067,-0.748 -0.7459,-1.2069 -1.0416,-2.2208 -1.0919,-3.7429 -0.015,-0.4434 -0.1974,-0.8061 -0.406,-0.8061 -0.2087,0 -0.2809,0.1594 -0.1606,0.3542 0.1254,0.2027 -0.018,0.2632 -0.335,0.1415 -0.3046,-0.1169 -0.4825,-0.3281 -0.3952,-0.4693 0.087,-0.1413 -0.1711,-0.5393 -0.5743,-0.8845 -0.4485,-0.384 -0.663,-0.8954 -0.5525,-1.3177 0.109,-0.4169 0,-0.6901 -0.2799,-0.6901 -0.4739,0 -1.1505,-1.3271 -1.4342,-2.8129 -0.088,-0.4635 -0.3511,-1.0719 -0.5836,-1.3521 -0.2326,-0.2802 -0.3321,-0.6003 -0.2211,-0.7112 0.1109,-0.1109 1.1881,0.8001 2.3937,2.0246 1.2057,1.2244 2.1276,2.2907 2.0489,2.3695 -0.079,0.079 0.3985,0.7345 1.0606,1.4573 0.6621,0.7228 1.2038,1.6762 1.2038,2.1187 0,0.4425 0.1593,0.9029 0.3541,1.0233 0.2075,0.1283 0.2682,-0.048 0.1465,-0.4267 -0.1141,-0.355 0.2642,-0.1 0.8408,0.5676 0.7022,0.8125 0.9963,1.4847 0.8909,2.036 -0.1316,0.6884 -0.035,0.791 0.592,0.6271 0.5042,-0.1318 0.8269,0.01 0.9862,0.4212 0.1302,0.3394 0.61,1.0198 1.0662,1.5121 0.4562,0.4922 0.8162,0.9986 0.7999,1.1252 -0.1355,1.0538 0.1305,2.5587 0.4523,2.5587 0.2516,0 0.309,-0.3511 0.1566,-0.9581 -0.21,-0.8368 -0.1701,-0.8998 0.3155,-0.4968 0.3058,0.2538 0.4676,0.6043 0.3596,0.779 -0.108,0.1748 0.02,0.3177 0.2849,0.3177 0.6371,0 1.8272,2.0452 1.574,2.705 -0.1094,0.2851 -0.053,0.8813 0.1252,1.3248 0.1879,0.4675 0.336,0.5806 0.3523,0.2691 0.024,-0.4541 0.078,-0.4591 0.3478,-0.033 0.1758,0.2777 0.2367,0.721 0.1353,0.9852 -0.1013,0.2641 -0.017,0.4803 0.186,0.4803 0.2037,0 0.4441,0.2821 0.5342,0.6269 0.09,0.3448 0.1825,0.103 0.2054,-0.5374 0.023,-0.6403 -0.1197,-1.1643 -0.3167,-1.1643 -0.1971,0 -0.3583,-0.2418 -0.3583,-0.5373 0,-0.2956 0.095,-0.5374 0.2113,-0.5374 0.3682,0 2.2963,1.9523 2.2987,2.3274 0,0.1977 0.4916,0.6379 1.0896,0.9782 0.5981,0.3404 1.3274,1.1932 1.6207,1.8952 0.2933,0.7021 0.6871,1.1814 0.8752,1.0651 0.188,-0.1162 0.6322,0.2401 0.9871,0.7916 1.0476,1.6285 4.887,5.5516 9.0907,9.289 2.1585,1.9192 4.7848,4.6283 5.8361,6.0204 4.6223,6.1202 20.3326,18.8828 25.7824,20.9448 1.0036,0.3797 2.1471,0.817 2.5412,0.9718 0.6463,0.2539 -0.057,-0.4644 -3.9427,-4.0263 -0.6718,-0.6158 -1.3089,-1.0323 -1.4158,-0.9254 -0.1068,0.1068 -0.1942,0.01 -0.1942,-0.2237 0,-0.6748 0.6316,-0.4811 1.2335,0.3782 0.3067,0.4379 0.5577,0.6643 0.5577,0.5031 0,-0.8897 -2.7495,-3.8692 -6.9222,-7.5012 -1.7271,-1.5033 -2.3921,-2.325 -2.3921,-2.9555 0,-0.9122 -0.5464,-1.2 -0.8081,-0.4255 -0.098,0.2898 -0.7842,-0.058 -1.9459,-0.9852 -2.6595,-2.1236 -5.4215,-4.3112 -7.5911,-6.0125 -3.5369,-2.7735 -9.9784,-8.8895 -11.9054,-11.304 -1.7262,-2.163 -5.2175,-6.2792 -6.883,-8.1151 -0.3593,-0.396 -1.4877,-2.0361 -2.5077,-3.6446 -1.5933,-2.5128 -2.1226,-3.0562 -3.7587,-3.8588 -2.6031,-1.277 -4.9978,-3.6122 -7.5993,-7.4105 -1.2049,-1.7592 -3.5259,-4.6287 -5.1578,-6.3767 -1.632,-1.748 -4.0103,-4.8473 -5.2852,-6.8873 -3.5272,-5.6439 -9.0648,-16.5937 -10.1192,-20.0092 -0.517,-1.6748 -1.2435,-3.7705 -1.6143,-4.6571 -0.3708,-0.8867 -1.3364,-4.1915 -2.1457,-7.344 -0.8093,-3.1525 -1.7256,-6.6185 -2.0361,-7.7022 -0.3106,-1.0837 -0.8714,-3.5018 -1.2462,-5.3736 -0.3748,-1.8718 -0.9342,-4.5318 -1.243,-5.911 -0.3089,-1.3793 -0.79,-4.9258 -1.0693,-7.8813 -0.2793,-2.9555 -0.7694,-7.0426 -1.0892,-9.0825 -0.758,-4.8349 -0.516,-15.7807 0.5317,-24.0549 0.4117,-3.2511 0.9097,-9.9412 1.1067,-14.867 0.4417,-11.0457 1.1723,-18.9231 2.3603,-25.4524 0.5003,-2.749 1.0029,-6.0996 1.117,-7.4457 0.1141,-1.3462 0.3158,-2.2723 0.4482,-2.0581 0.3645,0.5897 3.6326,-10.809 3.6569,-12.7546 0.01,-0.7572 0.1637,-1.0819 0.4599,-0.9683 0.2875,0.1104 0.7188,-0.6614 1.2161,-2.1763 0.4239,-1.2911 0.9314,-2.6286 1.1279,-2.9724 0.7899,-1.382 3.2288,-6.9663 3.2288,-7.3931 0,-0.251 0.1087,-0.5651 0.2414,-0.6979 0.1328,-0.1327 0.2791,-0.6029 0.325,-1.0448 0.2332,-2.2414 1.4541,-5.4035 1.9646,-5.088 0.2106,0.1302 0.3442,0.019 0.2969,-0.2471 -0.1195,-0.6727 0.7958,-2.4709 1.1472,-2.2537 0.1583,0.098 0.4641,-0.1513 0.6794,-0.5537 0.2987,-0.558 0.2856,-0.7092 -0.055,-0.637 -0.2455,0.052 -0.4697,-0.1471 -0.4982,-0.4427 -0.028,-0.2955 -0.076,-0.7238 -0.1063,-0.9516 -0.03,-0.2278 -0.3547,-0.3357 -0.7217,-0.2398 -1.2761,0.3337 -1.2244,-0.8282 0.3534,-7.9437 1.3349,-6.0203 5.0824,-15.0361 7.2884,-17.5347 1.9336,-2.1901 4.7921,-5.0494 5.4344,-5.4358 0.3809,-0.2292 0.6211,-0.7148 0.5601,-1.1325 -0.059,-0.4023 0.062,-0.8357 0.2687,-0.9634 0.2065,-0.1276 0.3754,-0.075 0.3754,0.1157 0,0.1913 0.2821,0.3027 0.6269,0.2478 0.3448,-0.055 0.6027,-0.3742 0.5731,-0.7094 -0.032,-0.3658 0.1326,-0.5379 0.4125,-0.4305 0.2676,0.1026 0.5528,-0.1518 0.6692,-0.597 0.1951,-0.7461 0.2217,-0.7502 0.6905,-0.1092 0.4618,0.6317 0.5399,0.6031 1.4809,-0.5427 0.5463,-0.6652 0.8743,-0.9877 0.7289,-0.7167 -0.2082,0.388 0.017,0.4598 1.0611,0.3379 1.2193,-0.1423 1.3419,-0.073 1.5295,0.8647 0.1121,0.5607 0.3232,0.9729 0.4692,0.9159 0.1459,-0.057 1.0514,-1.0872 2.0123,-2.2895 0.9608,-1.2022 3.0653,-3.6204 4.6766,-5.3736 1.6113,-1.7532 3.5246,-3.9688 4.2519,-4.9236 1.1838,-1.5542 1.2652,-1.7929 0.777,-2.2811 -1.1844,-1.1844 3.6278,-8.3618 8.5206,-12.7084 0.7881,-0.7001 4.0929,-3.2741 7.344,-5.7198 3.251,-2.4458 7.6036,-5.7484 9.6725,-7.3392 6.7667,-5.2031 14.7914,-10.5494 18.8077,-12.5304 3.6407,-1.7957 3.9494,-1.8885 4.0551,-1.2194 0.2033,1.2864 -0.1351,1.4585 13.3196,-6.7747 5.4124,-3.312 14.1149,-7.6957 16.3,-8.2108 4.0332,-0.9508 7.9344,-2.3062 8.4187,-2.9249 0.2955,-0.3776 0.8598,-0.6777 1.2538,-0.6669 0.3941,0.011 1.1195,-0.07 1.6121,-0.1786 1.2235,-0.2706 12.3954,-0.3802 14.0638,-0.1379 0.7405,0.1075 1.4217,0.073 1.5139,-0.076 0.092,-0.1491 0.5738,-0.2265 1.0703,-0.172 0.4965,0.054 0.9843,-0.033 1.0838,-0.1938 0.2136,-0.3456 1.5897,-0.058 2.2675,0.4746 0.3394,0.2665 0.5607,0.2346 0.7747,-0.1117 0.4397,-0.7115 3.2061,-0.522 3.8161,0.2614 0.3383,0.4346 0.432,0.4623 0.3046,0.09 -0.1561,-0.4561 0.3176,-0.5242 3.1338,-0.4506 1.8247,0.048 4.6877,0.103 6.3622,0.1228 1.8773,0.022 3.1455,0.195 3.3082,0.4507 0.1934,0.3039 0.2653,0.2951 0.2693,-0.033 0,-0.314 0.7279,-0.4461 2.4236,-0.4423 1.6935,0 2.2571,0.1096 1.8808,0.3528 -0.4323,0.2794 -0.3757,0.3483 0.2898,0.3527 0.4549,0 0.7361,-0.1419 0.6247,-0.322 -0.1185,-0.1918 0.8754,-0.262 2.397,-0.1693 2.512,0.153 4.3907,0.3678 4.3907,0.502 0,0.036 1.209,0.1086 2.6868,0.162 3.0415,0.1098 3.6513,0.2202 4.0247,0.7284 0.1721,0.2342 0.2651,0.227 0.2687,-0.021 0,-0.2268 0.8804,-0.3701 2.1848,-0.3568 1.6705,0.017 2.2898,0.1732 2.6525,0.6691 0.3041,0.416 0.5581,0.5094 0.7113,0.2615 0.131,-0.212 0.3933,-0.2897 0.5828,-0.1726 0.2927,0.1809 1.6957,0.4209 3.457,0.5913 0.2463,0.024 0.4478,0.1535 0.4478,0.288 0,0.1346 0.6852,0.26 1.5226,0.2788 3.0637,0.068 6.0615,0.5321 6.2269,0.963 0.093,0.2425 0.5638,0.3976 1.0461,0.3447 0.4824,-0.053 0.877,0.06 0.877,0.2516 0,0.1913 0.1714,0.2419 0.3808,0.1125 0.2095,-0.1295 0.7208,0.062 1.1363,0.4266 0.4953,0.434 0.6489,0.477 0.446,0.1247 -0.2588,-0.4495 -0.2177,-0.4631 0.2513,-0.083 0.5979,0.4841 1.8567,0.2261 1.5239,-0.3124 -0.4205,-0.6804 1.016,-0.2801 1.6049,0.4472 0.3762,0.4645 1.1064,0.8028 1.8486,0.8564 0.6748,0.049 1.5013,0.201 1.8366,0.3386 0.3354,0.1375 0.7787,0.1456 0.9852,0.018 0.2065,-0.1276 0.3754,-0.052 0.3754,0.1685 0,0.2203 0.1599,0.3017 0.3554,0.1809 0.1955,-0.1208 0.6388,-0.055 0.9852,0.1471 0.5817,0.3387 0.5751,0.3694 -0.087,0.4028 -0.7164,0.036 -0.7164,0.036 0,0.3195 0.3941,0.1559 0.918,0.208 1.1643,0.1156 0.2463,-0.092 0.4478,0.016 0.4478,0.2413 0,0.2936 0.1959,0.3044 0.693,0.038 0.9457,-0.5062 1.0974,-0.471 1.1037,0.256 0,0.4396 0.089,0.4951 0.2858,0.1857 0.1541,-0.2426 0.6353,-0.3635 1.0692,-0.2686 0.434,0.095 1.091,0.2399 1.4601,0.3223 0.3691,0.082 1.2648,0.2442 1.9906,0.3595 1.5962,0.2537 3.4284,1.1556 3.4284,1.6877 0,0.213 0.2418,0.2946 0.5374,0.1811 0.2955,-0.1134 0.5373,-0.05 0.5373,0.1408 0,0.1909 0.2821,0.3476 0.627,0.3484 0.3448,0 1.1105,0.2949 1.7016,0.6536 1.2507,0.7592 2.7788,1.2167 2.487,0.7446 -0.217,-0.3512 0.2282,-0.4428 1.6328,-0.3361 0.4926,0.037 3.7973,1.035 7.3439,2.2168 3.5466,1.1817 8.3829,2.638 10.7473,3.2361 2.3644,0.5981 5.2198,1.5521 6.3453,2.1201 1.1255,0.568 3.3018,1.5299 4.8362,2.1376 1.5345,0.6076 3.5171,1.5504 4.4058,2.095 0.8887,0.5446 2.2019,1.1836 2.9182,1.42 0.7163,0.2364 2.2176,1.0709 3.3363,1.8546 1.1187,0.7837 2.8397,1.8331 3.8245,2.3322 2.608,1.3215 5.1212,3.18 8.3667,6.1871 1.5762,1.4605 3.9223,3.3388 5.2135,4.174 1.2912,0.8352 3.79,2.9706 5.5528,4.7455 1.7628,1.7749 3.9305,3.7763 4.8172,4.4477 2.892,2.1899 7.9349,7.2542 8.6835,8.7204 0.4024,0.7881 1.3199,2.3196 2.0389,3.4033 2.5372,3.8241 2.3783,4.2132 -0.5154,1.2626 -2.5473,-2.5974 -2.7897,-2.7555 -3.9042,-2.5464 -0.8549,0.1604 -1.3204,0.064 -1.6595,-0.345 -0.5659,-0.6818 -2.4939,-1.7241 -2.4939,-1.3481 0,0.1461 -0.8463,-0.5556 -1.8807,-1.5592 -1.0345,-1.0036 -2.2838,-1.9191 -2.7764,-2.0345 -0.4926,-0.1154 -2.7757,-1.9487 -5.0735,-4.074 -2.2979,-2.1253 -5.0384,-4.3381 -6.0901,-4.9173 l -1.9122,-1.0531 1.9703,2.2433 c 3.2129,3.6581 7.2024,10.0399 8.0605,12.894 0.1913,0.6363 0.1418,0.7805 -0.1962,0.5716 -0.2959,-0.1829 -0.3625,-0.1346 -0.1927,0.1401 0.1426,0.2307 0.3917,0.3376 0.5535,0.2375 0.4125,-0.2549 1.353,1.2782 1.5511,2.5285 0.1139,0.7188 1.27,2.1759 3.703,4.6672 3.8423,3.9346 4.726,4.9024 6.4893,7.1068 1.1456,1.4323 1.5073,2.2408 0.8095,1.8095 -0.197,-0.1218 -0.3582,-0.039 -0.3582,0.1836 0,0.2228 0.3956,0.3532 0.8791,0.2899 0.4835,-0.063 0.896,0 0.9166,0.1324 0.021,0.1361 0.6327,0.8924 1.36,1.6805 0.7272,0.7881 1.6447,1.7965 2.0388,2.2408 1.7819,2.0091 2.7761,4.1491 1.0747,2.3133 -0.4926,-0.5315 -0.8999,-0.7566 -0.9051,-0.5002 -0.01,0.2565 -0.2844,0.023 -0.6204,-0.5189 -0.3359,-0.5418 -0.8248,-0.9851 -1.0863,-0.9851 -0.2615,0 -0.3788,-0.1565 -0.2606,-0.3479 0.2743,-0.4437 -1.4045,-1.9197 -2.2546,-1.9823 -0.8161,-0.06 -2.9142,-1.9064 -2.7877,-2.4532 0.052,-0.2261 0.028,-0.2902 -0.055,-0.1425 -0.3291,0.5885 -0.8409,0.2234 -0.6279,-0.4478 0.1305,-0.411 0.064,-0.7164 -0.155,-0.7164 -0.2103,0 -0.3824,0.1797 -0.3824,0.3994 0,0.744 -3.6036,-2.0059 -11.1473,-8.5066 -3.5472,-3.0567 -3.9726,-3.316 -6.3143,-3.8486 -1.381,-0.3141 -3.5385,-1.0572 -4.7944,-1.6513 -1.2559,-0.5942 -2.5679,-1.0804 -2.9154,-1.0806 -0.7303,-3e-4 -3.6523,-1.3939 -7.2494,-3.4574 -1.3793,-0.7911 -4.0795,-2.2593 -6.0006,-3.2625 l -3.4928,-1.8239 -0.036,2.0327 c -0.02,1.1181 -0.01,3.3633 0.03,4.9895 0.062,2.7617 -0.023,3.1368 -1.2818,5.6852 l -1.3481,2.7284 1.1154,3.2791 c 0.6135,1.8036 1.2194,4.1621 1.3464,5.2413 0.1269,1.0791 0.5238,2.6875 0.8819,3.5742 0.3581,0.8866 0.8371,2.5236 1.0644,3.6377 0.3513,1.7216 0.552,2.0605 1.3373,2.2576 0.9809,0.2461 0.9541,0.2633 4.251,-2.7195 1.2357,-1.1179 2.2566,-1.7131 3.2241,-1.8798 2.4305,-0.4186 3.913,-1.2626 4.8332,-2.7516 0.4794,-0.7757 0.9545,-1.412 1.0558,-1.4139 0.1013,0 1.2925,-1.0668 2.6472,-2.3665 1.8629,-1.7874 2.538,-2.2448 2.7709,-1.8773 0.2396,0.3782 0.309,0.347 0.3133,-0.1411 0.01,-0.8543 0.6093,-0.7902 1.0945,0.1164 0.9336,1.7443 0.2919,7.5926 -1.1472,10.4561 -0.549,1.0925 -0.6331,1.7801 -0.4436,3.6297 l 0.2338,2.2819 -4.7499,4.6904 c -2.6124,2.5797 -5.0912,4.7981 -5.5083,4.9298 -0.9409,0.297 -5.9449,3.6461 -5.9749,3.9989 -0.012,0.1418 -0.1591,3.5625 -0.3269,7.6017 -0.2306,5.5542 -0.4785,7.9444 -1.0173,9.8077 l -0.7124,2.4637 2.3855,-0.1707 c 1.3136,-0.094 2.9477,-0.4677 3.6365,-0.8317 1.0074,-0.5323 2.2976,-0.6905 6.6247,-0.8121 2.9555,-0.083 6.7803,-0.1246 8.4997,-0.092 1.7193,0.032 3.4572,-0.1184 3.8619,-0.335 0.9649,-0.5164 3.0873,-0.8752 4.5653,-0.7717 0.7037,0.049 0.806,0.2542 0.806,1.615 0,1.5557 -0.646,4.0049 -0.9707,3.6801 -0.2278,-0.2278 -1.96,1.8433 -2.6049,3.1146 -0.4294,0.8465 -3.2026,3.1104 -3.8102,3.1104 -0.1018,0 -0.6982,0.3631 -1.3254,0.807 -0.6272,0.4438 -1.4628,1.0091 -1.8569,1.2563 -0.3941,0.2472 -1.4419,0.9273 -2.3286,1.5114 -0.8866,0.5841 -2.4987,1.2458 -3.5824,1.4704 -1.0837,0.2246 -2.9376,0.6546 -4.1198,0.9556 -1.1822,0.301 -2.7136,0.6246 -3.4033,0.7191 -0.6896,0.094 -1.415,0.2977 -1.6121,0.4516 -0.331,0.2586 -1.3127,-0.4603 -1.2345,-0.904 0.078,-0.4405 -0.2963,-1.0573 -0.5176,-0.8539 -0.131,0.1205 -0.082,0.6307 0.1096,1.1338 0.4065,1.0692 -0.3456,1.6233 -1.1337,0.8352 -0.3856,-0.3856 -0.5456,-0.3856 -0.9059,10e-5 -0.2407,0.2577 -0.4376,0.6193 -0.4376,0.8035 0,0.1843 -0.247,0.4299 -0.5489,0.5457 -0.3601,0.1382 -0.6586,-0.078 -0.8681,-0.6292 -0.3874,-1.0191 -1.9708,-1.6018 -1.7172,-0.632 0.1094,0.418 -0.052,0.6155 -0.5019,0.6155 -0.7483,0 -0.9197,-1.1161 -0.215,-1.4004 0.2462,-0.099 0.2865,-0.191 0.09,-0.2035 -0.9153,-0.058 -1.3936,0.6283 -1.0191,1.4631 0.3988,0.8889 0.2549,1.8508 -0.2319,1.5499 -0.1618,-0.1 -0.2146,0.1226 -0.1173,0.4947 0.097,0.3721 0,0.7848 -0.2126,0.9172 -0.2143,0.1325 -0.3894,0 -0.3894,-0.2967 0,-0.8699 -0.731,-1.068 -1.2895,-0.3493 -0.5844,0.7521 -2.9091,4.3839 -3.9048,6.1006 l -0.6591,1.1364 2.0498,3.435 c 1.1275,1.8893 1.9427,3.6085 1.8117,3.8204 -0.1309,0.212 0.2953,0.9357 0.9472,1.6083 1.2125,1.251 1.7612,1.5144 1.7612,0.8456 0,-0.8671 1.628,-2.6921 2.2814,-2.5576 0.3681,0.076 0.5747,-0.015 0.459,-0.2025 -0.1156,-0.1872 0.1877,-0.5216 0.6741,-0.7432 0.7063,-0.3219 0.8844,-0.3041 0.8844,0.088 0,0.519 0.7345,0.9176 1.7309,0.9392 0.3434,0.01 0.9025,0.6552 1.3141,1.5225 0.4808,1.0131 0.9816,1.5472 1.5226,1.6241 0.518,0.073 0.806,0.3616 0.806,0.806 0,0.3804 0.2323,0.6916 0.5162,0.6916 0.2839,0 0.6148,0.1594 0.7352,0.3542 0.3734,0.6043 -0.9326,2.8636 -2.2253,3.8496 -1.1154,0.8507 -1.2092,1.0596 -0.9965,2.2188 0.1292,0.7037 0.3647,1.4138 0.5233,1.5779 0.1586,0.1641 1.0731,-0.3037 2.032,-1.0396 2.2537,-1.7294 4.1341,-2.531 6.5799,-2.8052 2.4334,-0.2727 2.9987,0.058 2.9364,1.7158 -0.058,1.5469 -0.8301,3.076 -3.4562,6.846 -5.6581,8.1229 -5.5067,7.7614 -3.6895,8.8016 0.3448,0.1973 0.6234,0.7159 0.619,1.1523 -0.01,0.9544 -1.2401,3.7568 -2.036,4.6362 -0.5326,0.5886 -0.4954,0.6468 0.5469,0.8553 1.4069,0.2814 2.5565,2.0469 2.2002,3.3791 -0.1952,0.7296 -0.08,0.9868 0.5824,1.2994 0.7416,0.35 0.9271,0.2432 1.8223,-1.0486 1.6442,-2.3725 9.4184,-9.5242 10.8455,-9.9771 1.3936,-0.4421 4.8526,-2.9816 6.8246,-5.0105 2.8613,-2.9438 8.6211,-5.0554 11.5691,-4.2414 l 1.221,0.3371 -0.8425,1.7605 c -0.4634,0.9682 -1.6167,2.6197 -2.563,3.6698 -4.1252,4.5783 -6.1604,7.1726 -6.1604,7.8531 0,0.4019 -0.554,1.9298 -1.231,3.3952 l -1.2311,2.6644 0.9624,-0.2697 c 3.4442,-0.9656 7.0039,0.9675 9.0686,4.9247 0.6888,1.3201 0.842,2.1636 0.8455,4.6571 0,2.5694 -0.1476,3.3693 -0.9684,5.121 -0.801,1.7094 -0.8806,2.1112 -0.4511,2.2761 0.669,0.2567 2.8403,3.2417 3.2551,4.475 l 0.3181,0.9457 4.6572,-2.3152 c 7.2297,-3.5941 13.2718,-4.7929 18.2923,-3.6293 1.719,0.3984 2.2452,0.7269 3.4294,2.1408 l 1.3989,1.6702 -0.8889,0.6991 c -0.4888,0.3846 -1.9026,1.0768 -3.1416,1.5384 -1.239,0.4616 -2.6558,1.2107 -3.1483,1.6649 -0.4926,0.4541 -1.1778,0.9153 -1.5226,1.0249 -0.3448,0.1096 -0.6269,0.4182 -0.6269,0.6857 0,0.4809 -1.4102,1.3553 -6.9857,4.3317 -2.032,1.0847 -3.3724,2.1169 -4.6063,3.5472 -0.9572,1.1096 -1.6827,2.0624 -1.6121,2.1175 0.07,0.055 0.8537,0.5938 1.7404,1.1971 2.3168,1.5766 3.4076,2.8484 4.5356,5.2883 1.757,3.8006 1.1962,9.1361 -1.4153,13.4662 l -1.2077,2.0025 3.4473,-0.166 c 3.5243,-0.1697 3.9083,-0.082 8.5189,1.9504 0.2446,0.1078 0.5414,-0.1028 0.6594,-0.4681 0.1181,-0.3652 0.3548,-0.9865 0.526,-1.3806 0.1713,-0.394 0.4739,-2.4091 0.6726,-4.478 0.3534,-3.6807 1.2006,-7.3644 1.8495,-8.0425 0.1792,-0.1872 0.3258,-0.9746 0.3258,-1.7499 0,-0.7753 0.1551,-2.3954 0.3448,-3.6003 0.1897,-1.205 0.5231,-3.6417 0.741,-5.415 0.6595,-5.3667 0.7334,-5.7287 1.062,-5.1971 0.1924,0.3113 0.2786,0.046 0.2403,-0.7412 -0.039,-0.814 0.091,-1.1964 0.3882,-1.137 0.2463,0.049 0.4478,-0.1617 0.4478,-0.4689 0,-0.3171 -0.1714,-0.4526 -0.3966,-0.3134 -0.263,0.1626 -0.3202,0 -0.1699,-0.4692 0.1247,-0.3929 0.3615,-2.8715 0.5263,-5.508 0.1983,-3.1722 0.5092,-5.2785 0.9192,-6.2267 0.3408,-0.7882 0.6727,-2.0778 0.7375,-2.866 0.065,-0.7881 0.2017,-1.9972 0.3045,-2.6868 0.1027,-0.6896 0.2625,-2.4629 0.355,-3.9406 0.093,-1.4778 0.3336,-4.0571 0.5357,-5.7319 0.2021,-1.6748 0.3776,-3.2347 0.39,-3.4666 0.013,-0.2318 0.2634,-0.4736 0.5579,-0.5374 0.4693,-0.1015 0.4719,-0.2373 0.021,-1.1009 -0.2828,-0.5419 -0.397,-0.9852 -0.2539,-0.9852 0.3854,0 0.3796,-1.4492 -0.011,-2.7694 -0.1884,-0.6365 -0.2151,-1.3619 -0.059,-1.612 0.1557,-0.2502 0.2321,-0.8579 0.1697,-1.3505 -0.1573,-1.2434 0.2073,-0.7809 0.4237,0.5374 0.097,0.5911 0.4071,1.5096 0.6889,2.0411 0.2819,0.5315 0.4998,1.6197 0.4842,2.4182 -0.015,0.7984 0.1066,1.4967 0.2715,1.5517 0.678,0.2259 0.2629,14.6346 -0.4604,15.9862 -0.198,0.3699 -0.2959,1.3158 -0.2177,2.1021 0.078,0.7862 -0.012,2.1148 -0.2,2.9525 -0.5955,2.6504 -0.085,1.9293 0.6914,-0.9774 1.2543,-4.6934 2.7838,-9.5479 3.3053,-10.4909 0.2724,-0.4926 0.456,-1.0316 0.408,-1.1978 -0.048,-0.1663 0.1193,-0.237 0.3717,-0.1572 0.8233,0.2604 2.1376,4.9471 2.389,8.5198 0.2312,3.2838 0.2494,3.3404 0.5195,1.6121 0.1539,-0.9851 0.5788,-2.9196 0.9442,-4.2989 1.2961,-4.8926 1.2067,-6.8976 -0.6392,-14.3296 -0.3914,-1.5763 -0.8983,-3.9944 -1.1264,-5.3737 -0.2281,-1.3792 -0.9063,-5.0064 -1.507,-8.0604 -1.8513,-9.4117 -1.9389,-10.0288 -1.7312,-12.2014 0.1143,-1.1951 0,-3.0066 -0.255,-4.1788 -0.2512,-1.1381 -0.5431,-2.4723 -0.6486,-2.9649 -0.1055,-0.4926 -0.3464,-1.2986 -0.5354,-1.7912 -0.428,-1.1161 -1.7812,-6.8034 -1.7846,-7.5005 0,-0.6868 1.9616,1.2018 2.9584,2.8434 0.4187,0.6896 0.9649,1.379 1.2139,1.532 0.2489,0.153 0.3676,0.4994 0.2639,0.7698 -0.1038,0.2704 -0.017,0.5981 0.194,0.7281 0.2104,0.1301 0.3826,0.041 0.3826,-0.1984 0,-0.265 0.3039,-0.1684 0.7781,0.2476 0.4279,0.3753 0.6595,0.4798 0.5146,0.2321 -0.1587,-0.2714 -0.019,-0.5443 0.3527,-0.6867 0.6938,-0.2663 2.8276,1.8195 2.4637,2.4082 -0.1159,0.1875 -0.056,0.3409 0.1336,0.3409 0.4471,0 2.9576,5.0265 2.7103,5.4266 -0.1038,0.1679 -0.031,0.3053 0.1619,0.3053 0.5035,0 1.5761,3.4409 1.3222,4.2411 -0.1327,0.4179 0.027,0.8621 0.4213,1.1715 0.5792,0.4545 0.5912,0.4425 0.1362,-0.1372 -0.2744,-0.3496 -0.432,-0.7025 -0.3502,-0.7842 0.082,-0.082 0.4972,0.3654 0.9232,0.9938 0.9156,1.3503 1.5068,3.3572 0.8737,2.9659 -0.2258,-0.1395 -0.4105,-0.083 -0.4105,0.1257 0,0.2087 0.2157,0.3794 0.4794,0.3794 0.6295,0 1.9871,6.7304 2.1137,10.4782 0.052,1.5269 0.1871,2.7762 0.3013,2.7764 0.1141,2e-4 0.5929,1.777 1.064,3.9485 0.6687,3.0825 0.9216,3.7723 1.1532,3.1461 0.5452,-1.4738 0.739,-8.7742 0.3187,-12.0056 -0.2253,-1.732 -0.4881,-3.8442 -0.584,-4.6938 -0.096,-0.8496 -0.2975,-1.7362 -0.448,-1.9703 -0.1506,-0.2341 -0.403,-3.408 -0.561,-7.0531 -0.3353,-7.7365 -0.4661,-9.5031 -0.7361,-9.9399 -0.1088,-0.1761 -0.3052,-1.5179 -0.4365,-2.9819 -0.1313,-1.4639 -0.5125,-3.7433 -0.8472,-5.0653 -0.4017,-1.5868 -0.4954,-2.6056 -0.2757,-2.9981 0.2067,-0.3695 0.2036,-0.6802 -0.01,-0.8207 -0.5177,-0.3428 -1.1721,-2.5038 -0.9407,-3.1066 0.1122,-0.2925 0.011,-0.7645 -0.2251,-1.0489 -0.2361,-0.2844 -0.3311,-0.6758 -0.2113,-0.8697 0.1199,-0.1939 -0.1385,-0.6846 -0.5741,-1.0904 -0.4355,-0.4058 -0.627,-0.7379 -0.4254,-0.7379 0.3686,0 2.2763,1.9668 2.2763,2.3467 0,0.1118 -0.2016,0.085 -0.4478,-0.059 -0.2463,-0.144 -0.1499,0.078 0.2142,0.4936 0.3641,0.4156 0.5665,0.91 0.4498,1.0988 -0.1166,0.1888 0.04,0.44 0.348,0.5582 0.8199,0.3146 4.9066,9.1028 4.7104,10.1294 -0.088,0.4599 0,0.8362 0.187,0.8362 0.1908,0 0.2561,0.2367 0.1451,0.5259 -0.111,0.2893 -0.063,0.6119 0.1072,0.7169 0.17,0.1051 0.4236,1.0372 0.5636,2.0714 0.1401,1.0342 0.3232,2.2028 0.407,2.5968 0.5713,2.6875 0.7822,4.8233 0.8093,8.1952 0.017,2.1209 0.2032,4.178 0.4137,4.5714 0.3355,0.6268 0.9952,5.2534 2.1639,15.1763 0.7698,6.5357 0.9475,13.8831 0.4505,18.6286 -0.2683,2.5614 -0.5617,4.9795 -0.6519,5.3736 -0.09,0.3941 -0.3324,5.3109 -0.5381,10.9264 -0.5039,13.7606 -1.1693,17.9136 -4.3915,27.4053 -4.1444,12.2084 -5.5292,16.609 -7.2717,23.1068 -2.2801,8.5031 -4.3161,14.0066 -7.753,20.9571 -4.1144,8.321 -8.0522,14.3579 -12.151,18.6286 -1.702,1.7733 -3.8628,4.4 -4.802,5.8372 -0.9392,1.4371 -3.4214,4.8491 -5.5159,7.5821 -2.0946,2.733 -5.3399,7.0055 -7.2117,9.4944 -1.8718,2.4889 -3.9675,5.2198 -4.6571,6.0687 -0.6896,0.849 -1.4957,1.9232 -1.7912,2.3873 -0.2956,0.4641 -0.9971,1.3223 -1.559,1.9072 -0.8164,0.8496 -0.9846,1.2917 -0.8372,2.2001 0.1394,0.8592 0,1.293 -0.5625,1.7764 -0.7339,0.6284 -0.7349,0.6488 -0.058,1.1587 0.6336,0.4776 0.5812,0.5054 -0.6548,0.3484 -0.7389,-0.094 -1.3434,-0.018 -1.3434,0.1692 0,0.187 -0.1659,0.2375 -0.3687,0.1122 -0.2027,-0.1253 -0.7554,0.1445 -1.2282,0.5995 -0.6587,0.6339 -0.8113,1.0686 -0.6531,1.8597 0.189,0.9451 0.1372,1.0105 -0.6118,0.7727 -0.7428,-0.2357 -0.7964,-0.1728 -0.5816,0.6829 0.2685,1.0699 -0.2824,2.3609 -1.0074,2.3609 -0.4438,0 -1.1198,2.0494 -1.0357,3.1397 0.023,0.303 -0.3517,0.214 -1.1327,-0.2686 -1.4085,-0.8706 -1.4842,-0.8768 -1.7652,-0.1444 -0.1684,0.4387 -0.07,0.5196 0.4094,0.337 0.5193,-0.1977 0.5483,-0.1572 0.1639,0.2288 -0.3848,0.3863 -0.5887,0.311 -1.1563,-0.4266 l -0.6892,-0.8956 -0.01,1.7017 c -0.01,1.121 0.1449,1.7053 0.4399,1.7125 0.2463,0.01 0.1572,0.1799 -0.1979,0.3865 -0.4129,0.2402 -0.8004,0.2526 -1.0747,0.034 -0.236,-0.1879 -0.8321,-0.2914 -1.3247,-0.2301 -0.4926,0.061 -0.6941,0.028 -0.4478,-0.075 0.2463,-0.1025 0.4453,-0.455 0.4423,-0.7834 0,-0.5164 -0.052,-0.5245 -0.3527,-0.06 -0.2524,0.3905 -0.3488,0.4092 -0.3528,0.068 0,-0.2579 -0.1667,-0.3693 -0.3637,-0.2475 -0.197,0.1218 -0.3583,0.02 -0.3583,-0.2265 0,-0.2463 -0.2275,-0.1367 -0.5055,0.2436 -0.2781,0.3803 -0.4192,0.8313 -0.3135,1.0023 0.1057,0.171 0.3307,0.092 0.5001,-0.1751 0.247,-0.3898 0.3091,-0.3737 0.3135,0.081 0.01,0.8336 -0.3972,1.0958 -0.9649,0.6247 -0.397,-0.3295 -0.5419,-0.2495 -0.7096,0.3916 -0.1589,0.6078 -0.2865,0.6882 -0.5192,0.3276 -0.215,-0.3331 -0.39,-0.3595 -0.5772,-0.087 -0.1478,0.2152 -0.7926,0.3521 -1.433,0.3044 -0.7515,-0.056 -1.1643,0.075 -1.1643,0.371 0,0.2517 -0.2727,0.679 -0.6061,0.9494 -0.4755,0.3857 -0.5446,0.3895 -0.3208,0.018 0.2345,-0.3897 0.1552,-0.393 -0.4448,-0.018 -0.4016,0.2508 -0.7006,0.569 -0.6644,0.7071 0.036,0.1381 -0.038,0.2269 -0.1653,0.1974 -0.1271,-0.029 -0.5301,0.2018 -0.8956,0.5142 -0.976,0.8341 -2.8842,1.5119 -3.3851,1.2024 -0.2784,-0.1721 -0.3425,-0.1189 -0.1779,0.1474 0.2729,0.4415 -0.5581,1.4855 -1.1824,1.4855 -0.2038,0 -0.9811,0.6261 -1.7272,1.3913 -1.4672,1.5045 -2.9609,2.2109 -2.9802,1.4093 -0.01,-0.3169 -0.1678,-0.266 -0.4873,0.1549 -0.2618,0.3448 -0.7403,0.627 -1.0634,0.627 -0.3231,0 -0.5874,0.1353 -0.5874,0.3007 0,0.1654 -0.403,0.4844 -0.8956,0.7088 -0.7439,0.3389 -0.8956,0.3148 -0.8956,-0.1428 0,-0.3029 -0.1542,-0.4555 -0.3426,-0.3391 -0.1884,0.1165 -0.2565,0.4361 -0.1513,0.7102 0.2298,0.5989 -1.1306,1.4105 -1.8813,1.1224 -0.2904,-0.1114 -0.4363,-0.054 -0.3244,0.1268 0.112,0.1812 0.04,0.4307 -0.1605,0.5544 -0.2002,0.1238 -0.3641,0.4075 -0.3641,0.6306 0,0.223 0.2367,0.093 0.526,-0.2898 0.2893,-0.3825 0.5311,-0.5031 0.5374,-0.2679 0.01,0.2351 -0.3434,0.6759 -0.777,0.9796 -0.6104,0.4276 -0.8517,0.4524 -1.0692,0.1099 -0.2197,-0.3458 -0.2821,-0.3467 -0.2864,0 -0.01,0.7275 -1.8607,1.3882 -3.8389,1.3699 -1.6454,-0.015 -1.9106,0.087 -2.2705,0.8747 -0.3955,0.8658 -0.4223,0.8717 -0.9133,0.2003 -0.4915,-0.6721 -0.5059,-0.6692 -0.5059,0.1043 0,1.0573 -0.8999,1.358 -1.6924,0.5654 -0.5657,-0.5656 -0.6484,-0.5726 -0.7466,-0.062 -0.1205,0.6254 -1.9928,1.4345 -2.4242,1.0476 -0.1469,-0.1316 -0.1582,-0.05 -0.025,0.1826 0.2305,0.4023 -0.6751,0.878 -1.9181,1.0075 -0.8432,0.088 -2.3103,0.6112 -2.5077,0.8945 -0.2952,0.4238 -4.403,1.8702 -5.4632,1.9236 -0.5418,0.027 -0.9851,0.1841 -0.9851,0.3484 0,0.1643 -0.5643,0.2227 -1.2539,0.1297 -0.6896,-0.093 -1.2538,-0.025 -1.2538,0.1499 0,0.1754 -0.1863,0.3189 -0.414,0.3189 -0.2277,0 -0.9463,0.406 -1.5969,0.9023 -0.9854,0.7516 -1.4237,0.8637 -2.6246,0.6717 -0.7929,-0.1268 -1.3544,-0.3716 -1.2479,-0.544 0.3256,-0.5268 -0.1195,-0.3496 -0.7793,0.3102 -0.4014,0.4015 -0.672,0.4789 -0.7592,0.2172 -0.1556,-0.4666 -1.5342,-0.2086 -1.5342,0.2872 0,0.509 -1.5581,0.9822 -2.018,0.6127 -0.2597,-0.2086 -0.4756,-0.1448 -0.5991,0.1772 -0.1063,0.2769 -0.9221,0.7518 -1.813,1.0553 -1.4213,0.4843 -1.6731,0.4876 -2.0555,0.027 -0.2456,-0.2959 -0.6843,-0.4223 -1.0053,-0.2895 -0.6756,0.2795 -2.0782,0.6917 -8.9882,2.6412 -6.6854,1.8862 -7.8509,2.3891 -7.6163,3.2864 0.136,0.5201 0.039,0.6326 -0.401,0.4639 -0.3193,-0.1225 -0.5805,-0.3667 -0.5805,-0.5427 0,-0.1759 -0.2611,-0.3199 -0.5801,-0.3199 -0.8568,0 -12.8571,3.3002 -18.2276,5.0128 -2.5614,0.8168 -6.1886,1.8069 -8.0604,2.2002 -4.252,0.8933 -12.4427,1.2772 -20.9572,0.9823 z m -23.7912,-22.4354 c 1.1449,-0.5419 2.0891,-1.0658 2.0983,-1.1643 0.01,-0.099 -1.3933,-0.7286 -3.1167,-1.4001 -7.8868,-3.0734 -28.9759,-14.373 -28.2256,-15.1234 0.09,-0.09 -0.1699,-0.1889 -0.5778,-0.2196 -1.0197,-0.077 -1.2374,-0.3775 -0.7933,-1.0958 0.4255,-0.6881 0.2629,-1.5062 -0.2993,-1.5062 -0.2543,0 -0.2562,0.1419 -0.01,0.4478 0.2548,0.3116 0.2241,0.5786 -0.1009,0.8777 -0.7328,0.6743 -1.0643,-1.1914 -0.3936,-2.215 0.8873,-1.3542 2.1665,-1.4247 4.2699,-0.2355 1.6414,0.9281 7.4511,2.9131 11.5297,3.9395 0.7881,0.1984 2.7675,0.4591 4.3986,0.5794 3.473,0.2563 4.0163,0.4196 4.031,1.212 0.01,0.5211 0.048,0.525 0.3354,0.034 0.1879,-0.321 0.7488,-0.5289 1.3325,-0.494 0.5544,0.033 1.4916,0.084 2.0827,0.1121 0.8118,0.039 0.9458,0.1332 0.5478,0.3849 -0.8346,0.5278 -0.2109,0.789 0.8871,0.3715 1.184,-0.4502 3.221,0.089 3.547,0.9384 0.1348,0.351 0.4572,0.4659 0.907,0.3232 0.3991,-0.1267 1.3138,0.093 2.1369,0.5127 0.7915,0.4038 1.7798,0.7341 2.1962,0.7341 0.4165,0 1.9947,0.4205 3.5072,0.9344 2.1394,0.727 3.6049,0.9594 6.601,1.047 2.1181,0.062 3.8511,0.046 3.8511,-0.035 0,-0.081 -1.2493,-0.7779 -2.7763,-1.5486 -1.5271,-0.7708 -3.5019,-2.0761 -4.3885,-2.9009 -0.9277,-0.8629 -3.6654,-2.5454 -6.4484,-3.9629 -6.4022,-3.2611 -8.5537,-4.7328 -10.8244,-7.4043 -1.0412,-1.225 -2.6477,-2.7605 -3.5699,-3.4123 -2.1455,-1.5162 -3.6051,-3.3581 -5.3248,-6.7197 -1.1519,-2.2517 -2.062,-3.3324 -5.6196,-6.6727 -2.3349,-2.1922 -4.8029,-4.8077 -5.4846,-5.8122 -0.6816,-1.0044 -1.3394,-1.8304 -1.4618,-1.8355 -0.1224,-0.01 -0.3336,0.8371 -0.4693,1.8715 -0.1356,1.0344 -0.5005,2.8966 -0.8108,4.1382 -0.5245,2.0989 -0.5191,2.4238 0.077,4.6254 0.387,1.43 0.6545,3.7287 0.6751,5.803 0.03,3.0478 -0.071,3.6353 -0.901,5.2116 -1.6749,3.1822 -5.3797,4.1816 -10.1902,2.7489 -3.0139,-0.8976 -5.6712,-2.7041 -5.4156,-3.6816 0.2092,-0.8001 -0.418,-0.8794 -0.9735,-0.1231 -0.2187,0.2978 -1.1231,0.6644 -2.0098,0.8146 -1.2654,0.2143 -1.6357,0.4373 -1.7222,1.0372 -0.1417,0.9837 -0.1354,0.9888 6.2003,5.0049 8.4297,5.3435 17.9752,12.1741 21.4231,15.3301 2.3616,2.1615 3.8101,3.169 5.7713,4.014 1.4401,0.6204 3.3261,1.575 4.1911,2.1214 1.613,1.0187 6.3361,3.3128 6.9066,3.3546 0.1752,0.013 1.2553,-0.42 2.4002,-0.9618 z m 5.3362,-12.3243 c 0,-0.1286 -0.4685,-0.399 -1.048,-0.6009 -0.8476,-0.2955 -1.0168,-0.2718 -0.8659,0.1214 0.1031,0.2688 0.4563,0.4052 0.7848,0.303 0.4623,-0.1438 0.4354,-0.047 -0.1192,0.429 -0.593,0.5089 -0.6085,0.5776 -0.09,0.3988 0.3713,-0.128 0.6292,-0.038 0.6325,0.2205 0.01,0.4442 0.6946,-0.4073 0.7054,-0.8718 z m -9.3088,-1.5193 c 0,-0.077 -0.2418,-0.2336 -0.5373,-0.347 -0.2956,-0.1134 -0.5374,-0.05 -0.5374,0.1408 0,0.1909 0.2418,0.347 0.5374,0.347 0.2955,0 0.5373,-0.063 0.5373,-0.1408 z m 167.7868,-8.6361 c -0.2326,-0.606 -0.702,-0.702 -1.0084,-0.2063 -0.1126,0.1822 0.079,0.4053 0.4266,0.4959 0.3473,0.091 0.6666,0.1833 0.7097,0.2062 0.043,0.023 -0.014,-0.2003 -0.1279,-0.4958 z m -220.0901,-3.1986 c 0,-0.3088 -1.1366,-1.2794 -1.4982,-1.2794 -0.2048,0 0.01,0.317 0.4734,0.7045 0.8975,0.7477 1.0248,0.8192 1.0248,0.5749 z m -1.0747,-4.5036 c 0,-0.197 -0.2821,-0.3558 -0.6269,-0.3528 -0.5358,0 -0.5488,0.056 -0.09,0.3528 0.6761,0.4369 0.7165,0.4369 0.7165,0 z m -23.8231,-7.5231 c -0.1217,-0.197 -0.4939,-0.3469 -0.8271,-0.3331 -0.4939,0.021 -0.4734,0.082 0.1106,0.3331 0.9587,0.4119 0.9711,0.4119 0.7165,0 z m 35.7633,-0.5077 c 0.1071,-0.2792 -0.021,-0.5905 -0.2846,-0.6917 -0.2728,-0.1047 -0.5575,0.1142 -0.6604,0.5077 -0.2103,0.8044 0.6432,0.9705 0.945,0.184 z m -27.2681,-0.9698 c -0.8325,-0.3035 -0.9896,-0.087 -0.4278,0.5902 0.3717,0.448 0.5259,0.4681 0.7544,0.098 0.1837,-0.2972 0.066,-0.5453 -0.3266,-0.6885 z m -7.7131,-0.3809 c -0.1143,-0.2857 -0.1992,-0.2009 -0.2164,0.2165 -0.015,0.3776 0.069,0.5892 0.1881,0.4702 0.1191,-0.1191 0.1318,-0.4281 0.028,-0.6867 z m 23.6931,-0.8682 c 0.1878,0.1161 0.5276,-0.013 0.755,-0.2872 0.2274,-0.2741 0.8099,-0.5978 1.2944,-0.7194 0.4845,-0.1216 0.8809,-0.4413 0.8809,-0.7104 0,-0.6106 1.688,-1.7526 2.1596,-1.4611 0.5632,0.348 0.4021,-0.1782 -0.3989,-1.303 -1.5217,-2.1371 -4.7329,-10.1333 -5.3777,-13.3912 -0.6868,-3.4699 -0.7119,-4.3174 -0.1856,-6.2692 0.2923,-1.0837 0.5419,-1.7797 0.5549,-1.5467 0.013,0.233 0.3297,0.5208 0.7039,0.6396 0.8812,0.2797 2.2946,1.6938 4.0288,4.0308 0.7631,1.0285 1.7002,2.0373 2.0822,2.2417 0.6561,0.3512 0.6493,0.2672 -0.1234,-1.5116 -2.3739,-5.4651 -2.7564,-10.5815 -1.1005,-14.718 0.5119,-1.2786 1.2273,-2.5931 1.5897,-2.9212 0.5939,-0.5374 0.7596,-0.5434 1.6768,-0.061 1.4111,0.743 4.287,3.8127 6.7625,7.2185 1.1457,1.5763 2.9721,3.8757 4.0586,5.1099 l 1.9755,2.244 0.6482,-1.7066 c 0.3565,-0.9386 0.6483,-1.8225 0.6484,-1.964 2e-4,-0.1416 -0.846,-0.8845 -1.8804,-1.651 -1.5318,-1.135 -2.1412,-1.9303 -3.284,-4.2859 -1.2348,-2.5448 -1.6099,-3.0046 -3.1236,-3.8285 -0.9462,-0.515 -1.8158,-1.0908 -1.9325,-1.2795 -0.1166,-0.1888 -0.5692,-0.2536 -1.0057,-0.144 -1.9624,0.4925 -3.5933,-3.4222 -4.1863,-10.0483 -0.1763,-1.9703 -0.3721,-3.9854 -0.4352,-4.478 -0.2587,-2.0201 1.5326,-3.922 4.4221,-4.6952 l 1.5743,-0.4212 0.063,-3.4424 c 0.057,-3.0822 0.836,-7.327 1.7502,-9.5324 0.1634,-0.3941 -1.1451,0.6242 -2.9076,2.2629 -1.7626,1.6386 -4.065,3.4755 -5.1166,4.0819 -2.0213,1.1658 -2.0349,1.184 -2.3605,3.1592 -0.1147,0.6953 -0.7961,2.2576 -1.5142,3.4716 -1.6634,2.8118 -3.4145,3.6866 -7.3556,3.6748 -3.0116,-0.01 -4.4758,-0.5606 -7.4391,-2.802 -2.2574,-1.7075 -2.1674,-1.572 -4.3178,-6.5044 -0.9019,-2.0689 -2.0674,-4.4064 -2.5899,-5.1945 -1.2415,-1.8727 -2.6721,-6.2144 -3.1859,-9.6692 -0.4474,-3.0079 -0.4304,-3.0096 -2.0949,0.2074 -2.1162,4.0899 -9.0783,12.5068 -10.3451,12.5068 -0.1846,0 -0.3313,0.3627 -0.3258,0.8061 0.01,0.8137 -0.4876,3.603 -1.23,6.8961 -0.2222,0.9852 -0.4475,2.1943 -0.5009,2.6868 -0.053,0.4926 -0.1917,1.5405 -0.3074,2.3286 -0.1156,0.7881 -0.291,2.0778 -0.3896,2.8659 -0.099,0.7882 -0.2682,1.7169 -0.3769,2.0638 -0.3149,1.0053 7.268,14.3743 13.7407,24.2252 3.1018,4.7208 4.1074,5.8844 11.9966,13.8819 4.736,4.801 8.8294,8.7291 9.0963,8.7291 0.267,0 0.4855,0.1562 0.4855,0.347 0,0.1909 0.2255,0.2605 0.5011,0.1547 0.2757,-0.1057 0.6076,-0.02 0.7377,0.1904 0.13,0.2105 0.071,0.3827 -0.1317,0.3827 -0.2025,0 -0.2666,0.2644 -0.1426,0.5876 0.2061,0.5371 0.2647,0.534 0.6814,-0.036 0.2507,-0.3429 0.6096,-0.5285 0.7974,-0.4124 z m -19.8315,-1.4827 c -0.1481,-0.3448 -0.2804,-0.8973 -0.2942,-1.2276 -0.014,-0.3303 -0.1516,-0.5223 -0.3064,-0.4267 -0.4212,0.2603 -0.3395,1.5647 0.098,1.5647 0.2086,0 0.2797,0.1612 0.1579,0.3582 -0.1217,0.1971 -0.033,0.3583 0.1963,0.3583 0.2616,0 0.3171,-0.2344 0.1485,-0.6269 z m -3.6968,-7.3407 c -2.1997,-3.0205 -5.5404,-6.8918 -9.1969,-10.6577 -3.1583,-3.2529 -6.7408,-6.9839 -7.9612,-8.2913 -1.809,-1.938 -2.2948,-2.2853 -2.6306,-1.8808 -0.5019,0.6048 -0.6644,0.3958 4.6015,5.918 0.495,0.519 0.7862,1.1275 0.6473,1.3522 -0.1389,0.2248 -0.1196,0.3644 0.043,0.3102 0.1624,-0.054 0.3248,0.037 0.361,0.2029 0.036,0.1657 0.3586,0.5404 0.7165,0.8326 0.3579,0.2922 0.4511,0.4304 0.2071,0.307 -0.2897,-0.1464 -0.3712,-0.035 -0.2348,0.3204 0.115,0.2995 0.3314,0.5094 0.4809,0.4664 0.3703,-0.1066 3.6008,3.5052 3.6008,4.0258 0,0.2289 0.1613,0.3166 0.3583,0.1949 0.197,-0.1218 0.3582,0.1105 0.3582,0.5162 0,0.4057 0.1708,0.7376 0.3794,0.7376 0.2087,0 0.2783,-0.2015 0.1547,-0.4478 -0.1235,-0.2463 0.7536,0.5817 1.9492,1.8401 1.1957,1.2584 2.1739,2.5077 2.1739,2.7764 0,0.2686 0.1263,0.4481 0.2807,0.3989 0.3236,-0.1032 4.7214,3.6403 4.6784,3.9823 -0.109,0.8666 0.1292,1.1871 0.7596,1.0223 0.3868,-0.1012 0.8902,0.041 1.1186,0.3164 1.2625,1.5213 0.214,-0.042 -2.8454,-4.243 z m 1.2026,3.3104 c -0.1218,-0.197 -0.06,-0.3582 0.1368,-0.3582 0.1971,0 0.4579,0.1612 0.5797,0.3582 0.1218,0.1971 0.06,0.3583 -0.1368,0.3583 -0.1971,0 -0.4579,-0.1612 -0.5797,-0.3583 z m 147.7747,-7.8695 c 2.2659,-0.1607 5.5451,-0.4942 7.287,-0.7413 l 3.1672,-0.4491 -1.4686,-1.3425 c -1.9194,-1.7544 -2.97,-4.1518 -2.9568,-6.7467 0.011,-2.1316 1.5775,-8.0886 2.367,-9.0006 0.2568,-0.2966 0.5437,-0.7811 0.6377,-1.0766 0.3257,-1.0246 1.6827,1.8796 2.4698,5.2861 0.4228,1.8293 0.9021,3.4085 1.0653,3.5094 0.1632,0.1008 0.577,-0.2445 0.9196,-0.7674 0.5882,-0.8976 0.7387,-0.9387 2.6931,-0.7344 l 2.0701,0.2164 1.9232,-2.5908 c 1.1423,-1.5388 1.7442,-2.6347 1.4822,-2.6989 -0.9043,-0.2218 1.4741,-4.2909 5.3198,-9.1014 l 1.0618,-1.3283 -0.8058,-1.9854 c -0.4432,-1.0921 -0.9217,-1.9856 -1.0632,-1.9856 -0.1415,0 -1.0075,0.7658 -1.9245,1.7017 -0.917,0.9359 -2.1124,2.0497 -2.6566,2.4752 -0.5996,0.4688 -1.4753,1.9287 -2.2228,3.7056 -1.4206,3.3768 -1.5002,3.324 -2.4329,-1.6132 -0.7058,-3.7367 -0.6621,-4.2541 0.5747,-6.8066 0.5728,-1.1822 1.2044,-3.1973 1.4037,-4.478 0.1992,-1.2808 0.4759,-2.6099 0.6149,-2.9537 0.2113,-0.5227 -0.3195,-0.4179 -3.2404,0.6394 -1.9212,0.6954 -3.6712,1.2 -3.8887,1.1213 -0.2176,-0.079 -0.6912,0.01 -1.0524,0.1952 -0.4805,0.2476 -0.8574,0.1626 -1.405,-0.3171 -0.4115,-0.3605 -0.6304,-0.454 -0.4864,-0.2077 0.144,0.2463 0.097,0.4478 -0.1037,0.4478 -0.9814,0 -1.7189,6.809 -0.945,8.7242 0.2506,0.6201 0.3797,1.7258 0.287,2.4571 l -0.1686,1.3296 -2.0223,-1.0252 c -2.5286,-1.2818 -4.0159,-3.5774 -5.2754,-8.1422 -1.3209,-4.7875 -0.5816,-8.6179 2.0462,-10.6013 1.3619,-1.028 5.5331,-2.4147 7.2631,-2.4147 0.6294,0 1.2976,-0.1412 1.4848,-0.3139 0.1871,-0.1727 1.4687,-0.6715 2.848,-1.1086 1.3792,-0.4371 3.7533,-1.5049 5.2758,-2.373 3.5785,-2.0401 4.6949,-2.0691 6.2775,-0.1628 0.6403,0.7714 1.1643,1.7379 1.1643,2.1479 0,0.41 0.1878,1.0462 0.4174,1.4138 0.3843,0.6153 0.5834,0.5045 2.5077,-1.3961 1.4896,-1.4712 2.0903,-2.3338 2.0903,-3.0018 0,-0.8027 0.1544,-0.9374 1.0747,-0.9374 1.1235,0 1.4099,-0.5962 0.6508,-1.3553 -0.7268,-0.7268 0.029,-0.9738 2.9282,-0.9568 2.4935,0.015 2.9633,0.1304 4.3043,1.0597 0.828,0.5737 1.6399,1.397 1.8043,1.8295 0.1644,0.4325 0.4701,0.8921 0.6793,1.0214 0.5554,0.3432 0.4646,0.9092 -0.1458,0.9092 -0.9258,0 -0.1828,1.0217 1.0354,1.4237 1.5105,0.4985 3.1999,2.1708 4.1263,4.0844 0.8706,1.7985 0.9834,5.033 0.2589,7.4213 -0.4792,1.5795 -3.8637,7.7039 -5.4092,9.7883 -0.4508,0.608 -1.0115,1.8955 -1.246,2.8612 -0.2344,0.9656 -0.6596,2.207 -0.9449,2.7586 -0.728,1.4079 -0.6643,1.6611 0.5803,2.3047 1.0927,0.565 1.1216,0.555 5.105,-1.7643 2.9765,-1.733 4.7404,-3.0735 6.8636,-5.2161 1.5716,-1.5861 3.0496,-2.8837 3.2843,-2.8837 0.7025,0 2.292,-5.4313 2.6696,-9.1216 0.1938,-1.895 0.6663,-4.4466 1.05,-5.6702 0.3836,-1.2236 0.6995,-2.8994 0.7021,-3.7239 0,-0.8246 0.1774,-1.9531 0.3886,-2.5077 0.2112,-0.5547 0.5279,-1.7663 0.7038,-2.6925 0.3096,-1.6298 0.2584,-1.7881 -1.5924,-4.9202 -1.8165,-3.074 -4.5108,-10.1282 -4.5108,-11.8101 0,-0.4134 -0.1612,-0.7517 -0.3582,-0.7517 -0.1971,0 -0.3583,0.3791 -0.3583,0.8423 0,0.9375 -1.4364,3.8291 -2.4132,4.8581 -0.765,0.8059 -2.9883,2.1778 -3.5324,2.1796 -0.2613,0 -0.377,-1.1675 -0.3457,-3.4915 0.056,-4.1346 -0.222,-5.0666 -1.8223,-6.1156 l -1.2007,-0.7871 0,2.109 c 0,2.5478 -0.659,4.2419 -2.3993,6.1683 -3.8193,4.2275 -8.2615,3.8378 -11.0802,-0.9721 -0.7249,-1.2369 -0.8761,-1.8536 -0.6933,-2.8281 0.2733,-1.4565 0.3281,-1.4698 2.1717,-0.5299 0.773,0.3941 2.1024,0.7165 2.9543,0.7165 1.4408,0 1.522,-0.05 1.1633,-0.7205 -0.2121,-0.3963 -0.3598,-0.9202 -0.3284,-1.1643 0.1212,-0.9395 -0.047,-1.3394 -0.565,-1.3394 -0.2956,0 -0.5374,-0.223 -0.5374,-0.4956 0,-0.2725 -0.2821,-0.5966 -0.6269,-0.7201 -0.3448,-0.1235 -1.2717,-0.6232 -2.0599,-1.1106 -1.7362,-1.0736 -3.2225,-1.1315 -4.6571,-0.1814 -0.5911,0.3915 -1.3619,0.7129 -1.7129,0.7141 -0.351,0 -0.731,0.2442 -0.8444,0.5398 -0.1134,0.2955 -0.3905,0.5375 -0.6157,0.5377 -0.2252,2e-4 -0.8783,0.8466 -1.4514,1.8808 -0.5732,1.0342 -1.643,2.5421 -2.3775,3.3507 -0.7345,0.8088 -1.4452,1.8163 -1.5794,2.2391 -0.1341,0.4227 -0.3619,0.7686 -0.5061,0.7686 -0.1441,0 -0.4517,0.5242 -0.6833,1.1649 -0.3356,0.9279 -0.3146,1.5658 0.1029,3.1346 0.9674,3.6357 0.3725,6.6664 -1.6591,8.4513 -1.1797,1.0364 -7.3127,3.6111 -9.272,3.8924 -0.8867,0.1274 -2.1763,0.4534 -2.866,0.7246 -0.6896,0.2712 -2.4226,0.7637 -3.8511,1.0946 -1.4284,0.3309 -2.5972,0.7874 -2.5972,1.0145 0,0.6525 -1.7322,2.3487 -2.6079,2.5538 -0.4375,0.1024 -1.279,0.1446 -1.8702,0.094 -0.9438,-0.081 -1.0768,0.023 -1.0917,0.8582 -0.01,0.5228 -0.2411,1.2206 -0.5149,1.5504 -0.7195,0.8669 -3.8178,2.3619 -4.4178,2.1316 -0.2808,-0.1077 -0.6069,0.055 -0.7246,0.3621 -0.1178,0.3068 -0.461,0.5579 -0.7628,0.5579 -0.3017,0 -0.5486,0.1547 -0.5486,0.3438 0,0.6036 1.9006,2.131 2.9342,2.358 0.549,0.1206 1.0902,0.3681 1.2026,0.5499 0.1125,0.1819 0.5979,0.3307 1.0789,0.3307 0.5548,0 0.8744,0.2051 0.8744,0.5609 0,3.523 -7.452,4.2481 -10.0261,0.9757 l -0.6924,-0.8802 -0.2252,0.8973 c -0.398,1.5857 -0.022,2.1606 2.2565,3.4508 1.2284,0.6956 2.1825,1.426 2.1201,1.623 -0.1797,0.5683 -2.0305,1.3418 -3.6464,1.524 -1.5903,0.1792 -3.7638,-0.6809 -4.9025,-1.9401 -1.9481,-2.1543 -2.525,-5.8884 -1.6745,-10.8392 0.3744,-2.1797 2.036,-6.1728 2.753,-6.6159 0.1694,-0.1048 -0.2229,-1.2852 -0.8719,-2.6233 -1.259,-2.596 -1.445,-3.925 -0.8217,-5.8724 0.2144,-0.6697 0.4534,-1.4248 0.531,-1.678 0.2409,-0.786 1.7709,0.4942 2.4861,2.0803 0.3535,0.7838 0.835,1.425 1.07,1.425 0.2352,0 0.7146,0.3173 1.0655,0.705 0.4811,0.5316 0.7972,0.6197 1.2858,0.3582 1.098,-0.5876 3.4456,-0.3905 4.7891,0.4022 0.9892,0.5836 1.5865,0.6952 2.7073,0.5058 1.613,-0.2725 1.679,-0.3931 0.8568,-1.5669 -0.3198,-0.4566 -0.6633,-1.8505 -0.7634,-3.0977 l -0.182,-2.2676 1.2111,0.2772 c 0.6662,0.1524 2.5376,0.9463 4.1587,1.764 1.6212,0.8178 3.116,1.4869 3.3218,1.4869 0.2058,0 1.0557,-0.6189 1.8887,-1.3752 0.833,-0.7564 2.5225,-2.0524 3.7544,-2.8799 2.6222,-1.7615 2.9782,-2.2565 4.0252,-5.5966 1.4115,-4.5027 1.77,-5.3452 3.2147,-7.554 0.7843,-1.1992 2.7356,-3.4847 4.3362,-5.0788 l 2.91,-2.8983 -1.3773,-0.3824 c -1.8743,-0.5205 -1.9717,-0.5027 -2.9633,0.5422 -0.4782,0.504 -1.8485,1.4102 -3.045,2.0139 -1.1965,0.6036 -2.3768,1.3841 -2.6227,1.7344 -0.246,0.3503 -1.2133,0.9242 -2.1495,1.2753 -1.9883,0.7457 -2.2268,1.0126 -2.2341,2.5004 0,0.6673 -0.306,1.3806 -0.7601,1.7913 -0.415,0.3753 -1.0797,1.3272 -1.477,2.1154 -0.9234,1.8317 -0.8784,1.7946 -1.5257,1.2573 -0.4604,-0.3821 -0.6934,-0.3025 -1.4245,0.4863 -1.0904,1.1766 -2.1537,1.2043 -2.8934,0.075 l -0.5686,-0.8678 -1.4995,0.6808 c -0.8248,0.3744 -2.1041,0.6844 -2.843,0.6887 -1.0375,0.01 -1.3434,0.1506 -1.3436,0.6348 -4e-4,1.0575 -1.9994,4.8697 -3.0894,5.8919 -1.7512,1.6424 -4.9016,2.6448 -5.2287,1.6636 -0.076,-0.2285 0.071,-1.7197 0.3278,-3.3138 0.2565,-1.5941 0.4263,-3.6825 0.3773,-4.641 l -0.089,-1.7426 -1.9703,-0.6205 c -1.0837,-0.3413 -2.5642,-0.9774 -3.2901,-1.4134 -1.2112,-0.7277 -1.4027,-0.7498 -2.3285,-0.2682 -0.5549,0.2886 -1.3598,0.9028 -1.7886,1.3649 -0.8221,0.8858 -1.8915,3.5703 -1.9042,4.7807 0,0.3941 -0.2887,1.1387 -0.6322,1.6547 l -0.6246,0.9383 -1.3736,-0.873 c -1.0071,-0.6401 -1.6761,-1.5117 -2.5077,-3.2668 -1.3881,-2.9301 -1.4944,-5.7357 -0.318,-8.3905 0.4865,-1.0978 0.6867,-2.1105 0.5668,-2.8659 -0.1534,-0.9657 0.035,-1.424 1.0847,-2.6443 1.3799,-1.6034 2.807,-2.4166 5.1747,-2.9486 1.3892,-0.3121 1.5696,-0.2694 2.0666,0.4891 l 0.5445,0.831 1.6799,-0.7376 c 2.1792,-0.9568 2.9973,-2.0688 1.522,-2.0688 -0.8573,0 -1.0808,-0.3427 -1.2902,-1.9783 -0.1388,-1.0837 0.021,-1.4719 1.0365,-2.5174 0.6603,-0.6799 1.4663,-1.2362 1.7913,-1.2362 0.3249,0 0.5907,-0.1461 0.5907,-0.3247 0,-0.1786 0.3118,-0.2432 0.6928,-0.1435 0.381,0.1 1.2396,0 1.908,-0.2199 0.6683,-0.2205 2.9246,-0.4141 5.0139,-0.4301 4.055,-0.031 4.4662,-0.2888 2.3703,-1.4854 -0.8153,-0.4655 -1.06,-0.8213 -0.9236,-1.3431 0.1021,-0.3903 0.063,-0.7854 -0.086,-0.8779 -0.3209,-0.1983 0.2578,-4.2696 0.6253,-4.3992 0.1383,-0.049 0.1998,-1.258 0.1367,-2.6872 -0.1009,-2.2854 0.01,-2.8361 0.907,-4.5685 0.6647,-1.2814 1.416,-2.1689 2.1495,-2.5392 0.6203,-0.3131 1.5442,-0.8421 2.0531,-1.1755 0.9026,-0.5914 0.9338,-0.5841 1.2701,0.3006 0.4621,1.2153 0.8748,1.1427 1.7741,-0.3124 0.4144,-0.6706 1.3907,-1.7949 2.1695,-2.4985 0.7788,-0.7036 1.5236,-1.7268 1.6551,-2.2737 0.1315,-0.5469 0.5387,-1.5924 0.9048,-2.3235 0.3661,-0.7309 0.6681,-1.94 0.6711,-2.6868 0,-0.7467 0.1493,-1.5848 0.325,-1.8624 0.3075,-0.4856 3.3609,-2.2407 8.2673,-4.7518 1.2807,-0.6555 2.3843,-1.3186 2.4524,-1.4737 0.068,-0.1551 0.5379,-0.774 1.044,-1.3755 0.7538,-0.8958 0.8286,-1.1515 0.4135,-1.4142 -0.2786,-0.1764 -0.7923,-0.3232 -1.1415,-0.3262 -0.3492,0 -1.349,-0.6636 -2.2217,-1.4681 -1.1653,-1.0741 -1.7774,-1.4021 -2.3045,-1.2348 -0.559,0.1774 -0.9591,-0.1053 -1.8086,-1.278 -0.5999,-0.8281 -1.0907,-1.7234 -1.0907,-1.9893 0,-0.6074 -0.025,-0.606 -1.8735,0.1042 -0.8414,0.3234 -2.0134,1.1294 -2.6045,1.7912 -0.5911,0.6619 -2.1925,1.9691 -3.5586,2.905 -1.706,1.1688 -2.5937,2.0382 -2.8345,2.7764 -0.1929,0.5911 -0.5784,1.2426 -0.8568,1.4478 -0.3337,0.246 -0.6077,1.5583 -0.8041,3.8506 -0.3211,3.7471 -0.049,5.3834 1.1958,7.2008 0.6984,1.0195 0.6988,1.0435 0.022,1.5504 -1.9794,1.4833 -8.8571,-0.7118 -11.6192,-3.7082 -0.785,-0.8517 -1.4273,-1.7091 -1.4273,-1.9054 0,-0.1963 -0.8463,0.1438 -1.8808,0.7558 -1.0344,0.612 -4.373,2.3055 -7.4191,3.7633 -3.0462,1.4578 -5.6634,2.8471 -5.816,3.0873 -0.1526,0.2402 -0.28,0.9511 -0.283,1.5799 0,0.6287 -0.1646,1.2414 -0.359,1.3616 -0.6758,0.4177 -0.01,5.6012 0.9289,7.1992 1.0869,1.8561 1.1021,2.6468 0.052,2.6837 -0.5042,0.018 -0.6146,0.1038 -0.2948,0.2301 0.3265,0.1289 0.068,0.3485 -0.7164,0.6078 -0.8079,0.2671 -1.2108,0.6172 -1.178,1.0237 0.027,0.3398 -0.093,0.6178 -0.2687,0.6178 -0.1751,0 -0.3184,-0.2419 -0.3184,-0.5374 0,-0.2955 -0.2513,-0.5374 -0.5585,-0.5374 -0.3072,0 -0.4589,0.1612 -0.3371,0.3583 0.3467,0.5609 -0.1429,0.4413 -3.3963,-0.83 l -3.038,-1.1871 -5.619,7.7256 c -5.1711,7.1098 -5.5747,7.7748 -5.0647,8.3433 0.3048,0.3398 0.8633,0.7159 1.2411,0.8358 0.7007,0.2224 2.1677,3.1057 2.614,5.1377 0.1349,0.6145 0.3937,1.0255 0.5751,0.9134 0.5207,-0.3218 1.1229,1.6789 0.9361,3.1101 -0.2339,1.7921 -3.1895,6.9768 -5.4637,9.5845 -1.0362,1.1881 -2.2768,3.0181 -2.7568,4.0666 -0.48,1.0486 -2.1625,3.9975 -3.7389,6.5533 -1.5764,2.5557 -2.9766,4.8405 -3.1116,5.0772 -0.3386,0.5939 3.4806,8.5122 6.0991,12.6454 4.5672,7.2092 11.3858,16.3698 13.3263,17.9038 5.8939,4.6587 21.1748,13.6203 26.7283,15.6749 2.8528,1.0553 7.0303,1.3047 13.8063,0.8243 z m -27.9428,-98.8865 c -0.4631,-0.2993 -0.4536,-0.348 0.068,-0.3528 0.3332,0 0.7054,0.1558 0.8272,0.3528 0.2802,0.4534 -0.1941,0.4534 -0.8956,0 z m 1.724,0.1135 c 0.2586,-0.1035 0.5676,-0.091 0.6866,0.028 0.1191,0.1191 -0.092,0.2037 -0.4701,0.1882 -0.4174,-0.017 -0.5023,-0.1021 -0.2165,-0.2165 z m -156.4845,94.4623 c 0,-0.197 -0.1707,-0.3582 -0.3794,-0.3582 -0.2086,0 -0.2797,0.1612 -0.158,0.3582 0.1218,0.1971 0.2925,0.3583 0.3794,0.3583 0.087,0 0.158,-0.1612 0.158,-0.3583 z m 9.3143,-0.4005 c 0,-0.197 -0.1612,-0.2586 -0.3582,-0.1368 -0.1971,0.1217 -0.3583,0.3826 -0.3583,0.5796 0,0.197 0.1612,0.2586 0.3583,0.1368 0.197,-0.1217 0.3582,-0.3826 0.3582,-0.5796 z m -10.389,-2.1072 c 0,-0.197 -0.071,-0.3582 -0.158,-0.3582 -0.087,0 -0.2576,0.1612 -0.3794,0.3582 -0.1217,0.1971 -0.051,0.3583 0.158,0.3583 0.2087,0 0.3794,-0.1612 0.3794,-0.3583 z m 7.1648,-1.3732 c 0,-0.1642 -0.2347,-0.2986 -0.5216,-0.2986 -0.2869,0 -0.4385,0.1344 -0.3371,0.2986 0.1015,0.1642 0.3362,0.2985 0.5216,0.2985 0.1854,0 0.3371,-0.1343 0.3371,-0.2985 z m -10.9759,-0.5971 c -0.1134,-0.2955 -0.3699,-0.5374 -0.57,-0.5374 -0.2097,0 -0.1749,0.2277 0.082,0.5374 0.2453,0.2956 0.5018,0.5374 0.57,0.5374 0.068,0 0.031,-0.2418 -0.082,-0.5374 z m -1.3834,-4.1198 c 0.1217,-0.197 0.051,-0.3582 -0.158,-0.3582 -0.2087,0 -0.3794,0.1612 -0.3794,0.3582 0,0.1971 0.071,0.3583 0.158,0.3583 0.087,0 0.2576,-0.1612 0.3794,-0.3583 z m -3.3683,-4.1981 c -0.3259,-0.5599 -0.3728,-0.5246 -0.3824,0.2873 -0.01,0.509 0.11,1.0474 0.2578,1.1964 0.4304,0.4341 0.5325,-0.7827 0.1246,-1.4837 z m 1.5346,1.1345 c 0.1224,-0.3189 0.062,-0.4627 -0.1407,-0.3371 -0.1948,0.1203 -0.3542,0.3705 -0.3542,0.5559 0,0.5154 0.2568,0.4018 0.4949,-0.2188 z m -4.4356,-5.018 c 0,-0.3071 -0.1612,-0.4588 -0.3582,-0.3371 -0.197,0.1218 -0.3582,0.3731 -0.3582,0.5585 0,0.1855 0.1612,0.3371 0.3582,0.3371 0.197,0 0.3582,-0.2513 0.3582,-0.5585 z m 302.7883,-11.9799 c 2.4104,-3.8469 5.6126,-10.3057 8.8301,-17.8105 1.2009,-2.8012 3.084,-6.8887 4.1847,-9.0834 1.1007,-2.1948 1.9372,-4.0545 1.859,-4.1328 -0.2707,-0.2707 -4.1353,1.1762 -4.7298,1.7708 -0.3281,0.3281 -0.8186,0.5965 -1.0901,0.5965 -0.2715,0 -0.9353,0.6046 -1.4752,1.3434 -1.931,2.6425 -3.5686,4.1119 -5.9022,5.2958 -1.8853,0.9565 -2.4126,1.4074 -2.5811,2.2073 -0.1164,0.5528 -0.867,3.8907 -1.668,7.4174 -0.801,3.5267 -1.3694,6.6863 -1.263,7.0213 0.2757,0.8689 -0.7456,7.7659 -1.7949,12.1199 -0.4905,2.0354 -0.8902,3.8087 -0.8882,3.9407 0,0.1319 0.9896,-1.4527 2.1949,-3.5216 1.2052,-2.0688 3.1509,-5.293 4.3238,-7.1648 z m -220.5718,0.7165 c 0.1218,-0.1971 0.051,-0.3583 -0.1579,-0.3583 -0.2087,0 -0.3794,0.1612 -0.3794,0.3583 0,0.197 0.071,0.3582 0.158,0.3582 0.087,0 0.2576,-0.1612 0.3793,-0.3582 z m -0.2761,-3.4407 c -0.119,-0.119 -0.428,-0.1317 -0.6866,-0.028 -0.2858,0.1144 -0.2009,0.1993 0.2164,0.2165 0.3777,0.015 0.5892,-0.069 0.4702,-0.1882 z m -56.3403,-15.0088 c 0.3485,-1.1822 1.0072,-3.729 1.4639,-5.6596 0.4614,-1.9514 1.3286,-4.3937 1.9527,-5.4994 0.6175,-1.0941 1.0558,-2.056 0.9742,-2.1377 -0.3426,-0.3426 -3.4813,3.4707 -3.4864,4.2358 0,0.4877 -0.1125,0.6533 -0.2687,0.4078 -0.1448,-0.2275 -0.2632,0.3401 -0.2632,1.2613 0,1.3375 -0.3161,2.2071 -1.569,4.316 l -1.569,2.641 0.7833,1.6122 c 0.4307,0.8867 0.9104,1.4681 1.0659,1.2921 0.1555,-0.176 0.5678,-1.2873 0.9163,-2.4695 z m -18.1428,0.4448 c 0.069,-0.5966 0.3301,-0.9822 0.6653,-0.9822 0.3789,0 0.4761,-0.1965 0.3102,-0.6269 -1.9688,-5.1066 -4.8503,-13.0015 -4.8503,-13.2889 0,-0.4508 -1.4175,-1.4886 -2.0332,-1.4886 -0.3197,0 -0.3827,0.5165 -0.2293,1.8808 0.1163,1.0344 0.3319,2.042 0.4791,2.239 0.1472,0.1971 0.3725,0.9225 0.5006,1.6121 0.2314,1.2453 1.4972,5.6137 2.0242,6.9857 0.1514,0.3941 0.3712,1.2723 0.4886,1.9516 0.4564,2.6423 2.393,3.8997 2.6448,1.7174 z m 19.9329,0.4756 c 0.1134,-0.1835 0.069,-0.4182 -0.098,-0.5216 -0.1674,-0.1035 -0.3044,0.047 -0.3044,0.3335 0,0.604 0.113,0.6568 0.4026,0.1881 z m -3.1804,-23.0278 c 3.4751,-2.5878 8.6372,-7.8058 7.7221,-7.8058 -0.1905,0 -1.1256,0.7368 -2.0781,1.6373 -0.9525,0.9004 -2.3935,2.1011 -3.2023,2.6681 -2.0771,1.4564 -9.7314,5.5527 -11.3366,6.067 -0.7389,0.2367 -1.3434,0.5756 -1.3434,0.753 0,0.1774 0.43,1.1994 0.9557,2.2711 l 0.9557,1.9486 3.6128,-3.3596 c 1.9871,-1.8478 4.1084,-3.7287 4.7141,-4.1797 z m -12.6272,-6.4938 c 2.3845,-1.9093 10.8802,-5.959 14.0317,-6.6885 0.1971,-0.046 0.7613,-0.2377 1.2539,-0.4269 0.4926,-0.1892 1.7458,-0.6072 2.7848,-0.929 1.7357,-0.5375 1.9225,-0.7027 2.2977,-2.0313 0.5384,-1.907 0.7047,-2.0469 4.0526,-3.4101 4.2754,-1.7407 5.5044,-2.5738 8.6312,-5.8509 3.1776,-3.3304 5.102,-4.6169 8.0571,-5.3864 3.2079,-0.8353 5.8248,-0.1532 8.2324,2.1457 0.8627,0.8236 1.5598,1.1875 2.1495,1.1219 0.8663,-0.096 0.8735,-0.071 0.9757,3.4318 0.099,3.3807 0.065,3.5642 -0.806,4.3713 -0.5,0.4634 -0.9091,1.1523 -0.9091,1.531 0,0.3787 -0.2268,1.3314 -0.504,2.1171 l -0.504,1.4285 2.1161,0.5884 c 1.4564,0.4049 2.1161,0.7671 2.1161,1.1618 0,0.453 0.301,0.5448 1.433,0.4368 l 1.4329,-0.1366 0,1.3403 c 0,0.9398 0.1991,1.4467 0.6662,1.6967 0.5761,0.3084 0.9083,-0.017 2.4569,-2.4055 0.9848,-1.5191 1.9963,-3.4069 2.2476,-4.195 0.9052,-2.8384 3.175,-6.206 5.2521,-7.7924 3.0612,-2.338 3.6007,-2.6162 7.8267,-4.0366 2.1673,-0.7284 4.062,-1.4364 4.2103,-1.5732 0.1483,-0.1368 0.6839,-1.6912 1.1902,-3.4541 0.5064,-1.7629 1.8714,-5.0087 3.0335,-7.2128 2.3196,-4.4 2.3144,-4.4137 -1.0901,-2.8498 -1.0836,0.4979 -3.26,1.2572 -4.8362,1.6874 -1.5763,0.4302 -3.9944,1.0912 -5.3737,1.4689 -5.286,1.4474 -8.9713,1.2623 -19.1659,-0.9628 -2.5036,-0.5464 -9.6516,-3.9864 -15.4673,-7.4437 -3.6928,-2.1953 -6.4375,-4.866 -7.1171,-6.9253 -0.2988,-0.9055 -0.6286,-1.1817 -1.6369,-1.3708 -0.6944,-0.1303 -2.9846,-0.9168 -5.0893,-1.7479 -3.4569,-1.3649 -5.0329,-2.1968 -8.0216,-4.234 -0.5338,-0.364 -1.1384,-0.6617 -1.3434,-0.6617 -0.205,0 -0.3727,-0.1612 -0.3727,-0.3582 0,-0.1971 -0.2178,-0.3583 -0.4838,-0.3583 -0.2661,0 -0.8516,-0.48 -1.3012,-1.0666 -0.4496,-0.5866 -0.9697,-0.9725 -1.1558,-0.8575 -0.537,0.3319 -1.7332,-1.1832 -1.5063,-1.9078 0.192,-0.6135 0.1817,-0.6141 -0.205,-0.012 -0.2241,0.3489 -0.5613,0.5393 -0.7494,0.423 -0.1882,-0.1163 -0.2469,-0.3655 -0.1305,-0.5538 0.1164,-0.1883 0.079,-0.3004 -0.084,-0.2492 -0.5024,0.1585 -2.6518,-1.628 -2.2543,-1.8736 0.588,-0.3634 0.01,-1.4046 -0.6679,-1.195 -0.4822,0.15 -0.4662,0.079 0.083,-0.3697 0.8745,-0.7142 0.2323,-1.6306 -1.0446,-1.4904 -0.4782,0.052 -0.7971,-0.022 -0.7089,-0.1643 0.088,-0.1428 -1.1304,-0.9665 -2.7082,-1.8304 -1.5777,-0.8639 -3.9156,-2.2429 -5.1952,-3.0644 l -2.3265,-1.4938 -1.1393,2.2102 c -1.8179,3.5269 -2.0551,4.4863 -2.0608,8.3379 0,1.991 -0.1684,5.6268 -0.3675,8.0796 -0.6153,7.5764 0.041,17.854 1.7906,28.0653 0.8105,4.7288 2.0172,11.1332 2.6815,14.2319 1.2596,5.8751 3.3729,13.8901 3.6623,13.8901 0.092,0 0.8395,-0.538 1.6608,-1.1957 z m 19.2262,-1.312 c 0,-0.197 -0.1612,-0.3582 -0.3582,-0.3582 -0.197,0 -0.3582,0.1612 -0.3582,0.3582 0,0.1971 0.1612,0.3583 0.3582,0.3583 0.197,0 0.3582,-0.1612 0.3582,-0.3583 z m 163.9778,-8.0978 c -0.1191,-0.119 -0.428,-0.1317 -0.6866,-0.028 -0.2858,0.1144 -0.2009,0.1993 0.2164,0.2165 0.3776,0.015 0.5892,-0.069 0.4702,-0.1882 z m 31.5233,-8.2022 c 0.5051,-0.9851 1.3621,-2.8813 1.9043,-4.2136 l 0.9859,-2.4225 -1.1746,0.9895 c -0.6461,0.5442 -1.7096,1.3925 -2.3635,1.8851 -2.8192,2.1238 -4.4498,3.7453 -4.4827,4.4578 -0.019,0.4176 -0.2247,1.1136 -0.4565,1.5467 -0.3755,0.7017 -0.3208,1.7183 0.1769,3.285 0.2456,0.7731 4.3072,-3.3771 5.4102,-5.528 z m -35.0339,1.3434 c -0.022,-0.8729 -0.06,-0.9035 -0.3331,-0.2687 -0.4204,0.9785 -0.4204,1.2539 0,1.2539 0.1971,0 0.3469,-0.4433 0.3331,-0.9852 z m 153.2392,-16.9941 c -0.1144,-0.2857 -0.1993,-0.2009 -0.2165,0.2165 -0.015,0.3776 0.069,0.5892 0.1882,0.4702 0.119,-0.1191 0.1317,-0.4281 0.028,-0.6867 z m -60.0912,-7.6589 c 3.0945,-0.5087 4.1065,-1.4424 2.8861,-2.6628 -0.661,-0.661 -2.9466,-1.7913 -3.6223,-1.7913 -0.2572,0 -3.1844,5.3908 -3.1844,5.8644 0,0.082 0.5955,-0.1552 1.3233,-0.5262 0.7278,-0.3711 1.8966,-0.7689 2.5973,-0.8841 z m 61.8168,-1.2299 c 0.1217,-0.1971 0.051,-0.3583 -0.158,-0.3583 -0.2087,0 -0.3794,0.1612 -0.3794,0.3583 0,0.197 0.071,0.3582 0.158,0.3582 0.087,0 0.2576,-0.1612 0.3794,-0.3582 z m -15.1017,-0.5529 c -0.1167,-0.304 -0.2889,-0.4759 -0.3829,-0.3821 -0.094,0.094 -0.065,0.3427 0.065,0.5529 0.3533,0.5715 0.5598,0.4605 0.3175,-0.1708 z m -118.3489,-0.7906 c -0.01,-0.3429 -0.6982,-1.4245 -0.7055,-1.104 0,0.1317 -0.1033,0.4944 -0.2229,0.8061 -0.1427,0.3718 -0.02,0.5666 0.3582,0.5666 0.3166,0 0.5732,-0.1209 0.5702,-0.2687 z m 19.7088,-2.8609 c 0.2955,-0.1023 1.3434,-1.1257 2.3286,-2.2745 0.9851,-1.1488 2.0042,-2.3373 2.2646,-2.6412 0.2603,-0.3039 0.3904,-0.5525 0.289,-0.5525 -0.1015,0 0.2975,-1.1687 0.8866,-2.5972 1.2837,-3.1132 2.5922,-4.5533 5.6949,-6.2679 1.2807,-0.7077 3.2455,-2.1058 4.3661,-3.107 1.1207,-1.0011 2.6399,-2.3038 3.3762,-2.8949 l 1.3387,-1.0747 -1.9261,-0.3076 -1.9261,-0.3075 -1.0766,1.3822 c -0.5921,0.7603 -2.7129,3.075 -4.713,5.1439 -2,2.0688 -4.2848,4.7287 -5.0773,5.9109 -0.7925,1.1822 -2.629,3.4409 -4.0811,5.0193 -1.4521,1.5783 -3.1868,3.5649 -3.8551,4.4144 l -1.2149,1.5447 1.394,-0.6023 c 0.7668,-0.3313 1.6359,-0.6859 1.9315,-0.7881 z m -149.3869,-2.0508 c 0.8867,-0.326 2.2933,-0.839 3.1257,-1.1401 1.6447,-0.5947 4.4873,-2.9993 5.2356,-4.4288 0.2573,-0.4914 0.6437,-1.2159 0.8587,-1.61 1.9585,-3.5891 2.5434,-10.3628 1.147,-13.2828 -0.3842,-0.8034 -0.8392,-2.5767 -1.0111,-3.9407 -0.1719,-1.3639 -0.5646,-3.0816 -0.8727,-3.8171 -0.3081,-0.7355 -0.8995,-2.9118 -1.3143,-4.8363 -0.4147,-1.9244 -0.978,-4.2244 -1.2516,-5.111 -0.6092,-1.974 -3.0212,-7.5923 -4.6207,-10.7629 -0.6505,-1.2894 -1.6516,-3.828 -2.2248,-5.6416 -0.5731,-1.8135 -1.2306,-3.2976 -1.4609,-3.298 -0.6035,0 -4.7846,1.0477 -5.9075,1.482 -2.0334,0.7863 -3.6189,-1.3247 -3.6723,-4.8894 -0.043,-2.8549 1.5538,-6.1898 4.106,-8.577 l 1.8158,-1.6985 -0.5714,-3.8167 c -0.3143,-2.0991 -0.6061,-5.9865 -0.6484,-8.6387 l -0.077,-4.822 -1.2055,-0.2461 c -0.663,-0.1353 -1.7098,-0.1014 -2.3262,0.075 -0.6164,0.1768 -2.1342,0.3214 -3.3729,0.3214 -2.2112,0 -2.2959,0.037 -4.6595,2.0128 -1.324,1.107 -2.5686,2.2044 -2.7656,2.4384 -0.197,0.2341 -1.2449,1.0771 -2.3286,1.8734 -1.7385,1.2774 -5.3736,5.0893 -5.3736,5.635 0,0.1114 -1.1487,2.5844 -2.5527,5.4956 -4.0902,8.4809 -3.9055,7.9111 -3.2925,10.1612 0.4065,1.492 0.4792,3.135 0.3155,7.133 -0.117,2.857 -0.3615,5.8394 -0.5433,6.6275 l -0.3306,1.433 2.9331,-3.104 c 3.3307,-3.5245 6.137,-5.6982 8.4859,-6.5725 2.5641,-0.9544 3.2242,-1.3371 3.2242,-1.8689 0,-0.2739 0.1612,-0.3984 0.3582,-0.2766 0.1971,0.1218 0.3583,2e-4 0.3583,-0.2701 0,-0.596 2.0552,-2.6304 2.3546,-2.3309 0.117,0.117 -0.1231,0.5486 -0.5336,0.9591 -0.4105,0.4104 -0.7463,0.8456 -0.7463,0.967 0,0.1213 -0.5444,0.9677 -1.2097,1.8807 -0.6654,0.9131 -1.6394,2.4662 -2.1646,3.4513 -0.5251,0.9852 -1.5929,2.8758 -2.3727,4.2014 -0.7799,1.3255 -1.4886,3.0182 -1.5749,3.7615 -0.5258,4.5236 -1.2709,7.625 -3.1651,13.1734 -0.5403,1.5826 -0.8001,3.5665 -0.9851,7.5231 -0.1498,3.2053 -0.5575,6.7837 -1.0104,8.8682 -0.7173,3.3016 -0.7265,3.5632 -0.1666,4.7372 0.4717,0.9892 0.5098,1.4241 0.1871,2.1324 -0.3726,0.8178 -0.27,1.0054 1.267,2.3192 1.0149,0.8675 2.198,1.5183 3.0094,1.6554 0.7355,0.1243 1.9347,0.5305 2.6649,0.9028 0.7303,0.3723 1.4466,0.6035 1.5919,0.5137 0.4454,-0.2752 2.5748,0.596 4.6101,1.8863 1.9331,1.2254 3.5308,1.6607 7.9165,2.1566 3.1203,0.3529 8.7565,-0.065 10.7472,-0.7973 z m 248.3465,0.2373 c 0.1211,-0.4629 -0.044,-0.6542 -0.5851,-0.6799 -0.4145,-0.02 -0.5521,0.042 -0.3058,0.1367 0.2463,0.095 0.4478,0.4008 0.4478,0.6799 0,0.708 0.2417,0.6334 0.4431,-0.1367 z m -213.2388,-12.1029 c 8.7769,-6.7188 12.4149,-8.927 23.8395,-14.4698 5.9966,-2.9094 12.596,-6.2898 14.6652,-7.512 2.0692,-1.2222 5.0935,-2.7863 6.7206,-3.4757 8.4491,-3.5799 20.731,-10.2367 24.6339,-13.3514 1.8729,-1.4947 4.9523,-3.8098 6.8431,-5.1447 3.4723,-2.4514 7.6848,-5.8388 10.5805,-8.5079 0.8674,-0.7996 2.651,-3.019 3.9636,-4.9319 1.9226,-2.8022 2.6833,-4.3484 3.9142,-7.9562 0.8403,-2.4629 1.8189,-5.2841 2.1748,-6.2692 0.5112,-1.4152 0.6335,-2.7314 0.5828,-6.2693 -0.06,-4.1907 -0.1546,-4.7422 -1.4746,-8.5978 -0.7758,-2.2658 -1.8638,-6.0542 -2.4177,-8.4186 -0.9423,-4.0218 -1.138,-4.4721 -3.0363,-6.9858 -1.116,-1.4777 -2.2363,-3.0758 -2.4895,-3.5513 -0.9532,-1.7901 -4.389,-4.7015 -6.9497,-5.8891 -2.8552,-1.3242 -7.3069,-4.0922 -8.0729,-5.0197 -0.7021,-0.8502 -5.8545,-3.6052 -8.8276,-4.72 -2.6125,-0.9797 -7.9051,-4.3091 -11.4881,-7.2267 l -2.1062,-1.7151 -8.4217,0 c -13.6854,0 -20.5306,1.4512 -30.4807,6.462 -2.796,1.408 -5.0095,3.1872 -10.7809,8.666 -4.552,4.3212 -6.7062,5.9523 -8.8687,6.7153 -0.7778,0.2744 -2.2161,1.0977 -3.1964,1.8295 -1.585,1.1833 -1.7419,1.4189 -1.4181,2.1296 0.2664,0.5845 0.2225,1.1235 -0.1632,2.0071 -0.2901,0.6644 -0.9708,2.2983 -1.5128,3.6308 -1.051,2.5839 -2.5075,4.8237 -4.2108,6.4753 -1.2269,1.1897 -3.4968,5.8361 -3.4968,7.1581 0,0.5024 -0.2278,2.0122 -0.5064,3.355 -0.5885,2.8367 -0.8653,12.3662 -0.4352,14.9801 0.162,0.9851 0.943,3.4033 1.7353,5.3736 2.0262,5.0385 3.4,9.0714 3.6611,10.7472 0.1228,0.7882 0.873,2.7062 1.667,4.2622 6.1168,11.9868 8.1371,19.3446 7.6638,27.9112 -0.1327,2.402 -0.2808,6.6242 -0.3293,9.3827 -0.1047,5.9642 -0.6814,11.7874 -1.437,14.5088 -0.9989,3.598 -0.8082,3.6361 2.4,0.4795 1.6255,-1.5994 4.8094,-4.3272 7.0752,-6.0618 z m 213.6913,6.2988 c 0.1218,-0.1971 0.051,-0.3583 -0.158,-0.3583 -0.2086,0 -0.3794,0.1612 -0.3794,0.3583 0,0.197 0.071,0.3582 0.158,0.3582 0.087,0 0.2576,-0.1612 0.3794,-0.3582 z m -105.2634,-5.4552 c 2.2002,-2.1225 4.2959,-3.8593 4.6571,-3.8595 1.0435,0 8.359,-7.6615 8.359,-8.7536 0,-0.068 -0.3949,-0.2235 -0.8777,-0.3447 -0.4827,-0.1211 -1.8492,-1.1197 -3.0367,-2.2191 l -2.1589,-1.9988 -2.6057,2.6584 c -1.4331,1.4622 -3.5303,3.3334 -4.6606,4.1584 -2.0942,1.5284 -2.2248,1.7717 -2.5711,4.7902 -0.1068,0.9315 -0.48,2.0043 -0.8291,2.384 -0.3492,0.3797 -0.9245,1.1087 -1.2785,1.62 -0.4,0.5777 -0.98,0.9298 -1.5318,0.9298 -0.8681,0 -0.8758,0.024 -0.3415,1.0569 0.6485,1.2541 0.7116,2.9337 0.1319,3.5134 -0.3141,0.3141 -0.3044,0.5477 0.04,0.9629 0.4038,0.4866 0.5814,0.459 1.579,-0.2454 0.6181,-0.4366 2.9241,-2.5304 5.1243,-4.6529 z m 124.7876,4.5807 c 0,-0.3781 -0.6875,-0.537 -0.892,-0.2061 -0.1238,0.2003 0.026,0.3641 0.3335,0.3641 0.3071,0 0.5585,-0.071 0.5585,-0.158 z m -5.5528,-1.9915 c 0.1218,-0.197 0.051,-0.3582 -0.158,-0.3582 -0.2086,0 -0.3793,0.1612 -0.3793,0.3582 0,0.1971 0.071,0.3583 0.1579,0.3583 0.087,0 0.2577,-0.1612 0.3794,-0.3583 z m -0.1321,-1.1972 c -0.2195,-0.2644 -0.293,-0.5868 -0.1633,-0.7165 0.1296,-0.1296 0.048,-0.2357 -0.1822,-0.2357 -0.4793,0 -0.4995,0.087 -0.2005,0.8663 0.1196,0.3117 0.3811,0.5667 0.5812,0.5667 0.2287,0 0.2156,-0.1786 -0.035,-0.4808 z m -108.5943,-8.8335 c 0,-0.1971 -0.1707,-0.3583 -0.3793,-0.3583 -0.2087,0 -0.2798,0.1612 -0.158,0.3583 0.1217,0.197 0.2925,0.3582 0.3794,0.3582 0.087,0 0.1579,-0.1612 0.1579,-0.3582 z m 107.4034,-2.3381 c -0.1103,-0.1103 -0.3106,0.089 -0.4451,0.4419 -0.1945,0.5105 -0.1533,0.5517 0.2005,0.2005 0.2448,-0.243 0.3549,-0.5321 0.2446,-0.6424 z m -104.8957,-1.2444 c 0,-0.197 -0.071,-0.3582 -0.1579,-0.3582 -0.087,0 -0.2577,0.1612 -0.3794,0.3582 -0.1218,0.1971 -0.051,0.3583 0.1579,0.3583 0.2087,0 0.3794,-0.1612 0.3794,-0.3583 z m 107.8308,-1.2538 c -0.2453,-0.2955 -0.5824,-0.5374 -0.7491,-0.5374 -0.1667,0 -0.2103,0.2419 -0.097,0.5374 0.1134,0.2956 0.4505,0.5374 0.7491,0.5374 0.4419,0 0.46,-0.1 0.097,-0.5374 z m -0.3582,-1.6121 c 0,-0.197 -0.1517,-0.3582 -0.3371,-0.3582 -0.1854,0 -0.4368,0.1612 -0.5585,0.3582 -0.1218,0.197 0.03,0.3583 0.3371,0.3583 0.3071,0 0.5585,-0.1613 0.5585,-0.3583 z m -319.5517,-0.5595 c 0,-0.5946 -2.0402,-4.432 -2.8624,-5.3841 -2.681,-3.1042 -6.9862,-12.0227 -8.2757,-17.1439 -0.2259,-0.8971 -0.541,-1.6312 -0.7002,-1.6312 -0.2888,0 -6.4414,15.2522 -6.4353,15.953 0,0.3786 4.3525,2.4792 12.8999,6.2305 4.9381,2.1672 5.3737,2.3274 5.3737,1.9757 z m 318.4518,-4.2013 c 0.014,-0.1556 -0.1965,-0.076 -0.4673,0.1772 -0.2709,0.253 -0.4039,0.6909 -0.2956,0.9731 0.1521,0.3965 0.2583,0.3563 0.4673,-0.1772 0.1487,-0.3797 0.2817,-0.8176 0.2956,-0.9731 z m -3.8711,-0.7084 c -0.3538,-0.3511 -0.3949,-0.31 -0.2005,0.2006 0.1345,0.3533 0.3348,0.5521 0.4452,0.4418 0.1103,-0.1103 2e-4,-0.3993 -0.2447,-0.6424 z m -0.1579,-3.1958 c -0.1144,-0.2857 -0.1993,-0.2009 -0.2165,0.2165 -0.015,0.3776 0.069,0.5892 0.1882,0.4702 0.119,-0.1191 0.1318,-0.428 0.028,-0.6867 z m -314.602,-15.7852 c 0,-7.154 0.4527,-11.1678 1.9696,-17.4641 0.5459,-2.2659 1.4323,-6.1349 1.9698,-8.5978 1.18,-5.4066 1.3186,-5.8797 4.2815,-14.6099 2.5726,-7.5799 3.0414,-8.6311 5.5084,-12.3533 0.9214,-1.3901 1.8363,-2.7837 2.0334,-3.097 0.197,-0.3132 0.9225,-1.1337 1.6121,-1.8233 0.6896,-0.6896 1.4505,-1.694 1.6907,-2.232 0.2914,-0.6522 0.6196,-0.908 0.9852,-0.7677 0.3457,0.1327 0.5482,0.01 0.5482,-0.3404 0,-0.3029 0.3519,-0.6022 0.782,-0.6652 0.5165,-0.076 0.877,-0.472 1.062,-1.1678 0.154,-0.5794 0.531,-1.1938 0.8377,-1.3655 0.3067,-0.1716 0.4641,-0.4633 0.3498,-0.6483 -0.1143,-0.1849 -0.037,-0.3362 0.1716,-0.3362 0.2087,0 0.3794,-0.2255 0.3794,-0.5011 0,-0.5973 3.2821,-5.5796 3.6792,-5.5851 0.1518,0 -0.05,0.6345 -0.4478,1.4148 -0.7272,1.4255 -0.9299,2.1311 -0.4841,1.6853 0.2941,-0.2942 1.5537,0.7975 1.5461,1.34 0,0.2157 -0.1618,0.1505 -0.3528,-0.1451 -0.3464,-0.536 -0.3886,-0.4582 -0.4859,0.8956 -0.028,0.3941 -0.2377,0.6813 -0.4654,0.6382 -0.2565,-0.049 -0.5091,0.7689 -0.6643,2.1495 -0.1862,1.656 -0.4578,2.4116 -1.0584,2.9442 -0.5667,0.5026 -0.9309,1.4297 -1.2199,3.1057 -0.4173,2.4197 -2.1894,7.2853 -4.6749,12.836 -3.6383,8.1252 -6.7901,18.0281 -8.0807,25.3899 -0.2892,1.6498 -0.6297,3.3425 -0.7566,3.7615 -0.4512,1.4898 1.6516,-1.9832 3.2834,-5.4229 0.9101,-1.9183 2.7976,-5.5835 4.1944,-8.1449 2.2868,-4.1933 2.9237,-5.0391 6.3942,-8.4918 2.1199,-2.109 4.4675,-4.2168 5.2168,-4.6839 1.3848,-0.8633 7.6089,-3.4826 8.2755,-3.4826 0.2008,0 0.8232,-0.7315 1.3831,-1.6256 0.909,-1.4514 3.7547,-3.748 4.6441,-3.748 0.1865,0 1.2203,-0.9028 2.2972,-2.0062 1.077,-1.1034 2.5472,-2.3853 3.2672,-2.8488 1.1582,-0.7454 1.4418,-1.2474 2.4592,-4.3526 0.6325,-1.9305 1.2157,-4.0742 1.296,-4.7638 0.08,-0.6897 0.218,-1.4554 0.3059,-1.7017 0.088,-0.2463 0.1248,-0.4602 0.082,-0.4753 -0.043,-0.015 -1.988,-0.1 -4.3219,-0.1876 -4.5614,-0.172 -5.4846,-0.4585 -7.161,-2.2224 l -1.0156,-1.0684 0.9619,-1.4536 c 0.8822,-1.333 2.2774,-2.5581 2.9462,-2.5868 0.1499,-0.01 0.6144,-0.2358 1.0324,-0.5096 0.7871,-0.5158 5.4313,-1.7949 8.547,-2.354 2.8636,-0.5139 3.5209,-1.223 4.0011,-4.3156 0.2262,-1.4571 0.7001,-3.3747 1.0531,-4.2613 0.7885,-1.9803 3.2392,-5.8794 5.5682,-8.8588 1.8324,-2.344 2.0144,-2.8987 1.3174,-4.0148 -0.3226,-0.5165 -0.3287,-1.004 -0.025,-1.9943 0.307,-1.0002 0.302,-1.2664 -0.021,-1.1238 -3.0236,1.3356 -6.3657,2.4379 -8.1929,2.7022 -4.2164,0.6099 -5.692,1.5575 -12.2993,7.8983 -2.5765,2.4726 -6.1276,5.6096 -7.8913,6.9711 -1.7637,1.3615 -3.9321,3.3616 -4.8188,4.4446 -2.2713,2.7743 -7.1353,7.5404 -10.9264,10.7062 -9.2068,7.6887 -9.1351,7.6203 -9.1351,8.7129 0,1.3109 -1.1996,4.546 -2.72,7.3355 -0.6444,1.1822 -1.6651,3.4001 -2.2682,4.9286 -2.3648,5.9925 -5.5222,11.6355 -11.4258,20.42 l -3.7939,5.6453 -0.1469,3.3603 c -0.096,2.2065 0.015,3.8354 0.3249,4.7438 0.2595,0.7608 0.4293,1.5968 0.3774,1.8577 -0.052,0.2609 0.1098,0.7205 0.3594,1.0213 0.2497,0.3009 0.4889,0.785 0.5316,1.076 0.113,0.7699 1.2581,3.124 1.6415,3.3745 0.1804,0.1178 0.4143,0.7627 0.5198,1.4329 0.1055,0.6704 0.6474,3.0727 1.2042,5.3385 0.5568,2.2659 1.1231,4.7243 1.2583,5.4632 0.497,2.7145 0.7036,1.1888 0.7036,-5.1947 z m 27.7656,-69.1106 c 0,-0.6167 1.7595,-2.7722 1.7765,-2.1793 0.01,0.2463 -0.1376,0.4478 -0.3215,0.4478 -0.184,0 -0.3855,0.4309 -0.4478,0.9575 -0.1147,0.9683 -1.0105,1.6567 -1.0072,0.774 z m 283.3675,74.9322 c 0,-0.197 -0.1612,-0.3582 -0.3583,-0.3582 -0.197,0 -0.3582,0.1612 -0.3582,0.3582 0,0.1971 0.1612,0.3583 0.3582,0.3583 0.1971,0 0.3583,-0.1612 0.3583,-0.3583 z m 11.6428,-7.1648 c 0.1218,-0.197 0.051,-0.3582 -0.158,-0.3582 -0.2086,0 -0.3793,0.1612 -0.3793,0.3582 0,0.197 0.071,0.3582 0.1579,0.3582 0.087,0 0.2577,-0.1612 0.3794,-0.3582 z m -0.1346,-1.5285 c -0.3538,-0.3512 -0.395,-0.31 -0.2006,0.2005 0.1345,0.3534 0.3349,0.5522 0.4452,0.4419 0.1103,-0.1103 2e-4,-0.3994 -0.2446,-0.6424 z m -1.1192,-4.6969 c 0,-0.074 -0.2455,-0.339 -0.5456,-0.588 -0.4561,-0.3786 -0.5086,-0.3564 -0.3199,0.1353 0.1927,0.5021 0.8655,0.8541 0.8655,0.4527 z m -359.3433,-23.1504 c 0,-0.2956 -0.2368,0 -0.5246,0.668 -0.2879,0.663 -0.5177,1.3079 -0.5107,1.433 0.026,0.4661 1.0366,-1.5848 1.0353,-2.101 z m 5.4004,-10.1888 c 0,-0.3781 -0.6875,-0.5369 -0.892,-0.2061 -0.1238,0.2003 0.026,0.3641 0.3335,0.3641 0.3072,0 0.5585,-0.071 0.5585,-0.158 z m 1.7912,-3.0662 c 0,-0.197 -0.071,-0.3582 -0.158,-0.3582 -0.087,0 -0.2576,0.1612 -0.3794,0.3582 -0.1218,0.1971 -0.051,0.3583 0.158,0.3583 0.2087,0 0.3794,-0.1612 0.3794,-0.3583 z m -0.4343,-1.4819 c -0.089,-0.2683 -0.2518,-0.1059 -0.3785,0.3785 -0.1558,0.5959 -0.1092,0.7357 0.1566,0.4699 0.2082,-0.2082 0.3081,-0.59 0.2219,-0.8484 z m 297.4167,-25.1859 c 0,-0.284 -0.1514,-0.6099 -0.3365,-0.7243 -0.1851,-0.1144 -0.312,0.1179 -0.282,0.5163 0.062,0.818 0.6185,1.0053 0.6185,0.208 z m -51.5868,-24.8827 c 0,-0.3387 0.2215,-0.9187 0.4923,-1.289 0.4578,-0.6261 0.3012,-0.7528 -2.2391,-1.8113 -1.5021,-0.626 -4.2513,-1.8048 -6.1092,-2.6195 -1.8579,-0.8147 -3.47,-1.4822 -3.5824,-1.4833 -0.1124,0 1.0852,1.35 2.6615,3.0026 1.5763,1.6525 3.7479,4.3596 4.8258,6.0156 l 1.96,3.0111 0.9955,-2.1052 c 0.5476,-1.1578 0.9956,-2.3823 0.9956,-2.721 z m 27.2142,-9.9238 c -2.1837,-2.2373 -3.6737,-3.3155 -7.1298,-5.1591 -1.2933,-0.6899 -2.9934,-1.6975 -3.778,-2.2391 -2.1731,-1.4999 -2.1362,-1.1853 0.1098,0.9343 1.1183,1.0554 4.0484,3.1426 6.5113,4.6383 2.4629,1.4956 4.8004,2.9645 5.1945,3.2642 1.335,1.0152 1.0568,0.5743 -0.9078,-1.4386 z m -132.422,-12.5363 c 0.9218,-0.314 1.6759,-0.7171 1.6759,-0.8956 0,-0.1785 -1.2986,-0.3245 -2.8859,-0.3245 l -2.8859,0 1.0052,0.8842 c 1.2063,1.0613 1.021,1.0412 3.0907,0.3359 z m 16.4534,-0.024 c -0.2463,-0.099 -0.6493,-0.099 -0.8956,0 -0.2463,0.099 -0.045,0.1807 0.4478,0.1807 0.4926,0 0.6941,-0.081 0.4478,-0.1807 z m -10.4447,-27.1524 c 0.249,0.6365 0.2763,0.6233 0.2992,-0.1438 0.019,-0.6276 -0.1202,-0.7885 -0.5415,-0.6269 -0.3116,0.1196 -0.6341,0.2175 -0.7164,0.2175 -0.082,0 -0.145,0.2821 -0.139,0.6269 0.01,0.5558 0.057,0.5474 0.4173,-0.074 0.4033,-0.6953 0.4084,-0.6953 0.6804,0 z m 54.4189,391.5537 c 0,-0.3196 0.2101,-0.4455 0.5353,-0.3207 0.2944,0.1129 0.4461,0.3497 0.3371,0.5261 -0.3126,0.5058 -0.8724,0.374 -0.8724,-0.2054 z m -144.3715,-41.4093 c 0,-0.2087 0.1612,-0.2798 0.3583,-0.158 0.197,0.1217 0.3582,0.2925 0.3582,0.3794 0,0.087 -0.1612,0.1579 -0.3582,0.1579 -0.1971,0 -0.3583,-0.1707 -0.3583,-0.3793 z m 275.2018,-218.8976 c -2.4717,-5.3052 -3.367,-7.7976 -2.6395,-7.3479 0.1643,0.1015 0.2986,-0.051 0.2986,-0.3391 0,-0.288 -0.2389,-0.4824 -0.5309,-0.4321 -0.5564,0.096 -2.6497,-3.2574 -2.3431,-3.7535 0.093,-0.151 0.031,-0.2747 -0.1388,-0.2747 -0.1698,0 -0.6049,-0.8463 -0.9668,-1.8807 -0.362,-1.0345 -0.7969,-2.034 -0.9664,-2.2211 -0.4923,-0.5436 -0.3588,-0.8581 0.3187,-0.7511 0.4462,0.07 0.5972,0.3711 0.5238,1.043 -0.078,0.7135 0.057,0.944 0.5525,0.944 0.4701,0 1.347,1.2679 3.0995,4.4816 2.1369,3.9184 2.3825,4.5573 1.9552,5.0841 -0.3357,0.414 -0.3485,0.5184 -0.041,0.3336 0.2463,-0.148 0.4478,-0.098 0.4478,0.1103 0,0.2087 -0.2418,0.3794 -0.5373,0.3794 -0.2956,0 -0.5374,0.1612 -0.5374,0.3582 0,0.1971 0.2015,0.318 0.4478,0.2687 0.2682,-0.054 0.4625,0.3199 0.4844,0.9314 0.02,0.5614 0.2424,1.1479 0.4937,1.3033 0.2514,0.1554 0.3463,0.4617 0.2109,0.6808 -0.1353,0.219 -0.089,0.3983 0.1034,0.3983 0.1923,0 0.4417,-0.2015 0.5543,-0.4478 0.1126,-0.2463 0.1079,0.1003 -0.01,0.7702 -0.1804,1.0214 -0.1219,1.1823 0.3625,0.9964 0.6351,-0.2437 0.7609,0.3446 0.2473,1.1559 -0.2351,0.3715 -0.6011,-0.1006 -1.3888,-1.7912 z m -1.093,-6.2363 c 0,-0.1872 -0.1464,-0.3891 -0.3254,-0.4488 -0.179,-0.06 -0.3255,0.1423 -0.3255,0.4488 0,0.3065 0.1465,0.5085 0.3255,0.4488 0.179,-0.06 0.3254,-0.2616 0.3254,-0.4488 z m -1.7733,-3.1167 c -0.2365,-0.2364 -0.4299,-0.6549 -0.4299,-0.9298 0,-0.7021 -1.3948,-2.5833 -1.9052,-2.5696 -0.2328,0.01 -0.1105,0.2481 0.272,0.5374 0.3825,0.2893 0.5725,0.526 0.4222,0.526 -0.1502,0 -0.02,0.2533 0.2898,0.5629 0.3096,0.3096 0.5629,0.847 0.5629,1.1942 0,0.7132 0.3025,1.1088 0.8479,1.1088 0.2216,0 0.1976,-0.1726 -0.06,-0.4299 z m 20.169,9.0277 c -0.3057,-0.5911 -0.4752,-1.0747 -0.3767,-1.0747 0.098,0 0.4293,0.4836 0.7349,1.0747 0.3057,0.5911 0.4752,1.0747 0.3767,1.0747 -0.099,0 -0.4293,-0.4836 -0.7349,-1.0747 z m -17.0573,-1.5225 c -0.1234,-0.2705 -0.2553,-2.0599 -0.1519,-2.0599 0.067,0 0.2912,0.4836 0.4973,1.0747 0.2274,0.6526 0.2412,1.0747 0.035,1.0747 -0.1868,0 -0.358,-0.04 -0.3805,-0.09 z m -8.3548,-16.2846 c -0.1945,-0.5105 -0.1533,-0.5517 0.2005,-0.2005 0.2448,0.243 0.3549,0.5321 0.2446,0.6424 -0.1103,0.1103 -0.3106,-0.088 -0.4451,-0.4419 z m -5.199,-12.6248 c -0.3942,-0.3943 -0.8147,-1.1643 -0.9342,-1.7112 -0.3457,-1.5814 -0.9364,-2.9646 -1.266,-2.9646 -0.167,0 -0.2112,-0.2409 -0.098,-0.5353 0.113,-0.2944 0.3497,-0.4461 0.5261,-0.3371 0.1764,0.109 0.3207,-0.084 0.3207,-0.4288 0,-0.5652 0.051,-0.5585 0.5124,0.069 0.2818,0.3824 0.3624,0.7491 0.1791,0.8147 -0.6621,0.2373 -0.3155,0.8552 0.378,0.6738 0.5289,-0.1383 0.9878,0.1903 1.7912,1.2827 1.2996,1.7672 1.3344,2.3799 0.1827,3.2177 -0.844,0.6141 -0.9001,0.6112 -1.5918,-0.08 z m 4.2803,-15.0437 c 0,-0.8649 0.1992,-0.9522 0.4834,-0.2117 0.111,0.2893 0.048,0.6212 -0.1408,0.7376 -0.1884,0.1165 -0.3426,-0.1202 -0.3426,-0.5259 z m -1.1204,-0.2552 c -0.2704,-0.3259 -0.4454,-0.8654 -0.3889,-1.199 0.057,-0.3337 -0.1713,-0.8329 -0.5064,-1.1093 -0.5588,-0.461 -0.5724,-0.4336 -0.1653,0.3305 0.4105,0.7702 0.391,0.8048 -0.2574,0.4578 -0.3858,-0.2065 -0.796,-0.6217 -0.9115,-0.9228 -0.2452,-0.6388 0.065,-1.622 0.5111,-1.622 0.1697,0 0.2262,0.2149 0.1253,0.4776 -0.1048,0.2732 0.058,0.4777 0.3795,0.4777 0.3095,0 0.4777,-0.1746 0.3739,-0.3881 -0.1039,-0.2134 -0.288,-0.6686 -0.4091,-1.0114 -0.1939,-0.5491 -0.3059,-0.5143 -0.94,0.2918 l -0.7198,0.9151 -1.016,-1.1874 c -0.5588,-0.6531 -1.0225,-1.4587 -1.0306,-1.7902 -0.01,-0.3315 -0.3195,-0.6995 -0.6923,-0.8179 -0.3728,-0.1183 -0.7576,-0.5201 -0.855,-0.8929 -0.1311,-0.501 -0.032,-0.6222 0.3783,-0.4646 0.3831,0.147 0.4692,0.073 0.2772,-0.2372 -0.153,-0.2477 -0.5706,-0.3739 -0.9278,-0.2805 -0.5369,0.1404 -0.598,0.037 -0.3523,-0.5957 0.1636,-0.421 0.474,-0.7252 0.69,-0.676 0.7526,0.1717 0.4975,-0.2365 -1.5912,-2.5457 -0.509,-0.5627 -0.8543,-1.0943 -0.7673,-1.1813 0.2693,-0.2693 3.512,3.5807 3.8935,4.6226 0.1984,0.5419 0.5609,0.9852 0.8055,0.9852 0.2446,0 1.3519,1.2601 2.4608,2.8002 1.6181,2.2473 1.9802,2.9985 1.8338,3.8056 -0.1372,0.7568 -0.06,0.9583 0.3141,0.815 0.3621,-0.139 0.4518,0.043 0.3315,0.6723 -0.196,1.0252 -0.2128,1.0306 -0.8436,0.2706 z m -2.462,-4.6297 c 0,-0.1137 -0.5154,-0.7182 -1.1453,-1.3434 -0.6299,-0.6252 -1.0656,-0.9756 -0.9683,-0.7785 0.097,0.197 0.3982,0.8015 0.6685,1.3434 0.4215,0.845 1.4451,1.3964 1.4451,0.7785 z m -0.3582,-1.7198 c 0,-0.074 -0.2822,-0.3565 -0.627,-0.6269 -0.5682,-0.4456 -0.5808,-0.433 -0.1352,0.1352 0.468,0.5968 0.7622,0.7865 0.7622,0.4917 z m -7.9924,-8.9769 c -0.3566,-0.2704 -0.499,-0.5839 -0.3165,-0.6967 0.1825,-0.1127 0.6201,0.1136 0.9725,0.503 0.7305,0.8071 0.3149,0.9298 -0.656,0.1937 z m -2.5893,-3.1115 c -0.9777,-1.0091 -1.6103,-1.7748 -1.4058,-1.7016 0.3896,0.1393 3.5906,3.5362 3.3323,3.5362 -0.082,0 -0.9487,-0.8255 -1.9265,-1.8346 z m -294.2821,-2.4015 c 0,-0.1659 0.1121,-0.4137 0.2491,-0.5508 0.1371,-0.1371 0.2807,-0.4636 0.3192,-0.7257 0.2005,-1.3659 2.8919,-6.1686 3.3852,-6.0407 0.19,0.049 0.3454,-0.1985 0.3454,-0.5507 0,-0.3992 0.2912,-0.6621 0.7738,-0.6985 0.4256,-0.032 0.9004,-0.2632 1.0552,-0.5136 0.4066,-0.6578 0.7589,-0.1475 0.8875,1.2854 0.094,1.0433 0.013,1.2111 -0.4963,1.0288 -0.3345,-0.1197 -0.4929,-0.09 -0.3521,0.066 0.1409,0.1558 0.1019,0.5715 -0.087,0.9238 -0.2156,0.4028 -0.2166,0.6844 0,0.7589 0.187,0.065 0.045,0.7748 -0.3149,1.577 -0.5433,1.21 -0.9832,1.5937 -2.5818,2.2513 -1.0598,0.436 -2.209,0.9497 -2.5538,1.1417 -0.3448,0.192 -0.627,0.2133 -0.627,0.047 z m 8.4784,-8.8994 c -0.4345,-0.4345 -0.2479,-2.1736 0.2802,-2.6119 0.2854,-0.2369 0.7045,-0.9929 0.9313,-1.68 0.2267,-0.687 0.4775,-1.1839 0.5573,-1.1041 0.08,0.08 -0.041,0.6794 -0.269,1.3326 -0.3558,1.0207 -0.3253,1.2525 0.217,1.649 0.5967,0.4364 0.5886,0.5209 -0.1494,1.5573 -0.7875,1.106 -1.1308,1.2937 -1.5674,0.8571 z"
       id="path3345"/>
  </g>
</svg>
