<?xml version="1.0" encoding="UTF-8" standalone="no"?>
<!-- Created with Inkscape (http://www.inkscape.org/) -->

<svg
   width="401.06171"
   height="400.00009"
   viewBox="0 0 401.06171 400.0001"
   id="svg2"
   version="1.1">
  <g
     id="layer1"
     transform="translate(809.65071,-248.61765)">
    <path
       style="fill:#dece23"
       d="m -637.37504,648.20686 c -1.17181,-0.26369 -3.24911,-0.67088 -4.61622,-0.90485 -1.36711,-0.23397 -2.71607,-0.60135 -2.99769,-0.8164 -0.40464,-0.30897 -0.45497,-0.27925 -0.23999,0.14168 0.14962,0.29296 0.0282,0.23298 -0.26987,-0.1333 -0.29805,-0.36628 -0.76981,-0.57852 -1.04835,-0.47164 -0.27853,0.10689 -0.69564,0.007 -0.9269,-0.22175 -0.3219,-0.31859 -0.49836,-0.27818 -0.75263,0.17225 -0.41023,0.72674 -1.58646,0.4813 -2.25283,-0.47003 -0.2623,-0.37452 -0.61694,-0.6488 -0.7881,-0.60959 -0.48982,0.11228 -1.68556,-0.47608 -2.20442,-1.08467 -0.42271,-0.49586 -0.45213,-0.48876 -0.27746,0.0667 0.28589,0.90926 -0.7862,0.71758 -4.57609,-0.81817 -0.58591,-0.23741 -1.44218,-0.48094 -1.90284,-0.5412 -0.46065,-0.0603 -1.09982,-0.33744 -1.42037,-0.61598 -0.32056,-0.27853 -0.78257,-0.43403 -1.02669,-0.34561 -0.24413,0.0884 -0.44387,-0.0295 -0.44387,-0.26188 0,-0.23611 -0.24324,-0.32932 -0.55109,-0.21118 -0.316,0.12127 -0.45854,0.0617 -0.33413,-0.13959 0.23659,-0.38279 -0.1253,-0.45452 -1.8309,-0.36287 -0.61501,0.033 -1.23892,-0.13525 -1.38647,-0.37398 -0.1812,-0.2932 -0.12027,-0.3426 0.18775,-0.15223 0.30315,0.18735 0.40321,0.11647 0.29846,-0.21146 -0.0904,-0.28297 -3.63018,-1.65378 -8.302,-3.21499 -7.10966,-2.37593 -8.21566,-2.65787 -8.70504,-2.21933 -0.75401,0.67567 -4.09982,0.64836 -6.81672,-0.0557 -2.90798,-0.75354 -5.80783,-2.26617 -8.30434,-4.33168 -3.10332,-2.56762 -7.97681,-6.15797 -9.98987,-7.35965 -0.9802,-0.58516 -1.70339,-1.19137 -1.6071,-1.34715 0.32032,-0.5183 -0.6774,-1.33956 -1.36302,-1.12196 -0.71564,0.22712 -3.67159,-1.67537 -3.25317,-2.09381 0.12775,-0.12776 0.0458,-0.23227 -0.18201,-0.23227 -0.22785,0 -0.41427,-0.23969 -0.41427,-0.53264 0,-0.29295 -0.12334,-0.53264 -0.27409,-0.53264 -0.33699,0 -5.58969,-3.35323 -8.24817,-5.26551 -1.85056,-1.33111 -8.95834,-5.09969 -9.45378,-5.01241 -0.12755,0.0224 -0.32967,-0.11029 -0.44916,-0.29504 -0.11948,-0.18472 -0.70663,-0.58648 -1.30478,-0.89278 -0.59814,-0.3063 -1.87648,-1.25455 -2.84075,-2.10724 -0.96427,-0.85268 -2.79187,-2.28293 -4.06133,-3.17827 -1.26946,-0.89537 -3.17946,-2.56605 -4.24443,-3.71258 -1.06498,-1.14656 -3.14228,-3.1037 -4.61623,-4.34922 -1.47394,-1.24551 -2.73184,-2.30947 -2.79532,-2.36434 -0.0635,-0.0549 -0.15877,-0.31416 -0.21176,-0.57619 -0.22922,-1.13353 -1.04643,-2.66668 -3.14594,-5.90201 -1.23197,-1.89846 -2.79212,-4.56762 -3.467,-5.93147 -1.15099,-2.32604 -2.80168,-4.27797 -6.19836,-7.3296 -2.03703,-1.83009 -6.82627,-7.17182 -9.03381,-10.07594 -1.0392,-1.36712 -2.88312,-3.52431 -4.09762,-4.79377 -1.2145,-1.26947 -2.58487,-2.86739 -3.04526,-3.55094 -0.46039,-0.68356 -1.7741,-2.36138 -2.91937,-3.72849 -1.14526,-1.36712 -2.6463,-3.6841 -3.33564,-5.14887 -0.68935,-1.46476 -1.78179,-3.70185 -2.42765,-4.97131 -0.64586,-1.26947 -1.36508,-3.0245 -1.59827,-3.90009 -0.23318,-0.87559 -0.78815,-2.31372 -1.23328,-3.19585 -2.40509,-4.76636 -10.49967,-24.40427 -10.46767,-25.39517 0.0107,-0.33157 1.55085,2.79589 2.97278,6.0366 0.34277,0.7812 0.75984,1.66006 0.92682,1.95301 0.63836,1.11992 2.94147,5.98222 4.16274,8.78836 0.70118,1.61111 1.32584,2.87833 1.38814,2.81603 0.20911,-0.20911 -1.31278,-5.27116 -1.97844,-6.58061 -0.89413,-1.75892 -5.79956,-14.23345 -6.72313,-17.09698 -1.17812,-3.65275 -2.18811,-8.4156 -2.13013,-10.04516 0.0419,-1.17684 0.0838,-1.26846 0.19701,-0.43011 0.24857,1.84132 2.92315,9.69603 5.50149,16.15678 2.23683,5.605 3.25318,7.85522 2.62964,5.82209 -0.12603,-0.41093 -0.45769,-2.04702 -0.73701,-3.63575 -0.28415,-1.61616 -0.89511,-3.55514 -1.38694,-4.40172 -1.71758,-2.95639 -3.84231,-9.31687 -5.013,-15.00668 -1.06947,-5.1979 -1.15311,-6.06398 -0.98251,-10.17479 0.14076,-3.39208 0.0482,-5.08908 -0.37778,-6.92433 -0.31033,-1.33709 -0.66423,-3.46971 -0.78645,-4.73917 -0.12221,-1.26946 -0.44657,-3.20235 -0.72079,-4.29532 -0.95679,-3.8135 -1.91793,-19.14089 -1.20027,-19.14089 0.18094,0 0.22527,-0.72148 0.10034,-1.63294 -0.165,-1.20384 -0.0932,-1.71563 0.27312,-1.94758 0.27331,-0.17306 0.32382,-0.31709 0.11225,-0.32008 -0.21158,-0.003 -0.38469,-0.24512 -0.38469,-0.53808 0,-0.29295 0.14393,-0.53264 0.31984,-0.53264 0.17591,0 0.21841,-0.31958 0.0944,-0.71019 -0.12398,-0.3906 -0.0948,-0.71099 0.0648,-0.71199 0.15964,-10e-4 0.32959,-2.19813 0.37766,-4.88254 0.0912,-5.0915 0.59478,-9.86973 1.10991,-10.53124 0.16537,-0.21235 0.34004,-1.10517 0.38816,-1.98403 0.0481,-0.87885 0.12052,-2.15719 0.1609,-2.84075 0.0404,-0.68355 0.10338,-2.01127 0.14002,-2.95048 0.0366,-0.93921 0.18646,-1.63359 0.33294,-1.54306 0.30933,0.19118 0.4437,-0.94875 0.42614,-3.61514 -0.0167,-2.53014 0.52106,-2.10038 0.66208,0.52914 0.0612,1.14157 0.26086,2.22739 0.44366,2.41292 0.1828,0.18554 0.33236,0.77682 0.33236,1.31396 0,0.53714 0.19974,1.1044 0.44387,1.26058 1.03338,0.66111 1.39998,1.64292 1.52548,4.08547 0.0732,1.4246 0.19402,3.06957 0.26847,3.65548 0.67022,5.27394 1.04426,13.67112 0.60896,13.67112 -0.33983,0 0.0309,2.46657 0.40555,2.69811 0.19382,0.11979 0.1403,0.44315 -0.12801,0.77338 -0.39455,0.48559 -0.37141,0.5339 0.1603,0.33463 0.68559,-0.25694 0.63954,-0.63537 0.78295,6.43385 0.0514,2.53234 0.21551,3.7579 0.52928,3.95182 0.36433,0.22517 0.35852,0.3194 -0.0292,0.47359 -0.32381,0.12878 -0.3408,0.20178 -0.0513,0.22054 0.238,0.0154 0.35057,0.24212 0.25016,0.50378 -0.10041,0.26166 0.0437,0.66355 0.3203,0.89309 0.35119,0.29146 0.42892,0.7638 0.25771,1.56604 -0.15801,0.74039 -0.0754,1.4154 0.23244,1.89901 0.78825,1.23833 2.11793,8.13842 1.49401,7.75281 -0.18465,-0.11411 -0.25061,-0.34519 -0.14659,-0.5135 0.10402,-0.16831 0.0267,-0.40639 -0.17175,-0.52906 -0.61299,-0.37885 -0.3975,1.15191 0.25385,1.80326 0.65608,0.65608 1.05528,2.63183 0.53177,2.63183 -0.37903,0 -0.12066,2.14607 0.32611,2.70879 0.18883,0.23783 0.17621,0.77391 -0.031,1.31903 -0.19654,0.51695 -0.21314,1.00243 -0.038,1.11069 0.17116,0.10578 0.38006,-0.008 0.46422,-0.25375 0.0842,-0.24534 0.1618,0.67247 0.17256,2.03958 0.0222,2.82788 0.6711,6.28148 2.56824,13.66961 1.03138,4.01656 1.35831,4.89827 1.48815,4.01356 0.10069,-0.68601 0.0294,-1.04914 -0.18037,-0.91947 -0.205,0.1267 -0.26491,-0.0987 -0.14654,-0.55139 0.11013,-0.42115 0.0554,-0.76572 -0.12161,-0.76572 -0.17702,0 -0.32185,-0.38452 -0.32185,-0.85449 0,-0.69754 0.13918,-0.81809 0.75773,-0.65634 0.54671,0.14297 0.71057,0.0595 0.58841,-0.29957 -0.0931,-0.27374 -0.48881,-0.45198 -0.87929,-0.3961 -0.59897,0.0857 -0.71423,-0.10857 -0.73726,-1.24283 -0.0249,-1.22421 -0.14851,-3.19521 -0.60264,-9.60628 -0.0867,-1.22389 -0.25114,-2.37656 -0.36543,-2.56149 -0.11429,-0.18492 0.0777,-0.62252 0.42657,-0.97243 0.66841,-0.67034 0.85669,-1.86036 0.29778,-1.88209 -0.181,-0.007 -0.36707,0.24593 -0.41348,0.56215 -0.0464,0.31621 -0.18599,0.67654 -0.31017,0.80072 -0.12418,0.12418 -0.14996,-0.19237 -0.0573,-0.70344 0.0927,-0.51107 -0.0574,-1.36465 -0.3335,-1.89683 -0.60216,-1.16066 -0.64628,-2.17573 -0.109,-2.50779 0.27638,-0.17081 0.28034,-0.31252 0.0134,-0.47753 -0.50803,-0.31398 -0.0934,-1.80715 0.50184,-1.80715 0.70923,0 0.98249,-0.67614 0.50553,-1.25085 -0.32723,-0.39428 -0.32613,-0.91289 0.005,-2.29256 0.39948,-1.66524 1.06709,-2.44751 1.06709,-1.25036 0,0.29295 -0.17056,0.53264 -0.37903,0.53264 -0.21743,0 -0.28292,0.30279 -0.15361,0.71019 0.12639,0.39823 0.0638,0.71019 -0.14248,0.71019 -0.53043,0 -0.0805,0.97188 0.56456,1.2194 0.38157,0.14642 0.48304,0.0483 0.33879,-0.32764 -0.11327,-0.29517 -0.0833,-0.53667 0.0667,-0.53667 0.37888,0 1.05379,1.99557 1.32104,3.90604 0.12295,0.87885 0.47472,2.79636 0.78173,4.26113 0.307,1.46476 0.58693,3.06268 0.62205,3.55094 0.0351,0.48825 0.1745,1.23062 0.30973,1.6497 0.13522,0.41908 0.3161,1.21805 0.40194,1.77547 0.0858,0.55743 0.30609,1.89236 0.48944,2.96652 0.18336,1.07416 0.51383,3.07156 0.73439,4.43868 0.22055,1.36711 0.56236,2.87086 0.75958,3.34167 0.19721,0.47081 0.65493,2.30842 1.01716,4.08359 0.36223,1.77516 0.78059,3.53341 0.9297,3.90722 0.17711,0.44405 0.14104,0.5993 -0.10405,0.44782 -0.20633,-0.12753 -0.0737,0.35943 0.29475,1.08211 0.36844,0.72268 0.66989,1.59033 0.66989,1.92811 0,0.33779 0.1598,0.71291 0.3551,0.83362 0.1953,0.1207 0.35509,0.59644 0.35509,1.05719 0,1.03773 0.33748,1.96111 0.71676,1.96111 0.31206,0 0.25141,-0.53952 -0.17015,-1.51351 -0.14896,-0.34418 -0.18965,-1.14314 -0.0904,-1.77547 0.12002,-0.76488 -0.32806,-2.81364 -1.33874,-6.12102 -1.63955,-5.36532 -3.0519,-11.39377 -2.74197,-11.70371 0.48499,-0.48498 0.75698,-0.003 1.45236,2.57421 1.77646,6.58368 4.87555,14.63346 5.63373,14.63346 0.33666,0 0.44147,-0.20582 0.29678,-0.58286 -0.17677,-0.46065 -0.12204,-0.49853 0.26101,-0.18063 0.26656,0.22123 0.61542,0.28378 0.77524,0.13899 0.15982,-0.14477 0.17853,-0.0682 0.0416,0.17022 -0.15902,0.27682 0.077,0.51529 0.65326,0.65991 0.49624,0.12455 0.90226,0.37836 0.90226,0.56401 0,0.18566 -0.1598,0.2388 -0.3551,0.1181 -0.77719,-0.48034 -0.29225,0.0904 0.70033,0.82429 0.90565,0.66958 1.02718,0.69165 0.85641,0.15555 -0.10946,-0.34361 0.297,0.24433 0.90323,1.30654 0.60624,1.06221 1.33975,2.19372 1.63003,2.51447 0.29028,0.32076 0.42765,0.68332 0.30527,0.8057 -0.12238,0.12237 0.19686,0.72089 0.70941,1.33003 0.51256,0.60914 0.93192,1.31538 0.93192,1.56944 0,0.25406 0.26961,0.68122 0.59913,0.94927 0.53266,0.43328 0.56866,0.40856 0.32452,-0.22285 -0.15103,-0.3906 -0.33458,-1.00545 -0.40787,-1.36632 -0.11328,-0.55769 -0.0135,-0.53105 0.6648,0.17755 1.04135,1.0878 1.73996,2.69548 1.29169,2.97252 -0.18794,0.11615 -0.33926,0.40149 -0.33627,0.6341 0.004,0.29755 0.0921,0.28635 0.29767,-0.0378 0.42961,-0.67725 1.20295,0.35686 0.88551,1.18411 -0.16643,0.4337 -0.11322,0.55506 0.16735,0.38166 0.26877,-0.16611 0.33807,-0.0632 0.1999,0.29684 -0.11631,0.3031 -0.059,0.55108 0.12735,0.55108 0.18635,0 0.51222,0.35954 0.72415,0.79896 0.21193,0.43943 0.39614,0.59923 0.40936,0.3551 0.0579,-1.06891 0.75211,-0.29097 1.25672,1.40825 0.30252,1.01866 1.48837,3.29571 2.63524,5.06009 1.14687,1.76438 4.20559,6.8832 6.79716,11.37514 5.37474,9.316 13.17914,22.10586 16.69421,27.3585 1.79857,2.68763 3.11954,4.18041 5.35742,6.05421 4.90363,4.10587 9.18608,7.28643 9.52704,7.0757 0.17642,-0.10903 0.23544,-0.72406 0.13115,-1.36672 -0.5581,-3.43917 3.03129,-14.3369 6.30535,-19.14363 0.7634,-1.12078 1.38801,-2.16809 1.38801,-2.32737 0,-0.15927 0.46134,-1.01706 1.02521,-1.90618 0.56387,-0.88913 1.12457,-1.92964 1.24601,-2.31225 0.19633,-0.61859 0.063,-0.688 -1.20322,-0.62659 -0.7832,0.038 -1.62354,0.22098 -1.86742,0.40667 -0.67473,0.51372 -4.05597,1.87916 -4.65338,1.87916 -0.29603,0 -0.62896,0.4625 -0.75895,1.05433 -0.13749,0.626 -1.23927,2.09247 -2.71205,3.60974 -1.49531,1.54047 -2.56251,2.9655 -2.68699,3.58794 -0.18127,0.90631 -0.31973,1.00411 -1.13269,0.80007 -0.5094,-0.12785 -0.94682,-0.25942 -0.97204,-0.29237 -0.0252,-0.033 -0.39118,-0.74461 -0.81324,-1.58146 -1.42568,-2.82682 -0.82808,-9.39461 1.22237,-13.43432 1.75138,-3.45049 3.73224,-5.31634 8.27028,-7.79005 3.95794,-2.1575 5.3912,-3.28978 5.3912,-4.25904 0,-0.32051 0.30088,-1.0069 0.66862,-1.5253 0.71554,-1.00871 1.3247,-2.06615 3.33091,-5.7821 0.85869,-1.5905 1.15409,-2.47063 0.91087,-2.71385 -0.47225,-0.47225 0.0195,-1.36857 1.50566,-2.74433 0.63291,-0.5859 1.01993,-0.83838 0.86004,-0.56107 -0.21721,0.37672 -0.14131,0.44406 0.30017,0.26632 1.91189,-0.76972 1.86604,-0.76567 1.33926,-0.11824 -0.61507,0.75592 -0.24834,1.20701 0.48588,0.59766 0.29768,-0.24704 0.54123,-0.97129 0.54123,-1.60944 0,-2.59708 1.45462,-8.20223 2.85559,-11.00352 l 1.4207,-2.84075 -2.22692,-2.16013 c -2.56347,-2.48659 -3.20544,-3.35913 -4.81157,-6.53968 -1.36286,-2.69884 -2.55837,-8.07796 -2.57727,-11.59633 -0.0147,-2.74356 -0.46243,-5.1621 -2.09308,-11.30724 -1.30198,-4.9065 -3.39225,-15.25805 -3.76444,-18.64244 -0.13961,-1.26946 -0.44657,-2.58447 -0.68214,-2.92225 -0.49221,-0.70578 -0.29137,-2.8613 0.23622,-2.53523 0.73424,0.45378 -0.41359,-1.15816 -1.99603,-2.8031 -1.68296,-1.74945 -3.25707,-3.98027 -4.00569,-5.67686 -0.26626,-0.60341 -0.7065,-0.97651 -1.15224,-0.97651 -0.51364,0 -0.99304,-0.53678 -1.66494,-1.86424 -0.51898,-1.02534 -1.64022,-2.68044 -2.49164,-3.678 -0.85143,-0.99757 -1.54805,-2.16549 -1.54805,-2.59539 0,-0.49238 0.14906,-0.68951 0.4028,-0.53269 0.28733,0.17758 0.33059,-0.0964 0.15091,-0.95555 -0.13855,-0.66248 -0.2631,-1.63903 -0.27677,-2.17013 -0.0137,-0.53109 -0.16148,-0.8812 -0.32845,-0.778 -0.16697,0.10319 -0.30358,-0.27418 -0.30358,-0.83861 0,-0.73123 -0.25519,-1.16282 -0.88774,-1.50134 -1.07288,-0.57419 -1.09443,-0.76815 -0.17754,-1.59792 0.3906,-0.3535 0.71019,-0.93753 0.71019,-1.29787 0,-0.36033 0.16922,-0.65515 0.37605,-0.65515 0.20683,0 0.28848,-0.14169 0.18145,-0.31486 -0.10703,-0.17317 0.0433,-0.51232 0.33414,-0.75367 0.2908,-0.24134 0.52873,-0.7294 0.52873,-1.08456 0,-0.35516 0.15979,-0.74451 0.3551,-0.86521 0.1953,-0.12071 0.35509,-0.47459 0.35509,-0.7864 0,-0.31182 0.37085,-1.0614 0.82412,-1.66574 1.15492,-1.53986 1.49345,-2.14403 1.04659,-1.86785 -0.20328,0.12563 -0.4527,-0.0894 -0.55427,-0.47778 -0.14191,-0.54269 -0.007,-0.70745 0.58105,-0.71163 0.62701,-0.004 0.66923,-0.0688 0.23307,-0.3551 -0.44432,-0.29169 -0.40017,-0.38597 0.26632,-0.56862 0.43943,-0.12042 0.79897,-0.36711 0.79897,-0.5482 0,-0.18108 0.19974,-0.29621 0.44386,-0.25583 1.34792,0.22292 2.65184,-0.44336 7.37783,-3.76998 3.70144,-2.60544 7.05942,-4.18708 11.11598,-5.23574 1.69298,-0.43766 3.07816,-0.91691 3.07816,-1.06501 0,-0.14811 -0.21814,-0.26928 -0.48475,-0.26928 -0.82243,0 -2.34041,-1.41811 -3.08929,-2.88604 -0.96997,-1.9013 -0.96066,-4.13668 0.0257,-6.17427 1.35038,-2.78952 2.92921,-3.60548 13.33711,-6.8928 1.96606,-0.62098 5.54888,-2.0573 7.96182,-3.19183 l 4.38718,-2.06279 -0.0797,-2.26829 c -0.10463,-2.97928 0.90737,-6.20068 2.95179,-9.39612 l 1.59358,-2.49079 -1.35249,-2.82522 c -2.53527,-5.29592 -2.59511,-7.30102 -0.3606,-12.08331 1.33629,-2.85994 2.13024,-3.81365 4.52661,-5.4375 2.88627,-1.95583 4.50867,-2.69939 7.42399,-3.40247 1.41593,-0.34149 2.57443,-0.7542 2.57443,-0.91714 0,-0.16294 -1.80213,-1.64309 -4.00473,-3.28922 -6.69614,-5.00443 -7.64201,-6.01617 -9.90547,-10.59536 -2.13921,-4.32781 -3.66116,-8.61369 -3.2786,-9.23269 0.12972,-0.20988 0.21574,-1.25382 0.19116,-2.31985 -0.0246,-1.06604 0.12173,-2.24919 0.32512,-2.62923 0.35553,-0.66432 0.43094,-0.64892 1.95421,0.39913 0.87142,0.59955 1.90621,1.72088 2.29952,2.49184 0.39332,0.77096 0.95658,1.40174 1.25169,1.40174 0.29511,0 0.62854,0.23969 0.74096,0.53264 0.11242,0.29296 0.41905,0.53264 0.6814,0.53264 0.26235,0 0.60479,0.21637 0.76097,0.48081 0.15618,0.26444 0.62994,0.66229 1.05279,0.8841 0.74278,0.38963 0.77435,0.32824 0.93214,-1.81241 0.0898,-1.21864 0.24164,-2.65901 0.33735,-3.20085 0.0957,-0.54183 0.0595,-1.05596 -0.0806,-1.14251 -0.14004,-0.0865 -0.18382,-1.40095 -0.0973,-2.92089 0.11836,-2.07867 0.31563,-2.90178 0.79604,-3.32141 0.4693,-0.40995 0.54825,-0.71948 0.29769,-1.16721 -0.37136,-0.66358 0.64592,-2.83979 1.30621,-2.79431 0.19489,0.0134 0.65053,1.03579 1.01253,2.27191 0.6724,2.29606 1.76482,5.45141 2.43777,7.04127 0.32948,0.77838 0.45637,0.45032 1.03011,-2.66321 1.13739,-6.17222 1.78894,-9.18385 2.3431,-10.83037 0.9259,-2.75106 3.34466,-6.48441 5.57796,-8.60954 1.181,-1.12381 2.04137,-2.04328 1.91194,-2.04328 -0.12944,0 -2.28419,0.46632 -4.78835,1.03626 -2.50416,0.56994 -6.63031,1.46 -9.16923,1.97789 -2.53893,0.51789 -5.33529,1.23559 -6.21415,1.59488 -0.87886,0.35928 -2.0773,0.73922 -2.6632,0.84429 -0.58591,0.10508 -2.66321,0.68435 -4.61623,1.28728 -1.95301,0.60293 -4.66948,1.2408 -6.0366,1.41749 -4.98457,0.64423 -7.34771,1.4322 -12.77825,4.26079 -6.86305,3.57475 -7.82025,3.81443 -4.08872,1.02381 1.66007,-1.24147 3.07157,-2.37707 3.13667,-2.52355 0.0651,-0.14647 0.2632,-0.26632 0.44023,-0.26632 0.17703,0 1.46266,-0.73122 2.85694,-1.62494 1.39429,-0.89371 3.95487,-2.38645 5.69017,-3.31719 l 3.1551,-1.69226 -1.4254,-0.64277 c -1.17542,-0.53004 -1.4254,-0.81858 -1.4254,-1.64524 0,-0.9258 -0.082,-0.98609 -1.07166,-0.78815 -0.89074,0.17816 -1.0342,0.11671 -0.84974,-0.36397 0.12911,-0.33645 0.0436,-0.5783 -0.20442,-0.5783 -0.23448,0 -0.5099,0.31959 -0.61204,0.71019 -0.10215,0.3906 -0.33631,0.71019 -0.52036,0.71019 -0.18405,0 -0.22532,-0.17688 -0.0917,-0.39307 0.16977,-0.2747 -0.10461,-0.31673 -0.91121,-0.13957 -0.76481,0.16798 -1.0773,0.12917 -0.92636,-0.11504 0.12527,-0.2027 0.0654,-0.4689 -0.13313,-0.59157 -0.206,-0.12732 -0.36088,0.1412 -0.36088,0.62564 0,0.98105 -1.39434,1.90113 -2.33439,1.5404 -0.48114,-0.18464 -0.52378,-0.13281 -0.20588,0.25024 0.31459,0.37906 0.19157,0.58765 -0.57118,0.96847 -0.53468,0.26694 -1.29172,0.74572 -1.68232,1.06394 -0.39061,0.31822 -1.43753,0.99279 -2.32651,1.49904 -1.32804,0.7563 -1.67636,0.83301 -1.95301,0.43008 -0.28121,-0.40955 -0.42258,-0.39409 -0.85772,0.0939 -0.46362,0.51989 -0.45384,0.55847 0.0888,0.35025 0.92758,-0.35594 0.72762,0.27083 -0.254,0.79618 -0.47508,0.25426 -1.11425,0.36617 -1.42038,0.2487 -0.33745,-0.1295 -0.55659,-0.0232 -0.55659,0.26992 0,0.43632 -0.72065,0.91458 -1.37812,0.91458 -0.14011,0 -0.18961,-0.55799 -0.10999,-1.23998 0.083,-0.7108 0.29681,-1.14601 0.50104,-1.01979 0.36559,0.22594 0.98041,-0.4793 0.97083,-1.11363 -0.003,-0.1953 -0.17011,-0.0721 -0.37148,0.27379 -0.44861,0.77058 -1.03266,0.47887 -1.03266,-0.51577 0,-0.621 -0.0838,-0.66319 -0.54945,-0.27671 -0.43931,0.3646 -0.45711,0.51567 -0.0888,0.75367 0.37437,0.2419 0.36999,0.35613 -0.0234,0.60977 -0.37677,0.24294 -0.38473,0.34522 -0.0359,0.4615 0.32442,0.10814 0.37197,0.53663 0.17223,1.55213 -0.15175,0.77151 -0.34865,1.20301 -0.43756,0.95888 -0.24281,-0.66676 -0.81265,-0.53369 -0.81265,0.18976 0,0.61122 -2.00124,2.09973 -2.35174,1.74923 -0.0946,-0.0946 -0.19744,-0.50966 -0.22853,-0.92234 -0.0686,-0.91127 -0.0963,-0.91453 -0.90425,-0.10656 -0.50834,0.50835 -0.55119,0.73025 -0.20367,1.05488 0.27902,0.26065 0.50489,0.28171 0.61713,0.0575 0.0974,-0.19446 0.13585,-0.14983 0.0855,0.0992 -0.0503,0.24901 -0.43367,0.47068 -0.85182,0.49259 -0.41815,0.0219 -0.68194,-0.0869 -0.58621,-0.24178 0.0957,-0.1549 -0.0115,-0.39632 -0.23832,-0.53649 -0.28643,-0.17703 -0.35901,0.0242 -0.23766,0.65904 0.13443,0.70322 -0.054,1.08298 -0.81736,1.64736 -0.54563,0.40341 -1.08062,0.59018 -1.18886,0.41504 -0.10823,-0.17513 -0.52972,-0.23135 -0.93664,-0.12494 -0.55724,0.14572 -0.62331,0.2655 -0.2677,0.48528 0.37057,0.22903 0.31973,0.4043 -0.2363,0.81464 -0.63292,0.46709 -0.722,0.45912 -0.83544,-0.0747 -0.0698,-0.32867 -0.26706,-0.77071 -0.43826,-0.9823 -0.31647,-0.39114 1.36733,-2.17254 1.89684,-2.00677 0.14648,0.0458 0.26632,-0.15631 0.26632,-0.44927 0,-0.67437 0.35115,-0.67344 1.31758,0.004 0.7454,0.52211 0.75743,0.50832 0.46036,-0.52752 -0.26155,-0.91195 -0.17537,-1.16563 0.60432,-1.77894 0.50761,-0.39929 1.44416,-0.71531 2.11988,-0.71531 0.76241,0 1.18917,-0.1643 1.15286,-0.44386 -0.15516,-1.19493 0.0317,-1.4604 0.54786,-0.77806 0.49506,0.65453 0.52192,0.65624 0.53264,0.0339 0.0163,-0.94835 1.12507,-2.68553 1.86359,-2.91993 0.34835,-0.11056 0.63336,-0.43192 0.63336,-0.71414 0,-0.54016 3.72968,-3.10833 4.51414,-3.10833 0.25145,0 0.45718,-0.12829 0.45718,-0.28509 0,-0.1568 1.15849,-1.06066 2.57443,-2.00858 3.53706,-2.36794 3.42484,-2.3157 3.21009,-1.49449 -0.10395,0.3975 -0.0111,0.71068 0.21066,0.71068 0.21808,0 0.39651,-0.38249 0.39651,-0.84997 0,-0.71641 0.37667,-1.00307 2.39689,-1.8242 5.08986,-2.06878 5.89697,-2.31161 6.17702,-1.85848 0.18945,0.30653 0.33453,0.24861 0.50771,-0.20271 0.13748,-0.35825 0.46126,-0.54791 0.74773,-0.43798 0.2779,0.10664 0.42558,0.065 0.32818,-0.0926 -0.24707,-0.39977 2.17417,-1.22733 2.67865,-0.91554 0.25602,0.15823 0.3161,0.0994 0.15866,-0.15531 -0.14027,-0.22704 -0.0538,-0.41003 0.1937,-0.41003 0.35606,0 0.35731,-0.0898 0.006,-0.4409 -0.35114,-0.35114 -0.50278,-0.34077 -0.74486,0.0509 -0.17562,0.28416 -0.61366,0.41083 -1.03744,0.30001 -0.4079,-0.10667 -0.91475,0.0266 -1.14186,0.30026 -0.22461,0.27064 -0.55707,0.40018 -0.7388,0.28787 -0.18173,-0.11231 -0.52316,-0.0512 -0.75873,0.13585 -0.23557,0.18704 -0.70871,0.29472 -1.05141,0.23929 -0.34271,-0.0554 -0.54904,0.0191 -0.45852,0.16555 0.15826,0.25606 -1.23776,0.66196 -5.54592,1.61248 -1.68173,0.37104 -1.98099,0.36473 -1.82625,-0.0385 0.10178,-0.26525 0.0255,-0.48227 -0.16953,-0.48227 -0.19502,0 -0.45006,0.38039 -0.56675,0.84531 -0.27163,1.08225 -1.65181,1.49673 -2.26171,0.67921 -0.35466,-0.4754 -0.45232,-0.49212 -0.48592,-0.0832 -0.0231,0.28146 -0.0117,0.67153 0.0254,0.86683 0.0371,0.19531 -0.13575,0.15536 -0.38406,-0.0888 -0.24832,-0.24413 -0.67877,-0.44387 -0.95658,-0.44387 -0.41228,0 -0.42256,0.0995 -0.0559,0.54123 0.58328,0.7028 0.17163,1.11446 -0.53118,0.53118 -0.45842,-0.38046 -0.54551,-0.3203 -0.56926,0.39327 -0.0154,0.46334 -0.10863,0.64269 -0.20713,0.39857 -0.25008,-0.61976 -1.1852,-0.55673 -1.1852,0.0799 0,0.39198 -0.26667,0.47043 -1.05982,0.3118 -0.78405,-0.15681 -1.11711,-0.0626 -1.28003,0.36194 -0.12113,0.31564 -0.36328,0.48548 -0.53811,0.37743 -0.17484,-0.10806 -0.31789,-0.0272 -0.31789,0.17958 0,0.20683 -0.11985,0.35713 -0.26632,0.334 -0.14648,-0.0231 -0.50601,-0.0207 -0.79896,0.005 -0.47346,0.0422 -0.47346,0.0881 0,0.41303 0.43288,0.29709 0.39017,0.34595 -0.22804,0.26089 -0.41838,-0.0576 -1.10437,0.20596 -1.52443,0.58561 -0.64374,0.58181 -0.72749,0.59576 -0.53294,0.0888 0.30075,-0.78372 -0.17328,-0.77412 -0.75045,0.0152 -0.42815,0.58554 -0.48537,0.58554 -1.13239,0 -0.72459,-0.65574 -1.33428,-0.83385 -0.99936,-0.29193 0.11039,0.17862 -2e-5,0.41683 -0.24537,0.52936 -0.24534,0.11253 -0.0466,0.10494 0.44166,-0.0169 0.88314,-0.22031 0.88423,-0.21754 0.21128,0.53592 -0.67073,0.75099 -1.87563,1.08433 -1.45411,0.40229 0.26899,-0.43524 -0.18247,-0.45356 -0.84446,-0.0343 -0.26914,0.17048 -0.38752,0.47473 -0.26305,0.67613 0.12446,0.20139 -0.007,0.59971 -0.29269,0.88516 -0.28545,0.28545 -0.45432,0.58367 -0.37527,0.66272 0.0791,0.079 -0.1283,0.15487 -0.46078,0.16849 -0.33248,0.0136 -0.91188,0.1555 -1.28757,0.31529 -0.57656,0.24523 -0.63961,0.18402 -0.40442,-0.39254 0.44174,-1.08288 0.41474,-1.75583 -0.0666,-1.65957 -0.24413,0.0488 -0.44387,-0.23216 -0.44387,-0.62442 0,-0.6269 -0.0874,-0.65912 -0.72213,-0.26632 -0.57553,0.35615 -0.61157,0.47018 -0.17755,0.56168 0.65291,0.13765 0.72926,0.75543 0.10072,0.81498 -0.62166,0.0589 -0.71547,0.043 -1.46168,-0.24713 -0.56266,-0.21879 -0.61012,-0.15574 -0.31431,0.41756 0.19163,0.37139 0.27238,0.88827 0.17943,1.14863 -0.12932,0.36226 0.0862,0.34143 0.91809,-0.0888 0.59789,-0.30919 1.24965,-0.56215 1.44836,-0.56215 0.7014,0 -0.1858,1.47273 -1.3197,2.19067 -1.35604,0.85858 -1.51541,0.51739 -0.23045,-0.49335 0.49854,-0.39215 0.81647,-0.80297 0.70652,-0.91292 -0.10996,-0.10996 -0.41132,0.0892 -0.6697,0.44255 -0.43494,0.59482 -0.53366,0.6006 -1.33137,0.0779 -0.83304,-0.54583 -1.8345,-0.35828 -1.77675,0.33275 0.0145,0.17347 -0.17159,0.31962 -0.41354,0.32478 -0.24194,0.005 -0.6286,0.12761 -0.85923,0.27211 -0.23063,0.1445 -0.51996,0.0999 -0.64296,-0.0991 -0.15075,-0.24392 -0.45553,-0.23774 -0.9352,0.019 -0.60431,0.32342 -0.64121,0.46764 -0.24477,0.95686 0.39697,0.48986 0.38712,0.526 -0.0659,0.24155 -0.29295,-0.18396 -0.80918,-0.33448 -1.14717,-0.33448 -0.338,0 -0.61764,-0.11985 -0.62142,-0.26632 -0.004,-0.14648 -0.007,-0.47156 -0.007,-0.7224 0,-0.57478 2.01193,-1.78972 2.48232,-1.499 0.19267,0.11907 0.26421,-0.008 0.15899,-0.28206 -0.21809,-0.56832 1.44955,-1.81605 1.98495,-1.48515 0.18978,0.11729 0.34506,0.049 0.34506,-0.15165 0,-0.2007 0.20432,-0.28649 0.45405,-0.19066 0.24974,0.0958 0.76906,-0.0694 1.15406,-0.36712 0.66685,-0.5157 0.66781,-0.53003 0.0204,-0.30258 -0.46981,0.16504 -0.60039,0.11049 -0.42292,-0.17668 0.34066,-0.55119 1.52903,-0.53194 1.75515,0.0285 0.13774,0.34137 0.18557,0.33653 0.20713,-0.021 0.0154,-0.25566 0.20495,-0.35549 0.42117,-0.22185 0.2611,0.16136 0.31718,0.004 0.16697,-0.46964 -0.14627,-0.46083 -0.0424,-0.78314 0.29411,-0.91225 0.28615,-0.10981 0.57759,-0.0277 0.64764,0.18243 0.15057,0.45171 2.40418,-0.60765 2.40418,-1.13014 0,-0.18416 0.27964,-0.24789 0.62142,-0.14162 0.58761,0.1827 0.58745,0.1714 -0.003,-0.20791 -0.34333,-0.22062 -0.80745,-0.28789 -1.03138,-0.14949 -0.2478,0.15315 -0.31028,0.0949 -0.15965,-0.14883 0.70487,-1.1405 3.3182,-1.66918 4.53466,-0.91737 0.27141,0.16774 0.31102,0.0946 0.11796,-0.21776 -0.2022,-0.32716 -0.13453,-0.41038 0.22234,-0.27344 0.31417,0.12056 0.66794,-0.13147 0.91278,-0.65028 0.21988,-0.46593 0.25493,-0.75762 0.0779,-0.6482 -0.17704,0.10942 -0.32189,0.0353 -0.32189,-0.16462 0,-0.19996 0.30908,-0.52897 0.68685,-0.73114 0.87168,-0.46652 1.44178,-0.472 0.73353,-0.007 -0.47346,0.31081 -0.47346,0.3881 0,0.69564 0.40869,0.26548 0.5608,0.16945 0.65366,-0.4127 0.16707,-1.04739 0.59533,-1.40792 3.43878,-2.89486 2.02916,-1.06113 2.49848,-1.1945 2.59677,-0.73794 0.10618,0.4932 0.19803,0.48663 0.79896,-0.0572 0.37348,-0.33797 0.67902,-0.82378 0.67902,-1.07959 0,-0.73142 1.22772,-1.24615 1.76454,-0.7398 0.36539,0.34464 0.3759,0.27729 0.0544,-0.34837 -0.53743,-1.04586 -0.54383,-1.03107 0.66221,-1.53063 0.58342,-0.24166 0.97781,-0.57361 0.87642,-0.73767 -0.25427,-0.4114 1.49492,-1.51011 1.95322,-1.22686 0.2039,0.126 0.37072,-0.02 0.37072,-0.32449 0,-0.49866 0.41423,-0.71246 1.15405,-0.59565 0.14648,0.0231 0.26632,-0.097 0.26632,-0.26689 0,-0.16992 0.70884,-0.50741 1.5752,-0.74998 0.86636,-0.24257 1.66541,-0.6761 1.77566,-0.96341 0.11025,-0.28731 0.39013,-0.45916 0.62195,-0.38189 0.23181,0.0773 0.69925,-0.13727 1.03874,-0.47676 0.36989,-0.36989 0.91242,-0.54007 1.35379,-0.42465 0.4051,0.10594 0.73654,0.0382 0.73654,-0.15062 0,-0.18879 1.0786,-0.7824 2.39689,-1.31914 1.31829,-0.53674 3.32993,-1.37503 4.47032,-1.86285 2.85222,-1.2201 6.54138,-2.23911 8.10635,-2.23911 2.74209,0 12.1274,-2.79386 16.45227,-4.89759 0.78121,-0.38 2.29923,-0.89565 3.37339,-1.1459 1.07416,-0.25025 3.71074,-1.05933 5.85905,-1.79797 7.42315,-2.55222 16.84482,-3.8448 30.08189,-4.127 5.74907,-0.12257 11.27323,-0.0336 14.91395,0.24031 3.18044,0.23925 7.14086,0.49266 8.80092,0.56314 4.72817,0.20074 10.30634,0.51281 12.25075,0.68535 3.18358,0.28251 6.73641,0.62484 7.22154,0.69582 0.55013,0.0805 3.61947,2.93663 3.5628,3.31532 -0.22587,1.50925 0.0339,1.71176 2.7892,2.17474 3.59317,0.60376 8.22113,2.13391 11.68998,3.86508 1.5339,0.76551 3.50798,1.49655 4.38684,1.62452 2.13121,0.31033 7.16548,1.21302 9.58754,1.71914 1.32334,0.27653 2.38267,0.7883 3.28564,1.58732 1.45411,1.28672 0.90146,1.67202 -0.74517,0.51952 -0.5184,-0.36283 -1.38198,-0.74015 -1.91906,-0.83849 -0.77557,-0.142 -0.97651,-0.0447 -0.97651,0.47303 0,0.90432 1.16946,1.43475 8.60566,3.90325 11.69251,3.88143 21.33811,8.11478 24.95074,10.95064 0.9765,0.76654 4.39845,3.20115 7.60432,5.41025 3.20588,2.2091 6.59118,4.70192 7.52289,5.53961 1.09148,0.98134 2.36525,1.71868 3.58113,2.07301 1.90902,0.55631 6.88449,3.06776 10.73537,5.41885 1.42827,0.87201 2.1487,1.14129 2.24892,0.84061 0.2396,-0.71879 0.7409,-0.52745 2.86724,1.09435 1.10815,0.84521 3.61274,2.3845 5.56576,3.42064 4.62137,2.45179 6.9618,3.92717 6.75655,4.25927 -0.0908,0.14687 0.22943,0.44677 0.71158,0.66644 0.48211,0.21967 0.87658,0.56673 0.87658,0.77123 0,0.41691 -1.94876,-0.48532 -2.30967,-1.06934 -0.12329,-0.19948 -0.89243,-0.70361 -1.70921,-1.12029 l -1.48501,-0.7576 1.31619,1.45686 c 1.77036,1.95957 2.98042,4.33356 2.39369,4.69617 -0.3264,0.20173 -0.23837,0.54946 0.3475,1.3722 0.43158,0.6061 0.67056,1.102 0.53111,1.102 -0.13948,0 0.17823,0.40019 0.706,0.88931 0.52774,0.48911 0.8774,1.02223 0.77698,1.18471 -0.10042,0.16247 0.36998,0.8812 1.04529,1.59717 0.67536,0.71598 1.22788,1.54109 1.22788,1.83359 0,0.2925 0.16924,0.53182 0.37605,0.53182 0.20684,0 0.27729,0.15979 0.15659,0.35509 -0.12069,0.19531 0.0295,0.3551 0.33415,0.3551 0.30446,0 0.52571,0.11984 0.49163,0.26632 -0.20251,0.87031 2.62176,5.06009 3.41092,5.06009 0.24672,0 0.5928,0.31118 0.76914,0.69151 0.1763,0.38033 0.90787,1.37903 1.62569,2.21933 0.71779,0.84031 2.20769,2.60856 3.31086,3.92945 1.10317,1.32089 2.15191,2.31129 2.33055,2.2009 0.17862,-0.1104 0.23582,0.0311 0.12709,0.31444 -0.10873,0.28334 -0.0452,0.60943 0.14122,0.72464 0.18643,0.11521 0.42221,-0.10898 0.52402,-0.49821 0.13845,-0.52946 -0.0295,-0.76155 -0.66737,-0.92161 -0.46883,-0.11767 -0.76782,-0.35087 -0.66438,-0.51821 0.1034,-0.16735 -0.13739,-0.62968 -0.53509,-1.02741 -0.39774,-0.39772 -0.72315,-0.8825 -0.72315,-1.07728 0,-0.28391 -1.57488,-3.87055 -2.41716,-5.50491 -0.10067,-0.1953 0.24224,0.0323 0.76196,0.50577 0.51975,0.47347 0.94501,1.17922 0.94501,1.56833 0,0.38911 0.10596,0.60152 0.23547,0.47202 0.28251,-0.28253 1.54,1.69456 1.54,2.42129 0,0.28136 0.33464,0.69066 0.74364,0.90955 0.50658,0.2711 0.68405,0.62593 0.55672,1.1129 -0.10284,0.3932 -0.0989,0.62682 0.009,0.51915 0.30148,-0.30146 1.1765,0.71299 1.1765,1.36394 0,0.31842 0.16168,0.47904 0.35925,0.35692 0.19985,-0.1235 0.45658,0.26447 0.57852,0.87417 0.12059,0.60291 0.34341,1.17293 0.49514,1.26672 0.15174,0.0938 0.19236,0.48993 0.0903,0.88034 -0.10209,0.39041 -0.0213,0.70984 0.17946,0.70984 0.20081,0 0.32491,0.2738 0.27577,0.60845 -0.0491,0.33466 0.0525,0.77409 0.2257,0.97651 0.42355,0.49487 2.5641,3.78429 4.16777,6.40465 1.66241,2.71637 4.49716,9.10995 4.95413,11.17371 0.24118,1.08922 0.23341,1.72814 -0.0249,2.03932 -0.20685,0.24923 -0.40911,0.97359 -0.44945,1.60968 -0.0425,0.67057 -0.24895,1.11922 -0.49123,1.06775 -0.22982,-0.0488 -0.39892,0.0311 -0.3758,0.17755 0.1061,0.67185 -0.081,0.93216 -0.35698,0.49667 -0.21582,-0.34057 -0.35083,-0.16148 -0.46506,0.61697 -0.12975,0.88403 0.36088,1.98805 2.52884,5.69053 1.54483,2.63825 2.96958,4.67059 3.34697,4.77431 0.36145,0.0993 0.55494,0.34597 0.43002,0.54809 -0.24132,0.39047 0.43037,1.93193 2.10432,4.82917 1.49772,2.59224 2.21895,3.47306 2.40477,2.93674 0.0859,-0.24809 0.2703,0.1082 0.40971,0.79175 0.46425,2.2763 1.70672,5.06327 2.03,4.55341 0.20411,-0.32191 0.29959,-0.17361 0.30332,0.47105 0.004,0.51748 0.58133,2.43203 1.28519,4.25456 1.43483,3.71531 1.47812,5.27916 0.21327,7.70585 -0.64194,1.23155 -0.66907,1.48442 -0.22719,2.11533 0.4645,0.66313 0.44263,0.7011 -0.2932,0.50907 -0.75734,-0.19765 -0.76558,-0.17796 -0.17367,0.41471 0.34177,0.34221 0.62141,0.92476 0.62141,1.29454 0,0.36978 0.31959,0.84337 0.71019,1.05241 0.53875,0.28832 0.7115,0.26991 0.71562,-0.0763 0.004,-0.32086 0.10766,-0.2982 0.34966,0.0763 0.22946,0.3551 0.34604,0.38469 0.34966,0.0888 0.004,-0.24412 0.32502,-0.44386 0.71562,-0.44386 0.40652,0 0.71019,0.23673 0.71019,0.5536 0,0.30447 0.16239,0.45322 0.36088,0.33055 0.1985,-0.12267 0.26895,-0.37179 0.1566,-0.5536 -0.11235,-0.1818 0.12471,-0.33055 0.52685,-0.33055 0.40211,0 0.73114,0.16983 0.73114,0.37741 0,0.20758 0.28188,0.32966 0.62639,0.2713 1.22593,-0.20769 2.92853,2.21925 2.18521,3.11488 -0.29597,0.35666 -0.27307,0.60113 0.0904,0.96461 0.36564,0.36564 0.46727,1.49552 0.40818,4.53735 -0.0433,2.22776 -0.10561,4.13037 -0.13856,4.22802 -0.033,0.0976 -0.0355,0.31421 -0.005,0.48125 0.0298,0.16703 -0.13047,0.52656 -0.35655,0.79896 -0.31366,0.37795 -0.30762,0.49526 0.0256,0.49526 0.24867,0 0.34558,0.2372 0.2251,0.55109 -0.1163,0.30309 -0.072,0.46492 0.0984,0.35961 0.17041,-0.10532 0.50153,0.32581 0.73582,0.95806 0.23433,0.63225 0.81921,2.0284 1.29975,3.10256 1.15019,2.57096 1.26929,4.08358 0.32158,4.08358 -0.5352,0 -0.81406,-0.41474 -1.19372,-1.77547 -0.2725,-0.97651 -0.66864,-1.98933 -0.88039,-2.25071 -0.2117,-0.26138 -0.34156,-1.18019 -0.28858,-2.04179 0.053,-0.8616 -0.0615,-1.56655 -0.25432,-1.56655 -0.19285,0 -0.3073,0.39503 -0.25428,0.87784 0.0582,0.53049 -0.0483,0.78846 -0.26916,0.65194 -0.21821,-0.13487 -0.27953,-0.002 -0.15209,0.33027 0.11736,0.3059 0.11462,0.65495 -0.006,0.77567 -0.34966,0.34966 -0.38194,1.75375 -0.0537,2.3356 0.21963,0.3893 0.31451,0.24596 0.3525,-0.53264 0.0371,-0.76142 0.10167,-0.86271 0.22613,-0.3551 0.0958,0.39061 0.48779,1.40486 0.87119,2.2539 0.38336,0.84905 0.60603,1.63469 0.49482,1.74588 -0.11118,0.11119 -0.20216,-0.0162 -0.20216,-0.28313 0,-0.38649 -0.0898,-0.39553 -0.44088,-0.0444 -0.28152,0.28151 -0.31362,0.53183 -0.0888,0.69243 0.96958,0.69263 1.82589,4.02903 0.88475,3.44738 -0.55111,-0.34061 -0.41823,0.41878 0.17755,1.01456 0.29295,0.29295 0.54386,0.82369 0.5576,1.17942 0.0224,0.57922 0.0546,0.5726 0.30847,-0.0634 0.17659,-0.44242 0.25609,0.16008 0.21082,1.59792 -0.0419,1.33021 0.0907,2.4324 0.31294,2.60147 0.24527,0.18657 0.19175,0.24007 -0.14701,0.14697 -0.29295,-0.0805 -0.54009,-0.4522 -0.54922,-0.82599 -0.009,-0.37379 -0.20887,-0.63967 -0.44387,-0.59085 -0.235,0.0488 -0.42728,-0.0976 -0.42728,-0.3255 0,-0.22785 -0.10266,-0.31161 -0.22815,-0.18613 -0.12549,0.12548 -0.006,0.49768 0.26632,0.82712 0.34906,0.42282 0.37502,0.6392 0.0883,0.73579 -0.22342,0.0753 -0.32285,0.45556 -0.22097,0.84512 0.11892,0.45468 0.0259,0.67108 -0.25961,0.60438 -0.2447,-0.0571 -0.51695,0.1358 -0.60505,0.42875 -0.14001,0.46545 -0.11441,0.46671 0.20283,0.01 0.31398,-0.45209 0.39384,-0.4424 0.59113,0.0718 0.12545,0.32695 0.14317,0.73192 0.0393,0.89994 -0.10383,0.16801 0.1029,0.75011 0.45938,1.29355 0.47402,0.7226 0.724,0.86539 0.93038,0.53145 0.16392,-0.26521 0.10703,-0.51504 -0.13571,-0.59596 -0.22989,-0.0766 -0.41798,-0.28078 -0.41798,-0.45368 0,-0.17289 0.21795,-0.23072 0.48434,-0.12849 0.32151,0.12337 0.55732,-0.17889 0.70132,-0.89888 0.25307,-1.26535 0.75365,-1.44466 0.79782,-0.28578 0.0167,0.43942 0.13213,2.03735 0.25638,3.55094 0.1262,1.53747 0.0866,2.75198 -0.0897,2.75198 -0.17354,0 -0.38688,-0.19974 -0.47409,-0.44387 -0.0872,-0.24413 -0.25858,-0.35234 -0.38091,-0.24048 -0.12233,0.11186 0.12251,0.57362 0.54408,1.02613 0.71011,0.76224 0.72233,0.85503 0.1659,1.2619 -0.49586,0.3626 -0.53343,0.6158 -0.21537,1.4523 0.21185,0.55723 0.55146,1.11592 0.75472,1.24153 0.25286,0.15628 0.24193,0.46687 -0.0348,0.98374 -0.29072,0.5432 -0.29753,0.9548 -0.0242,1.46553 0.27442,0.51276 0.27005,0.71019 -0.0156,0.71019 -0.26412,0 -0.30772,0.38397 -0.1311,1.15406 0.14559,0.63473 0.24913,1.86483 0.2301,2.73356 -0.0256,1.16087 0.0607,1.44322 0.32484,1.06529 0.25354,-0.36275 0.29391,-0.0474 0.13696,1.07036 -0.25812,1.83841 -0.32804,1.94806 -1.06241,1.66627 -0.30879,-0.11851 -0.54794,-0.63356 -0.54794,-1.18017 0,-1.05421 0.52298,-0.78697 0.81206,0.41497 0.13196,0.54855 0.18021,0.49319 0.21203,-0.24321 0.0227,-0.52437 -0.13621,-1.40322 -0.353,-1.95302 -0.36628,-0.92881 -0.41482,-0.94931 -0.68522,-0.28943 -0.24761,0.60423 -0.29477,0.61747 -0.316,0.0888 -0.0138,-0.34178 -0.16981,-0.62141 -0.34682,-0.62141 -0.17972,0 -0.14968,0.56107 0.0681,1.27057 0.29182,0.95091 0.28348,1.44105 -0.0334,1.94819 -0.23277,0.3727 -0.42076,0.79965 -0.41777,0.94877 0.004,0.14913 0.16032,0.0315 0.34966,-0.2615 0.25268,-0.39098 0.34565,-0.13898 0.34966,0.94747 0.004,0.81406 0.11249,1.75908 0.24331,2.10004 0.15532,0.40475 0.10223,0.53608 -0.15301,0.37834 -0.21497,-0.13287 -0.50651,-0.0545 -0.64783,0.17417 -0.15657,0.25328 -0.10334,0.32081 0.13614,0.1728 0.22371,-0.13826 0.62376,0.18239 0.92839,0.7441 0.29441,0.54287 0.54166,0.85669 0.54951,0.69738 0.008,-0.15932 -0.16111,-0.61724 -0.37537,-1.0176 -0.30758,-0.57473 -0.2889,-0.69419 0.0888,-0.56762 0.27666,0.0927 0.48361,0.6878 0.49078,1.41145 l 0.0124,1.25114 -1.2553,-0.49393 c -1.07263,-0.42206 -1.16485,-0.42201 -0.63384,3.6e-4 0.34178,0.27187 0.62142,0.9067 0.62142,1.41072 0,0.50402 0.16757,1.01996 0.37235,1.14652 0.25453,0.15731 0.24075,0.38864 -0.0435,0.73115 -0.5537,0.66716 -0.0659,0.64394 0.60689,-0.0289 0.29146,-0.29145 0.41514,-0.71562 0.27484,-0.9426 -0.15595,-0.25236 -0.10028,-0.31704 0.14328,-0.1665 0.23334,0.14419 0.31128,0.68143 0.1882,1.29681 -0.11721,0.58623 -0.0302,1.26737 0.19683,1.54096 0.26504,0.31937 0.29825,0.78397 0.0952,1.33249 -0.17147,0.46318 -0.23407,1.06414 -0.13912,1.33545 0.097,0.27734 0.0128,0.3944 -0.19285,0.26741 -0.34423,-0.21274 -0.75554,1.85656 -0.80166,4.03306 -0.0185,0.86724 -0.0302,0.86314 -0.51255,-0.17754 -0.47895,-1.03336 -0.50104,-1.04134 -0.73735,-0.26632 -0.13398,0.43942 -0.39416,0.79896 -0.5782,0.79896 -0.18408,0 -0.23589,0.15979 -0.11519,0.35509 0.12069,0.1953 0.0724,0.3551 -0.10735,0.3551 -0.17975,0 -0.24189,0.43942 -0.13806,0.9765 l 0.18873,0.97651 0.47324,-1.15405 c 0.57681,-1.4067 0.99682,-1.52071 0.65405,-0.17755 -0.13707,0.53708 -0.31014,1.44396 -0.38461,2.01528 -0.0745,0.57132 -0.31869,1.15206 -0.54276,1.29053 -0.22403,0.13848 -0.32992,0.46999 -0.23525,0.73671 0.0947,0.26671 -0.0433,0.91183 -0.30655,1.43361 -0.35272,0.69912 -0.37008,0.98486 -0.0659,1.08623 0.24871,0.0829 0.29561,0.32699 0.11807,0.61427 -0.23476,0.37985 -0.40154,0.33953 -0.82084,-0.1985 -0.43659,-0.56021 -0.49045,-0.57131 -0.31639,-0.0652 0.11541,0.33553 0.0531,0.7069 -0.13845,0.82528 -0.60451,0.37361 -2.41166,-0.21378 -2.57631,-0.83739 -0.0868,-0.32886 -0.17542,-0.11855 -0.19683,0.46735 -0.0305,0.83262 0.19324,1.1974 1.02409,1.67018 0.91895,0.52291 1.06305,0.5321 1.06305,0.0678 0,-0.2954 -0.1598,-0.43832 -0.3551,-0.31762 -0.1953,0.1207 -0.35509,0.0502 -0.35509,-0.15659 0,-0.20683 0.31958,-0.37605 0.71019,-0.37605 0.82981,0 0.85957,0.21727 0.1943,1.41933 -0.37746,0.68203 -0.39507,1.00512 -0.0762,1.39977 0.29359,0.36336 0.29675,0.44252 0.011,0.27127 -0.22201,-0.13299 -0.59322,-0.0134 -0.82492,0.26582 -0.2317,0.2792 -0.65504,0.41793 -0.94072,0.30831 -0.45271,-0.17373 -0.4499,-0.30543 0.022,-1.02566 0.36117,-0.55119 0.41667,-0.90346 0.16668,-1.05796 -0.20613,-0.12739 -0.46546,-0.14096 -0.57625,-0.0301 -0.38623,0.3862 -0.41365,2.1626 -0.0404,2.61239 0.26692,0.32163 0.26039,0.4531 -0.0224,0.4531 -0.2192,0 -0.39856,0.16922 -0.39856,0.37605 0,0.20683 0.15979,0.27729 0.3551,0.15659 0.1953,-0.1207 0.35509,0.10012 0.35509,0.49073 0,0.3906 -0.18696,0.82572 -0.41543,0.96694 -0.28187,0.1742 -0.34025,0.0608 -0.18163,-0.35258 0.14272,-0.37194 0.0928,-0.52219 -0.12808,-0.38566 -0.20801,0.12855 -0.26497,0.74049 -0.13398,1.43882 0.18409,0.9812 0.11612,1.21514 -0.35299,1.21514 -0.71435,0 -1.29944,1.42228 -1.02179,2.4839 0.12464,0.47668 0.0117,0.90411 -0.28734,1.08902 -0.29494,0.18231 -0.44667,0.74111 -0.37828,1.39328 0.11391,1.08597 -0.4542,1.3603 -1.11368,0.53776 -0.17734,-0.22118 -0.44515,-0.10031 -0.71019,0.3205 -0.23401,0.37158 -0.70511,0.92641 -1.04689,1.23297 -0.68341,0.61298 -0.82218,1.65393 -0.26632,1.99747 0.1953,0.12071 0.35509,-0.0297 0.35509,-0.33413 0,-0.61326 0.89786,-0.75666 1.24283,-0.19851 0.1207,0.1953 0.0426,0.3551 -0.17353,0.3551 -0.53385,0 -2.14019,1.76261 -2.52905,2.77509 -0.50399,1.31226 -0.37544,1.82913 0.56087,2.25576 0.48215,0.21967 0.78564,0.54659 0.67446,0.72648 -0.11118,0.17988 0.13352,0.41484 0.5438,0.52213 0.41024,0.10728 0.74591,0.40668 0.74591,0.66533 0,0.25865 0.18695,0.58581 0.41542,0.72702 0.27935,0.17264 0.34117,0.0632 0.1887,-0.33414 -0.12539,-0.32679 -0.055,-0.59089 0.15752,-0.59089 0.25549,0 0.30357,0.56525 0.14346,1.6867 -0.40595,2.84346 -0.90535,4.39166 -1.33164,4.12821 -0.22872,-0.14135 -0.29377,-0.082 -0.15546,0.14185 0.13088,0.21173 -0.26405,1.23512 -0.87762,2.2742 -0.61357,1.03907 -1.70782,3.25322 -2.43168,4.92033 -1.60705,3.70123 -3.09586,6.04157 -6.20389,9.75228 -1.31512,1.57015 -2.99319,4.11136 -3.75171,5.68151 -0.75479,1.56241 -2.33982,4.19899 -3.52228,5.85905 -1.18247,1.66007 -2.63612,4.05695 -3.23033,5.32641 -3.7173,7.94169 -5.56408,11.12203 -8.08411,13.92185 -1.4213,1.5791 -3.25891,3.79788 -4.08358,4.9306 -5.18991,7.1283 -9.86267,12.39589 -10.99634,12.39589 -0.21274,0 -0.2872,0.0996 -0.16544,0.22137 0.21764,0.21765 -1.44658,2.6839 -1.96726,2.91528 -0.14647,0.0651 -0.26632,0.33155 -0.26632,0.59212 0,0.47661 -8.69067,8.80257 -11.00791,10.54594 -0.68356,0.51428 -1.93876,1.21215 -2.78935,1.55084 -0.85058,0.33869 -1.89789,0.95126 -2.32735,1.36125 -1.5454,1.47538 -2.70877,2.34337 -3.14194,2.34426 -0.24264,0 -2.47729,1.33991 -4.96589,2.97654 -2.48859,1.6366 -5.07882,3.2386 -5.75607,3.55996 -0.67725,0.3214 -1.99677,1.16958 -2.93226,1.88488 -0.9355,0.7153 -3.45862,2.46496 -5.60694,3.88814 -2.14832,1.42321 -4.29816,2.86294 -4.77744,3.19947 -0.47927,0.33648 -1.13945,0.63153 -1.46708,0.65568 -0.32763,0.0241 -1.49075,0.43151 -2.58471,0.90531 -1.62908,0.7055 -1.99519,1.02203 -2.02311,1.74912 -0.0188,0.48826 -0.11469,0.688 -0.2132,0.44387 -0.21589,-0.53502 -0.83011,-0.5923 -0.83011,-0.0774 0,0.20159 -0.25011,0.96061 -0.5558,1.6867 -0.52796,1.25409 -0.58113,1.28594 -1.06161,0.63594 -0.2782,-0.37633 -0.61399,-0.57607 -0.74621,-0.44387 -0.13222,0.13224 -0.13544,0.2404 -0.007,0.2404 0.12829,0 -0.0354,0.3138 -0.36381,0.69733 -0.44591,0.52079 -0.71472,0.59965 -1.06181,0.3116 -0.35248,-0.29253 -0.46474,-0.23724 -0.46474,0.22893 0,0.47827 -0.19693,0.56517 -0.88774,0.39181 -0.51192,-0.12851 -0.88773,-0.0696 -0.88773,0.13902 0,0.19903 -0.23573,0.36188 -0.52385,0.36188 -0.40074,0 -0.45048,0.19299 -0.21162,0.82122 0.29037,0.76377 0.23608,0.81008 -0.77563,0.66158 -0.90761,-0.1332 -1.04973,-0.0603 -0.85773,0.44003 0.12657,0.32985 0.0858,0.51052 -0.0906,0.4015 -0.17638,-0.10901 -0.38388,-0.009 -0.46109,0.223 -0.0914,0.27428 -0.38067,0.31827 -0.82929,0.12613 -1.19529,-0.51197 -1.57663,-0.49635 -1.57663,0.0646 0,0.44756 -0.0965,0.46468 -0.54077,0.0959 -0.45902,-0.38094 -0.5032,-0.34725 -0.29222,0.22286 0.1367,0.3694 0.41999,0.78902 0.62954,0.93251 0.23195,0.15883 0.14609,0.26302 -0.21946,0.26632 -0.33025,0.004 -0.69922,-0.15436 -0.81992,-0.34966 -0.3755,-0.60757 -0.83019,-0.38925 -0.64714,0.31071 0.13707,0.52415 -0.0211,0.6658 -0.74343,0.6658 -0.50465,0 -0.91754,-0.1398 -0.91754,-0.31071 0,-0.61776 -0.78118,-0.29348 -0.9624,0.39948 -0.21018,0.80372 -0.65422,0.92719 -0.95775,0.26632 -0.11213,-0.24412 -0.11717,-0.0444 -0.0112,0.44387 0.1654,0.76214 0.12725,0.81065 -0.26959,0.34299 -0.25424,-0.2996 -0.9211,-0.57906 -1.48191,-0.62099 -0.92324,-0.0691 -0.9736,-0.0178 -0.53264,0.54471 0.44054,0.56176 0.42814,0.57486 -0.12988,0.13742 -0.33929,-0.26596 -0.87661,-0.38392 -1.19405,-0.26209 -0.49374,0.18944 -0.50723,0.30769 -0.0933,0.81806 0.26612,0.32815 0.30332,0.48847 0.0827,0.35631 -0.22065,-0.13213 -1.15974,0.16305 -2.08686,0.656 -1.59245,0.84672 -1.67543,0.85709 -1.50039,0.18777 0.18415,-0.70422 0.17417,-0.70412 -1.64163,0.0206 -1.0048,0.40104 -2.20732,0.81611 -2.67226,0.92239 -0.46495,0.10628 -0.92301,0.49021 -1.01793,0.85315 -0.19802,0.75724 -0.66101,0.86696 -0.91169,0.21607 -0.094,-0.24413 -0.17572,-0.12428 -0.18156,0.26632 -0.006,0.39061 -0.0898,1.02978 -0.18657,1.42038 -0.0968,0.3906 -0.18819,0.78209 -0.20313,0.86998 -0.0149,0.0879 -0.19461,-0.008 -0.39926,-0.21231 -0.2594,-0.2594 -0.24192,-0.65778 0.0577,-1.31534 0.56996,-1.25093 0.2643,-1.46714 -1.1659,-0.82464 -1.0653,0.47856 -4.80505,1.14064 -8.10723,1.43529 -0.68355,0.061 -0.20418,0.13892 1.06529,0.17318 1.63701,0.0441 2.15324,0.16235 1.77547,0.40648 -0.80931,0.52302 -3.60085,0.41727 -4.74559,-0.17975 -0.57805,-0.30147 -1.9576,-0.53129 -3.19585,-0.53243 -1.19831,0 -2.75339,-0.1616 -3.45574,-0.35669 -2.55517,-0.7098 -6.05641,-0.46933 -13.10432,0.89995 -6.56393,1.27525 -7.27549,1.34425 -13.67112,1.32567 -6.48642,-0.0188 -8.26694,-0.12314 -11.36301,-0.66544 -0.78121,-0.13685 -1.70002,-0.25773 -2.04179,-0.26859 -0.34178,-0.011 -0.62142,-0.15479 -0.62142,-0.31977 0,-0.16497 -0.11984,-0.22942 -0.26632,-0.14324 -0.14648,0.0862 -3.38227,0.26057 -7.19066,0.38744 -8.74154,0.29125 -10.1895,0.46592 -10.39561,1.25412 -0.0874,0.33422 -1.25963,1.14472 -2.60495,1.80111 -2.02898,0.98993 -2.9001,1.20611 -5.10923,1.26783 -1.46477,0.0409 -3.62196,-0.14129 -4.79377,-0.40499 z m 111.49955,-15.42824 c -0.1207,-0.1953 -0.48967,-0.35264 -0.81992,-0.34966 -0.51747,0.005 -0.52684,0.053 -0.0678,0.34966 0.69541,0.44941 1.16549,0.44941 0.88774,0 z m -106.84412,-24.97856 c 0.10886,-0.15425 0.45044,-4.84934 0.3528,-4.84934 -0.0626,0 -0.69359,0.83891 -1.40209,1.86424 -0.70849,1.02534 -1.5651,2.24718 -1.90357,2.71519 l -0.6154,0.85095 1.76452,-0.26273 c 0.9705,-0.14453 1.78218,-0.28777 1.80374,-0.31831 z m -34.66088,-2.29671 c 0,-1.01436 2.40423,-2.27413 5.85905,-3.06997 5.6441,-1.30014 10.60342,-4.52848 13.0424,-8.49005 1.39459,-2.26521 3.89017,-8.43733 5.24502,-12.97205 0.65899,-2.2057 0.75039,-3.13577 0.57012,-5.80146 -0.306,-4.52461 -0.60917,-4.78348 -1.79485,-1.53253 -1.28889,3.53389 -2.95367,5.92259 -6.30701,9.04953 -2.86934,2.67561 -4.90451,3.69128 -8.55512,4.2695 -1.39656,0.2212 -1.67065,0.17938 -1.51322,-0.23089 0.10612,-0.27653 0.035,-0.40381 -0.15876,-0.28407 -0.19307,0.11932 -0.35103,0.41839 -0.35103,0.66459 0,0.24621 -0.39948,0.79499 -0.88774,1.21953 -0.48825,0.42453 -0.89511,0.97267 -0.90414,1.21809 -0.0309,0.83907 -3.72603,5.72256 -4.76637,6.29916 -0.57116,0.31657 -1.65931,1.48458 -2.41811,2.59552 -1.97608,2.8932 -3.05146,3.56835 -5.37661,3.37553 l -1.8749,-0.1555 0.56819,0.99906 c 0.3125,0.54951 0.85313,1.00009 1.2014,1.00133 0.34827,0 1.41741,0.39962 2.37586,0.88529 1.16894,0.59236 2.07105,0.8182 2.74017,0.68607 0.54865,-0.10837 1.39702,-0.0365 1.88527,0.15972 1.12194,0.4508 1.42038,0.47469 1.42038,0.1136 z m 171.87098,-0.86593 c 0.004,-0.2959 0.12018,-0.26632 0.34966,0.0888 0.18932,0.29295 0.34422,0.37285 0.34422,0.17755 0,-0.4716 -0.36988,-0.95137 -1.23196,-1.59793 -0.64573,-0.48431 -0.66935,-0.48033 -0.26019,0.0438 0.2475,0.31699 0.35025,0.83631 0.22833,1.15405 -0.12245,0.31905 -0.0457,0.57763 0.17142,0.57763 0.2162,0 0.39553,-0.19974 0.39852,-0.44386 z m 2.48022,-1.12501 c 0,-0.0817 -0.097,-0.40126 -0.21553,-0.71019 -0.30601,-0.79744 -0.81579,-0.6968 -0.75212,0.1485 0.0294,0.3906 0.25919,0.71019 0.51058,0.71019 0.25139,0 0.45707,-0.0668 0.45707,-0.1485 z m 2.53917,-1.44595 c 1.04473,-0.48637 1.77023,-0.88585 1.61223,-0.88773 -0.158,-0.004 -0.15906,-0.20322 -0.002,-0.44735 0.1567,-0.24413 0.29305,-0.77861 0.303,-1.18775 0.018,-0.74027 0.0126,-0.74062 -1.12045,-0.0721 -0.79491,0.46901 -1.21275,0.55167 -1.38441,0.27392 -0.162,-0.26213 -0.4219,-0.14648 -0.762,0.33908 -0.28387,0.4053 -0.41755,0.8964 -0.29706,1.09138 0.12049,0.19494 -0.03,0.35445 -0.33452,0.35445 -0.31687,0 -0.5536,0.30368 -0.5536,0.71019 0,0.91139 0.24332,0.8947 2.53917,-0.17407 z m -185.92801,-3.10036 c 0.1192,-0.54269 0.34184,-0.9867 0.49477,-0.9867 0.15293,0 0.23534,-0.38907 0.18314,-0.86458 -0.0529,-0.48165 0.2833,-1.3772 0.75902,-2.02201 0.46966,-0.63658 0.85393,-1.4903 0.85393,-1.89716 0,-0.40684 0.24575,-1.09061 0.54613,-1.51945 0.80416,-1.14809 0.34738,-3.9793 -0.87901,-5.44832 l -0.95805,-1.14759 -0.80388,1.30069 c -0.67186,1.08709 -1.00321,1.30069 -2.01774,1.30069 -1.25714,0 -1.42111,0.18825 -0.89186,1.02391 0.2133,0.33679 -0.0676,0.98741 -0.89326,2.06911 -1.80493,2.3646 -1.81387,2.80605 -0.12517,6.1824 0.81847,1.63641 1.64321,3.1679 1.83275,3.40329 0.51419,0.63856 1.63317,-0.18291 1.89923,-1.39428 z m 184.45413,0.21473 c 0,-0.64986 -0.12734,-0.62128 -0.86539,0.19427 -0.59528,0.65774 -0.59033,0.67763 0.12251,0.4912 0.40858,-0.10685 0.74288,-0.41532 0.74288,-0.68547 z m 4.26113,-2.26671 c 0,-0.1953 -0.16923,-0.35509 -0.37606,-0.35509 -0.20682,0 -0.27729,0.15979 -0.15659,0.35509 0.12071,0.1953 0.28993,0.35509 0.37606,0.35509 0.0861,0 0.15659,-0.15979 0.15659,-0.35509 z m -2.83828,-1.06376 c -0.25616,-0.1583 -0.32936,-0.4701 -0.17065,-0.72687 0.18647,-0.30173 0.13505,-0.36138 -0.15627,-0.18135 -0.23879,0.14761 -0.35586,0.47238 -0.26016,0.7218 0.0957,0.24938 -0.0132,0.65227 -0.24211,0.8953 -0.33172,0.35218 -0.24434,0.35325 0.43082,0.005 0.61143,-0.31529 0.72221,-0.51382 0.39837,-0.71395 z m 8.87488,-1.85298 c 0,-0.49987 -0.66234,0.0316 -1.11505,0.89473 -0.40583,0.77378 -0.40338,0.77449 0.35319,0.10273 0.41902,-0.37204 0.76186,-0.82091 0.76186,-0.99746 z m 5.42554,-3.50475 c 1.51929,-1.53104 3.29695,-3.48408 3.95036,-4.3401 0.65341,-0.85601 2.37295,-2.7397 3.8212,-4.18598 2.50047,-2.49708 4.89817,-5.43634 8.45707,-10.36733 0.87527,-1.21269 2.68319,-3.32344 4.01767,-4.69055 1.33448,-1.36711 2.65625,-2.91823 2.93731,-3.44692 0.28109,-0.5287 1.20902,-1.96683 2.0621,-3.19585 1.51945,-2.18905 2.70759,-4.27174 2.70759,-4.74609 0,-0.46617 -1.12039,0.70031 -1.64263,1.71022 -0.45772,0.88515 -0.67379,0.99444 -1.57481,0.79655 -0.78905,-0.17331 -1.09969,-0.085 -1.27095,0.36133 -0.18085,0.4713 -0.28734,0.49496 -0.52692,0.11705 -0.2051,-0.32361 -0.30194,-0.15767 -0.30567,0.52382 -0.004,0.66445 0.13146,0.91287 0.40453,0.7441 0.25399,-0.15698 0.31358,-0.0974 0.15659,0.15659 -0.36003,0.58256 -0.92164,0.50781 -0.92164,-0.12268 0,-0.80405 -0.43766,-0.61328 -1.4104,0.6148 -0.62873,0.79379 -0.74726,1.15164 -0.41777,1.26147 0.27953,0.0932 -0.0181,0.47826 -0.75905,0.98165 -0.67354,0.4577 -1.97777,2.06913 -2.91479,3.60143 -2.61285,4.27268 -3.33551,5.33177 -6.36229,9.32404 -1.96154,2.58725 -2.81292,4.01128 -2.81292,4.705 0,0.54714 -0.0849,0.90989 -0.18869,0.80612 -0.10376,-0.10378 -0.40673,0.17586 -0.67326,0.62141 l -0.48456,0.8101 0.16654,-0.79896 c 0.18319,-0.87871 -0.10792,-1.02616 -0.75277,-0.3813 -0.29046,0.29046 -0.30591,0.55231 -0.0507,0.85978 0.26547,0.31987 0.0913,0.76207 -0.62987,1.59918 -1.71198,1.98725 -4.89669,5.02737 -7.55045,7.20767 -1.84001,1.51173 -2.4193,2.17654 -2.08152,2.38878 0.84839,0.5331 1.85477,-0.0977 4.65074,-2.91533 z m -222.69955,-1.6805 c 0.43686,-0.9147 1.18573,-2.29193 1.66417,-3.0605 l 0.86989,-1.3974 -1.37759,-1.07144 c -2.69788,-2.09832 -4.27658,-4.03174 -5.74312,-7.03354 -1.82972,-3.7452 -2.13584,-5.19082 -2.41394,-11.39953 -0.24572,-5.48576 -0.45856,-5.77698 -1.98844,-2.72058 -1.56737,3.13133 -2.50482,6.50583 -3.32808,11.98008 -0.27251,1.81199 -0.69198,3.6496 -0.93215,4.08359 -0.24018,0.43398 -0.4508,1.65585 -0.46804,2.71526 l -0.0314,1.92619 5.73696,3.76473 c 3.15533,2.0706 6.07006,3.78982 6.47719,3.82049 0.55529,0.0418 0.93868,-0.35976 1.53452,-1.60735 z m 227.92683,-6.0057 c 0,-0.43807 -0.099,-0.45594 -0.53264,-0.0961 -0.29296,0.24313 -0.53264,0.57726 -0.53264,0.74252 0,0.16526 0.23968,0.20849 0.53264,0.0961 0.29295,-0.11242 0.53264,-0.44656 0.53264,-0.74253 z m -189.11052,-5.95814 c 0.32501,-0.77955 1.23691,-2.40994 2.02646,-3.62309 l 1.43552,-2.20573 -0.12161,-5.26644 -0.12161,-5.26644 -1.10681,-1.40518 c -0.60874,-0.77285 -1.44362,-2.07004 -1.85528,-2.88264 -0.46207,-0.91208 -1.96618,-2.51055 -3.93066,-4.17725 -2.67073,-2.2659 -3.47894,-2.75609 -5.02874,-3.05 -2.43763,-0.46229 -8.61977,-0.44691 -11.02239,0.0274 -1.05199,0.20768 -2.31219,0.43663 -2.80044,0.50877 -0.48826,0.0721 -1.44705,0.36707 -2.13066,0.65539 -0.68361,0.28832 -1.65523,0.4454 -2.15916,0.34907 -1.87063,-0.35759 -3.74963,0.51769 -5.98496,2.78796 -2.42646,2.4644 -2.38505,2.32518 -2.66219,8.94864 -0.15546,3.71551 -0.0576,5.24628 0.52213,8.16717 0.76789,3.86894 2.12624,8.38839 2.52119,8.38839 0.13363,0 0.61851,-0.43943 1.07749,-0.97651 1.4631,-1.71203 4.30598,-3.86626 6.68559,-5.0661 1.95854,-0.98753 2.79481,-1.18953 5.52166,-1.33374 3.97705,-0.21034 6.25403,0.25591 9.92493,2.0323 3.02176,1.46226 5.81469,3.87749 6.55744,5.67064 l 0.43976,1.06168 0.8107,-0.96346 c 0.44589,-0.52991 1.07663,-1.60129 1.40164,-2.38084 z m 5.18722,-11.39031 c -0.28573,-0.95549 -0.31101,-0.91226 -0.32922,0.56295 -0.0141,1.14297 0.074,1.43764 0.3095,1.03498 0.19414,-0.33198 0.20223,-0.9876 0.0197,-1.59793 z m 209.97357,-4.94101 c 0.11242,-0.29295 0.0496,-0.53264 -0.13955,-0.53264 -0.18916,0 -0.34395,0.23969 -0.34395,0.53264 0,0.29296 0.0628,0.53265 0.13956,0.53265 0.0768,0 0.23152,-0.23969 0.34394,-0.53265 z m -3.18328,-5.91823 c -0.10059,-0.16275 -0.33325,-0.29591 -0.51701,-0.29591 -0.1838,0 -0.33415,0.13316 -0.33415,0.29591 0,0.16275 0.23266,0.29591 0.51702,0.29591 0.28436,0 0.43474,-0.13316 0.33414,-0.29591 z m 0.72624,-1.96483 c 0.0741,-0.38485 0.0153,-0.8929 -0.13057,-1.12901 -0.15013,-0.24297 -0.28666,0.13874 -0.3145,0.87949 -0.0506,1.3465 0.20609,1.49043 0.44507,0.24952 z m 4.19594,-4.9891 c 1.05949,-1.51358 2.18496,-3.23135 2.50099,-3.81726 0.31604,-0.5859 0.58097,-0.86554 0.58882,-0.62141 0.008,0.24412 0.18344,0.44387 0.39025,0.44387 0.20684,0 0.26053,-0.18695 0.11931,-0.41544 -0.1713,-0.27713 -0.0651,-0.3419 0.31888,-0.19455 0.47763,0.18329 0.52174,0.0792 0.25907,-0.61173 -0.4091,-1.076 -0.0634,-2.42646 0.55991,-2.18727 0.56769,0.21784 1.01387,-0.35537 0.5161,-0.66301 -0.47948,-0.29633 -1.40071,0.69292 -4.20794,4.51864 -3.24691,4.42488 -3.65008,5.10592 -3.40333,5.74889 0.11633,0.30319 0.26103,0.55125 0.32151,0.55125 0.0605,0 0.9769,-1.23839 2.03643,-2.75198 z m 10.9278,-8.78858 c 0.48187,-0.65692 0.47434,-0.67363 -0.10049,-0.22284 -0.34178,0.26804 -0.62141,0.65421 -0.62141,0.85815 0,0.20393 0.0452,0.30421 0.10049,0.22284 0.0553,-0.0814 0.33489,-0.46754 0.62141,-0.85815 z m -206.85403,-12.38524 c 6.07616,0.62183 6.05792,0.62267 6.79446,-0.31368 0.44891,-0.5707 1.75411,-1.24108 3.72168,-1.91155 1.95991,-0.66786 2.97785,-1.18997 2.88181,-1.4781 -0.0817,-0.24502 0.0624,-0.40055 0.32023,-0.34562 0.25779,0.0549 0.52486,-0.26944 0.59347,-0.72081 0.0686,-0.45137 0.35204,-0.9079 0.62984,-1.0145 0.27781,-0.1066 0.5051,-0.6561 0.5051,-1.22112 0,-0.565 0.1598,-1.02729 0.3551,-1.02729 0.1953,0 0.35509,0.29961 0.35509,0.66581 0,0.36619 0.0842,1.2051 0.18702,1.86424 0.16859,1.0803 0.15002,1.11375 -0.18837,0.33928 -0.43103,-0.98649 -1.21612,-0.55277 -1.00483,0.55512 0.20009,1.04918 1.58634,1.04801 1.84976,-10e-4 0.19025,-0.75798 0.3519,-0.84061 1.19733,-0.61208 0.87558,0.23669 1.04087,0.13179 1.58676,-1.00698 0.75662,-1.57852 0.76922,-1.80397 0.10082,-1.80397 -0.29295,0 -0.53264,-0.16922 -0.53264,-0.37605 0,-0.20683 -0.17574,-0.26744 -0.39052,-0.13469 -0.27447,0.16963 -0.27076,0.0176 0.0125,-0.51169 0.26559,-0.49627 0.27767,-0.75304 0.0354,-0.75304 -0.20217,0 -0.32763,-0.123 -0.27881,-0.27333 0.0488,-0.15034 -0.35065,-0.74792 -0.88773,-1.32798 -0.53708,-0.58005 -0.97651,-1.36645 -0.97651,-1.74755 0,-0.6855 0.006,-0.68554 0.52135,-0.004 0.28674,0.37911 0.52642,0.88492 0.53264,1.12403 0.006,0.23912 0.48637,0.68043 1.06703,0.9807 0.93516,0.48359 1.03222,0.48463 0.84975,0.009 -0.13591,-0.35419 0.0184,-0.55077 0.4534,-0.57779 0.36268,-0.0225 0.8192,-0.0781 1.0145,-0.12347 0.19531,-0.0454 0.57262,-0.10683 0.83848,-0.13658 0.47312,-0.0529 0.36798,-1.65109 -0.20725,-3.15011 -0.17114,-0.44599 -0.0239,-0.52344 0.72339,-0.38058 0.70915,0.13557 1.07018,-0.022 1.47852,-0.64518 0.6358,-0.97037 0.70569,-1.91482 0.14169,-1.91482 -0.28071,0 -0.27167,-0.15291 0.0306,-0.51708 0.23603,-0.2844 0.34821,-0.64803 0.2493,-0.80808 -0.24584,-0.39778 0.6472,-5.02988 1.04311,-5.41048 0.17513,-0.16836 0.71199,-0.35958 1.19301,-0.42494 0.99408,-0.13508 1.47567,-1.51447 1.44433,-4.13693 -0.013,-1.0907 0.10253,-1.45774 0.40088,-1.27335 0.28886,0.17852 0.34397,0.0631 0.17727,-0.37136 -0.18235,-0.4752 -0.10523,-0.57797 0.31319,-0.41741 0.33563,0.12879 0.4644,0.0662 0.32569,-0.15819 -0.33167,-0.53666 0.14865,-2.17535 0.56263,-1.9195 0.2202,0.13609 0.29966,-0.63377 0.21503,-2.08315 -0.12029,-2.06004 -0.0562,-2.33684 0.61683,-2.66296 0.41308,-0.20018 0.55133,-0.37477 0.3072,-0.38799 -0.24413,-0.0132 -0.44387,-0.17881 -0.44387,-0.36799 0,-0.18916 0.27964,-0.26412 0.62142,-0.16656 0.35564,0.10152 0.29354,0.004 -0.1452,-0.22852 -0.66346,-0.35129 -0.71851,-0.54387 -0.40913,-1.43136 0.19661,-0.564 0.51107,-1.02545 0.69879,-1.02545 0.18773,0 0.24938,-0.14875 0.13702,-0.33056 -0.11236,-0.18181 -0.052,-0.42471 0.13423,-0.53978 0.1862,-0.11507 0.32976,-0.84518 0.31903,-1.62246 -0.0173,-1.25631 -0.11576,-1.41324 -0.88633,-1.41324 -0.48747,0 -0.77079,-0.1554 -0.64738,-0.35509 0.12071,-0.1953 0.54461,-0.35509 0.94202,-0.35509 0.65729,0 0.70194,-0.15234 0.49434,-1.6867 -0.20403,-1.5079 -0.29182,-3.08631 -0.63364,-11.39173 -0.0637,-1.54791 -0.26642,-2.37735 -0.65086,-2.66321 -0.30709,-0.22833 -0.86636,-1.61299 -1.24283,-3.07702 -0.78856,-3.06654 -2.29155,-5.18279 -3.29824,-4.64402 -0.32767,0.17536 -2.51019,0.98861 -4.85006,1.80723 -3.98491,1.39416 -5.95601,1.87342 -9.69514,2.35732 -0.87863,0.11372 -1.62086,0.42292 -1.73611,0.72325 -0.12326,0.32121 -0.28905,0.38267 -0.42759,0.1585 -0.65407,-1.05831 -1.03766,0.47683 -1.23006,4.9228 -0.23588,5.45029 -0.47561,7.67887 -0.93587,8.69981 -0.17609,0.3906 -0.3959,1.10966 -0.48845,1.59792 -0.0926,0.48825 -0.10461,0.24856 -0.0268,-0.53264 0.0778,-0.78121 0.18685,-2.24599 0.24228,-3.25507 0.0554,-1.00908 0.20603,-1.93992 0.33466,-2.06852 0.12862,-0.12861 0.0998,-0.70118 -0.064,-1.27238 -0.16382,-0.57121 -0.18001,-1.03856 -0.036,-1.03856 0.14403,0 0.20932,-0.51932 0.14509,-1.15405 -0.0642,-0.63473 -0.13094,-1.55354 -0.14823,-2.04179 -0.0173,-0.48826 -0.1932,-1.08748 -0.39091,-1.33161 -0.24501,-0.30254 -0.23117,-0.59845 0.0435,-0.92939 0.30387,-0.36614 0.2878,-0.58109 -0.0653,-0.87415 -0.37589,-0.31197 -0.45397,-0.10868 -0.3958,1.03057 0.0636,1.24549 -0.01,1.3931 -0.59917,1.20602 -0.50705,-0.16093 -0.61935,-0.077 -0.45832,0.3427 0.11732,0.30572 0.0764,0.55485 -0.091,0.55361 -0.44255,-0.003 -1.58605,-2.13317 -1.35016,-2.51485 0.11002,-0.17801 0.0479,-0.32365 -0.13803,-0.32365 -0.71932,0 -0.75089,1.21509 -0.0619,2.38283 0.69202,1.17288 0.68705,1.87829 -0.0132,1.87829 -0.18116,0 -0.56305,-0.55927 -0.84866,-1.24283 -0.28561,-0.68355 -0.59143,-1.24282 -0.67962,-1.24282 -0.21492,0 0.0152,2.37724 0.27001,2.78958 0.11075,0.17919 -0.0192,0.50884 -0.28877,0.73257 -0.26957,0.22372 -0.60171,1.16063 -0.73808,2.08202 -0.35444,2.3947 -2.18885,9.64687 -3.3878,13.39336 -0.56251,1.75772 -1.28314,4.0747 -1.6014,5.14886 -0.77106,2.60238 -2.90437,7.37468 -3.88897,8.69981 -0.43534,0.5859 -0.91482,1.46476 -1.0655,1.95302 -0.33227,1.07663 -1.79844,3.68263 -2.9157,5.18238 -0.83683,1.12332 -1.0527,1.9195 -0.52046,1.9195 0.38484,0 0.96906,1.27395 2.19839,4.79377 1.11148,3.18239 1.60716,5.7242 1.95623,10.03141 0.1735,2.14082 0.36948,2.92952 0.72792,2.92952 0.73289,0 4.762,2.1858 4.762,2.58339 0,0.2135 0.16865,0.20718 0.44387,-0.0166 0.24412,-0.19852 1.08303,-0.29554 1.86424,-0.2156 z m 17.93225,-6.05869 c 0,-0.28143 0.12555,-0.58928 0.279,-0.68412 0.15346,-0.0948 0.27901,0.13542 0.27901,0.51169 0,0.37626 -0.12555,0.68411 -0.27901,0.68411 -0.15345,0 -0.279,-0.23025 -0.279,-0.51168 z m 10.65282,-39.96904 c 0,-0.19531 0.23969,-0.3551 0.53265,-0.3551 0.29295,0 0.53264,0.15979 0.53264,0.3551 0,0.1953 -0.23969,0.35509 -0.53264,0.35509 -0.29296,0 -0.53265,-0.15979 -0.53265,-0.35509 z m -23.05308,-12.63543 c 0.0171,-0.41367 0.10118,-0.49781 0.21454,-0.21454 0.10257,0.25633 0.09,0.5626 -0.028,0.6806 -0.11799,0.11799 -0.20192,-0.0917 -0.1865,-0.46606 z m 0.3551,-1.42038 c 0.017,-0.41367 0.10118,-0.49781 0.21453,-0.21454 0.10258,0.25633 0.09,0.56261 -0.028,0.6806 -0.11799,0.11799 -0.20192,-0.0917 -0.1865,-0.46606 z m -34.60205,58.41347 c 2.12342,-0.29534 3.02145,-0.60331 3.883,-1.3316 1.09068,-0.92199 1.12794,-1.05101 1.38865,-4.80784 0.25418,-3.66267 0.16688,-5.14968 -0.87823,-14.95956 -0.20807,-1.95302 -0.42148,-4.19011 -0.47425,-4.97132 -0.0528,-0.78121 -0.28016,-1.75519 -0.50532,-2.1644 -0.5148,-0.93558 -0.81861,-2.33793 -0.97055,-4.47987 -0.0954,-1.34418 0.003,-1.71155 0.50022,-1.86938 1.86839,-0.593 6.6766,2.72205 8.17571,5.6368 0.99004,1.92494 1.43895,2.07395 1.43895,0.47762 0,-0.63602 0.14721,-1.66968 0.32713,-2.29702 0.17991,-0.62735 0.42791,-2.30411 0.55109,-3.72615 0.12318,-1.42203 0.29603,-2.83271 0.38411,-3.13483 0.0881,-0.30212 0.22782,-2.61911 0.31054,-5.14886 0.0827,-2.52976 0.3196,-5.34511 0.5264,-6.25634 0.29261,-1.28938 0.26458,-1.97256 -0.12639,-3.08069 -0.27632,-0.78315 -0.83074,-2.93946 -1.23207,-4.79179 -0.40132,-1.85233 -1.01285,-4.13056 -1.35896,-5.06273 l -0.62928,-1.69484 -2.83845,-0.46202 c -5.27971,-0.85937 -12.55514,-5.24746 -14.77683,-8.91246 -0.44205,-0.72921 -1.43351,-2.0449 -2.20326,-2.92376 -1.54146,-1.75995 -3.79061,-6.10616 -3.79061,-7.32487 0,-0.52461 -0.57806,-1.19096 -1.78591,-2.05872 -1.46524,-1.05267 -1.91155,-1.2158 -2.48566,-0.90855 -0.38487,0.20597 -0.69975,0.52866 -0.69975,0.71709 0,0.18843 -0.20841,0.34261 -0.46312,0.34261 -0.25472,0 -1.18203,0.45591 -2.06068,1.01314 -1.46438,0.92868 -1.66193,1.23211 -2.3696,3.63971 -0.42462,1.44462 -1.08995,3.14107 -1.47851,3.76989 -0.77139,1.24837 -3.2601,3.20387 -4.46112,3.5053 -0.63635,0.15972 -0.84797,0.67768 -1.33782,3.27451 -0.32005,1.69664 -0.75979,4.84251 -0.9772,6.99083 -0.21741,2.14831 -0.54729,4.4653 -0.73306,5.14886 -0.3454,1.27096 -0.0204,9.0946 0.87764,21.1281 0.29308,3.92719 0.32996,6.19538 0.10554,6.49098 -0.2265,0.29834 -0.20509,0.76138 0.0623,1.34831 0.22402,0.49166 0.4073,1.206 0.4073,1.58741 0,0.99846 0.31505,0.8681 1.63838,-0.67791 0.64562,-0.75426 1.65965,-1.57261 2.2534,-1.81855 0.59375,-0.24594 1.07954,-0.56893 1.07954,-0.71776 0,-0.14883 0.2974,-0.34837 0.66088,-0.44342 1.03077,-0.26956 1.82478,1.42723 1.82478,3.8995 0,2.30601 -0.8895,8.88378 -1.4296,10.5718 -0.18747,0.58591 -0.42303,1.78435 -0.52347,2.66321 -0.10045,0.87886 -0.25609,2.15719 -0.34587,2.84075 -0.0898,0.68356 -0.24439,1.882 -0.34357,2.66321 -0.0992,0.7812 -0.0581,1.97965 0.0912,2.6632 0.26674,1.22087 0.3105,1.24716 2.47559,1.48751 1.21224,0.13457 2.38187,0.35457 2.59918,0.48888 0.21732,0.13431 0.97683,0.27618 1.68781,0.31527 0.71097,0.0391 2.12628,0.49821 3.14512,1.02027 1.01884,0.52206 2.45697,0.95642 3.19585,0.96525 0.73887,0.009 2.06247,0.40108 2.94133,0.87169 1.83722,0.98378 4.28259,1.12454 8.74746,0.50354 z m 47.3574,-2.61315 c 0,-0.37479 -0.68146,-0.53225 -0.88416,-0.2043 -0.12267,0.19849 0.0261,0.36089 0.33056,0.36089 0.30448,0 0.5536,-0.0705 0.5536,-0.15659 z m -162.5011,-4.17825 c -0.24334,-0.39374 -1.19728,-0.35259 -1.19728,0.0516 0,0.18317 0.30852,0.30979 0.68559,0.28138 0.37708,-0.0284 0.60733,-0.17826 0.51169,-0.33302 z m -1.78901,-3.27372 c 0.10693,-0.27867 -0.0139,-0.67955 -0.26846,-0.89084 -0.36473,-0.30271 -0.42678,-0.19527 -0.29259,0.50668 0.19578,1.02417 0.29055,1.08906 0.56105,0.38416 z m -12.85849,-0.79829 c -0.4186,-0.71985 -0.51969,-0.48945 -0.17703,0.4035 0.12178,0.31735 0.29622,0.5022 0.38764,0.41077 0.0914,-0.0914 -0.003,-0.45785 -0.21061,-0.81427 z m 11.31966,-6.15201 c 0,-0.1953 -0.16922,-0.35509 -0.37605,-0.35509 -0.20683,0 -0.27729,0.15979 -0.15659,0.35509 0.1207,0.1953 0.28993,0.3551 0.37605,0.3551 0.0861,0 0.15659,-0.1598 0.15659,-0.3551 z m 364.9242,-0.42167 c -0.11334,-0.28327 -0.1975,-0.19913 -0.21454,0.21453 -0.0153,0.37433 0.0685,0.58406 0.18653,0.46607 0.11799,-0.118 0.1306,-0.42427 0.028,-0.6806 z m -365.02037,-0.50305 c -0.118,-0.118 -0.42427,-0.13061 -0.6806,-0.028 -0.28327,0.11335 -0.19913,0.1975 0.21454,0.21453 0.37433,0.0154 0.58405,-0.0685 0.46606,-0.1865 z m 3.88228,-0.93952 c -0.0985,-0.24413 -0.1791,-0.0444 -0.1791,0.44386 0,0.48826 0.0806,0.688 0.1791,0.44387 0.0985,-0.24412 0.0985,-0.64361 0,-0.88773 z m 1.5403,-0.44387 c 0.24313,-0.29295 0.33118,-0.53264 0.19567,-0.53264 -0.13552,0 -0.48609,0.23969 -0.77904,0.53264 -0.29295,0.29295 -0.381,0.53264 -0.19566,0.53264 0.18534,0 0.5359,-0.23969 0.77903,-0.53264 z m -1.5329,-0.95432 c -0.11335,-0.28326 -0.1975,-0.19913 -0.21453,0.21454 -0.0154,0.37433 0.0685,0.58406 0.1865,0.46606 0.11799,-0.11799 0.13061,-0.42426 0.028,-0.6806 z m 1.00026,-0.28851 c -0.1207,-0.1953 -0.0502,-0.35509 0.15659,-0.35509 0.20683,0 0.37605,0.15979 0.37605,0.35509 0,0.1953 0.16542,0.35509 0.36759,0.35509 0.3877,0 0.0942,-0.69784 -0.78544,-1.86773 -0.42004,-0.55862 -0.47271,-0.4927 -0.49653,0.62141 -0.0147,0.68548 0.11463,1.24632 0.28728,1.24632 0.17266,0 0.21516,-0.15979 0.0945,-0.35509 z m -6.08573,-0.53264 c 0.11241,-0.29295 0.0496,-0.53264 -0.13956,-0.53264 -0.18917,0 -0.34395,0.23969 -0.34395,0.53264 0,0.29295 0.0628,0.53264 0.13956,0.53264 0.0768,0 0.23153,-0.23969 0.34395,-0.53264 z m 368.81435,-1.95302 c 0,-0.1953 -0.16924,-0.35509 -0.37604,-0.35509 -0.20685,0 -0.2773,0.15979 -0.1566,0.35509 0.1207,0.1953 0.28993,0.3551 0.37604,0.3551 0.0862,0 0.1566,-0.1598 0.1566,-0.3551 z m -371.07333,-4.61622 c 0,-0.1953 -0.16922,-0.3551 -0.37605,-0.3551 -0.20683,0 -0.2773,0.1598 -0.15659,0.3551 0.1207,0.1953 0.28993,0.35509 0.37605,0.35509 0.0861,0 0.15659,-0.15979 0.15659,-0.35509 z m 372.37116,-0.90305 c 0.31959,-0.83283 -0.0256,-0.93062 -0.51531,-0.14608 -0.27434,0.43927 -0.29789,0.69403 -0.0642,0.69403 0.20308,0 0.46386,-0.24658 0.57951,-0.54795 z m -370.70822,-2.00428 c -0.11335,-0.28327 -0.19749,-0.19913 -0.21453,0.21453 -0.0154,0.37433 0.0685,0.58406 0.1865,0.46606 0.118,-0.11799 0.13061,-0.42426 0.028,-0.68059 z m 2.42064,0.0666 c 0.12071,-0.19531 0.0502,-0.3551 -0.15659,-0.3551 -0.20683,0 -0.37605,0.15979 -0.37605,0.3551 0,0.1953 0.0705,0.35509 0.15659,0.35509 0.0861,0 0.25535,-0.15979 0.37605,-0.35509 z m -4.79377,-1.22188 c 0,-0.56553 -0.64427,-1.09297 -0.95523,-0.78201 -0.29211,0.29211 0.16389,1.2937 0.58899,1.2937 0.20143,0 0.36624,-0.23026 0.36624,-0.51169 z m 376.57587,-1.5301 c -0.0934,-1.61984 -0.0876,-1.6058 -0.54848,-1.32095 -0.25453,0.15731 -0.24075,0.38864 0.0435,0.73115 0.32008,0.38567 0.31405,0.50102 -0.0263,0.50102 -0.32952,0 -0.34138,0.12129 -0.0465,0.47654 0.21753,0.2621 0.29036,0.58168 0.16185,0.71019 -0.1285,0.12851 -0.0702,0.23365 0.12951,0.23365 0.19974,0 0.32864,-0.59922 0.28642,-1.3316 z m -372.63653,-1.2628 c -0.46373,-0.46373 -0.52824,0.0502 -0.13257,1.05621 0.24675,0.62736 0.26054,0.62706 0.3884,-0.009 0.0729,-0.36252 -0.0422,-0.83391 -0.25583,-1.04753 z m -3.18216,-2.73201 c 0.19251,0 0.24965,-0.1624 0.12698,-0.36089 -0.12267,-0.19848 -0.35815,-0.27739 -0.52327,-0.17533 -0.16513,0.10205 -0.3719,-0.0152 -0.45949,-0.26053 -0.0876,-0.24535 -0.25936,-0.35455 -0.3817,-0.24267 -0.12234,0.11188 -0.0244,0.62913 0.2177,1.14945 0.28959,0.62244 0.47942,0.76542 0.55496,0.418 0.0631,-0.29042 0.27232,-0.52803 0.46482,-0.52803 z m 182.47137,-1.42038 c 0,-0.1953 -0.15979,-0.35509 -0.35509,-0.35509 -0.1953,0 -0.3551,0.15979 -0.3551,0.35509 0,0.1953 0.1598,0.3551 0.3551,0.3551 0.1953,0 0.35509,-0.1598 0.35509,-0.3551 z m -183.57821,-3.46217 c 0.005,-0.53106 0.0555,-0.54396 0.34966,-0.0888 0.44274,0.68509 0.44899,0.29318 0.0136,-0.85205 -0.21864,-0.57506 -0.21864,-0.97423 0,-1.10935 0.18783,-0.1161 0.34152,-0.4609 0.34152,-0.76624 0,-0.46032 -0.0937,-0.47741 -0.54843,-0.10001 -0.39071,0.32426 -0.47954,0.76875 -0.30891,1.54566 0.22342,1.0172 0.1967,1.05517 -0.39744,0.56484 -0.58937,-0.48641 -0.60702,-0.46948 -0.23622,0.22659 0.2204,0.41375 0.29983,0.85318 0.1765,0.97651 -0.12333,0.12333 -0.0378,0.22424 0.19004,0.22424 0.22785,0 0.41672,-0.27964 0.41971,-0.62142 z m 379.94525,-0.48578 c 0,-0.1953 -0.15979,-0.25633 -0.35509,-0.13563 -0.1953,0.1207 -0.3551,0.37925 -0.3551,0.57455 0,0.1953 0.1598,0.25634 0.3551,0.13564 0.1953,-0.12071 0.35509,-0.37925 0.35509,-0.57456 z m -377.54281,-1.02337 c -0.0167,-0.5859 -0.16577,-1.06528 -0.33135,-1.06528 -0.16558,0 -0.30105,-0.1712 -0.30105,-0.38046 0,-0.20925 -0.23969,-0.62014 -0.53264,-0.9131 -0.29296,-0.29295 -0.53264,-0.37086 -0.53264,-0.17314 0,0.19773 0.16152,0.45934 0.35895,0.58135 0.19743,0.12202 0.32593,0.65535 0.28556,1.18518 -0.0781,1.02508 0.26209,1.83074 0.77307,1.83074 0.17071,0 0.29676,-0.47938 0.2801,-1.06529 z m 376.63835,-0.0869 c -0.0844,-0.4384 -0.0557,-1.1052 0.0638,-1.48178 0.20258,-0.63832 0.24956,-0.62643 0.69393,0.17568 0.26216,0.4732 0.47664,0.70057 0.47664,0.50527 0,-0.1953 -0.21125,-0.73621 -0.46944,-1.20203 -0.37093,-0.66918 -0.53502,-0.74371 -0.78184,-0.35509 -0.41589,0.65478 -0.52302,3.15504 -0.13522,3.15504 0.1681,0 0.23653,-0.35869 0.15212,-0.79709 z m 1.25956,0.0869 c 0,-0.1953 -0.16924,-0.35509 -0.37605,-0.35509 -0.20684,0 -0.27729,0.15979 -0.1566,0.35509 0.1207,0.19531 0.28994,0.3551 0.37605,0.3551 0.0861,0 0.1566,-0.15979 0.1566,-0.3551 z m -380.36852,-2.72255 c -0.0631,-0.3256 -0.30198,-0.6543 -0.53074,-0.73047 -0.26458,-0.0881 -0.34641,0.12733 -0.2249,0.592 0.22696,0.86791 0.92181,0.99525 0.75564,0.13847 z m 381.0787,-0.47329 c 0,-0.39061 -0.14484,-0.71019 -0.32185,-0.71019 -0.17702,0 -0.23827,0.31958 -0.13611,0.71019 0.10212,0.3906 0.24697,0.71019 0.32182,0.71019 0.0749,0 0.13614,-0.31959 0.13614,-0.71019 z m -378.8854,0.0435 c 0,-0.17138 -0.27036,-0.53091 -0.6008,-0.79896 -0.40824,-0.33114 -0.51534,-0.34508 -0.33414,-0.0435 0.17284,0.28769 0.0407,0.45264 -0.3757,0.46882 -0.5734,0.0223 -0.56612,0.0577 0.0678,0.33014 0.9469,0.4069 1.24283,0.41725 1.24283,0.0435 z m -1.5403,-1.90772 c -0.0985,-0.24412 -0.1791,-0.0444 -0.1791,0.44387 0,0.48826 0.0806,0.688 0.1791,0.44387 0.0985,-0.24413 0.0985,-0.64361 0,-0.88774 z m -0.59026,0.0619 c 0,-0.16828 -0.23969,-0.21398 -0.53264,-0.10157 -0.29296,0.11242 -0.53265,0.34208 -0.53265,0.51036 0,0.16827 0.23969,0.21398 0.53265,0.10156 0.29295,-0.11242 0.53264,-0.34207 0.53264,-0.51035 z m -0.86453,-1.24995 c -0.13917,-0.55447 -0.0484,-1.14355 0.22782,-1.47851 0.40526,-0.49145 0.36901,-0.50878 -0.30886,-0.14765 -1.01736,0.54201 -1.17444,1.1317 -0.50857,1.90938 0.73963,0.86382 0.86266,0.80472 0.58961,-0.28322 z m 1.77747,-0.0548 c -0.0492,-0.34177 -0.43456,-0.67247 -0.85631,-0.73488 -0.92208,-0.13645 -1.0124,0.46779 -0.14541,0.97276 0.88936,0.518 1.10327,0.46721 1.00172,-0.23788 z m -2.91888,-5.60259 c -0.1145,-0.29838 -0.54892,-0.72402 -0.96537,-0.94587 -0.71009,-0.37828 -0.72405,-0.36111 -0.22454,0.27618 0.47927,0.61146 1.1149,1.19236 1.32046,1.20676 0.0427,0.003 -0.016,-0.23869 -0.13055,-0.53707 z m 0.23047,-1.5671 c 0,-0.18378 -0.1598,-0.4329 -0.3551,-0.5536 -0.1953,-0.12071 -0.35509,0.0297 -0.35509,0.33413 0,0.30448 0.15979,0.5536 0.35509,0.5536 0.1953,0 0.3551,-0.15036 0.3551,-0.33413 z m 0.15268,-1.4011 c 0.10703,-0.17317 -0.0291,-0.50052 -0.30253,-0.72743 -0.55349,-0.45936 -1.12028,0.0685 -0.73789,0.68719 0.27172,0.43965 0.78138,0.45936 1.04042,0.0402 z m 159.28456,-3.21513 c 0,-0.18377 -0.15979,-0.43289 -0.35509,-0.5536 -0.1953,-0.1207 -0.3551,0.0297 -0.3551,0.33414 0,0.30448 0.1598,0.5536 0.3551,0.5536 0.1953,0 0.35509,-0.15036 0.35509,-0.33414 z m 223.84479,-1.63732 c 0.12127,-0.31601 0.0617,-0.45854 -0.13959,-0.33414 -0.19306,0.11932 -0.35101,0.36731 -0.35101,0.55109 0,0.51077 0.25453,0.39822 0.4906,-0.21695 z m -1.20078,-13.3686 c 0,-0.57363 -0.10501,-0.67621 -0.39519,-0.38604 -0.21732,0.21734 -0.2878,0.56889 -0.1566,0.78121 0.36731,0.59431 0.55179,0.4622 0.55179,-0.39517 z m -2.32328,-5.94105 c 0.11235,-0.18181 0.0685,-0.41446 -0.0974,-0.51702 -0.16594,-0.10255 -0.30172,0.0462 -0.30172,0.33056 0,0.59875 0.11199,0.65106 0.39912,0.18646 z m 0.9029,-1.93956 c 0,-0.0768 -0.248,-0.23472 -0.55107,-0.35103 -0.31604,-0.12126 -0.45857,-0.0617 -0.33415,0.13956 0.20852,0.33741 0.88522,0.49906 0.88522,0.21147 z m -1.17781,-4.54325 c -0.11335,-0.28327 -0.19751,-0.19913 -0.21455,0.21454 -0.0153,0.37432 0.0685,0.58405 0.18653,0.46606 0.118,-0.118 0.1306,-0.42427 0.0281,-0.6806 z m -0.47363,-4.71582 c 0.11005,-0.2867 0.0472,-0.61571 -0.13955,-0.73114 -0.18678,-0.11544 -0.33958,0.11914 -0.33958,0.52127 0,0.8574 0.19747,0.94389 0.47913,0.20987 z m -389.97329,-14.84247 c -0.35069,-0.34808 -0.39148,-0.3073 -0.19878,0.19878 0.13335,0.3502 0.33191,0.54728 0.44123,0.43795 0.10933,-0.10933 2.3e-4,-0.39585 -0.24245,-0.63673 z m 232.52396,-8.39497 c 1.84513,-1.48269 5.12088,-4.40717 7.27943,-6.49884 l 3.92465,-3.80305 -1.59793,-0.008 c -1.49415,-0.007 -6.90208,0.70416 -10.12018,1.33124 -0.7812,0.15223 -2.05954,0.15106 -2.84075,-0.002 -0.78121,-0.15365 -1.91042,-0.37648 -2.50936,-0.49518 -0.85527,-0.1695 -1.9222,0.18164 -4.97132,1.63611 -2.13528,1.01856 -4.76352,2.39245 -5.84053,3.05308 -2.69127,1.65081 -6.90227,3.21824 -9.42884,3.50963 -2.13441,0.24615 -5.77466,1.17946 -6.29884,1.61492 -0.15744,0.1308 0.80131,0.34914 2.13057,0.4852 6.21961,0.63662 17.52159,3.10307 21.05757,4.59543 1.23111,0.51959 1.25978,0.51071 3.55094,-1.09932 1.2704,-0.89272 3.81946,-2.83624 5.66459,-4.31893 z m 150.84483,3.27357 c -0.34178,-0.0893 -0.62141,-0.31047 -0.62141,-0.49145 0,-0.18098 -0.17936,-0.32905 -0.39856,-0.32905 -0.27541,0 -0.26195,0.16463 0.0435,0.53264 0.24314,0.29295 0.70213,0.5141 1.01997,0.49145 0.48762,-0.0348 0.48084,-0.0666 -0.0435,-0.20359 z m 4.62212,-0.98045 c 0.0396,-0.47858 -0.10245,-0.97797 -0.31568,-1.10975 -0.26135,-0.16152 -0.30506,0.0208 -0.13408,0.55951 0.17279,0.54439 0.12829,0.72167 -0.13952,0.55615 -0.42313,-0.26151 -0.54727,0.23661 -0.15638,0.62749 0.43946,0.43949 0.67329,0.24087 0.74566,-0.6334 z m -1.43366,-0.76478 c -0.118,-0.11799 -0.42426,-0.13061 -0.68061,-0.028 -0.28326,0.11336 -0.19913,0.1975 0.21455,0.21454 0.37431,0.0154 0.58406,-0.0685 0.46606,-0.18651 z m -53.3455,-14.64896 c 0.58591,-0.3614 1.70445,-1.49996 2.48566,-2.53014 2.87743,-3.7945 7.19651,-8.2663 7.68963,-7.96154 1.16801,0.72188 -1.07274,-4.87751 -3.53908,-8.84368 -3.2163,-5.17228 -5.73331,-9.45733 -13.28453,-22.6162 -7.85942,-13.69596 -8.63718,-15.18274 -9.55001,-18.25595 -0.78019,-2.62664 -2.17531,-5.40123 -3.09274,-6.15075 -0.40202,-0.32845 -0.65733,-0.3371 -1.02177,-0.0347 -0.37729,0.31312 -0.70304,0.19513 -1.45789,-0.52806 l -0.97204,-0.93128 0.13658,1.43214 c 0.36899,3.86923 -3.79248,10.89554 -8.60346,14.52627 -0.99776,0.75298 -2.61306,1.98567 -3.58957,2.73931 -1.77526,1.37008 -7.77633,5.38053 -10.12018,6.76321 -2.79788,1.65051 -13.95978,5.73722 -15.79898,5.78449 -0.3921,0.0101 -1.67165,0.39829 -2.84346,0.86271 l -2.13057,0.84438 2.69518,0.025 c 4.4219,0.041 9.20068,-1.47726 13.28406,-4.22062 1.4149,-0.95059 8.03676,-4.26674 11.30682,-5.66232 1.63082,-0.696 2.83366,-0.94258 6.09279,-1.24901 0.7812,-0.0734 1.64659,-0.18981 1.92308,-0.25857 0.69549,-0.17296 1.14751,1.91824 0.90108,4.16861 -0.18985,1.73357 -0.14841,1.8458 1.00685,2.72696 1.7244,1.31527 3.83829,6.83441 4.07728,10.64535 0.14788,2.35824 0.26477,2.75197 0.817,2.75197 1.27521,0 1.74756,1.35698 1.78889,5.13911 0.0344,3.15195 0.0766,3.37727 0.36711,1.96278 0.36839,-1.79361 0.0844,-10.73492 -0.43162,-13.58735 -0.9907,-5.47675 -1.02437,-7.51312 -0.15844,-9.58254 0.37634,-0.89939 0.88948,-0.78283 3.23902,0.73575 2.83472,1.83217 4.93498,4.28828 6.58245,7.69773 2.3102,4.78099 2.82139,8.79489 1.84986,14.5253 -0.1908,1.12543 -0.14293,1.32983 0.25401,1.08451 0.26902,-0.16627 0.91274,-0.27002 1.4305,-0.23057 1.12411,0.0857 1.29552,-0.10283 3.00638,-3.30604 1.15228,-2.15737 1.31742,-2.76115 1.25036,-4.57157 -0.0686,-1.85175 0.0351,-2.20671 0.92342,-3.16199 0.55038,-0.59185 0.81911,-0.97327 0.59718,-0.84761 -0.55429,0.31385 -0.92849,-1.26243 -0.38212,-1.60964 0.82975,-0.5273 1.31694,-0.27243 2.22303,1.16294 0.50257,0.79607 1.00172,1.67674 1.10928,1.95704 0.10756,0.28031 0.70753,1.02716 1.33324,1.65967 0.69239,0.6999 1.66478,2.47041 2.48441,4.52343 1.19663,2.99747 1.32706,3.62283 1.17025,5.6118 -0.11853,1.50363 -0.53246,2.96065 -1.26101,4.43867 -1.19379,2.42183 -6.09942,8.48461 -8.76056,10.82705 -0.93313,0.82137 -1.61429,1.4934 -1.5137,1.4934 0.10059,0 0.87424,-0.24392 1.71921,-0.54204 1.50452,-0.53082 1.5549,-0.52347 2.43348,0.35509 1.07014,1.07017 0.99579,1.06261 2.33364,0.23741 z m 32.949,-29.16782 c 0.10209,-0.39041 0.0408,-0.79932 -0.13614,-0.90869 -0.17694,-0.10937 -0.32175,0.21005 -0.32175,0.70983 0,1.08803 0.20237,1.17592 0.45789,0.19886 z M -658.50314,353.0875 c 1.66007,-0.79567 3.46674,-1.62891 4.01483,-1.85163 0.5481,-0.22272 0.90133,-0.55901 0.78496,-0.74729 -0.11637,-0.18829 0.0301,-1.26621 0.32555,-2.39538 0.48777,-1.86432 0.39623,-2.41264 -0.37176,-2.22688 -0.12953,0.0313 -0.38368,-0.15643 -0.56478,-0.41724 -0.22039,-0.31737 -0.24932,-0.1922 -0.0875,0.37848 0.20534,0.72416 0.14357,0.815 -0.40978,0.60265 -0.35837,-0.13751 -0.54351,-0.14196 -0.41143,-0.01 0.46537,0.46537 -1.47761,2.47291 -3.39766,3.51054 -1.48718,0.8037 -2.11762,1.40971 -2.6881,2.58393 -0.767,1.57871 -0.94632,2.38438 -0.47895,2.15186 0.14648,-0.0729 1.62456,-0.78349 3.28462,-1.57916 z m 12.46328,-3.91174 1.18903,-0.23781 -1.23342,-0.44537 c -1.76447,-0.63712 -2.08134,-0.60138 -1.86895,0.2108 0.20775,0.79444 0.25039,0.80497 1.91334,0.47238 z m 135.61096,-8.43928 c 0.48826,-0.42519 1.82517,-1.46239 2.97092,-2.3049 1.66861,-1.22697 2.15228,-1.43498 2.43038,-1.0452 0.27672,0.38785 0.31084,0.37147 0.16806,-0.0807 -0.12036,-0.38115 1.26697,-2.00691 4.22763,-4.95422 2.42373,-2.41279 4.40678,-4.50215 4.40678,-4.643 0,-0.14086 0.46685,-0.72296 1.03745,-1.29355 l 1.03745,-1.03746 -2.75664,-3.69486 c -1.51615,-2.03217 -3.0616,-3.96117 -3.43434,-4.28668 -0.88061,-0.76903 -4.40618,-2.10368 -4.40618,-1.66802 0,0.18431 0.34362,1.00787 0.76359,1.83013 1.09543,2.14467 1.28904,7.02555 0.41146,10.37235 -0.7799,2.97424 -3.71035,7.74202 -7.3892,12.02208 -2.37556,2.76379 -2.1396,3.11112 0.53264,0.78403 z m -44.39938,-2.85368 c 3.57508,-3.07913 7.4696,-7.08676 7.4696,-7.68653 0,-0.19626 0.26992,-0.71468 0.59983,-1.15205 l 0.59983,-0.79521 1.86183,1.00841 c 1.63696,0.88661 1.93956,1.23192 2.50541,2.85898 0.43799,1.25941 0.64416,2.88369 0.64541,5.08465 l 0.002,3.23408 1.99618,-1.8137 c 1.0979,-0.99754 2.45223,-2.37298 3.00961,-3.05654 0.55739,-0.68355 2.13588,-2.54916 3.50778,-4.1458 1.37189,-1.59664 3.11707,-3.71058 3.87818,-4.69765 0.76111,-0.98707 1.65068,-1.87936 1.97683,-1.98288 0.33007,-0.10475 1.02404,-1.29179 1.56516,-2.67718 l 0.97216,-2.48899 -0.9072,-2.97424 c -0.49896,-1.63584 -0.9167,-3.51041 -0.92831,-4.16572 -0.0116,-0.65532 -0.37115,-2.13806 -0.79896,-3.29498 l -0.7778,-2.10351 -3.72849,-1.47315 c -4.71784,-1.86405 -6.20987,-2.62818 -9.92584,-5.08341 -1.65083,-1.09074 -4.64256,-2.66133 -6.64829,-3.4902 -6.53783,-2.70179 -11.94638,-5.17495 -13.7671,-6.29524 -0.98169,-0.60404 -2.18261,-1.15152 -2.66872,-1.21662 -0.48611,-0.0651 -1.08756,-0.28744 -1.33655,-0.49408 -0.31899,-0.26474 -0.45272,-0.26334 -0.45272,0.005 0,0.24121 -0.47373,0.18251 -1.29439,-0.16038 -1.06384,-0.4445 -1.34748,-0.45708 -1.59248,-0.0707 -0.24531,0.38691 -0.29907,0.38484 -0.30354,-0.0117 -0.003,-0.28157 -0.22683,-0.3969 -0.53808,-0.27746 -0.29295,0.11242 -0.53264,0.0637 -0.53264,-0.10835 0,-0.172 -0.67912,-0.41245 -1.50915,-0.53433 -3.22839,-0.47403 -6.19366,-0.95973 -7.7233,-1.26504 -0.87885,-0.17541 -2.39688,-0.42042 -3.37339,-0.54447 -0.97651,-0.12405 -2.25485,-0.28733 -2.84075,-0.36286 -0.58591,-0.0755 -4.58072,-0.2092 -8.87735,-0.29706 -7.72777,-0.15802 -16.55431,-0.41277 -26.36665,-0.761 -2.78355,-0.0988 -5.48582,-0.34112 -6.00504,-0.53853 -0.51922,-0.19741 -1.51752,-0.37534 -2.21843,-0.39541 -0.70092,-0.0201 -1.47413,-0.1936 -1.71826,-0.38561 -0.29778,-0.23422 -0.61917,-0.20363 -0.97651,0.0929 -0.43861,0.36402 -0.53264,0.33341 -0.53264,-0.17341 0,-0.5374 -0.0788,-0.52193 -0.62141,0.122 -0.9304,1.10414 -3.37878,1.29043 -4.22763,0.32168 -0.3602,-0.41109 -0.45518,-0.63065 -0.21105,-0.4879 0.24413,0.14275 0.44387,0.10364 0.44387,-0.0869 0,-0.72966 -0.79887,-0.70692 -4.49269,0.12792 -0.82054,0.18544 -2.96429,3.12368 -2.96429,4.06287 0,0.31275 -0.57867,1.44385 -1.28594,2.51355 -0.70726,1.06971 -1.50836,2.5703 -1.78022,3.33464 -0.27186,0.76435 -0.65055,1.57801 -0.84155,1.80814 -0.19099,0.23014 -0.26359,0.5021 -0.16133,0.60435 0.10226,0.10226 -0.22228,1.286 -0.7212,2.63053 -1.70626,4.59824 -2.39422,9.76447 -1.96595,14.76319 0.25597,2.98749 0.41571,3.56934 1.2173,4.43382 0.50747,0.54728 0.92267,1.13517 0.92267,1.30642 0,0.17125 0.343,0.22166 0.76223,0.11204 0.61155,-0.15993 1.5855,0.59873 4.92686,3.83776 3.13534,3.03933 4.78775,4.3509 6.68588,5.30678 1.38669,0.69832 2.66007,1.26968 2.82974,1.26968 0.16967,0 1.05346,-0.92882 1.96399,-2.06403 0.91052,-1.13522 2.25377,-2.50256 2.985,-3.03853 0.73122,-0.53597 2.28381,-1.67684 3.45019,-2.53526 3.16575,-2.32988 8.48025,-4.98032 12.07248,-6.02076 2.58682,-0.74924 8.66488,-1.95793 9.87694,-1.96413 0.15335,-7.1e-4 0.0875,-0.35888 -0.1463,-0.79577 -0.68706,-1.28378 -0.52751,-4.49248 0.35271,-7.09332 0.66653,-1.96945 1.15049,-2.69788 2.78473,-4.19148 2.52663,-2.3092 4.73566,-3.41908 7.78986,-3.91385 6.3981,-1.03649 12.25018,1.21203 17.47117,6.71286 3.56548,3.75658 4.27805,5.35211 5.20103,11.64585 0.53391,3.64066 0.53358,4.10631 -0.004,6.20046 -0.31988,1.2453 -1.03703,3.11021 -1.59367,4.14424 -0.9778,1.81637 -0.98589,1.87193 -0.23872,1.64039 0.42536,-0.13182 1.68762,-0.6982 2.80504,-1.25864 1.11741,-0.56043 2.26266,-1.01897 2.54499,-1.01897 0.85516,0 3.9262,-1.4365 4.22957,-1.9784 0.15618,-0.27899 0.5093,-0.50726 0.78471,-0.50726 0.45683,0 1.5481,-2.68179 1.20755,-2.96757 -0.0801,-0.0672 -1.54385,-0.80516 -3.25274,-1.63983 -1.70889,-0.83466 -3.10708,-1.73738 -3.10708,-2.00602 0,-0.26865 0.14903,-0.48845 0.33117,-0.48845 0.18214,0 0.43207,-0.31793 0.5554,-0.70652 0.27982,-0.88163 4.16787,-3.19952 5.36691,-3.19952 1.65794,0 4.2159,0.81802 5.68824,1.81907 1.76971,1.20324 3.84521,4.23815 4.19032,6.12734 0.97463,5.3354 -0.35653,9.429 -4.32959,13.31444 -2.10932,2.0628 -3.01811,2.63288 -7.37054,4.62356 -2.7305,1.24886 -5.33196,2.4559 -5.78102,2.6823 -0.64235,0.32387 0.33938,0.37882 4.60361,0.25768 l 5.42008,-0.15398 3.386,-2.91629 z m 53.91834,1.40119 c -0.10933,-0.10933 -0.30788,0.0877 -0.44123,0.43794 -0.1927,0.50608 -0.15192,0.54687 0.19878,0.19879 0.24268,-0.24088 0.35178,-0.5274 0.24245,-0.63673 z m -12.01156,-13.81447 c 0.35362,-1.263 0.36662,-2.62553 0.0603,-6.32138 -0.21475,-2.59124 -0.57852,-5.27062 -0.80839,-5.95417 -0.22987,-0.68356 -0.46139,-1.42378 -0.51449,-1.64492 -0.10256,-0.42723 -4.41861,-2.01779 -4.70317,-1.73323 -0.0923,0.0923 0.2381,0.78131 0.73427,1.53108 1.00324,1.516 2.21288,4.30057 2.57631,5.93065 0.60544,2.71547 0.80732,8.85071 0.34934,10.61627 l -0.4651,1.79303 1.16006,-1.30365 c 0.63803,-0.717 1.36291,-2.02816 1.61084,-2.91368 z m 50.3639,-6.06282 c -1.38135,-2.0949 -2.34873,-3.90899 -2.20694,-4.13845 0.14715,-0.23806 0.097,-0.31241 -0.12024,-0.17817 -0.32583,0.20138 -0.76192,-0.32789 -0.68451,-0.83083 0.0359,-0.23345 -1.14152,-1.68376 -2.21138,-2.72382 -0.46795,-0.45492 -0.70764,-0.82781 -0.53265,-0.82864 0.17499,-7.1e-4 -0.34032,-0.44027 -1.1451,-0.97651 -0.80479,-0.53625 -3.33672,-2.57291 -5.62649,-4.52593 -2.28977,-1.95302 -4.56312,-3.76397 -5.0519,-4.02433 -0.87399,-0.46557 -0.8847,-0.4553 -0.64821,0.62141 0.18941,0.86241 0.1214,1.09481 -0.3204,1.09481 -1.78111,0 0.47248,2.47198 6.58069,7.21839 3.20068,2.48709 7.7369,6.43344 10.08052,8.76965 2.34362,2.33622 4.28023,4.24872 4.3036,4.25 0.0234,0.001 -1.06429,-1.67613 -2.41699,-3.72758 z m -122.85876,-2.51394 0.0378,-3.06813 -1.49675,-1.36639 c -3.01827,-2.7554 -2.7369,-2.5959 -3.29413,-1.86737 -0.40355,0.52761 -0.55704,0.5593 -0.81474,0.16821 -0.20776,-0.31531 -0.59702,-0.39315 -1.12617,-0.22521 -0.44476,0.14116 -1.46341,0.2647 -2.26367,0.27452 -0.80025,0.01 -1.09774,0.082 -0.66109,0.16047 l 0.79392,0.14261 -0.70515,1.3822 c -0.38782,0.7602 -0.70514,1.52306 -0.70514,1.69522 0,0.17217 0.67912,0.51627 1.50915,0.76466 2.51898,0.75381 5.33832,2.35981 6.80449,3.87609 0.76412,0.79024 1.50055,1.36805 1.6365,1.28402 0.13596,-0.084 0.2642,-1.53343 0.28498,-3.2209 z M -720.335,299.0258 c 0.26793,-0.16972 0.42364,-0.49912 0.34601,-0.73199 -0.0912,-0.27355 -0.37735,-0.1624 -0.8085,0.31402 -0.67808,0.74927 -0.42359,0.97927 0.46249,0.41797 z m 5.727,-2.89734 c 0,-0.18377 -0.15979,-0.33413 -0.3551,-0.33413 -0.1953,0 -0.35509,0.24911 -0.35509,0.55359 0,0.30448 0.15979,0.45484 0.35509,0.33414 0.19531,-0.1207 0.3551,-0.36982 0.3551,-0.5536 z m 0.4835,-1.22187 c -0.11241,-0.29295 -0.2501,-0.53264 -0.30596,-0.53264 -0.0558,0 -0.19354,0.23969 -0.30595,0.53264 -0.12326,0.3212 -0.002,0.53264 0.30595,0.53264 0.30777,0 0.42922,-0.21144 0.30596,-0.53264 z m 1.71216,-1.31977 c -0.2548,-0.2548 -0.42019,-0.27576 -0.42019,-0.0533 0,0.47397 0.41994,0.89391 0.65692,0.65692 0.10091,-0.1009 -0.006,-0.37255 -0.23673,-0.60366 z m 3.47556,-0.61938 c 0.2873,-0.18169 0.43542,-0.41728 0.32917,-0.52353 -0.10625,-0.10626 -0.5011,0.0398 -0.87745,0.32449 -0.74867,0.5664 -0.29375,0.73156 0.54828,0.19904 z m 0.96304,-1.85592 c -0.11335,-0.28327 -0.1975,-0.19913 -0.21453,0.21454 -0.0154,0.37432 0.0685,0.58405 0.1865,0.46606 0.11799,-0.118 0.13061,-0.42427 0.028,-0.6806 z m -0.59766,0.12358 c 0,-0.25813 -1.51669,-1.12228 -1.96973,-1.12228 -0.0885,0 0.1188,0.30627 0.46058,0.6806 0.64568,0.70718 1.50915,0.95989 1.50915,0.44168 z m 9.86134,-3.89669 c 0.0865,-0.25949 -0.0758,-0.33885 -0.42168,-0.20614 -0.30927,0.11868 -0.56231,0.37179 -0.56231,0.56247 0,0.46673 0.80705,0.17447 0.98399,-0.35633 z m -0.5775,-1.84181 c 0.36622,0 1.36898,-0.87562 1.36898,-1.1954 0,-0.0995 -0.31958,-0.15677 -0.71019,-0.12735 -0.3906,0.0294 -0.71019,0.25919 -0.71019,0.51058 0,0.25139 -0.15979,0.45707 -0.35509,0.45707 -0.1953,0 -0.35509,-0.15979 -0.35509,-0.35509 0,-0.1953 -0.19175,-0.3551 -0.42612,-0.3551 -0.33142,0 -0.33142,0.0947 0,0.42612 0.23437,0.23436 0.44465,0.75368 0.46731,1.15405 0.0339,0.59899 0.07,0.61786 0.20358,0.10653 0.0893,-0.34178 0.32189,-0.62141 0.51681,-0.62141 z m 0.65879,0.71018 c 0,-0.1953 -0.0705,-0.35509 -0.15659,-0.35509 -0.0861,0 -0.25535,0.15979 -0.37605,0.35509 -0.1207,0.19531 -0.0502,0.3551 0.15659,0.3551 0.20683,0 0.37605,-0.15979 0.37605,-0.3551 z m -4.26113,-1.06528 c 0,-0.1953 -0.15979,-0.35509 -0.35509,-0.35509 -0.1953,0 -0.3551,0.15979 -0.3551,0.35509 0,0.1953 0.1598,0.3551 0.3551,0.3551 0.1953,0 0.35509,-0.1598 0.35509,-0.3551 z m -13.20706,-1.25222 c -0.10933,-0.10933 -0.30788,0.0877 -0.44123,0.43795 -0.1927,0.50608 -0.15192,0.54686 0.19878,0.19878 0.24268,-0.24088 0.35178,-0.5274 0.24245,-0.63673 z m 2.11962,-0.49107 c -0.5225,-0.74597 -0.98576,-0.65508 -0.98576,0.19341 0,0.2666 0.22719,0.37513 0.53667,0.25637 0.40149,-0.15406 0.47777,-0.0394 0.30283,0.45501 -0.18376,0.51942 -0.13781,0.57232 0.21462,0.24701 0.36018,-0.33246 0.34672,-0.55918 -0.0684,-1.1518 z m 3.98556,-0.74237 c 0,-0.1953 -0.15979,-0.35509 -0.35509,-0.35509 -0.1953,0 -0.3551,0.15979 -0.3551,0.35509 0,0.19531 0.1598,0.3551 0.3551,0.3551 0.1953,0 0.35509,-0.15979 0.35509,-0.3551 z m 17.22206,-0.35509 c 0.12071,-0.1953 0.0502,-0.35509 -0.15658,-0.35509 -0.20683,0 -0.37606,0.15979 -0.37606,0.35509 0,0.1953 0.0705,0.35509 0.15659,0.35509 0.0861,0 0.25535,-0.15979 0.37605,-0.35509 z m 57.25153,0.14056 c -0.118,-0.118 -0.42427,-0.13061 -0.6806,-0.028 -0.28327,0.11335 -0.19913,0.1975 0.21454,0.21453 0.37432,0.0154 0.58405,-0.0685 0.46606,-0.1865 z m -57.07398,-1.20584 c 0,-0.1953 -0.15979,-0.3551 -0.35509,-0.3551 -0.1953,0 -0.3551,0.1598 -0.3551,0.3551 0,0.1953 0.1598,0.35509 0.3551,0.35509 0.1953,0 0.35509,-0.15979 0.35509,-0.35509 z m 7.64605,-1.68874 c 0.13225,0.34066 0.38349,0.53097 0.55832,0.42291 0.53572,-0.33109 0.35498,-0.77221 -0.39695,-0.96884 -0.66496,-0.17389 -1.43824,0.60446 -1.40314,1.41236 0.007,0.15932 0.23505,-0.10981 0.50696,-0.59807 0.43324,-0.77795 0.52412,-0.81114 0.73481,-0.26836 z m 4.75339,-1.70249 c 0.14607,0.0903 0.26559,-0.0685 0.26559,-0.35288 0,-0.28436 -0.13316,-0.51702 -0.29592,-0.51702 -0.16275,0 -0.29591,0.0668 -0.29591,0.1485 0,0.0817 -0.0537,0.36132 -0.11935,0.62142 -0.0656,0.2601 -0.052,0.35207 0.0303,0.20437 0.0823,-0.14769 0.26919,-0.19467 0.41526,-0.10439 z m -2.8119,-2.86091 c 0,-0.0768 -0.23969,-0.13956 -0.53264,-0.13956 -0.29295,0 -0.53264,0.15478 -0.53264,0.34395 0,0.18917 0.23969,0.25198 0.53264,0.13956 0.29295,-0.11242 0.53264,-0.26719 0.53264,-0.34395 z m 6.0366,-0.13956 c 0,-0.1953 -0.23969,-0.35509 -0.53264,-0.35509 -0.29295,0 -0.53264,0.15979 -0.53264,0.35509 0,0.19531 0.23969,0.3551 0.53264,0.3551 0.29295,0 0.53264,-0.15979 0.53264,-0.3551 z m 263.47982,222.28891 c 0,-0.1953 0.31959,-0.3551 0.71019,-0.3551 0.3906,0 0.71019,0.1598 0.71019,0.3551 0,0.1953 -0.31959,0.35509 -0.71019,0.35509 -0.3906,0 -0.71019,-0.15979 -0.71019,-0.35509 z M -787.30768,481.4684 c -0.0311,-0.41268 -0.0199,-0.69231 0.0249,-0.62141 0.0448,0.0709 0.29547,0.40854 0.55707,0.75032 0.40023,0.52288 0.39627,0.62142 -0.0249,0.62142 -0.2753,0 -0.52599,-0.33765 -0.55707,-0.75033 z m 377.2157,-7.87602 c 0.13334,-0.3502 0.33191,-0.54728 0.44124,-0.43795 0.10933,0.10933 2.1e-4,0.39586 -0.24246,0.63673 -0.35069,0.34809 -0.39149,0.3073 -0.19878,-0.19878 z m -382.76514,-14.63232 c -0.11241,-0.29295 -0.0496,-0.53264 0.13956,-0.53264 0.18917,0 0.34395,0.23969 0.34395,0.53264 0,0.29296 -0.0628,0.53264 -0.13955,0.53264 -0.0768,0 -0.23154,-0.23968 -0.34396,-0.53264 z m -0.19864,-1.80506 c 0.017,-0.41366 0.10118,-0.4978 0.21453,-0.21453 0.10258,0.25633 0.09,0.5626 -0.028,0.68059 -0.11799,0.118 -0.20192,-0.0917 -0.1865,-0.46606 z m -0.20558,-1.21324 c -0.12071,-0.1953 -0.0502,-0.35509 0.15658,-0.35509 0.20683,0 0.37606,0.15979 0.37606,0.35509 0,0.1953 -0.0705,0.3551 -0.15659,0.3551 -0.0861,0 -0.25535,-0.1598 -0.37605,-0.3551 z m -0.3697,-1.0889 c -0.12873,-0.2083 -0.1579,-0.45488 -0.0648,-0.54796 0.0931,-0.0931 0.26385,0.0773 0.3795,0.37872 0.24011,0.62571 0.0355,0.73577 -0.31468,0.16924 z m -0.0806,-2.81713 c 0,-0.68356 0.0731,-0.96319 0.16239,-0.62142 0.0893,0.34178 0.0893,0.90106 0,1.24283 -0.0893,0.34178 -0.16239,0.0621 -0.16239,-0.62141 z m 62.55017,-23.23217 c -0.32039,-0.69118 -0.30332,-0.81988 0.0888,-0.66943 0.26698,0.10245 0.48542,0.48876 0.48542,0.85847 0,0.87622 -0.0949,0.84498 -0.57419,-0.18904 z m 312.40288,-22.21988 c 0,-0.48825 0.0806,-0.68799 0.17911,-0.44386 0.0985,0.24412 0.0985,0.6436 0,0.88773 -0.0985,0.24413 -0.17911,0.0444 -0.17911,-0.44387 z m -380.0216,-19.55792 c -0.21721,-0.40586 -0.27073,-1.00508 -0.11892,-1.3316 0.15181,-0.32652 0.29746,-1.31273 0.32366,-2.19159 0.12765,-4.28197 0.18348,-4.78209 0.48134,-4.312 0.48394,0.76375 0.65229,0.0503 0.57456,-2.43479 -0.0714,-2.28356 0.45603,-4.86098 1.41703,-6.92434 0.27288,-0.5859 0.58903,-1.51124 0.70254,-2.05631 0.11352,-0.54507 0.33334,-0.91257 0.48849,-0.81668 0.15516,0.0959 0.47887,-0.5767 0.71937,-1.49463 0.55349,-2.11258 3.33719,-7.37562 3.84724,-7.27385 0.21123,0.0421 0.30655,-0.21976 0.21181,-0.58201 -0.19051,-0.72852 1.73009,-3.91695 1.95429,-3.24435 0.0765,0.22959 -0.14171,0.72777 -0.48498,1.10707 -0.34326,0.3793 -0.4795,0.68918 -0.30276,0.68862 0.17675,-7.1e-4 0.63584,-0.47042 1.02022,-1.04412 0.38436,-0.5737 0.94364,-1.12664 1.24283,-1.22874 0.29918,-0.10211 0.87909,-0.4345 1.28868,-0.73865 0.71309,-0.52951 0.74601,-0.50745 0.77521,0.51958 0.0168,0.58992 -0.11359,1.07258 -0.2897,1.07258 -0.17611,0 -0.22591,0.24571 -0.11067,0.54603 0.18994,0.49496 -0.079,1.4238 -1.33257,4.60283 -0.23105,0.5859 -0.45173,1.30497 -0.49041,1.59792 -0.13761,1.04214 -0.63383,3.00343 -0.89546,3.53929 -0.14616,0.29936 -0.55382,1.50305 -0.9059,2.67486 -0.35207,1.17181 -0.8037,2.45015 -1.00362,2.84075 -0.19991,0.39061 -0.39819,0.91827 -0.44062,1.17258 -0.0424,0.25432 -0.30892,0.81612 -0.59219,1.24844 -0.28327,0.43233 -0.85226,2.11957 -1.26441,3.74943 -0.41216,1.62987 -1.13299,3.78454 -1.60184,4.78816 -0.46885,1.00363 -0.9622,2.18431 -1.09633,2.62374 -0.25802,0.84535 -0.71894,1.03413 -1.08374,0.44387 -0.12071,-0.1953 -0.40977,-0.35265 -0.64238,-0.34966 -0.27641,0.004 -0.2525,0.11336 0.069,0.31698 0.5381,0.34078 0.30026,1.95528 -0.41498,2.8171 -0.32768,0.39483 -0.44451,0.3636 -0.65668,-0.17556 -0.23437,-0.59559 -0.26038,-0.59875 -0.28304,-0.0344 -0.034,0.8455 -0.6235,0.78335 -1.10509,-0.11652 z m 1.08013,-1.39263 c 0,-0.1953 -0.0705,-0.35509 -0.15659,-0.35509 -0.0861,0 -0.25535,0.15979 -0.37605,0.35509 -0.12071,0.1953 -0.0502,0.3551 0.15659,0.3551 0.20683,0 0.37605,-0.1598 0.37605,-0.3551 z m 0.35509,-1.42037 c 0,-0.19531 -0.0705,-0.3551 -0.15659,-0.3551 -0.0861,0 -0.25534,0.15979 -0.37605,0.3551 -0.1207,0.1953 -0.0502,0.35509 0.15659,0.35509 0.20683,0 0.37605,-0.15979 0.37605,-0.35509 z m 9.73523,-22.9538 c 0.18701,-0.48736 0.13505,-0.50932 -0.31711,-0.13407 -0.61617,0.51138 -0.6803,0.71694 -0.22366,0.71694 0.17441,0 0.41775,-0.26229 0.54077,-0.58287 z m 355.57173,13.19945 c -0.0922,-0.48234 -0.0502,-0.80442 0.0933,-0.71572 0.38176,0.23596 0.68402,1.59271 0.35481,1.59271 -0.15425,0 -0.35591,-0.39464 -0.44813,-0.87699 z m -340.66938,-44.06376 c 0.19272,-1.52005 0.50442,-2.64186 0.73406,-2.64186 0.49063,0 0.64554,-1.4971 0.1844,-1.7821 -0.41453,-0.2562 0.59824,-1.76859 1.18493,-1.76947 0.23305,-3.5e-4 0.89571,-0.75936 1.47257,-1.6867 2.24681,-3.61184 7.43188,-9.43652 8.80835,-9.89488 1.44769,-0.48208 2.90829,-0.33292 3.54761,0.36231 0.60865,0.66186 0.62142,0.66004 0.62142,-0.0888 0,-0.42048 0.15478,-0.76452 0.34395,-0.76452 0.18917,0 0.25676,0.22721 0.1502,0.5049 -0.10656,0.27769 -0.016,0.83696 0.20119,1.24283 0.32016,0.59823 0.29172,0.73793 -0.15021,0.73793 -0.3084,0 -0.54513,0.30841 -0.54513,0.71019 0,0.3906 0.15979,0.71019 0.35509,0.71019 0.73001,0 0.31705,1.439 -0.76741,2.67413 -0.61738,0.70315 -2.09546,2.02295 -3.28462,2.93288 -3.18229,2.43504 -3.55495,2.83788 -3.60926,3.90156 -0.0458,0.89651 -0.14974,0.95955 -1.43167,0.86817 -0.82612,-0.0589 -1.20418,0.0207 -0.93961,0.19779 0.32281,0.21606 0.10643,0.62226 -0.79896,1.49979 -0.68292,0.66191 -1.24167,1.37623 -1.24167,1.58738 0,0.66154 -2.20096,2.34993 -3.34501,2.566 -0.60152,0.11361 -1.25826,0.33426 -1.45942,0.49034 -0.25026,0.19417 -0.25999,-0.55044 -0.0308,-2.35808 z m 16.5265,-15.87724 c 0.41996,-0.54808 0.40696,-0.6006 -0.10048,-0.40588 -0.32058,0.12302 -0.58287,0.47289 -0.58287,0.7775 0,0.30461 0.0452,0.48725 0.10048,0.40588 0.0553,-0.0814 0.31755,-0.43125 0.58287,-0.7775 z m 14.2306,3.64784 c 0.20905,-0.3906 0.45998,-0.71018 0.55763,-0.71018 0.0976,0 0.006,0.31958 -0.20253,0.71018 -0.20905,0.39061 -0.45998,0.71019 -0.55763,0.71019 -0.0977,0 -0.006,-0.31958 0.20253,-0.71019 z m 1.06528,-1.02337 c 0,-0.1953 0.1598,-0.45385 0.3551,-0.57455 0.1953,-0.1207 0.35509,-0.0597 0.35509,0.13564 0,0.1953 -0.15979,0.45384 -0.35509,0.57455 -0.1953,0.1207 -0.3551,0.0597 -0.3551,-0.13564 z m 2.48566,-2.66164 c 0,-0.0737 0.27964,-0.35337 0.62142,-0.62141 0.5632,-0.44169 0.57576,-0.42913 0.13407,0.13407 -0.46389,0.5915 -0.75549,0.7796 -0.75549,0.48734 z m -14.7364,-1.2863 c 0.35349,-0.39061 0.72261,-0.71019 0.82026,-0.71019 0.0977,0 -0.11167,0.31958 -0.46517,0.71019 -0.35349,0.3906 -0.72261,0.71018 -0.82026,0.71018 -0.0977,0 0.11168,-0.31958 0.46517,-0.71018 z m -1.16285,-2.77952 c 0.67534,-0.74752 1.52735,-1.86607 1.89335,-2.48566 0.366,-0.61958 0.79079,-1.12652 0.94398,-1.12652 0.15319,0 0.27854,-0.22259 0.27854,-0.49465 0,-0.5529 0.95586,-1.03526 1.44835,-0.73089 0.17544,0.10843 0.2207,-0.059 0.10058,-0.372 -0.24672,-0.64294 1.12939,-2.30849 1.90731,-2.30849 0.27044,0 0.39295,-0.1598 0.27224,-0.3551 -0.1207,-0.1953 0.0246,-0.35509 0.323,-0.35509 0.36861,0 0.46782,-0.19915 0.30956,-0.62142 -0.2017,-0.53821 -0.15475,-0.55789 0.35069,-0.14697 0.32096,0.26094 0.75036,0.37135 0.95422,0.24536 0.57675,-0.35645 0.4363,-0.89735 -0.23301,-0.89735 -0.47635,0 -0.51193,-0.0917 -0.16869,-0.43497 0.34324,-0.34324 0.58736,-0.33982 1.15749,0.0162 0.66527,0.41548 0.69171,0.39368 0.33373,-0.27521 -0.26069,-0.48709 -0.26766,-0.72641 -0.0212,-0.72641 0.20218,0 0.36759,-0.22013 0.36759,-0.48917 0,-0.26903 0.23969,-0.68808 0.53264,-0.93121 0.44501,-0.36932 0.53264,-0.31805 0.53264,0.31162 0,0.41451 0.13764,0.75366 0.30586,0.75366 0.16821,0 0.23839,-0.43943 0.15594,-0.97651 -0.12922,-0.84174 -0.0943,-0.88869 0.25276,-0.34022 0.37567,0.59363 0.45021,0.57584 1.11194,-0.2654 0.57665,-0.73311 0.83737,-0.83314 1.3944,-0.53502 0.81388,0.43557 0.86838,0.91935 0.18103,1.6067 -0.38689,0.3869 -0.5455,0.40164 -0.68216,0.0634 -0.0979,-0.24238 -0.19066,-0.0812 -0.20607,0.35827 -0.0154,0.43943 -0.18137,0.79896 -0.36876,0.79896 -0.55518,0 -2.1661,1.91716 -1.99221,2.37092 0.0881,0.22985 -0.10998,0.62933 -0.44015,0.88774 -0.53947,0.42221 -0.55092,0.40685 -0.11297,-0.15159 0.26805,-0.34177 0.33276,-0.62141 0.14381,-0.62141 -0.44289,0 -1.56592,1.23641 -1.49165,1.64225 0.17648,0.96448 -0.0427,1.2152 -0.73743,0.84341 -0.53848,-0.28819 -0.71304,-0.26975 -0.722,0.0763 -0.006,0.251 -0.35261,0.0569 -0.76914,-0.43138 -0.50495,-0.59191 -0.6804,-0.6759 -0.52649,-0.25205 0.14588,0.40174 0.0696,0.61494 -0.20738,0.57934 -0.91599,-0.11776 -1.35938,0.0415 -1.13342,0.40711 0.12893,0.20862 0.45795,0.29353 0.73115,0.18869 0.86519,-0.332 0.54071,0.3102 -0.83593,1.65446 -0.99358,0.9702 -1.4679,1.21579 -1.86425,0.96523 -0.80328,-0.50781 -1.20595,-0.41292 -0.72204,0.17016 0.51719,0.62318 0.13906,1.38277 -0.55565,1.11619 -0.2732,-0.10484 -0.49673,-0.0662 -0.49673,0.0859 0,0.40832 -2.15642,2.54192 -2.56911,2.54192 -0.19486,0 0.19827,-0.61161 0.87362,-1.35914 z m 13.0585,-11.06915 c 0,-0.19531 -0.15979,-0.3551 -0.35509,-0.3551 -0.19531,0 -0.3551,0.15979 -0.3551,0.3551 0,0.1953 0.15979,0.35509 0.3551,0.35509 0.1953,0 0.35509,-0.15979 0.35509,-0.35509 z m 9.0549,9.23244 c -0.1207,-0.1953 -0.0502,-0.35509 0.15659,-0.35509 0.20683,0 0.37605,0.15979 0.37605,0.35509 0,0.1953 -0.0705,0.3551 -0.15659,0.3551 -0.0861,0 -0.25535,-0.1598 -0.37605,-0.3551 z m 4.41051,-3.99481 c 0.25862,-0.34177 0.76522,-0.62141 1.12578,-0.62141 0.43684,0 0.58737,-0.17771 0.45118,-0.53264 -0.14069,-0.36661 0.0223,-0.53264 0.52282,-0.53264 0.39998,0 0.82485,-0.15797 0.94417,-0.35103 0.12441,-0.20129 -0.0181,-0.26082 -0.33413,-0.13956 -1.07222,0.41145 -0.53331,-0.19472 0.68861,-0.77456 0.68183,-0.32355 1.13652,-0.75521 1.01042,-0.95926 -0.13346,-0.21594 -0.058,-0.26509 0.18067,-0.11761 0.88252,0.54542 0.37318,1.5814 -1.30782,2.66009 -0.94478,0.60627 -1.95147,1.1023 -2.23709,1.1023 -0.28562,0 -0.74331,0.19974 -1.01707,0.44387 -0.42346,0.37761 -0.42757,0.35111 -0.0276,-0.17755 z m -10.97975,-4.52745 c 0,-0.1953 0.16922,-0.35509 0.37605,-0.35509 0.20683,0 0.27729,0.15979 0.15659,0.35509 -0.1207,0.19531 -0.28993,0.3551 -0.37605,0.3551 -0.0861,0 -0.15659,-0.15979 -0.15659,-0.3551 z m 1.8035,-1.27242 c 0.0171,-0.41366 0.10118,-0.4978 0.21454,-0.21453 0.10257,0.25633 0.09,0.5626 -0.028,0.6806 -0.11799,0.11799 -0.20192,-0.0917 -0.1865,-0.46607 z m 2.45763,-2.63361 c 0.68844,-0.44491 1.06528,-0.44491 1.06528,0 0,0.1953 -0.35953,0.35265 -0.79896,0.34966 -0.64607,-0.004 -0.69704,-0.0713 -0.26632,-0.34966 z m 2.84075,-1.44133 c 0,-0.20683 0.15979,-0.2773 0.3551,-0.15659 0.1953,0.1207 0.35509,0.28992 0.35509,0.37605 0,0.0861 -0.15979,0.15659 -0.35509,0.15659 -0.19531,0 -0.3551,-0.16923 -0.3551,-0.37605 z m -2.48566,-0.50323 c 0,-0.46293 -0.13431,-0.49421 -0.73706,-0.17162 -0.69093,0.36977 -0.7094,0.34277 -0.29509,-0.43138 0.24308,-0.45421 0.42829,-0.90573 0.41156,-1.00338 -0.0792,-0.46209 0.152,-0.22088 0.69496,0.72517 0.34105,0.59424 0.45154,1.12228 0.25966,1.24087 -0.18372,0.11354 -0.33403,-0.0483 -0.33403,-0.35966 z m 3.78459,-0.0707 c -0.4362,-0.4362 -0.23621,-0.90244 0.29899,-0.69706 0.3184,0.12218 0.53265,0.003 0.53265,-0.29672 0,-0.32531 0.27434,-0.44827 0.78205,-0.35049 0.43013,0.0828 0.88953,-0.0233 1.02089,-0.23585 0.16781,-0.27152 0.30831,-0.27406 0.47239,-0.009 0.12845,0.20784 -0.25106,0.62848 -0.84335,0.93476 -0.59229,0.30629 -1.07689,0.45332 -1.07689,0.32674 0,-0.12658 -0.21444,-0.0522 -0.47654,0.16535 -0.26209,0.21752 -0.58168,0.29035 -0.71019,0.16184 z m -5.7376,-0.82547 c 0.1207,-0.19531 0.37925,-0.3551 0.57455,-0.3551 0.1953,0 0.25634,0.15979 0.13563,0.3551 -0.1207,0.1953 -0.37925,0.35509 -0.57455,0.35509 -0.1953,0 -0.25634,-0.15979 -0.13563,-0.35509 z m 3.37339,-0.17755 c 0,-0.3255 0.17178,-0.53457 0.38173,-0.46458 0.20994,0.07 0.38172,0.27904 0.38172,0.46458 0,0.18554 -0.17178,0.3946 -0.38172,0.46458 -0.20995,0.07 -0.38173,-0.13908 -0.38173,-0.46458 z m -1.34787,-0.97651 c 0.067,-0.43943 0.31785,-0.75901 0.55734,-0.71019 0.23949,0.0488 0.43543,-0.10156 0.43543,-0.33419 0,-0.23263 0.22291,-0.11812 0.49534,0.25445 0.42994,0.58797 0.41822,0.7361 -0.0888,1.12186 -0.92718,0.70548 -1.5356,0.56116 -1.39934,-0.33193 z m 7.43103,-0.0327 c -0.39653,-0.47779 -0.20461,-0.94384 0.38867,-0.94384 0.17428,0 0.20133,0.18695 0.0601,0.41544 -0.17667,0.28587 -0.0568,0.33871 0.38437,0.16942 0.54196,-0.20798 0.57171,-0.16239 0.19232,0.29475 -0.5447,0.65631 -0.53461,0.65568 -1.02547,0.0642 z m 5.27985,-1.7881 c 0,-0.0737 0.27964,-0.35337 0.62141,-0.62141 0.56321,-0.44169 0.57576,-0.42913 0.13407,0.13407 -0.46388,0.5915 -0.75548,0.7796 -0.75548,0.48734 z m 4.97132,-9.27592 c 0,-0.29295 0.25925,-0.53264 0.57612,-0.53264 0.47185,0 0.49611,0.0964 0.13407,0.53264 -0.24313,0.29295 -0.50239,0.53264 -0.57612,0.53264 -0.0737,0 -0.13407,-0.23969 -0.13407,-0.53264 z m 9.78808,-5.82185 c -0.10805,-0.17483 0.0342,-0.40638 0.31606,-0.51455 0.34187,-0.13119 0.44677,-0.0254 0.31506,0.31789 -0.2289,0.59649 -0.35896,0.63702 -0.63112,0.19666 z"
       id="path3345"/>
  </g>
</svg>
