<?xml version="1.0" encoding="UTF-8" standalone="no"?>
<!-- Created with Inkscape (http://www.inkscape.org/) -->

<svg
   width="115.02148mm"
   height="112.88889mm"
   viewBox="0 0 407.55642 399.99999"
   id="svg2"
   version="1.1">
  <g
     id="layer1"
     transform="translate(-237.80829,1171.1274)">
    <path
       style="fill:#000000"
       d="m 492.56629,-771.90334 c -1.77533,-1.11013 -2.58823,-3.68353 -1.8068,-5.71993 1.15931,-3.02107 -0.31253,-3.70184 -8.00357,-3.70184 -6.57708,0 -9.09597,-0.87321 -8.3379,-2.89041 4.33829,-11.54381 4.19567,-12.75373 -1.67696,-14.22768 -3.21829,-0.80774 -5.85145,-3.0096 -5.85145,-4.89303 0,-1.88344 -1.4495,-3.42444 -3.22109,-3.42444 -5.25802,0 -6.13224,-6.37679 -1.89504,-13.82279 3.85716,-6.77823 6.83777,-7.8819 19.17464,-7.10015 3.28095,0.20788 7.33129,-1.2678 9.00072,-3.27934 3.99576,-4.8146 1.66746,-6.87879 -4.21058,-3.73295 -2.56888,1.37482 -8.97364,2.49967 -14.23282,2.49967 -8.59368,0 -9.4873,-0.52693 -8.82322,-5.20272 0.65235,-4.59327 2.49953,-5.38379 15.76901,-6.74827 33.65454,-3.46067 48.54709,-9.01857 55.11908,-20.57045 2.11483,-3.71734 5.13782,-6.76539 6.71774,-6.77344 3.09162,-0.0162 15.41614,-12.7835 14.10485,-14.6121 -0.43514,-0.60678 1.19755,-3.30075 3.62819,-5.98659 6.10595,-6.74699 11.29459,-15.8251 14.00667,-24.50623 0.59596,-1.90767 2.04719,-3.46849 3.22495,-3.46849 3.25421,0 -2.2688,20.642 -7.11492,26.59172 -6.9372,8.51703 -12.84827,19.65077 -10.41979,19.62612 3.55998,-0.0361 10.28213,-10.47817 20.07737,-31.18773 19.66513,-41.57704 17.49016,-92.88784 -5.8564,-138.16129 -7.23986,-14.0395 -6.01713,-14.0395 2.85477,0 8.83049,13.9739 14.28449,25.9252 16.19861,35.4959 1.36825,6.8413 1.67833,7.0783 3.34952,2.5606 2.16096,-5.8416 -1.75792,-18.757 -7.03885,-23.1979 -2.96773,-2.4957 -2.99966,-2.7847 -0.1725,-1.5628 2.16227,0.9346 1.91197,0.2262 -0.6647,-1.881 -2.27325,-1.8591 -3.97098,-4.2775 -3.77274,-5.3742 1.02667,-5.6799 -0.57059,-10.0872 -3.65569,-10.0872 -2.15817,0 -3.46849,-2.1839 -3.46849,-5.7808 0,-3.4158 -1.32554,-5.7808 -3.24007,-5.7808 -1.78206,0 -5.40351,-3.6667 -8.0477,-8.1483 -2.64416,-4.4815 -6.38886,-8.755 -8.32152,-9.4967 -1.93266,-0.7416 -3.51394,-2.7979 -3.51394,-4.5695 0,-1.7716 -1.62224,-3.2211 -3.60496,-3.2211 -2.1361,0 -2.9327,-1.0877 -1.95505,-2.6696 0.92546,-1.4974 0.6432,-2.0474 -0.64285,-1.2526 -3.07028,1.8976 -12.29573,-4.7457 -12.29573,-8.8541 0,-1.952 -1.39466,-2.7296 -3.46849,-1.9338 -1.90766,0.732 -3.46848,0.264 -3.46848,-1.0402 0,-2.5552 -12.81959,-11.148 -18.49022,-12.3936 -1.90306,-0.4181 -4.53294,-2.1189 -5.84416,-3.7796 -1.31121,-1.6607 -3.91634,-3.2508 -5.78918,-3.5335 -1.87282,-0.2827 -4.61334,-1.2694 -6.09006,-2.1927 -1.47672,-0.9233 -11.3619,-3.3485 -21.96707,-5.3892 -21.00036,-4.0412 -51.13287,-3.2895 -63.246,1.5777 -3.79899,1.5264 -9.24437,3.0839 -12.10085,3.461 -13.26879,1.7516 -18.75066,6.4391 -11.00595,9.411 3.62274,1.3902 2.56703,5.466 -1.41581,5.466 -1.27178,0 -1.55996,-1.2174 -0.64037,-2.7053 1.11065,-1.7971 0.43034,-2.2288 -2.02648,-1.2861 -2.03413,0.7806 -4.07551,0.288 -4.53641,-1.0947 -1.01538,-3.0462 -10.12335,1.259 -16.31522,7.712 -2.27514,2.3711 -6.04591,4.3111 -8.37947,4.3111 -3.85455,0 -32.6639,23.4889 -34.50592,28.1334 -0.42658,1.0756 -1.72726,1.3674 -2.8904,0.6485 -2.16716,-1.3393 -2.32812,-0.9815 -3.22828,7.1762 -0.74281,6.7318 -12.87426,24.3649 -15.60273,22.6786 -1.38855,-0.8582 -1.66894,0.5108 -0.71816,3.5064 1.15618,3.6428 0.58169,4.9142 -2.22041,4.9142 -2.8021,0 -3.37659,1.2715 -2.22041,4.9143 0.98498,3.1034 0.68706,4.3748 -0.80855,3.4505 -7.33984,-4.5362 -20.39027,71.53882 -13.1573,76.69801 1.27177,0.90714 2.34222,2.6899 2.37878,3.96168 0.26353,9.16794 6.83187,42.77798 8.36004,42.77798 2.64375,0 13.66285,22.23017 11.89526,23.99778 -2.70156,2.70153 -5.29159,1.44215 -5.36519,-2.60879 -0.0816,-4.49608 -6.86344,-14.64316 -6.86344,-10.26933 0,5.49725 -3.76224,2.57001 -6.52829,-5.07938 -1.558,-4.30851 -5.55082,-10.55178 -8.87298,-13.87395 -3.32214,-3.32213 -5.36416,-6.04027 -4.53775,-6.04027 0.82637,0 0.0208,-3.54391 -1.78803,-7.87536 -1.82484,-4.36747 -2.95529,-12.86472 -2.53789,-19.07667 2.21641,-32.98513 1.60829,-59.0605 -0.93982,-40.2988 -1.29278,9.51857 -1.62249,9.92024 -4.85544,5.91502 -2.6472,-3.27952 -2.70831,-3.83897 -0.25803,-2.36269 2.59542,1.56373 2.91873,0.37929 1.68769,-6.18269 -1.73787,-9.26367 0.0247,-15.67474 4.3095,-15.67474 1.61262,0 3.55737,-3.1267 4.32166,-6.9481 1.46724,-7.3362 1.16456,-10.6677 -0.9065,-9.9773 -0.68812,0.2294 -0.81782,-3.2944 -0.28825,-7.8307 0.66674,-5.711 0.16256,-7.753 -1.63928,-6.6394 -1.43118,0.8845 -2.60215,2.6973 -2.60215,4.0283 0,1.3311 -2.55789,5.4601 -5.6842,9.1755 -3.26791,3.8837 -5.09703,8.2855 -4.30286,10.355 1.11584,2.9078 1.75718,3.0069 3.33648,0.5155 1.3447,-2.1213 1.96616,-1.1216 1.99054,3.202 0.0261,4.6455 -0.86992,5.93894 -3.43309,4.9554 -2.51844,-0.9665 -3.46848,0.26737 -3.46848,4.50449 0,3.20953 1.27867,6.26173 2.84147,6.78265 2.08722,0.69575 1.78033,2.56663 -1.15616,7.04833 -2.19869,3.35562 -3.9817,6.91817 -3.96223,7.91675 0.0185,0.99857 1.04408,0.25477 2.27692,-1.6529 1.7532,-2.71289 2.24922,-2.11295 2.27692,2.75393 0.0185,3.42233 -1.01312,6.87045 -2.29466,7.66249 -1.4545,0.89894 -1.07174,2.69839 1.01863,4.78875 1.84176,1.84177 4.00852,8.27883 4.81502,14.30459 1.97537,14.7591 10.17489,43.67451 15.36552,54.18613 2.62819,5.32232 3.34793,9.08419 1.90827,9.97393 -1.27131,0.7857 -2.91873,-0.45835 -3.66096,-2.76457 -1.76035,-5.46966 -5.56592,-14.71595 -8.1369,-19.76993 -1.1234,-2.20836 -2.04255,-6.1104 -2.04255,-8.67121 0,-2.5608 -1.04054,-4.65602 -2.31232,-4.65602 -1.27178,0 -2.31233,0.85519 -2.31233,1.9004 0,3.76419 7.8096,24.85253 11.95294,32.27671 5.97855,10.71251 5.25209,12.03638 -1.54748,2.82006 -3.17945,-4.3095 -5.78081,-9.60305 -5.78081,-11.76346 0,-2.1604 -1.67666,-4.57142 -3.72594,-5.35779 -2.70558,-1.03823 -3.34607,-0.43985 -2.33882,2.18503 0.76293,1.98814 0.4396,3.02919 -0.71853,2.31343 -1.15813,-0.71575 -4.25565,-7.7935 -6.8834,-15.72828 -4.06039,-12.26084 -4.80396,-20.50247 -4.95239,-54.89257 -0.17412,-40.36614 -0.1547,-40.52394 7.90061,-64.18114 19.80248,-58.1561 63.4687,-106.5052 115.92919,-128.3618 30.47334,-12.6961 81.47649,-18.2916 109.17544,-11.9776 41.01089,9.3485 61.51375,17.8721 94.11094,39.1242 21.13117,13.7767 31.12066,23.6419 45.37264,44.8083 16.9553,25.1812 35.14891,72.8009 31.47361,82.3786 -0.68081,1.7742 -0.35663,3.55317 0.72048,3.95327 2.83183,1.05197 4.04347,19.30674 1.25034,18.83813 -1.35451,-0.2273 -1.99868,4.08294 -1.55513,10.40545 0.41647,5.93636 -0.24568,18.07722 -1.47142,26.97966 -1.79629,13.04613 -1.594,16.90857 1.04274,19.90945 2.26663,2.57963 2.66726,5.42046 1.30443,9.2493 -1.08185,3.03936 -1.68388,8.51961 -1.33787,12.17836 0.38644,4.08622 -1.55603,9.868 -5.03571,14.9888 -3.11564,4.58508 -5.66482,9.97987 -5.66482,11.98838 0,2.00853 -2.02659,5.82715 -4.50353,8.48583 -2.47693,2.65869 -6.20255,10.39887 -8.27911,17.20036 -2.07656,6.80151 -4.64772,14.57071 -5.7137,17.26487 -2.2628,5.71893 -27.56946,20.41155 -39.31174,22.8237 -4.45123,0.9144 -12.77559,5.50386 -18.49859,10.19882 -16.74654,13.7383 -26.24922,18.20233 -42.43821,19.93604 -9.85047,1.05489 -15.3732,2.71974 -15.82781,4.77132 -0.46073,2.07924 -1.796,2.46464 -3.92558,1.13302 z m -0.86737,-15.44346 c -0.76839,-0.76836 -2.76277,-0.85049 -4.43196,-0.18244 -1.84461,0.73814 -1.29671,1.28607 1.39703,1.39702 2.43756,0.10035 3.80329,-0.44612 3.03493,-1.21448 z m 13.72942,-51.01563 c -0.84786,-0.84784 -1.54156,-0.15423 -1.54156,1.54156 0,1.69569 0.6937,2.38939 1.54156,1.54155 0.84784,-0.84786 0.84784,-2.23525 0,-3.08311 z m 15.60818,-6.46963 c 1.16578,-0.0451 2.58201,-1.46909 3.14714,-3.1645 0.79019,-2.3706 -0.60011,-2.24088 -6.01958,0.56164 -3.87589,2.00429 -7.7589,4.79594 -8.62889,6.20366 -0.95118,1.53901 0.60368,1.34776 3.89992,-0.47972 3.01499,-1.67153 6.43561,-3.07603 7.60141,-3.12108 z m 25.62825,-15.11205 c 0.786,-1.27178 0.90881,-2.31232 0.27292,-2.31232 -0.63589,0 -1.79924,1.04054 -2.58525,2.31232 -0.786,1.27178 -0.90881,2.31233 -0.27292,2.31233 0.63589,0 1.79924,-1.04055 2.58525,-2.31233 z m -250.88709,-19.65475 c 0,-0.63589 -0.52028,-1.15616 -1.15617,-1.15616 -0.63588,0 -1.15616,0.52027 -1.15616,1.15616 0,0.63589 0.52028,1.15616 1.15616,1.15616 0.63589,0 1.15617,-0.52027 1.15617,-1.15616 z m 297.51895,-42.00721 c -0.84786,-0.84784 -1.54156,-0.15424 -1.54156,1.54155 0,1.6957 0.6937,2.3894 1.54156,1.54156 0.84783,-0.84786 0.84783,-2.23525 0,-3.08311 z m -339.17618,-1.34885 c -0.0185,-1.58972 -1.04408,-4.45122 -2.27692,-6.35889 -1.7467,-2.70281 -2.24933,-2.06477 -2.27692,2.8904 -0.0185,3.49739 1.00514,6.35889 2.27692,6.35889 1.27178,0 2.29639,-1.30068 2.27692,-2.8904 z m 370.58363,-5.25792 c 0.6136,-3.20979 0.21459,-6.39284 -0.88659,-7.07342 -1.10122,-0.68061 -2.00221,1.94558 -2.00221,5.83598 0,8.58434 1.37201,9.17206 2.8888,1.23744 z m -29.05711,-8.4715 c -0.73814,-1.84461 -1.28607,-1.29671 -1.39702,1.39704 -0.10035,2.43755 0.4461,3.80328 1.21448,3.03492 0.76836,-0.76839 0.8505,-2.76276 0.18244,-4.43196 z m 32.60121,-22.68967 c 0.0388,-7.30177 -0.13804,-7.52789 -1.80826,-2.31233 -1.01823,3.17945 -1.83194,9.94299 -1.80826,15.0301 0.0409,8.79851 0.12903,8.91121 1.80826,2.31233 0.97083,-3.81534 1.78456,-10.57888 1.80826,-15.0301 z m -364.84303,17.34242 c 0,-0.63589 -0.52027,-1.15616 -1.15616,-1.15616 -0.63589,0 -1.15616,0.52027 -1.15616,1.15616 0,0.63589 0.52027,1.15616 1.15616,1.15616 0.63589,0 1.15616,-0.52027 1.15616,-1.15616 z m -14.64471,-7.32236 c -0.84786,-0.84784 -1.54156,-0.15424 -1.54156,1.54155 0,1.6957 0.6937,2.3894 1.54156,1.54156 0.84784,-0.84786 0.84784,-2.23525 0,-3.08311 z m -1.54156,-8.8639 c 0,-0.63589 -0.52027,-1.15616 -1.15616,-1.15616 -0.63589,0 -1.15616,0.52027 -1.15616,1.15616 0,0.63589 0.52027,1.15616 1.15616,1.15616 0.63589,0 1.15616,-0.52027 1.15616,-1.15616 z m 353.06712,-9.82738 c -0.58162,-2.22561 -1.0575,-0.40465 -1.0575,4.04657 0,4.45122 0.47588,6.27218 1.0575,4.04656 0.58159,-2.22561 0.58159,-5.86752 0,-8.09313 z m -353.83788,-2.11963 c -0.84786,-0.84784 -1.54156,-0.15424 -1.54156,1.54155 0,1.6957 0.6937,2.3894 1.54156,1.54156 0.84783,-0.84786 0.84783,-2.23525 0,-3.08311 z m 21.58168,2.69771 c 0,-0.63589 -0.52028,-1.15616 -1.15617,-1.15616 -0.63589,0 -1.15616,0.52027 -1.15616,1.15616 0,0.63589 0.52027,1.15617 1.15616,1.15617 0.63589,0 1.15617,-0.52028 1.15617,-1.15617 z m 331.91386,-16.76434 c -0.46372,-6.04095 -0.93501,-11.76395 -1.04735,-12.71778 -0.11238,-0.95383 -1.30856,-1.73424 -2.65827,-1.73424 -2.2827,0 -0.88513,19.15885 1.72893,23.70131 2.21354,3.84651 2.77885,1.20132 1.97669,-9.24929 z m 42.68253,-6.35889 c 0,-0.63589 -0.52028,-1.15616 -1.15617,-1.15616 -0.63588,0 -1.15616,0.52027 -1.15616,1.15616 0,0.63589 0.52028,1.15616 1.15616,1.15616 0.63589,0 1.15617,-0.52027 1.15617,-1.15616 z m -379.22104,-6.93697 c 0,-0.63589 -0.52027,-1.15616 -1.15616,-1.15616 -0.63589,0 -1.15616,0.52027 -1.15616,1.15616 0,0.63589 0.52027,1.15616 1.15616,1.15616 0.63589,0 1.15616,-0.52027 1.15616,-1.15616 z m 6.90157,-29.61855 c -0.0289,-4.1188 -0.45461,-4.4176 -2.27692,-1.5978 -2.94403,4.5555 -2.94403,9.9126 0,8.0931 1.27177,-0.786 2.29639,-3.7089 2.27692,-6.4953 z m 2.34772,-7.3786 c 0,-0.6359 -0.52027,-1.1562 -1.15616,-1.1562 -0.63589,0 -1.15616,0.5203 -1.15616,1.1562 0,0.6359 0.52027,1.1561 1.15616,1.1561 0.63589,0 1.15616,-0.5202 1.15616,-1.1561 z m 8.44028,-14.452 c 9.20277,-15.9862 24.29064,-35.2544 37.57473,-47.9853 6.38807,-6.1222 11.07314,-12.0074 10.41126,-13.0784 -0.66188,-1.0709 0.45541,-1.9472 2.48288,-1.9472 5.04734,0 14.75937,-6.6321 17.66645,-12.0641 2.17298,-4.0602 1.93308,-4.2258 -2.60426,-1.7975 -7.74855,4.1469 -7.98156,1.0628 -0.33126,-4.3847 8.71249,-6.2038 12.67819,-6.2968 10.75973,-0.2522 -1.71036,5.3888 -0.6762,5.5865 9.6632,1.8478 4.22357,-1.5273 7.69515,-4.3888 7.71462,-6.3589 0.0266,-2.7012 0.49338,-2.8605 1.89773,-0.648 1.49679,2.3582 3.64568,2.3103 10.94813,-0.2443 23.73246,-8.3023 78.29509,-10.1007 100.42259,-3.31 21.55578,6.6153 29.5899,9.5499 37.57525,13.7249 4.76917,2.4935 8.67122,3.6849 8.67122,2.6475 0,-1.9976 -14.967,-10.3236 -26.59172,-14.7927 -4.17462,-1.6049 -5.7077,-3.1203 -3.84995,-3.8056 2.83266,-1.045 9.02421,1.3704 26.55518,10.3595 3.58545,1.8385 7.11616,2.7455 7.84602,2.0156 0.72986,-0.7298 -0.64285,-2.0383 -3.05049,-2.9078 -2.40764,-0.8694 -6.15973,-3.4102 -8.33798,-5.6461 -3.43547,-3.5264 -21.51668,-10.0725 -35.09007,-12.7039 -2.40109,-0.4655 -9.68491,-2.3626 -16.18626,-4.2158 -7.07989,-2.0181 -22.02162,-3.3817 -37.25615,-3.4001 -30.27567,-0.036 -32.15423,-0.2654 -23.12324,-2.8176 5.36714,-1.5168 4.34171,-1.7115 -4.53123,-0.8604 -6.30751,0.605 -12.55078,2.2042 -13.87394,3.5538 -1.69038,1.7241 -0.34301,2.0574 4.53123,1.1208 l 6.93697,-1.3329 -6.93697,3.3773 c -3.81533,1.8576 -9.01806,3.4402 -11.56162,3.5171 -2.54355,0.077 -6.18546,1.2484 -8.09313,2.6036 -2.6495,1.8822 -1.90332,2.1204 3.16016,1.009 18.41248,-4.0414 20.6644,-4.2369 19.06883,-1.6552 -1.4588,2.3604 -7.62146,4.4145 -24.58733,8.1955 -3.20474,0.7142 -8.24983,3.556 -11.2113,6.315 -4.90846,4.5729 -5.31073,4.6335 -4.55035,0.6852 0.45877,-2.3822 3.76176,-5.7344 7.33996,-7.4494 3.57821,-1.715 5.90515,-3.7189 5.17096,-4.4531 -1.40587,-1.4059 -2.43046,-0.9831 -27.49556,11.3451 -18.38198,9.0411 -47.85483,32.7993 -47.76412,38.5029 0.0451,2.8375 2.28224,1.5474 8.02416,-4.6275 4.37889,-4.7091 8.43129,-7.802 9.00534,-6.8732 0.57408,0.9289 -3.17618,5.8223 -8.33386,10.8743 -5.52782,5.4146 -9.78428,8.0589 -10.36814,6.4411 -1.45181,-4.0227 -9.13416,3.0648 -16.13324,14.8841 -3.20072,5.4051 -6.93459,9.8274 -8.2975,9.8274 -1.36288,0 -1.82886,0.6491 -1.0355,1.4425 0.79336,0.7933 -0.61519,5.4758 -3.1301,10.4054 -4.95108,9.705 -2.63614,12.7014 2.45839,3.1822 1.70159,-3.1794 3.98522,-5.7808 5.07477,-5.7808 1.08952,0 0.39341,3.07 -1.5469,6.8221 -3.48398,6.7373 -4.52846,11.6765 -2.46917,11.6765 0.58227,0 3.90399,-4.9426 7.38158,-10.9835 z m 9.73428,-29.9315 c 2.94796,-5.6206 7.261,-9.0815 7.261,-5.8263 0,1.1497 -2.2325,4.0726 -4.96111,6.4953 -4.92666,4.3744 -4.94264,4.3697 -2.29989,-0.669 z m 31.155,-34.6209 c 0.84786,-0.8479 2.23525,-0.8479 3.08311,0 0.84784,0.8478 0.15424,1.5415 -1.54155,1.5415 -1.6957,0 -2.3894,-0.6937 -1.54156,-1.5415 z m 6.1662,-1.9269 c 0,-0.6359 0.52028,-1.1562 1.15617,-1.1562 0.63588,0 1.15616,0.5203 1.15616,1.1562 0,0.6358 -0.52028,1.1561 -1.15616,1.1561 -0.63589,0 -1.15617,-0.5203 -1.15617,-1.1561 z m 6.93697,-6.937 c 0,-0.6359 0.52028,-1.1562 1.15617,-1.1562 0.63588,0 1.15616,0.5203 1.15616,1.1562 0,0.6359 -0.52028,1.1561 -1.15616,1.1561 -0.63589,0 -1.15617,-0.5202 -1.15617,-1.1561 z m 161.86264,-20.8109 c 0,-0.6359 0.52028,-1.1562 1.15616,-1.1562 0.63589,0 1.15617,0.5203 1.15617,1.1562 0,0.6359 -0.52028,1.1561 -1.15617,1.1561 -0.63588,0 -1.15616,-0.5202 -1.15616,-1.1561 z m -7.37053,-2.7358 c 1.6692,-0.6679 3.66358,-0.5858 4.43196,0.1827 0.76836,0.7684 -0.59736,1.3149 -3.03492,1.2145 -2.69374,-0.111 -3.24165,-0.6589 -1.39704,-1.397 z m -21.53351,-2.9594 c -4.20034,-1.7271 -4.25881,-2.051 -0.63751,-3.5305 2.42852,-0.9922 5.43082,-0.1852 7.68022,2.0641 4.13712,4.1371 1.02714,4.7847 -7.04271,1.4664 z m -40.95416,-2.5681 c -4.98731,-1.2498 -5.02579,-1.4001 -0.66766,-2.6072 2.54355,-0.7045 8.26655,-1.0692 12.71778,-0.8104 4.45122,0.2588 11.64833,0.6516 15.99358,0.873 4.34522,0.2212 7.28786,1.015 6.53915,1.7637 -1.84322,1.8432 -27.98801,2.4336 -34.58285,0.7809 z m 177.76664,104.9955 c -0.84786,-0.8479 -1.54156,-0.1543 -1.54156,1.5415 0,1.6957 0.6937,2.3894 1.54156,1.5416 0.84783,-0.8479 0.84783,-2.2353 0,-3.0831 z m -343.76542,-1.927 c 0,-0.6359 -0.52028,-1.1561 -1.15617,-1.1561 -0.63589,0 -1.15616,0.5202 -1.15616,1.1561 0,0.6359 0.52027,1.1562 1.15616,1.1562 0.63589,0 1.15617,-0.5203 1.15617,-1.1562 z m 12.7051,-24.2549 c 2.12473,-4.1087 2.71687,-6.762 1.31585,-5.8961 -2.62532,1.6225 -14.02771,22.8022 -14.01231,26.0276 0.009,2.0306 6.82053,-8.7686 12.69646,-20.1315 z m 30.03766,11.8873 c -1.74682,-1.7468 -5.74559,2.4353 -5.74559,6.0091 0,3.1562 0.53678,3.0399 3.27943,-0.7109 1.80368,-2.4667 2.91346,-4.8509 2.46616,-5.2982 z m -17.09961,-30.7983 c 3.51097,-6.5603 1.23384,-5.0177 -4.83939,3.2784 -3.40432,4.6503 -3.9627,6.2653 -1.46476,4.2367 2.2202,-1.8031 5.05707,-5.1848 6.30415,-7.5151 z m 302.70677,8.4811 c 0,-0.6359 -0.52027,-1.1562 -1.15616,-1.1562 -0.63589,0 -1.15616,0.5203 -1.15616,1.1562 0,0.6359 0.52027,1.1561 1.15616,1.1561 0.63589,0 1.15616,-0.5202 1.15616,-1.1561 z m -32.37253,-32.3725 c 0,-0.6359 -0.52027,-1.1562 -1.15616,-1.1562 -0.63589,0 -1.15616,0.5203 -1.15616,1.1562 0,0.6358 0.52027,1.1561 1.15616,1.1561 0.63589,0 1.15616,-0.5203 1.15616,-1.1561 z m -9.24929,-6.937 c 0,-0.6359 -0.52028,-1.1562 -1.15616,-1.1562 -0.63589,0 -1.15617,0.5203 -1.15617,1.1562 0,0.6359 0.52028,1.1561 1.15617,1.1561 0.63588,0 1.15616,-0.5202 1.15616,-1.1561 z m -218.51456,-5.7808 c 0.786,-1.2718 -0.25454,-2.3123 -2.31233,-2.3123 -2.05778,0 -3.09833,1.0405 -2.31232,2.3123 0.786,1.2718 1.82655,2.3123 2.31232,2.3123 0.48578,0 1.52632,-1.0405 2.31233,-2.3123 z m 5.7808,-3.4685 c 0,-0.6359 -0.52027,-1.1562 -1.15616,-1.1562 -0.63589,0 -1.15616,0.5203 -1.15616,1.1562 0,0.6359 0.52027,1.1562 1.15616,1.1562 0.63589,0 1.15616,-0.5203 1.15616,-1.1562 z m 43.93415,-21.9671 c 1.90767,-1.2328 2.42794,-2.2415 1.15616,-2.2415 -1.27178,0 -3.87314,1.0087 -5.78081,2.2415 -1.90766,1.2329 -2.42794,2.2415 -1.15616,2.2415 1.27178,0 3.87314,-1.0086 5.78081,-2.2415 z m 13.24769,-3.7093 c -0.76836,-0.7684 -2.76276,-0.8506 -4.43196,-0.1827 -1.84461,0.7381 -1.2967,1.2861 1.39704,1.397 2.43756,0.1004 3.80328,-0.4461 3.03492,-1.2145 z m 93.11919,-2.0715 c 0,-0.6359 -0.52028,-1.1562 -1.15617,-1.1562 -0.63589,0 -1.15616,0.5203 -1.15616,1.1562 0,0.6359 0.52027,1.1562 1.15616,1.1562 0.63589,0 1.15617,-0.5203 1.15617,-1.1562 z m -13.25186,-2.6729 c -1.56551,-0.6334 -4.68715,-0.6719 -6.93697,-0.086 -2.24982,0.5863 -0.96893,1.1045 2.8464,1.1517 3.81533,0.047 5.65608,-0.4326 4.09057,-1.066 z m -43.01467,-2.3371 c -0.84786,-0.8479 -2.23526,-0.8479 -3.08312,0 -0.84783,0.8478 -0.15423,1.5415 1.54156,1.5415 1.6957,0 2.38939,-0.6937 1.54156,-1.5415 z m 5.39541,0.3854 c 0,-0.6359 -0.52027,-1.1562 -1.15616,-1.1562 -0.63589,0 -1.15616,0.5203 -1.15616,1.1562 0,0.6359 0.52027,1.1561 1.15616,1.1561 0.63589,0 1.15616,-0.5202 1.15616,-1.1561 z m 4.62465,0 c 0,-0.6359 -0.52028,-1.1562 -1.15616,-1.1562 -0.63589,0 -1.15617,0.5203 -1.15617,1.1562 0,0.6359 0.52028,1.1561 1.15617,1.1561 0.63588,0 1.15616,-0.5202 1.15616,-1.1561 z m 10.79085,-0.3854 c -0.84786,-0.8479 -2.23526,-0.8479 -3.08312,0 -0.84783,0.8478 -0.15423,1.5415 1.54156,1.5415 1.6957,0 2.38939,-0.6937 1.54156,-1.5415 z m -156.28467,326.23028 c 0.11099,-2.69374 0.65887,-3.24165 1.39701,-1.39704 0.66799,1.6692 0.58583,3.66358 -0.18267,4.43196 -0.76836,0.76836 -1.31488,-0.59736 -1.21448,-3.03492 z m 16.00371,-14.83742 c 0,-1.27178 1.10196,-2.31232 2.44879,-2.31232 1.34684,0 1.8057,1.04054 1.01969,2.31232 -0.786,1.27178 -1.88796,2.31233 -2.44879,2.31233 -0.56084,0 -1.01969,-1.04055 -1.01969,-2.31233 z m -29.99271,-10.32411 c -1.5971,-1.9244 -3.98723,-2.82931 -5.31141,-2.01093 -1.39819,0.86411 -1.71586,0.3687 -0.7577,-1.18162 0.90745,-1.46828 0.64535,-2.6696 -0.5824,-2.6696 -1.22778,0 -1.69117,-2.06939 -1.02975,-4.59863 1.48701,-5.68638 4.2396,-4.16205 8.95688,4.96014 4.00441,7.74369 3.25783,10.96309 -1.27562,5.50064 z m 17.27493,-8.17448 c -0.78601,-1.27177 -0.32715,-2.31232 1.01969,-2.31232 1.34683,0 2.44879,1.04055 2.44879,2.31232 0,1.27178 -0.45885,2.31233 -1.01969,2.31233 -0.56083,0 -1.66279,-1.04055 -2.44879,-2.31233 z m -42.77798,-12.71777 c 0,-0.63589 0.52027,-1.15617 1.15616,-1.15617 0.63589,0 1.15616,0.52028 1.15616,1.15617 0,0.63589 -0.52027,1.15616 -1.15616,1.15616 -0.63589,0 -1.15616,-0.52027 -1.15616,-1.15616 z m 52.34723,-13.87394 c -0.73204,-1.90767 -0.32308,-3.46849 0.90876,-3.46849 1.23187,0 2.23977,1.56082 2.23977,3.46849 0,1.90766 -0.40896,3.46848 -0.90877,3.46848 -0.49983,0 -1.5077,-1.56082 -2.23976,-3.46848 z m 13.93938,1.92692 c -2.20989,-2.20986 -1.90087,-5.39541 0.52337,-5.39541 1.13572,0 2.66386,1.56082 3.39592,3.46849 1.35253,3.52462 -1.11061,4.73561 -3.91929,1.92692 z m -6.16621,-14.6447 c 0,-1.6957 0.6937,-2.3894 1.54156,-1.54156 0.84784,0.84786 0.84784,2.23525 0,3.08311 -0.84786,0.84784 -1.54156,0.15424 -1.54156,-1.54155 z m 262.46853,-16.18627 c 2.73862,-9.33591 6.04358,-13.74001 4.33805,-5.78081 -0.81756,3.81534 -2.50963,7.97752 -3.76013,9.2493 -1.49377,1.51915 -1.692,0.32937 -0.57792,-3.46849 z m -280.96711,1.15617 c 0,-0.63589 0.52027,-1.15617 1.15616,-1.15617 0.63589,0 1.15616,0.52028 1.15616,1.15617 0,0.63588 -0.52027,1.15616 -1.15616,1.15616 -0.63589,0 -1.15616,-0.52028 -1.15616,-1.15616 z m -11.37906,-2.70128 c -0.10036,-1.48572 -0.78141,-4.60735 -1.51333,-6.93697 -1.26495,-4.02627 -1.1997,-4.03131 1.31983,-0.10198 1.45781,2.27352 2.13881,5.39516 1.5133,6.93697 -0.82083,2.02326 -1.18805,2.05166 -1.3198,0.10198 z m 18.76681,-13.48499 c 0.0472,-3.81533 0.56537,-5.09622 1.15163,-2.8464 0.58627,2.24982 0.54772,5.37146 -0.0858,6.93697 -0.63342,1.56551 -1.11309,-0.27524 -1.06596,-4.09057 z m 277.22596,-1.15616 c 0.0698,-1.90767 1.02138,-5.54958 2.11439,-8.09313 1.98728,-4.62465 1.98728,-4.62465 2.11439,0 0.0698,2.54355 -0.88155,6.18546 -2.11439,8.09313 -1.99246,3.08309 -2.22739,3.08309 -2.11439,0 z m -300.79998,-9.24929 c 0,-1.6957 0.6937,-2.3894 1.54156,-1.54156 0.84784,0.84786 0.84784,2.23525 0,3.08311 -0.84786,0.84784 -1.54156,0.15423 -1.54156,-1.54155 z m 302.91437,-5.78081 c 0,-0.63589 0.52027,-1.15616 1.15616,-1.15616 0.63589,0 1.15616,0.52027 1.15616,1.15616 0,0.63589 -0.52027,1.15616 -1.15616,1.15616 -0.63589,0 -1.15616,-0.52027 -1.15616,-1.15616 z m -305.22669,-4.76112 c 0,-1.98273 1.05752,-2.95136 2.35004,-2.15254 1.29252,0.79883 1.7514,2.42104 1.01968,3.60495 -1.98221,3.20729 -3.36972,2.60925 -3.36972,-1.45241 z m 305.22669,-4.48818 c 0,-0.63589 0.52027,-1.15616 1.15616,-1.15616 0.63589,0 1.15616,0.52027 1.15616,1.15616 0,0.63589 -0.52027,1.15617 -1.15616,1.15617 -0.63589,0 -1.15616,-0.52028 -1.15616,-1.15617 z m -0.57808,-10.11641 c -0.95384,-4.29225 -1.6683,-11.0558 -1.58767,-15.0301 0.14383,-7.08769 0.19008,-7.11694 2.42107,-1.52789 1.25097,3.13398 1.96543,9.89753 1.58767,15.0301 l -0.68683,9.33198 -1.73424,-7.80409 z m -302.33629,-10.6945 c 0,-0.63589 0.52028,-1.15616 1.15616,-1.15616 0.63589,0 1.15617,0.52027 1.15617,1.15616 0,0.63589 -0.52028,1.15616 -1.15617,1.15616 -0.63588,0 -1.15616,-0.52027 -1.15616,-1.15616 z m -30.0602,-4.62464 c 0,-0.63589 0.52027,-1.15617 1.15616,-1.15617 0.63589,0 1.15616,0.52028 1.15616,1.15617 0,0.63589 -0.52027,1.15616 -1.15616,1.15616 -0.63589,0 -1.15616,-0.52027 -1.15616,-1.15616 z m 30.24276,-4.81734 c 0.11099,-2.69376 0.65887,-3.24166 1.39701,-1.39703 0.66799,1.66919 0.58583,3.6636 -0.18267,4.43196 -0.76836,0.76836 -1.31488,-0.59737 -1.21448,-3.03493 z m 11.37906,-3.27576 c 0,-1.6957 0.6937,-2.3894 1.54156,-1.5416 0.84783,0.8479 0.84783,2.2353 0,3.08312 -0.84786,0.84784 -1.54156,0.15423 -1.54156,-1.54152 z m -32.37253,-3.4685 c 0,-0.6359 0.52027,-1.1562 1.15616,-1.1562 0.63589,0 1.15617,0.5203 1.15617,1.1562 0,0.6359 -0.52028,1.1561 -1.15617,1.1561 -0.63589,0 -1.15616,-0.5202 -1.15616,-1.1561 z m 316.78831,-9.2493 c 0,-0.6359 0.52027,-1.1562 1.15616,-1.1562 0.63589,0 1.15616,0.5203 1.15616,1.1562 0,0.6359 -0.52027,1.1561 -1.15616,1.1561 -0.63589,0 -1.15616,-0.5202 -1.15616,-1.1561 z m -291.35275,-2.3123 c 0,-0.6359 0.52027,-1.1562 1.15616,-1.1562 0.63589,0 1.15616,0.5203 1.15616,1.1562 0,0.6359 -0.52027,1.1561 -1.15616,1.1561 -0.63589,0 -1.15616,-0.5202 -1.15616,-1.1561 z m 2.31232,-4.6247 c 0,-0.6359 0.52028,-1.1561 1.15616,-1.1561 0.63589,0 1.15617,0.5202 1.15617,1.1561 0,0.6359 -0.52028,1.1562 -1.15617,1.1562 -0.63588,0 -1.15616,-0.5203 -1.15616,-1.1562 z m 283.64501,-5.01 c -0.84786,-0.8479 -1.54155,-2.6168 -1.54155,-3.931 0,-1.4489 1.07701,-1.3124 2.73624,0.3469 1.50495,1.5049 2.19865,3.2739 1.54156,3.9309 -0.6571,0.6571 -1.88841,0.501 -2.73625,-0.3468 z m -3.85388,-8.8639 c 0,-0.6359 0.52028,-1.1562 1.15617,-1.1562 0.63589,0 1.15616,0.5203 1.15616,1.1562 0,0.6359 -0.52027,1.1561 -1.15616,1.1561 -0.63589,0 -1.15617,-0.5202 -1.15617,-1.1561 z m -4.62464,-4.6247 c 0,-0.6359 0.52027,-1.1561 1.15616,-1.1561 0.63589,0 1.15616,0.5202 1.15616,1.1561 0,0.6359 -0.52027,1.1562 -1.15616,1.1562 -0.63589,0 -1.15616,-0.5203 -1.15616,-1.1562 z m -12.47279,-19.3031 -4.37966,-6.1324 5.40737,5.1385 c 2.97404,2.8261 4.94488,5.5857 4.37963,6.1324 -0.56522,0.5466 -2.99852,-1.7657 -5.40734,-5.1385 z m 9.20157,-3.1945 c -3.76999,-5.7537 -28.62865,-26.6468 -42.91083,-36.0655 -4.48665,-2.9588 -6.25458,-4.7809 -3.92875,-4.0492 12.82172,4.034 55.61878,40.5327 51.89432,44.2572 -0.77771,0.7777 -3.05234,-1.0865 -5.05474,-4.1425 z m -19.85202,-7.5626 c 0,-0.6359 0.52028,-1.1561 1.15617,-1.1561 0.63588,0 1.15616,0.5202 1.15616,1.1561 0,0.6359 -0.52028,1.1562 -1.15616,1.1562 -0.63589,0 -1.15617,-0.5203 -1.15617,-1.1562 z m -25.43555,-18.4986 c 0,-0.6359 0.52027,-1.1561 1.15616,-1.1561 0.63589,0 1.15616,0.5202 1.15616,1.1561 0,0.6359 -0.52027,1.1562 -1.15616,1.1562 -0.63589,0 -1.15616,-0.5203 -1.15616,-1.1562 z m -28.71136,-14.452 c -1.732,-1.732 -2.91244,-2.0572 -9.44198,-2.6013 -1.90767,-0.1591 -3.46849,-1.3997 -3.46849,-2.7572 0,-3.1039 9.16081,-0.5317 13.79137,3.8724 1.86223,1.7712 2.81607,3.2204 2.11962,3.2204 -0.69645,0 -2.04669,-0.7805 -3.00052,-1.7343 z m -92.68562,-12.1397 c 6.35676,-2.7316 10.00766,-2.7316 5.78081,0 -1.90767,1.2329 -5.02931,2.1843 -6.93697,2.1144 -2.28703,-0.084 -1.8932,-0.804 1.15616,-2.1144 z m 89.02445,1.1562 c 0,-0.6359 0.52027,-1.1562 1.15616,-1.1562 0.63589,0 1.15616,0.5203 1.15616,1.1562 0,0.6359 -0.52027,1.1561 -1.15616,1.1561 -0.63589,0 -1.15616,-0.5202 -1.15616,-1.1561 z m -36.99718,-6.937 c 0,-0.6359 0.52028,-1.1562 1.15617,-1.1562 0.63588,0 1.15616,0.5203 1.15616,1.1562 0,0.6359 -0.52028,1.1562 -1.15616,1.1562 -0.63589,0 -1.15617,-0.5203 -1.15617,-1.1562 z m 20.81091,-4.6246 c 0,-0.6359 0.52028,-1.1562 1.15617,-1.1562 0.63589,0 1.15616,0.5203 1.15616,1.1562 0,0.6359 -0.52027,1.1561 -1.15616,1.1561 -0.63589,0 -1.15617,-0.5202 -1.15617,-1.1561 z"
       id="path4878"/>
  </g>
</svg>
