<?xml version="1.0" encoding="UTF-8" standalone="no"?>
<!-- Created with Inkscape (http://www.inkscape.org/) -->

<svg
   width="411.36499"
   height="400"
   viewBox="0 0 411.36499 400.00001"
   id="svg2"
   version="1.1">
  <g
     id="layer1"
     transform="translate(739.71353,-795.58168)">
    <path
       style="fill:#de9923"
       d="m -538.93465,1195.3829 c -0.13107,-0.2121 -0.55751,-0.3856 -0.94766,-0.3856 -0.39015,0 -0.63047,-0.1276 -0.53404,-0.2837 0.0964,-0.156 -0.12765,-0.4729 -0.49796,-0.7041 -0.57169,-0.3571 -0.63941,-0.3322 -0.4488,0.1645 0.1434,0.3737 0.0843,0.4983 -0.16362,0.3451 -0.21505,-0.1329 -0.44145,0.037 -0.5077,0.3811 -0.1072,0.5566 -0.20187,0.5387 -0.91354,-0.173 -0.82004,-0.82 -1.3566,-1.0627 -0.97131,-0.4393 0.12057,0.1951 0.0596,0.3547 -0.13547,0.3547 -0.19508,0 -0.45333,-0.1596 -0.57389,-0.3547 -0.12057,-0.195 -0.529,-0.3546 -0.90763,-0.3546 -0.37865,0 -0.68844,0.1596 -0.68844,0.3546 0,0.5008 -1.19017,0.4414 -1.71723,-0.086 -0.28118,-0.2812 -0.53121,-0.3133 -0.69163,-0.089 -0.13819,0.1934 -0.68556,0.3604 -1.2164,0.371 -0.53085,0.011 -0.89557,-0.05 -0.81051,-0.1353 0.0851,-0.085 -0.0212,-0.4832 -0.23611,-0.8847 -0.38987,-0.7285 -0.39228,-0.7283 -1.05157,0.086 -0.36344,0.4488 -0.66081,0.6574 -0.66081,0.4634 0,-0.1939 -0.31921,-0.4361 -0.70936,-0.5381 -0.64316,-0.1682 -0.87916,0.1212 -0.74648,0.9155 0.0258,0.1543 -0.59373,0.2428 -1.37672,0.1966 -0.78298,-0.046 -1.42361,-0.1953 -1.42361,-0.3313 0,-0.1361 -0.2477,-0.3425 -0.55044,-0.4587 -0.37392,-0.1434 -0.46583,-0.07 -0.28659,0.2281 0.195,0.3247 0.11627,0.3198 -0.30177,-0.019 -0.46225,-0.3744 -0.59922,-0.3744 -0.74945,0 -0.14067,0.3506 -0.1904,0.3541 -0.21183,0.015 -0.0154,-0.244 -0.34721,-0.4435 -0.73737,-0.4435 -0.39014,0 -0.70936,-0.1437 -0.70936,-0.3194 0,-0.1756 -0.47368,-0.2865 -1.05262,-0.2464 -0.59725,0.041 -1.12947,-0.1274 -1.23025,-0.39 -0.0977,-0.2546 -0.43147,-0.4629 -0.74171,-0.4629 -0.31026,0 -0.47227,0.1486 -0.36004,0.3301 0.11224,0.1816 0.0419,0.4305 -0.1564,0.553 -0.19826,0.1225 -0.36047,-0.073 -0.36047,-0.4353 0,-0.4959 -0.24042,-0.6435 -0.97537,-0.5987 -0.53646,0.033 -0.97537,0.09 -0.97537,0.1278 0,0.038 -0.51131,0.1188 -1.13624,0.1805 -1.18927,0.1174 -2.50575,-0.8483 -2.08486,-1.5293 0.11983,-0.1939 0.0557,-0.4528 -0.14259,-0.5753 -0.33242,-0.2054 -0.52062,0.2815 -0.39002,1.0092 0.0299,0.1668 -0.13194,0.5279 -0.35974,0.8023 -0.33578,0.4046 -0.51632,0.4143 -0.95366,0.051 -0.29671,-0.2463 -0.62765,-0.3902 -0.73541,-0.3199 -0.10775,0.07 -0.48018,-0.4085 -0.82761,-1.064 -0.66997,-1.2641 -2.31127,-2.7833 -3.01026,-2.7863 -0.23029,0 -0.47348,-0.3609 -0.54045,-0.7998 -0.067,-0.4389 -0.31747,-0.7581 -0.55668,-0.7093 -0.23921,0.049 -0.43494,-0.1602 -0.43494,-0.4643 0,-0.3042 -0.16004,-0.4541 -0.35564,-0.3332 -0.23773,0.1469 -0.23773,0.4401 0,0.8843 0.52467,0.9804 0.44315,1.1405 -0.44239,0.869 -1.34706,-0.4129 -1.71212,-0.8626 -1.31012,-1.6138 0.28045,-0.524 0.23974,-0.6721 -0.18479,-0.6721 -0.49072,0 -0.70272,0.4167 -0.58651,1.1527 0.0989,0.6262 -0.35862,0.1914 -0.67547,-0.642 -0.18988,-0.4995 -0.50515,-0.8092 -0.70059,-0.6885 -0.19544,0.1208 -0.35534,-0.029 -0.35534,-0.3333 0,-0.3041 -0.15961,-0.5529 -0.35468,-0.5529 -0.19507,0 -0.35468,0.1791 -0.35468,0.3981 0,0.2757 -0.16303,0.2628 -0.53014,-0.042 -0.29157,-0.242 -0.85004,-0.3563 -1.24103,-0.254 -0.39099,0.1022 -0.81552,0.017 -0.94338,-0.1903 -0.13672,-0.2212 -0.0638,-0.2719 0.17698,-0.1231 0.22521,0.1391 0.40948,0.084 0.40948,-0.1226 0,-0.2065 -0.30781,-0.3756 -0.68403,-0.3756 -0.37622,0 -0.9543,-0.2703 -1.28464,-0.6006 -0.56438,-0.5644 -0.62713,-0.5644 -1.03981,0 -0.50158,0.6859 -1.1271,0.785 -1.31911,0.209 -0.0718,-0.2153 -0.61328,-0.4326 -1.20331,-0.4828 -0.59003,-0.05 -1.8064,-0.5009 -2.70305,-1.0015 -0.89665,-0.5006 -1.70237,-0.8381 -1.79049,-0.7499 -0.0881,0.088 -0.36626,-0.088 -0.61808,-0.3915 -0.38201,-0.4603 -0.34641,-0.6331 0.21491,-1.0436 0.37003,-0.2705 0.59321,-0.5558 0.49599,-0.6338 -0.15131,-0.1214 -1.41377,-0.665 -7.44775,-3.2065 -0.48769,-0.2055 -1.19899,-0.4311 -1.58067,-0.5014 -0.38168,-0.07 -0.81815,-0.3231 -0.96995,-0.5621 -0.15178,-0.2389 -0.27842,-0.3091 -0.2814,-0.1559 -0.008,0.3895 -1.54034,-0.4558 -1.88513,-1.0396 -0.156,-0.2641 -0.4561,-0.4802 -0.66687,-0.4802 -0.77156,0 -19.98396,-9.7079 -23.9363,-12.0949 -5.17275,-3.124 -6.39557,-3.7422 -9.09542,-4.598 -1.20739,-0.3828 -3.7115,-1.5115 -5.56471,-2.5084 -8.41084,-4.5243 -10.70221,-5.6405 -12.74327,-6.2081 -1.20155,-0.334 -2.61651,-1.0152 -3.14435,-1.5136 -1.23724,-1.1682 -2.23143,-1.8949 -7.07798,-5.1735 -2.19459,-1.4847 -3.99016,-2.832 -3.99016,-2.9943 0,-0.1622 -1.01946,-0.8018 -2.26547,-1.4214 -2.11659,-1.0525 -5.83439,-4.3299 -6.72006,-5.9239 -0.20097,-0.3617 -1.65308,-1.9649 -3.22691,-3.5628 -3.38587,-3.4374 -5.7996,-6.382 -6.71845,-8.1962 -0.36565,-0.7219 -1.53753,-2.1716 -2.60418,-3.2215 -1.75884,-1.7314 -3.07787,-3.9334 -3.36234,-5.6131 -0.0592,-0.3495 -0.24435,-0.7353 -0.41148,-0.8572 -0.16714,-0.1219 -0.14332,-0.3209 0.0529,-0.4422 0.33905,-0.2095 1.63024,1.1245 3.01323,3.1133 0.34882,0.5016 1.56966,1.5472 2.713,2.3236 1.14334,0.7765 2.44176,2.0152 2.88536,2.7528 0.74767,1.2433 3.86527,4.9012 5.22405,6.1294 0.32371,0.2926 1.54934,1.5574 2.72364,2.8107 1.17429,1.2532 2.43527,2.53 2.80217,2.8374 0.3669,0.3073 1.36617,1.1504 2.2206,1.8735 0.88399,0.7481 2.12503,1.4178 2.87971,1.5541 1.61409,0.2913 2.32716,0.6402 4.16367,2.0371 l 1.41872,1.0792 -1.06404,-1.173 c -0.58522,-0.6452 -2.91299,-2.7285 -5.17282,-4.6297 -5.9118,-4.9735 -7.85244,-7.1427 -15.55315,-17.3844 -4.36408,-5.8042 -7.10722,-9.3242 -9.45537,-12.1334 -1.18884,-1.4222 -3.95314,-5.182 -6.14288,-8.3552 -2.18974,-3.1731 -4.12987,-5.6774 -4.31139,-5.5652 -0.18153,0.1121 -0.33006,-0.1361 -0.33006,-0.5517 0,-0.8999 -0.7841,-1.769 -1.59611,-1.769 -0.38702,0 -0.56102,0.268 -0.51809,0.798 0.0995,1.2287 -0.0475,2.2723 -0.24951,1.7712 -0.0988,-0.245 -0.32957,-0.3529 -0.51282,-0.2396 -0.18324,0.1132 -0.31031,0.074 -0.28238,-0.087 0.16332,-0.9402 -0.0834,-2.254 -0.38789,-2.0658 -0.19507,0.1206 -0.35468,0.045 -0.35468,-0.1675 0,-0.2127 0.23941,-0.4786 0.53202,-0.5909 0.54449,-0.2089 0.79915,-3.0079 0.26601,-2.9237 -0.96429,0.1523 -1.86208,-0.1185 -1.86208,-0.5615 0,-0.2859 -0.31922,-0.6905 -0.70936,-0.8993 -0.39015,-0.2088 -0.7118,-0.7331 -0.71479,-1.1652 -0.004,-0.6316 -0.0711,-0.6816 -0.34068,-0.2552 -0.51641,0.8168 -1.48475,-0.6093 -1.26312,-1.8604 0.0968,-0.5465 0.0116,-0.9753 -0.19398,-0.9753 -0.20171,0 -0.27844,0.1429 -0.17051,0.3175 0.21404,0.3463 -0.84882,0.8796 -1.15095,0.5775 -0.10213,-0.1021 0.01,-0.1857 0.24904,-0.1857 0.2391,0 0.34039,-0.1526 0.2251,-0.3392 -0.36539,-0.5911 -1.07163,-0.042 -1.12477,0.8754 -0.0281,0.4854 0.0694,0.8825 0.21682,0.8825 0.36829,0 0.008,1.7337 -0.41422,1.9948 -0.18766,0.116 -0.30407,-0.086 -0.25868,-0.4486 0.0454,-0.3627 -0.0836,-1.0585 -0.28655,-1.5462 -0.27913,-0.6706 -0.24899,-1.0231 0.12369,-1.4466 0.57071,-0.6485 0.65747,-1.7455 0.13807,-1.7455 -0.19508,0 -0.35469,-0.3192 -0.35469,-0.7093 0,-0.3902 0.15961,-0.7094 0.35469,-0.7094 0.19507,0 0.35712,-0.6783 0.36011,-1.5074 0.004,-1.1039 0.0975,-1.3649 0.34925,-0.9753 0.25687,0.3975 0.34519,0.2066 0.34924,-0.7546 0.006,-1.4193 -0.72636,-2.2862 -1.63628,-1.9371 -0.47173,0.181 -0.50559,0.1274 -0.1728,-0.2736 0.32124,-0.387 0.29934,-0.5426 -0.0978,-0.695 -0.54636,-0.2098 -0.92511,0.4381 -0.92511,1.5821 0,0.3857 -0.13626,0.6171 -0.30279,0.5142 -0.16653,-0.1029 -0.25657,-1.7084 -0.20009,-3.5678 0.0588,-1.936 -0.0391,-3.3806 -0.22923,-3.3806 -0.18256,0 -0.33193,0.1811 -0.33193,0.4025 0,0.2214 -0.31922,0 -0.70937,-0.4993 -0.75476,-0.9595 -0.93333,-2.2057 -0.36629,-2.5561 0.18868,-0.1166 0.24853,-0.6847 0.133,-1.2623 -0.16984,-0.8493 -0.0892,-1.0503 0.42127,-1.0503 0.57812,0 0.58414,-0.052 0.0714,-0.6207 -0.47681,-0.5286 -0.48858,-0.7179 -0.0793,-1.2758 0.26432,-0.3604 0.38462,-0.9053 0.26733,-1.2109 -0.14074,-0.3668 -0.0721,-0.4686 0.2017,-0.2993 0.28228,0.1744 0.41496,-0.091 0.41496,-0.8286 0,-0.5968 -0.17036,-1.085 -0.37858,-1.085 -0.21718,0 -0.2826,-0.3024 -0.15345,-0.7093 0.1274,-0.4015 0.0637,-0.7094 -0.14665,-0.7094 -0.23228,0 -0.29687,-0.5657 -0.17213,-1.5074 0.10982,-0.829 0.0434,-1.9064 -0.14759,-2.3941 l -0.34727,-0.8867 -0.35426,0.9013 c -0.36487,0.9283 -1.39008,1.9792 -1.66379,1.7055 -0.085,-0.085 0.0872,-1.1851 0.38263,-2.4447 1.0275,-4.3814 0.97664,-6.6147 -0.22247,-9.7685 -0.27425,-0.7214 -0.46546,-0.8781 -0.66909,-0.5487 -0.21016,0.3401 -0.33591,0.2671 -0.47836,-0.2776 -0.10628,-0.4065 -0.024,-0.8437 0.18294,-0.9715 0.23703,-0.1465 0.27004,-0.061 0.0892,0.2318 -0.19447,0.3146 -0.14877,0.3789 0.14181,0.1993 0.32585,-0.2014 0.29644,-0.4669 -0.12254,-1.1064 -0.64841,-0.9896 -0.70574,-1.3583 -0.15861,-1.0202 0.25354,0.1567 0.32576,0.01 0.20381,-0.4224 -0.41195,-1.4508 -0.72687,-3.1654 -0.64015,-3.4856 0.23355,-0.8623 -0.78931,-5.0485 -1.47145,-6.0221 -0.64907,-0.9264 -0.66336,-1.0093 -0.096,-0.5565 0.63276,0.505 0.65433,0.4698 0.42416,-0.6917 -0.13338,-0.6731 -0.43961,-1.3465 -0.68051,-1.4966 -0.34615,-0.2156 -0.34277,-0.4264 0.0161,-1.0054 0.37297,-0.6017 0.36343,-0.9363 -0.0534,-1.8729 -0.60897,-1.3682 -0.95723,-2.7934 -0.63362,-2.5931 0.12811,0.079 0.23293,-2.9929 0.23293,-6.8271 0,-7.49901 0.71375,-23.49078 1.22931,-27.54286 1.43197,-11.2547 2.22394,-17.1124 2.66143,-19.6848 0.282,-1.65813 0.7679,-5.00986 1.07977,-7.4483 0.31188,-2.43843 0.78737,-5.86997 1.05666,-7.62565 0.26929,-1.75566 0.59633,-3.91036 0.72675,-4.78818 0.13042,-0.87784 0.60712,-3.19214 1.05934,-5.14288 0.45222,-1.95074 1.14825,-5.38229 1.54674,-7.62565 1.71647,-9.66312 3.17498,-13.66277 8.98903,-24.65033 2.32497,-4.39379 4.61444,-8.1337 6.57894,-10.74687 1.65717,-2.20436 3.0503,-4.35906 3.09584,-4.7882 0.0455,-0.42914 0.10316,-0.95582 0.12806,-1.1704 0.0249,-0.21457 0.56003,-1.09241 1.18918,-1.95074 0.62916,-0.85834 1.16903,-1.95963 1.19973,-2.44732 0.14585,-2.31717 3.4318,-9.07189 5.64139,-11.59665 0.88708,-1.01361 2.54624,-2.40993 3.68703,-3.10292 1.14078,-0.69299 2.65049,-1.96333 3.3549,-2.82297 0.70442,-0.85964 2.06777,-1.95517 3.02967,-2.43451 1.74242,-0.86828 2.52031,-1.56904 4.38173,-3.94714 0.67641,-0.86419 1.16156,-1.18261 1.56557,-1.02758 0.39268,0.15069 0.50099,0.088 0.32897,-0.1903 -0.15038,-0.24332 -0.0455,-0.41497 0.25347,-0.41497 0.28045,0 0.70351,-0.46734 0.94011,-1.03854 0.2366,-0.57122 0.65497,-1.12483 0.92974,-1.23026 0.27474,-0.10543 0.49954,-0.50687 0.49954,-0.89208 0,-0.7702 1.44361,-1.98357 1.75689,-1.47668 0.22839,0.36954 1.78992,-0.79883 1.78992,-1.33926 0,-0.20106 -0.18673,-0.48097 -0.41496,-0.62202 -0.26974,-0.16672 -0.34363,-0.0706 -0.21115,0.27464 0.119,0.31011 0.004,0.53108 -0.27525,0.53108 -0.32813,0 -0.3836,-0.17691 -0.17609,-0.56157 0.55704,-1.03259 1.9534,-2.0085 3.02819,-2.11641 1.18621,-0.11909 2.17961,-0.85946 2.49762,-1.86142 0.11566,-0.36442 0.5069,-0.66259 0.86941,-0.66259 0.36253,0 2.30695,-1.24482 4.32095,-2.76629 4.8559,-3.66834 8.61938,-6.27233 12.67383,-8.76915 1.83541,-1.13029 3.63098,-2.34894 3.99017,-2.70811 0.35917,-0.35917 0.70599,-0.61314 0.7707,-0.56437 0.0647,0.0488 1.14207,-0.53113 2.3941,-1.28865 1.25204,-0.75752 2.71535,-1.60715 3.2518,-1.88806 0.53646,-0.2809 0.97538,-0.71891 0.97538,-0.97335 0,-0.25444 0.24306,-0.66434 0.54014,-0.91089 0.45163,-0.37482 0.50353,-0.35288 0.31674,0.13391 -0.32927,0.85806 0.57974,0.72899 1.94147,-0.27567 0.99112,-0.73122 1.31829,-0.80365 2.21628,-0.49061 0.88176,0.3074 1.13601,0.25933 1.55951,-0.29485 0.42809,-0.56016 0.55773,-0.5833 0.84202,-0.15025 0.28175,0.42918 0.49765,0.4382 1.3368,0.0559 0.55042,-0.25079 1.04353,-0.43588 1.09579,-0.41132 0.1377,0.0647 6.19072,-3.17945 6.82126,-3.6559 0.29262,-0.2211 0.85123,-0.57508 1.24138,-0.78662 4.63018,-2.51055 6.17522,-3.27847 6.9814,-3.4699 0.52351,-0.1243 4.35406,-1.89264 8.51236,-3.92963 7.71002,-3.77687 15.32008,-6.83637 21.03839,-8.45815 3.78851,-1.07446 15.40165,-3.87558 18.49756,-4.46166 1.20023,-0.22721 3.11552,-0.74879 4.25617,-1.15905 1.85052,-0.66558 4.9442,-0.97427 10.58629,-1.05632 1.7504,-0.0255 5.42814,0.65544 6.52742,1.20847 0.66396,0.33404 1.7906,0.60734 2.50365,0.60734 0.71304,0 1.60626,0.25125 1.98492,0.55833 0.37866,0.30707 0.48898,0.45726 0.24513,0.33374 -0.24384,-0.12352 -0.44335,-0.0667 -0.44335,0.12637 0,0.19302 0.34281,0.40196 0.76181,0.46429 0.419,0.0623 0.93532,0.39015 1.1474,0.72848 0.32124,0.51247 0.0809,0.90578 -1.43973,2.35615 -1.56648,1.4941 -1.85017,1.64595 -2.00058,1.07078 -0.1222,-0.4673 -0.45207,-0.6473 -1.08956,-0.59454 -0.59915,0.0496 -0.79408,0.19587 -0.56553,0.42442 0.19181,0.19182 0.34874,0.46231 0.34874,0.60111 0,0.37721 -1.01032,0.15604 -1.49325,-0.32688 -0.49387,-0.49389 -1.12266,-0.56973 -0.83262,-0.10043 0.10932,0.17688 -0.12439,0.2371 -0.51935,0.13382 -0.68036,-0.17792 -0.68505,-0.21352 -0.0892,-0.67717 0.58913,-0.45837 0.58404,-0.47494 -0.0804,-0.26159 -0.39015,0.12528 -0.91518,0.48401 -1.16672,0.79718 -0.31224,0.38874 -0.53731,0.44522 -0.70937,0.17802 -0.1386,-0.21526 -0.53131,-0.34831 -0.87269,-0.29566 -0.34138,0.0526 -0.6207,-0.0745 -0.6207,-0.28256 0,-0.20805 -0.30357,-0.10354 -0.67461,0.23226 -0.37104,0.33578 -0.88976,0.58102 -1.15272,0.54496 -0.89733,-0.12303 -1.40691,0.0181 -1.21084,0.33534 0.1077,0.17427 -0.20209,0.41672 -0.68842,0.53879 -0.48635,0.12206 -0.88426,0.44845 -0.88426,0.7253 0,0.27685 -0.47881,1.02761 -1.06404,1.66835 -0.58522,0.64074 -1.06405,0.95119 -1.06405,0.68989 0,-0.30047 -0.26072,-0.40692 -0.70936,-0.28959 -0.39014,0.10202 -0.70936,0.0213 -0.70936,-0.17941 0,-0.24403 -0.14686,-0.24779 -0.44335,-0.0113 -0.24384,0.19446 -0.92218,0.44374 -1.50739,0.55396 -0.58522,0.11022 -1.54287,0.30238 -2.1281,0.42701 -0.84164,0.17924 -0.95284,0.14217 -0.53201,-0.17737 0.42426,-0.32215 0.31651,-0.36641 -0.53202,-0.21854 -2.58017,0.44964 -4.58747,0.64589 -7.3594,0.71954 -1.63471,0.0434 -3.19437,0.2163 -3.46593,0.38413 -1.12305,0.69407 -1.76586,1.43118 -1.76586,2.0249 0,0.95536 0.77964,0.8815 6.02959,-0.57123 3.04958,-0.84387 9.44712,-1.71862 12.84297,-1.75605 2.64021,-0.0291 3.23962,0.0771 4.12371,0.73076 0.60126,0.44453 1.32942,0.68769 1.73877,0.58064 0.51989,-0.13595 0.76228,0.0323 0.92565,0.64245 0.32982,1.23172 0.24524,2.03975 -0.12365,1.18131 -0.30482,-0.70937 -0.30482,-0.70937 -0.33518,0 -0.0228,0.53188 -0.106,0.59 -0.3327,0.2323 -0.22384,-0.35317 -0.3615,-0.24135 -0.53016,0.43064 -0.24173,0.96316 -0.64134,1.11792 -5.00887,1.93985 -1.47427,0.27744 -2.34603,0.65887 -2.83746,1.2415 -0.54434,0.64537 -1.34749,0.94693 -3.45254,1.29635 -2.69918,0.44804 -2.73963,0.4702 -2.52154,1.3815 0.1219,0.50939 0.27029,0.98396 0.32975,1.0546 0.18091,0.21494 4.83113,-0.66777 6.53104,-1.23973 2.80847,-0.94494 10.30498,-1.47244 19.33011,-1.36018 4.6818,0.0582 12.90153,0.13281 18.26609,0.16573 5.36454,0.0329 10.43267,0.22517 11.2625,0.42722 1.52655,0.37169 3.47559,-0.0692 4.05065,-0.91637 0.21674,-0.31928 3.54727,0.0999 5.51268,0.69387 0.3478,0.1051 -0.0859,-0.2099 -0.9637,-0.7 -0.87784,-0.4901 -2.15469,-1.06986 -2.83745,-1.28834 -2.50946,-0.80302 -4.96554,-1.85279 -4.96554,-2.12234 0,-0.24918 -1.70118,-0.61633 -5.85223,-1.26306 -0.78029,-0.12157 -1.49853,-0.26942 -1.59606,-0.32858 -0.0975,-0.0592 -1.6138,-0.22115 -3.36948,-0.35999 -1.75567,-0.13885 -3.25477,-0.31022 -3.33134,-0.38083 -0.0766,-0.0706 0.0418,-0.34643 0.26293,-0.61295 0.22118,-0.2665 0.36363,-0.55233 0.31655,-0.63517 -0.0471,-0.0828 0.066,-0.0283 0.25137,0.12131 0.93106,0.75139 1.32421,-0.77769 0.42989,-1.67201 -0.39626,-0.39626 -0.57569,-0.3033 -1.08779,0.56361 -0.34053,0.57647 -0.78479,0.93213 -0.99899,0.79975 -0.21215,-0.13112 -0.2918,-0.0864 -0.17699,0.0994 0.1148,0.18576 0.0772,0.55058 -0.0836,0.81071 -0.23423,0.37899 -1.05762,0.41086 -4.1441,0.16041 -3.37652,-0.274 -3.83894,-0.38915 -3.74758,-0.93325 0.0573,-0.34138 -0.0624,-0.62069 -0.26601,-0.62069 -0.20362,0 -0.33032,0.19951 -0.28155,0.44335 0.10924,0.5462 -2.85384,0.48016 -3.41,-0.076 -0.20205,-0.20204 -0.69455,-0.3722 -1.09445,-0.37813 -0.7005,-0.0104 -0.70249,-0.0251 -0.0543,-0.40148 0.63376,-0.36802 4.19777,-0.96669 6.95283,-1.16794 0.68275,-0.0499 1.51305,-0.20769 1.84508,-0.35071 0.74195,-0.31958 1.4335,0.0567 1.14918,0.62536 -0.11518,0.23037 0.0195,0.13953 0.29933,-0.20185 0.58811,-0.7175 1.69451,-0.81092 2.31037,-0.19508 0.33103,0.33105 0.42561,0.33105 0.42561,0 0,-0.23408 0.1596,-0.42561 0.35468,-0.42561 0.19508,0 0.35469,0.32863 0.35469,0.7303 0,0.40912 0.16012,0.63133 0.36408,0.50527 0.20025,-0.12376 0.31995,-0.49229 0.26601,-0.81896 -0.0792,-0.4794 0.18601,-0.58853 1.37493,-0.56588 1.15532,0.022 1.42998,-0.0841 1.27348,-0.4919 -0.1573,-0.40992 0.0446,-0.48416 0.95394,-0.3507 0.77348,0.11352 1.21472,0.01 1.33939,-0.31517 0.14493,-0.37769 0.29735,-0.39197 0.69153,-0.0648 0.85735,0.71154 1.2886,-0.1565 0.49889,-1.00416 -0.37948,-0.40732 -0.58714,-0.84341 -0.46146,-0.96909 0.56299,-0.56299 0.43006,-1.89448 -0.20574,-2.06074 -0.3939,-0.10301 -0.65661,0.0154 -0.65661,0.29605 0,0.25726 0.12198,0.39237 0.27106,0.30022 0.52744,-0.32597 0.64521,0.45824 0.16702,1.1122 -0.40049,0.54771 -0.63028,0.59543 -1.31869,0.27384 -0.45853,-0.2142 -1.79132,-0.66781 -2.96177,-1.00804 -2.50022,-0.72677 -4.47056,-1.6746 -5.1281,-2.46689 -0.40248,-0.48495 -0.3843,-0.53325 0.1269,-0.33709 0.39836,0.15287 0.5624,0.0671 0.49352,-0.25788 -0.0666,-0.31436 0.17476,-0.4578 0.68119,-0.40481 0.52109,0.0545 0.72461,-0.0737 0.60635,-0.38184 -0.16289,-0.42446 1.49499,-1.19689 3.0428,-1.41768 0.29261,-0.0417 0.75574,-0.21549 1.02918,-0.38611 0.33574,-0.20951 0.66792,-0.0911 1.02309,0.36465 0.41088,0.52724 0.4816,0.54551 0.32327,0.0835 -0.2033,-0.59317 0.36957,-1.00472 1.39855,-1.00472 0.32476,0 0.42269,0.16854 0.25759,0.44335 -0.20308,0.33803 -0.13259,0.33501 0.29674,-0.0127 0.44317,-0.35894 1.07831,-0.37377 2.98209,-0.0696 1.33044,0.21254 3.1313,0.45852 4.00192,0.54661 1.64814,0.16677 4.17442,0.84395 7.46276,2.00045 1.06031,0.37291 2.53969,0.76359 3.28751,0.86819 2.57706,0.36046 3.23808,0.65569 3.29831,1.47314 0.0679,0.92122 0.11423,0.97325 1.15139,1.29205 0.68656,0.21104 0.79804,0.11586 0.79804,-0.68138 0,-0.87784 0.0701,-0.91378 1.33006,-0.68209 0.73152,0.13451 1.40985,0.34125 1.50739,0.45942 0.0975,0.11816 0.65615,0.22885 1.24138,0.24596 0.58522,0.0171 1.78227,0.21407 2.66011,0.4377 0.87783,0.22362 2.03498,0.49198 2.57144,0.59634 0.53645,0.10436 0.97537,0.39113 0.97537,0.63726 0,0.32315 0.92934,0.46888 3.34416,0.52442 1.83929,0.0423 3.76368,0.23641 4.27644,0.43136 0.61844,0.23514 0.85871,0.23542 0.71374,7.1e-4 -0.12655,-0.20476 0.20084,-0.34312 0.77776,-0.32868 0.89492,0.0224 0.92412,0.059 0.28695,0.36013 -0.58502,0.27646 -0.53738,0.30173 0.27179,0.14421 1.19131,-0.23192 4.4777,0.57175 8.06321,1.9718 1.46306,0.57129 3.34326,1.20734 4.1782,1.41346 0.83496,0.20611 1.44872,0.487 1.36393,0.6242 -0.0848,0.13721 0.1897,0.27063 0.60999,0.29649 1.15712,0.0712 7.49347,2.3393 10.69523,3.82835 1.5606,0.7258 3.40061,1.36279 4.08892,1.41555 0.68831,0.0528 2.54387,0.67944 4.12347,1.39266 1.57961,0.7132 3.06482,1.29673 3.30048,1.29673 0.23565,0 2.68095,1.11725 5.434,2.48277 2.75304,1.36552 5.36951,2.48277 5.81438,2.48277 2.06723,0 11.10461,4.19603 16.07432,7.46326 1.8521,1.21762 4.40581,3.20119 5.67489,4.40791 1.2691,1.20673 3.18528,2.71969 4.25819,3.36213 1.07291,0.64245 2.74878,1.84771 3.72415,2.67836 3.15992,2.69107 9.04316,8.88363 10.82058,11.3895 0.95295,1.34354 1.92258,2.60239 2.15468,2.79748 3.27743,2.75455 7.59241,8.45937 9.79193,12.94585 0.90851,1.85321 1.84963,3.60889 2.09131,3.9015 0.76926,0.93128 5.06006,9.84125 5.63946,11.71054 0.15013,0.48435 0.55457,1.43925 0.8988,2.12202 0.34421,0.68275 0.63228,1.37562 0.64023,1.53969 0.008,0.16407 0.25228,0.48328 0.54306,0.70937 0.48367,0.37611 1.02101,1.19619 2.52337,3.85136 0.29801,0.52665 0.61715,1.54589 0.70919,2.26499 0.0985,0.76908 0.46363,1.51493 0.88681,1.81134 0.39568,0.27715 0.71943,0.81406 0.71943,1.19315 0,0.37908 0.17823,0.68925 0.39603,0.68925 0.2182,0 0.31476,0.31093 0.21501,0.69235 -0.0996,0.3808 -0.0326,0.74184 0.14876,0.8023 0.18138,0.0605 0.52663,0.66664 0.76724,1.34706 0.24058,0.68042 0.73225,1.67639 1.09256,2.21327 0.36032,0.53688 0.68978,1.41471 0.73213,1.95075 0.0701,0.88747 1.15605,4.18654 1.95529,5.94013 0.1778,0.39015 0.43463,1.10838 0.57072,1.59606 0.13609,0.4877 0.39994,0.98484 0.58632,1.10477 0.18639,0.11992 0.38327,0.67855 0.4375,1.24138 0.26608,2.76085 0.64733,3.98169 1.2965,4.15145 0.41781,0.10926 0.66694,0.48703 0.66353,1.00618 -0.004,0.67186 -0.073,0.72923 -0.35801,0.29921 -0.24895,-0.37562 -0.29754,-0.0659 -0.16535,1.05363 0.1058,0.89585 0.42441,1.71834 0.73239,1.8907 0.43121,0.24132 0.45633,0.41202 0.12023,0.81703 -0.23369,0.28157 -0.32236,0.6145 -0.19702,0.73983 0.12534,0.12534 0.22788,0.0303 0.22788,-0.21124 0,-0.29781 0.18042,-0.25871 0.5606,0.12149 0.30836,0.30833 0.68745,0.48225 0.84241,0.38646 0.27247,-0.16839 1.03284,2.27698 1.04472,3.35976 0.004,0.29261 0.1822,1.25026 0.3977,2.1281 0.21554,0.87782 0.52201,2.49784 0.68112,3.60002 0.15908,1.10218 0.413,2.20418 0.56423,2.44887 0.15124,0.2447 0.32152,0.77937 0.37841,1.18817 0.13343,0.95865 0.4131,2.2276 0.66784,3.03019 0.11069,0.34881 0.22444,1.25097 0.25277,2.00479 0.0284,0.75383 0.32645,1.85224 0.66244,2.44092 0.33595,0.58869 0.72348,1.86837 0.86113,2.84374 0.13765,0.97538 0.39972,2.05272 0.58242,2.3941 0.21688,0.40531 0.20475,0.6207 -0.0351,0.6207 -0.20196,0 -0.36717,0.32863 -0.36717,0.73029 0,0.4617 0.1506,0.63722 0.40948,0.47721 0.24725,-0.15281 0.31346,-0.0977 0.16709,0.13912 -0.13329,0.2157 0.0705,1.95613 0.453,3.86762 0.38245,1.91149 0.87382,5.0715 1.09199,7.02224 0.21813,1.95076 0.62144,4.42466 0.89624,5.49756 0.8211,3.20576 1.22993,9.87456 1.25029,20.39416 0.0106,5.46209 0.1651,11.12812 0.34337,12.59121 0.17829,1.463 0.43172,7.7675 0.56324,14.0099 0.2582,12.2585 -0.0543,17.9041 -1.28615,23.2315 -0.38338,1.6583 -0.88468,3.9326 -1.11402,5.0543 -0.30825,1.5076 -0.57227,2.0394 -1.01262,2.0394 -0.59891,0 -0.83388,0.5466 -4.11756,9.5764 -0.67392,1.8532 -2.36778,5.6039 -3.76416,8.335 -1.39638,2.731 -3.09523,6.1237 -3.77525,7.5392 -0.94279,1.9625 -1.3761,2.5294 -1.8246,2.387 -0.44632,-0.1416 -1.21865,0.8416 -3.20195,4.0766 -1.43755,2.3447 -2.73824,4.2633 -2.89043,4.2633 -0.1522,0 -0.27669,0.1832 -0.27669,0.4072 0,0.6769 -6.75249,10.5701 -7.48048,10.9597 -0.37244,0.1994 -0.67718,0.5276 -0.67718,0.7295 0,0.2018 -0.49422,1.0853 -1.09824,1.9632 -0.60402,0.8779 -0.99109,1.7034 -0.86011,1.8343 0.13099,0.131 0.39371,-0.04 0.58385,-0.3796 0.19014,-0.3397 0.62689,-0.6177 0.97054,-0.6177 0.3437,0 0.97417,-0.3254 1.40111,-0.7232 0.69272,-0.6453 1.16696,-0.4951 0.51024,0.1616 -0.14631,0.1463 -0.26601,0.4475 -0.26601,0.6693 0,0.2219 -0.31922,0.5677 -0.70937,0.7685 -0.39014,0.2008 -0.72531,0.5647 -0.74482,0.8085 -0.0825,1.0307 -0.16014,1.1833 -0.49656,0.9754 -0.19507,-0.1206 -0.35468,0.02 -0.35468,0.3128 0,0.2926 -0.1767,0.6412 -0.39266,0.7747 -0.36281,0.2242 -0.2758,-0.3446 0.27927,-1.8264 0.0792,-0.2113 -0.0935,-0.3842 -0.38366,-0.3842 -0.29017,0 -0.51755,0.093 -0.50528,0.2068 0.0124,0.1138 -0.01,0.2867 -0.0495,0.3843 -0.0395,0.098 -0.0983,0.7359 -0.13067,1.4187 -0.0675,1.4236 -1.10043,3.1762 -1.42567,2.419 -0.11063,-0.2576 -0.11687,-0.055 -0.0138,0.4493 0.14762,0.7235 -0.0639,1.1381 -1.00002,1.96 -1.0983,0.9644 -2.40746,3.1267 -2.40746,3.9765 0,0.1994 -0.372,0.8137 -0.82666,1.3651 -0.45466,0.5514 -1.43855,2.1461 -2.1864,3.5437 -1.79061,3.3464 -4.69945,6.7968 -12.71205,15.0788 -3.64088,3.7632 -6.61977,6.9644 -6.61977,7.1137 0,0.5162 0.42519,0.2647 2.24684,-1.3289 1.00609,-0.8801 1.87643,-1.4586 1.93414,-1.2855 0.15677,0.4704 3.61321,-2.9668 5.9257,-5.8926 2.00252,-2.5337 2.93509,-3.4052 1.81593,-1.6972 -0.69688,1.0636 -0.73941,1.479 -0.0968,0.9457 0.26179,-0.2173 0.581,-0.29 0.70936,-0.1617 0.12836,0.1284 0.23338,-0.1218 0.23338,-0.556 0,-0.4837 0.15106,-0.6961 0.39008,-0.5483 0.28364,0.1752 0.28364,0.042 0,-0.4878 -0.47502,-0.8876 -0.49878,-1.2392 -0.0657,-0.9715 0.17841,0.1102 0.40568,-10e-5 0.50503,-0.2451 0.14116,-0.3482 0.2543,-0.3404 0.51798,0.036 0.23576,0.3363 0.4104,0.3631 0.57994,0.089 0.13343,-0.2159 0.0736,-0.3925 -0.13301,-0.3925 -0.70734,0 -0.37471,-0.8224 1.13179,-2.7983 1.56954,-2.0584 4.09788,-4.6501 4.53648,-4.6501 0.13946,0 0.47257,-0.2793 0.74033,-0.6207 0.45001,-0.5738 0.43551,-0.5805 -0.192,-0.089 -0.63158,0.4951 -0.65218,0.4828 -0.29655,-0.1773 0.59176,-1.0981 2.47405,-2.7621 2.85689,-2.5254 0.18876,0.1166 0.43161,-0.1261 0.53972,-0.5394 0.13105,-0.5012 0.38068,-0.6807 0.74965,-0.5392 0.35238,0.1353 0.5532,0.016 0.5532,-0.3295 0,-0.298 0.15961,-0.4432 0.35468,-0.3226 0.19507,0.1206 0.35468,-0.01 0.35468,-0.2808 0,-0.2749 0.94406,-1.2819 2.09787,-2.2377 1.15385,-0.9557 2.29513,-2.0914 2.53625,-2.5237 0.24108,-0.4323 0.57387,-0.7021 0.73955,-0.5997 0.16567,0.1024 0.30122,0.017 0.30122,-0.1895 0,-0.2066 0.23148,-0.3756 0.5144,-0.3756 0.28293,0 0.64204,-0.2028 0.79803,-0.4508 0.15599,-0.248 0.73157,-0.6476 1.27902,-0.8882 1.14604,-0.5036 0.99311,-1.1782 -0.1977,-0.872 -0.62111,0.1597 -0.46403,-0.1074 0.70972,-1.2067 0.82906,-0.7764 1.50739,-1.619 1.50739,-1.8724 0,-0.2637 0.22739,-0.3734 0.53202,-0.2565 0.29261,0.1123 0.53202,0.063 0.53202,-0.1098 0,-0.1727 -0.19951,-0.3812 -0.44335,-0.4632 -0.70485,-0.2372 0.29424,-1.2244 1.71311,-1.6927 0.66716,-0.2201 1.21301,-0.5919 1.21301,-0.826 0,-0.2341 0.27931,-0.6762 0.6207,-0.9824 0.34137,-0.3062 0.81239,-0.8604 1.04666,-1.2315 0.24023,-0.3807 0.18702,0.06 -0.12202,1.0099 -0.30137,0.9266 -0.62984,1.6847 -0.72993,1.6847 -0.10005,0 -0.0901,-0.2394 0.0224,-0.532 0.11229,-0.2926 0.0381,-0.532 -0.16478,-0.532 -0.20288,0 -0.31758,0.4389 -0.25488,0.9753 0.0979,0.8374 -0.004,0.9627 -0.71234,0.8859 -0.75717,-0.082 -0.80531,0.01 -0.57455,1.057 0.21873,0.9959 0.18153,1.0883 -0.283,0.7028 -0.44193,-0.3668 -0.56561,-0.3262 -0.71202,0.2337 -0.0975,0.3727 -0.0396,0.8948 0.1286,1.1602 0.61321,0.9678 0.28318,2.0826 -1.30214,4.3982 -0.89032,1.3004 -1.76875,2.7591 -1.95209,3.2413 -0.33425,0.8791 -2.57161,3.7602 -4.23212,5.4498 -1.11519,1.1347 -2.52466,3.0592 -3.17061,4.3293 -0.27285,0.5364 -0.6287,0.9753 -0.79082,0.9753 -0.16209,0 -0.29475,0.2147 -0.29475,0.4771 0,0.576 -1.21357,1.738 -1.50782,1.4437 -0.11492,-0.1149 -0.49691,0.244 -0.84892,0.7973 -0.35203,0.5534 -0.97949,1.3254 -1.3944,1.7155 -0.41487,0.3902 -0.8567,0.9988 -0.98186,1.3525 -0.12513,0.3538 -0.39221,0.5414 -0.59349,0.417 -0.20129,-0.1243 -0.34312,-0.095 -0.31521,0.066 0.1352,0.7782 -0.20532,1.2819 -2.42729,3.5909 -2.06371,2.1445 -2.50266,2.4455 -3.18085,2.1817 -0.91465,-0.3559 -1.46913,0.2105 -0.82832,0.8463 0.31698,0.3145 0.35922,0.264 0.17787,-0.2123 -0.18078,-0.4749 -0.10073,-0.5721 0.33368,-0.4054 0.70369,0.27 0.7414,0.8098 0.0744,1.0658 -0.27338,0.1049 -0.57763,0.4989 -0.67612,0.8755 -0.22353,0.8547 -0.9509,0.903 -0.96615,0.064 -0.0106,-0.5883 -0.0356,-0.5886 -0.47843,-0.01 -0.25694,0.3384 -0.54831,0.534 -0.64755,0.4348 -0.0992,-0.099 -0.40263,0.093 -0.67428,0.4266 -0.51791,0.6365 -0.50269,0.6351 1.36819,-0.1298 0.71865,-0.2938 0.50971,0.3494 -0.48418,1.4908 -0.50964,0.5852 -1.16623,1.4231 -1.45909,1.8621 -0.5428,0.8136 -1.1602,1.063 -1.1602,0.4686 0,-0.1811 0.25079,-0.5801 0.55735,-0.8867 0.32921,-0.3293 0.39139,-0.5573 0.15188,-0.5573 -0.22296,0 -0.64922,0.2438 -0.94725,0.5419 -0.43236,0.4323 -0.45431,0.6474 -0.10861,1.064 0.49074,0.5913 0.37993,0.7785 -1.93077,3.2625 -1.10455,1.1873 -1.49622,1.4145 -1.88404,1.0926 -0.26927,-0.2234 -0.44774,-0.2596 -0.39663,-0.08 0.61682,2.164 -12.64949,13.2719 -15.85093,13.2719 -0.31624,0 -1.87876,0.9412 -3.47227,2.0916 -1.59351,1.1504 -4.69779,2.9897 -6.89839,4.0872 -2.20061,1.0978 -4.75431,2.5288 -5.6749,3.1802 -2.85745,2.0219 -8.63398,5.0352 -12.87047,6.7138 -2.23003,0.8837 -5.33146,2.3307 -6.89206,3.2156 -4.35413,2.4692 -11.67251,5.0575 -16.67001,5.8959 -2.3409,0.3927 -5.93203,1.1088 -7.98032,1.5914 -6.22199,1.4658 -8.83962,1.9534 -10.48628,1.9534 -0.86508,0 -1.57287,0.1415 -1.57287,0.3145 0,0.1729 -0.47883,0.3847 -1.06405,0.4706 -0.58523,0.086 -1.0641,0.064 -1.06417,-0.048 -6e-5,-0.1125 -0.55868,-0.2351 -1.24138,-0.2725 -0.68269,-0.037 -1.24126,0.075 -1.24126,0.2493 0,0.8635 -3.44213,1.0967 -4.46615,0.3025 -0.21302,-0.1652 -0.49348,-0.1942 -0.62326,-0.064 -0.12976,0.1298 -0.6338,0.2534 -1.12007,0.2746 -0.63689,0.028 -0.88414,-0.1442 -0.88414,-0.6156 0,-0.589 -0.29324,-0.6473 -2.93606,-0.5837 -3.89957,0.094 -6.73219,0.4996 -8.03922,1.1516 -0.58829,0.2935 -2.629,0.8773 -4.53489,1.2975 -1.9059,0.4202 -3.70468,0.8559 -3.99729,0.9684 -0.2926,0.1124 -0.9716,0.1693 -1.50887,0.1265 -0.73174,-0.058 -1.05985,0.1293 -1.30758,0.7472 -0.18189,0.4537 -0.34083,0.6254 -0.3532,0.3815 -0.0124,-0.2438 -0.17708,-0.4433 -0.36603,-0.4433 -0.18895,0 -0.25098,0.2412 -0.13785,0.536 0.14427,0.376 0.0428,0.4735 -0.33993,0.3267 -0.42194,-0.1619 -0.49864,-0.03 -0.3383,0.5836 0.14529,0.5555 0.0818,0.7152 -0.21201,0.5336 -0.23064,-0.1425 -0.39648,-0.1276 -0.36855,0.033 0.16164,0.9305 -0.0807,1.4933 -0.5632,1.3081 -0.29148,-0.1118 -0.44168,-0.3462 -0.33375,-0.5208 0.10794,-0.1747 0.0165,-0.3176 -0.20328,-0.3176 -0.23769,0 -0.3086,0.2865 -0.17508,0.7072 0.17229,0.5428 0.0954,0.6576 -0.33077,0.494 -0.30537,-0.1171 -0.55521,-0.048 -0.55521,0.1543 0,0.8036 -1.12339,1.4817 -2.15394,1.3001 -0.571,-0.1006 -1.0382,-0.048 -1.0382,0.1177 0,0.3144 -0.48076,0.4086 -2.38407,0.4676 -1.05238,0.033 -1.11086,0.095 -0.73996,0.7913 0.36309,0.6816 0.34466,0.7081 -0.18737,0.2692 -0.50015,-0.4126 -0.59092,-0.4126 -0.59552,0 -0.004,0.3722 -0.0711,0.3835 -0.28415,0.048 -0.20066,-0.3159 -0.59641,-0.3477 -1.41329,-0.1134 -0.88289,0.2532 -1.13458,0.2175 -1.13458,-0.161 0,-0.2674 -0.18427,-0.6002 -0.40948,-0.7394 -0.23457,-0.1449 -0.3139,-0.098 -0.1857,0.109 0.12307,0.1992 -0.0647,0.6232 -0.41733,0.9423 -0.70169,0.635 -1.17848,0.4459 -0.87431,-0.3467 0.13323,-0.3472 0.0172,-0.4342 -0.37708,-0.2829 -0.31321,0.1202 -0.48117,0.3614 -0.37324,0.5361 0.10793,0.1746 0.0272,0.3175 -0.17938,0.3175 -0.47045,0 -0.47217,-0.2209 -0.008,-1.0874 0.39157,-0.7316 0.12319,-0.8734 -0.68485,-0.3617 -0.29173,0.1847 -0.3985,0.565 -0.25996,0.926 0.21822,0.5687 0.16475,0.5668 -0.74636,-0.026 -0.78843,-0.5131 -0.88973,-0.5267 -0.51515,-0.069 0.39539,0.4827 0.35851,0.6269 -0.24271,0.9486 -1.08456,0.5804 -2.09838,0.4553 -2.91322,-0.3595 -0.4064,-0.4064 -0.84069,-0.6371 -0.96509,-0.5127 -0.1244,0.1244 0.007,0.3704 0.2926,0.5468 0.38531,0.2381 0.41578,0.4236 0.11843,0.721 -0.28616,0.2861 -0.46833,0.2903 -0.63867,0.015 z m -9.95016,-1.8043 c 0.12056,-0.1951 0.0502,-0.3547 -0.15641,-0.3547 -0.20659,0 -0.37561,0.1596 -0.37561,0.3547 0,0.1951 0.0704,0.3547 0.1564,0.3547 0.086,0 0.25505,-0.1596 0.37562,-0.3547 z m 21.64756,-0.2124 c -0.29315,-0.2144 -0.44507,-0.4777 -0.33759,-0.5852 0.10749,-0.1075 7.1e-4,-0.3159 -0.23765,-0.4631 -0.26691,-0.1649 -0.34179,-0.1199 -0.19516,0.1173 0.13087,0.2118 0.0757,0.4853 -0.12254,0.6078 -0.63089,0.3899 -0.38952,0.7129 0.53275,0.7129 0.73597,0 0.79937,-0.069 0.36019,-0.3897 z m -38.22751,-1.7923 c 0.16417,0.1015 0.50386,0.058 0.75489,-0.098 0.33225,-0.2053 0.25359,-0.3351 -0.28919,-0.477 -0.42295,-0.1106 -0.9731,0.033 -1.27136,0.3308 -0.48042,0.4804 -0.67698,0.3686 -0.56779,-0.3229 0.0231,-0.1463 -0.2722,-0.266 -0.65622,-0.266 -0.47375,0 -0.63285,0.1703 -0.49487,0.53 0.11186,0.2914 0.33524,0.4484 0.49639,0.3488 0.16116,-0.1 0.39805,-0.011 0.52643,0.1966 0.16321,0.2641 0.37928,0.2567 0.71834,-0.025 0.2667,-0.2214 0.61922,-0.3194 0.78338,-0.218 z m 45.48645,-1.0101 c 0,-0.2926 -0.1546,-0.532 -0.34355,-0.532 -0.18895,0 -0.25167,0.2394 -0.13939,0.532 0.11229,0.2926 0.26688,0.532 0.34355,0.532 0.0767,0 0.13939,-0.2394 0.13939,-0.532 z m -52.16924,-2.9149 c 0.49561,-0.3802 0.47099,-0.4334 -0.20533,-0.4433 -0.82675,-0.012 -1.19364,0.5622 -0.88759,1.3894 0.16611,0.4492 0.21169,0.4492 0.35998,0 0.0934,-0.2827 0.42321,-0.7085 0.73294,-0.9461 z m 4.64199,1.1625 c 0,-0.086 -0.15961,-0.2552 -0.35469,-0.3757 -0.19508,-0.1206 -0.35468,-0.05 -0.35468,0.1564 0,0.2066 0.1596,0.3757 0.35468,0.3757 0.19508,0 0.35469,-0.07 0.35469,-0.1564 z m -6.69461,-1.2624 c 0.0244,-0.1951 0.0643,-0.501 0.0887,-0.6799 0.0244,-0.1787 0.16265,-0.4434 0.30726,-0.588 0.14462,-0.1446 0.0852,-0.4771 -0.13209,-0.7389 -0.44701,-0.5386 -1.5859,-0.6364 -1.87949,-0.1614 -0.10696,0.1731 0.0831,0.2928 0.42242,0.2661 0.47898,-0.038 0.60518,0.209 0.56457,1.104 -0.0288,0.634 0.0909,1.1527 0.26601,1.1527 0.17508,0 0.33827,-0.1596 0.36265,-0.3546 z m -1.2059,-0.7094 c 0.0294,-0.3901 -0.0962,-0.7094 -0.2792,-0.7094 -0.38161,0 -0.44908,0.8294 -0.0962,1.1823 0.32108,0.3211 0.31499,0.3288 0.37538,-0.4729 z m -4.15865,-2.4828 c 0,-0.195 -0.0704,-0.3546 -0.15641,-0.3546 -0.086,0 -0.25505,0.1596 -0.37562,0.3546 -0.12056,0.1951 -0.0502,0.3547 0.15642,0.3547 0.20658,0 0.37561,-0.1596 0.37561,-0.3547 z m -11.22075,-4.0767 c -0.11186,-0.2915 -0.33523,-0.4485 -0.49639,-0.3489 -0.16115,0.1 -0.39998,0.01 -0.53073,-0.2036 -0.13075,-0.2115 -0.48813,-0.2885 -0.79419,-0.1711 -0.30605,0.1175 -0.68024,0.013 -0.83153,-0.2315 -0.15129,-0.2448 -0.39885,-0.3213 -0.55011,-0.1701 -0.40035,0.4003 0.66105,0.963 1.38916,0.7365 0.34139,-0.1062 0.6207,-0.034 0.6207,0.1594 0,0.1939 0.27931,0.4255 0.62069,0.5148 0.34138,0.089 0.65559,0.1807 0.69824,0.2033 0.0426,0.023 -0.014,-0.1973 -0.12584,-0.4888 z m 70.18647,-17.4407 c 0.14631,-0.088 0.26601,-0.5644 0.26601,-1.0589 0,-0.6039 -0.23536,-0.9606 -0.71683,-1.0865 -0.54574,-0.1427 -0.62453,-0.2987 -0.33008,-0.6535 0.40939,-0.4933 -0.0866,-1.8461 -0.86826,-2.368 -0.24077,-0.1607 -0.15249,-0.2626 0.23044,-0.266 0.79557,-0.01 0.78089,-0.2029 -0.10881,-1.4524 -0.45898,-0.6446 -1.01796,-1.0059 -1.50739,-0.9745 -1.26173,0.081 -4.50941,-1.0467 -5.75916,-1.9999 -0.63713,-0.486 -1.51267,-1.4568 -1.94564,-2.1573 l -0.78722,-1.2738 -0.97941,1.7149 c -1.2775,2.2368 -3.70331,4.9125 -6.54124,7.215 -2.19004,1.7769 -2.25902,1.881 -1.75506,2.6502 0.49822,0.7604 2.97762,1.4269 7.76812,2.088 1.28711,0.1777 12.65887,-0.1515 13.03453,-0.3773 z m -35.34629,-11.4793 c 1.15222,-0.3964 2.17475,-0.7347 2.27229,-0.7518 0.75443,-0.1322 1.71415,-0.7126 2.34132,-1.4159 0.96333,-1.0801 1.4475,-1.9138 0.9234,-1.5899 -0.21543,0.1332 -0.56491,-0.082 -0.77664,-0.4773 -0.21173,-0.3956 -0.65865,-0.7142 -0.99317,-0.708 -0.87392,0.016 -1.8496,0.8495 -1.8496,1.5797 0,0.502 -0.20434,0.585 -1.03196,0.4195 -1.1159,-0.2232 -1.63997,0.3787 -1.47193,1.6905 0.0796,0.6216 0.0212,0.6383 -0.62104,0.1774 -1.98105,-1.4218 -4.30203,-3.4634 -5.09727,-4.4836 l -0.8922,-1.1447 -1.83716,1.1583 -1.83715,1.1584 0.81011,0.7611 c 0.44555,0.4186 1.76685,1.2684 2.93621,1.8884 1.16937,0.62 2.52513,1.4218 3.01281,1.7818 1.13354,0.8366 1.56621,0.832 4.11198,-0.044 z m 55.47444,-2.083 c 1.70175,-1.1693 2.12809,-1.768 2.12809,-2.9878 l 0,-1.0451 -2.03942,0.2344 c -1.12168,0.129 -2.87633,0.641 -3.8992,1.1379 -2.53344,1.2308 -3.37821,1.064 -3.76128,-0.7426 -0.16546,-0.7803 -0.44477,-1.6958 -0.62068,-2.0345 -0.17593,-0.3388 -0.31986,-0.7856 -0.31986,-0.993 0,-0.2074 -0.56445,-0.9583 -1.25434,-1.6686 -0.68988,-0.7104 -1.2066,-1.5394 -1.14826,-1.8424 0.0583,-0.3029 0.8724,-1.0522 1.80902,-1.6651 0.93662,-0.6128 2.05186,-1.4328 2.47832,-1.8221 0.42645,-0.3893 1.2542,-0.7877 1.83942,-0.8855 1.22169,-0.2039 5.28128,-1.149 7.62564,-1.7751 0.87783,-0.2345 2.57379,-0.4287 3.7688,-0.4316 1.84104,0 2.59711,0.2113 4.95243,1.4135 4.58835,2.3419 6.37171,5.6318 6.77711,12.5025 0.24884,4.2174 0.15062,4.1469 4.08523,2.9316 2.19531,-0.678 2.49591,-0.9242 8.19502,-6.7111 3.25386,-3.304 5.91611,-6.2075 5.91611,-6.4524 0,-0.2449 0.56194,-1.2611 1.24875,-2.2584 1.21717,-1.7673 1.23652,-1.8485 0.7652,-3.2099 -0.32133,-0.9281 -0.74732,-1.4589 -1.26969,-1.5822 -0.43237,-0.1021 -0.77671,-0.3054 -0.7652,-0.4517 0.13412,-1.7043 0.0801,-1.7496 -1.07166,-0.8981 -1.13901,0.8421 -1.1775,1.1521 -0.48645,3.918 0.19521,0.7813 0.13786,0.9394 -0.28226,0.7782 -0.38718,-0.1486 -0.62946,0.2034 -0.91205,1.325 -0.47627,1.8903 -3.12877,7.3795 -3.56592,7.3795 -0.1764,0 -0.42126,-0.536 -0.54414,-1.191 -0.19911,-1.0613 -0.32883,-1.1735 -1.19219,-1.0316 -0.53281,0.088 -1.52738,0.4117 -2.21014,0.7203 -2.73342,1.2357 -5.63916,1.1529 -7.28069,-0.2073 -0.9663,-0.8007 -2.29314,-3.0039 -2.30648,-3.8298 -0.0102,-0.6284 -0.0322,-0.6307 -0.37649,-0.039 -0.55462,0.9526 -1.03145,0.3865 -1.03145,-1.2246 0,-1.1869 -0.0866,-1.3694 -0.49061,-1.0341 -0.7243,0.6012 -0.96705,-0.3269 -0.51437,-1.9664 0.20414,-0.7393 0.29807,-2.105 0.20873,-3.0348 -0.19334,-2.0122 0.0293,-2.3655 0.82541,-1.31 0.58227,0.7719 0.59614,0.7591 1.34364,-1.2387 0.4154,-1.1103 0.75528,-2.1652 0.75528,-2.3442 0,-1.1023 2.60377,-4.507 4.76232,-6.2271 1.33416,-1.0632 2.54197,-1.9332 2.68403,-1.9332 0.14204,0 0.17876,0.4159 0.0816,0.9243 -0.17391,0.9097 -0.14855,0.9222 1.62058,0.798 1.69274,-0.1189 1.76455,-0.09 1.23492,0.4945 -0.90597,1 -0.12451,0.7212 2.183,-0.7787 4.44693,-2.8906 8.78393,-2.8622 14.62139,0.096 3.35983,1.7025 5.25615,5.5738 3.69963,7.5526 -0.93169,1.1845 -0.92933,1.8774 0.0126,3.6845 0.8768,1.6821 0.81111,4.8777 -0.12196,5.9329 -0.30456,0.3444 -0.82669,1.5838 -1.1603,2.7543 -0.82043,2.8783 -1.77683,5.8886 -2.12278,6.6815 -0.25242,0.5785 -0.089,0.554 1.4502,-0.217 0.95408,-0.4779 2.61253,-1.1529 3.68544,-1.5001 2.19715,-0.7109 7.20177,-3.2084 11.70448,-5.8412 1.65813,-0.9695 3.81281,-2.0276 4.78819,-2.3515 0.97537,-0.3238 2.17242,-0.7893 2.66011,-1.0345 0.48768,-0.2452 1.91553,-0.636 3.17299,-0.8686 2.56943,-0.4751 4.15794,-1.1981 6.43863,-2.9303 1.32722,-1.0081 1.70192,-1.1353 2.50355,-0.8498 0.87621,0.3121 1.25079,0.05 5.30961,-3.7114 12.30361,-11.4028 16.14636,-15.5793 25.09846,-27.2787 7.18154,-9.3856 11.03345,-14.8448 11.03384,-15.6381 1.5e-4,-0.2749 0.80286,-1.849 1.78376,-3.498 0.98095,-1.6489 1.70269,-3.2086 1.60388,-3.4661 -0.36813,-0.9593 -1.35432,-0.9499 -2.12788,0.02 -0.41504,0.5205 -1.0151,0.9464 -1.33342,0.9464 -0.31833,0 -1.42958,0.763 -2.46944,1.6956 -1.03985,0.9326 -3.69218,3.2591 -5.89405,5.1699 -2.20186,1.9108 -5.628,5.1777 -7.61369,7.26 -14.84456,15.5664 -25.02098,24.3636 -32.18603,27.8237 -2.78214,1.3435 -8.52113,2.7406 -11.25808,2.7406 -1.73744,0 -2.61608,0.1871 -3.52908,0.7514 -0.94826,0.586 -1.53081,0.7009 -2.64844,0.5222 -1.44672,-0.2314 -2.42654,-0.887 -2.42654,-1.6239 0,-0.2226 0.19726,-0.2856 0.44336,-0.1417 0.24384,0.1426 0.1595,-0.065 -0.18742,-0.4615 -0.72537,-0.8288 -0.45122,-1.994 0.71651,-3.0456 0.64713,-0.5827 0.75211,-2.3852 0.13892,-2.3852 -0.20939,0 -0.25861,-0.6697 -0.37142,-5.0541 -0.0238,-0.9266 -0.18147,-1.6847 -0.35028,-1.6847 -0.31865,0 -0.45112,-0.2865 -1.23036,-2.6602 -0.42419,-1.2922 -0.57524,-1.4188 -1.69319,-1.4188 -0.83831,0 -1.61511,-0.3269 -2.45024,-1.0311 -0.67254,-0.5672 -2.10063,-1.4169 -3.17355,-1.8883 -1.0729,-0.4713 -2.74877,-1.2373 -3.72414,-1.7022 -1.54617,-0.7369 -2.18243,-0.8295 -4.96554,-0.723 -1.84056,0.071 -3.86791,0.3766 -4.78819,0.7228 -4.18437,1.5746 -7.64145,2.6711 -8.42077,2.6711 -2.13152,0 -13.26529,4.8891 -18.2239,8.0027 -2.1316,1.3384 -6.29282,4.4799 -7.58205,5.7241 -0.58523,0.5648 -1.94924,1.6218 -3.03114,2.3489 -2.825,1.8985 -9.42243,9.0702 -9.73169,10.5786 -0.13398,0.6535 -0.7031,2.7044 -1.26472,4.5576 -1.41816,4.6797 -1.99307,7.6982 -1.8309,9.6129 0.13475,1.591 0.18481,1.6522 1.96877,2.4036 1.00679,0.4241 3.20738,1.9239 4.89021,3.333 l 3.05969,2.562 2.96989,0 c 2.55606,0 3.14286,-0.1189 4.21127,-0.8531 z m 86.18749,-28.5854 c 0.66177,-0.6829 1.283,-1.2415 1.38054,-1.2415 0.0975,0 -0.3641,0.5586 -1.02585,1.2415 -0.66176,0.6827 -1.283,1.2413 -1.38053,1.2413 -0.0975,0 0.36409,-0.5586 1.02584,-1.2413 z m -164.41706,25.6307 c 0.83459,-6.2914 8.68849,-14.2527 15.28155,-15.4904 2.76818,-0.5197 6.79711,0.4921 8.56206,2.1502 0.42713,0.4012 0.94112,0.6279 1.14219,0.5036 0.45469,-0.281 3.46384,4.7817 3.99027,6.7133 0.38383,1.4084 0.25584,5.0242 -0.226,6.3842 -0.13823,0.3901 0.057,0.2305 0.43385,-0.3547 0.6687,-1.0384 2.25183,-5.5879 2.74614,-7.8916 0.13604,-0.634 0.39426,-1.1527 0.57384,-1.1527 0.63048,0 0.18829,-4.2264 -0.83494,-7.9804 -0.59292,-2.1752 -2.83475,-6.4914 -4.652,-8.9566 -0.89917,-1.2198 -1.63487,-2.374 -1.63487,-2.5648 0,-0.1909 -1.03744,-1.4468 -2.30543,-2.7909 -1.26798,-1.3441 -2.31222,-2.5841 -2.32054,-2.7554 -0.0182,-0.3743 -4.32152,-3.3957 -7.16634,-5.0316 -1.12213,-0.6454 -2.04025,-1.3078 -2.04025,-1.4721 0,-0.1643 -0.83793,-0.4936 -1.86207,-0.7318 -1.79957,-0.4184 -2.8808,-0.8018 -10.90644,-3.8677 -2.04829,-0.7824 -4.60199,-1.6048 -5.67491,-1.8276 -1.0729,-0.2227 -2.26995,-0.537 -2.6601,-0.6984 -0.39015,-0.1614 -1.74681,-0.3831 -3.01479,-0.4926 -1.26799,-0.1095 -3.44325,-0.2988 -4.83392,-0.4206 -1.51799,-0.133 -3.50246,-0.042 -4.96554,0.2275 -3.42265,0.6306 -4.37087,0.7696 -5.94525,0.871 -0.84719,0.055 -1.82256,0.442 -2.52583,1.0031 -0.71547,0.5709 -1.41239,0.8444 -1.85594,0.7285 -0.61792,-0.1616 -0.74033,0.037 -0.94155,1.5286 -0.12721,0.9429 -0.48475,3.1872 -0.79454,4.9873 -0.63281,3.6771 -0.54689,4.3505 0.8077,6.3295 1.14269,1.6694 1.4146,3.8419 0.41383,3.3063 -0.71382,-0.3821 -2.33585,-0.081 -3.12259,0.5789 -1.28883,1.0817 -7.2081,0.9591 -12.112,-0.2507 -1.2857,-0.3171 -1.88948,-0.3071 -2.74106,0.046 -0.96366,0.3992 -1.26829,0.3606 -2.58918,-0.3279 -0.82335,-0.4291 -2.35179,-1.6042 -3.39653,-2.6112 -1.61143,-1.5533 -2.1236,-1.8415 -3.37699,-1.9006 -2.19464,-0.1034 -6.11452,-1.1348 -9.14332,-2.4058 -5.02956,-2.1106 -12.45497,-7.4821 -15.35697,-11.109 -0.94644,-1.1829 -1.9541,-2.2402 -2.23923,-2.3496 -0.28514,-0.1094 -0.42937,-0.3431 -0.32051,-0.5192 0.10886,-0.1761 -0.11514,-0.696 -0.49775,-1.1552 -0.54737,-0.657 -0.69817,-0.7108 -0.70745,-0.2522 -0.006,0.3205 0.25045,0.6833 0.57098,0.8063 0.32053,0.123 0.48303,0.3234 0.3611,0.4453 -0.12192,0.122 -0.82309,-0.1765 -1.55816,-0.6631 -2.61596,-1.7321 -4.9498,-3.1221 -5.24217,-3.1221 -0.16323,0 0.0901,0.4274 0.56308,0.9497 l 0.85985,0.9498 -1.06404,-0.7734 c -0.58523,-0.4253 -1.62267,-1.2063 -2.30543,-1.7355 -1.63149,-1.2646 -1.62651,-1.2588 3.72416,4.3018 10.52944,10.9425 12.03805,12.3559 16.13386,15.1153 1.26573,0.8528 2.9416,2.128 3.72416,2.834 2.20892,1.9927 3.90505,3.1289 7.27507,4.8733 1.07291,0.5554 3.871,2.298 6.21799,3.8725 5.13187,3.4426 8.12502,5.0806 9.28389,5.0806 1.06825,0 2.19662,0.5869 2.97386,1.5467 0.51909,0.6411 0.71247,0.6791 1.53877,0.3026 0.51977,-0.2368 1.15797,-0.4306 1.4182,-0.4306 0.6519,0 5.45341,3.611 9.65511,7.2611 2.25719,1.9609 4.6233,3.6199 6.68571,4.6879 1.75567,0.9091 3.95729,2.1038 4.89248,2.6549 0.93518,0.5512 1.78124,1.0021 1.88012,1.0021 0.0989,0 -0.22256,-0.5275 -0.71433,-1.1723 -1.37078,-1.7971 -2.22639,-4.0216 -2.86653,-7.4525 -0.60789,-3.2582 -0.54313,-4.7169 0.36404,-8.1997 0.89809,-3.448 2.13372,-5.2551 4.65559,-6.8088 1.22458,-0.7545 2.23218,-1.5188 2.23912,-1.6985 0.007,-0.1797 0.28484,-0.6275 0.61755,-0.9952 0.49387,-0.5457 0.52643,-0.7942 0.17734,-1.3531 -0.73687,-1.18 -0.47852,-1.7429 1.16672,-2.5422 0.87689,-0.426 1.68567,-1.0624 1.79731,-1.4141 0.2214,-0.6975 1.08218,-0.7906 3.82982,-0.414 0.90507,0.1241 1.65139,0.4034 1.65849,0.6207 0.007,0.2173 0.60565,0.8437 1.33006,1.3918 0.72443,0.5482 2.21586,1.8643 3.31431,2.9246 1.98637,1.9174 1.99997,1.9236 2.5152,1.1477 l 0.51802,-0.7802 0.88853,0.8885 c 0.48869,0.4887 1.05907,0.8317 1.26753,0.7622 0.60066,-0.2002 0.92562,1.4165 1.55158,7.719 0.64177,6.4616 0.72944,8.7454 0.31304,8.1544 -0.32611,-0.4628 -0.44192,-0.4442 -0.8904,0.1432 -0.44837,0.5872 -0.54339,0.6024 -0.72952,0.1174 -0.16919,-0.4409 -0.46836,-0.2762 -1.42849,0.7866 -1.37394,1.5208 -1.48018,1.9606 -0.59378,2.4582 0.59114,0.3318 0.59114,0.3598 0,0.5876 -0.34138,0.1315 -0.62069,0.4574 -0.62069,0.7243 0,0.3503 -0.32057,0.4319 -1.15272,0.2936 -5.37291,-0.8933 -8.62631,-2.3672 -9.77261,-4.4274 -0.33099,-0.5948 -0.90745,-1.5905 -1.281,-2.2126 l -0.67919,-1.131 -0.32816,1.2413 c -0.18048,0.6829 -0.46414,1.4064 -0.63034,1.6078 -0.1662,0.2015 -0.46184,0.7862 -0.65695,1.2994 -0.28569,0.7514 -0.22133,1.0869 0.33063,1.7233 0.37696,0.4346 0.88195,1.7419 1.12221,2.9051 0.39081,1.8921 0.59705,2.2252 1.95727,3.161 0.83623,0.5754 1.65224,0.9646 1.81333,0.8651 0.1611,-0.1 0.91789,0.126 1.68175,0.5013 1.05804,0.5198 6.11611,2.0608 7.99343,2.4351 0.12117,0.024 0.33117,-0.7918 0.46665,-1.8131 z m 189.24475,-9.4928 c 0,-0.195 -0.0704,-0.3546 -0.15643,-0.3546 -0.086,0 -0.25505,0.1596 -0.3756,0.3546 -0.12056,0.1951 -0.0502,0.3547 0.15641,0.3547 0.20657,0 0.37562,-0.1596 0.37562,-0.3547 z m 8.335,-9.5764 c 0.12056,-0.1951 0.0596,-0.3547 -0.13549,-0.3547 -0.19508,0 -0.45332,0.1596 -0.57388,0.3547 -0.12055,0.1951 -0.0596,0.3547 0.13549,0.3547 0.19507,0 0.45332,-0.1596 0.57388,-0.3547 z m 8.47035,-9.0628 c 0.12112,-0.3156 0.0616,-0.458 -0.13942,-0.3337 -0.19284,0.1191 -0.35061,0.3668 -0.35061,0.5504 0,0.5102 0.25424,0.3978 0.49003,-0.2167 z m -2.97279,-3.5408 c 0,-0.7351 -0.18725,-0.6506 -0.8711,0.3931 -0.58423,0.8916 -0.58107,0.9036 0.13655,0.5195 0.40398,-0.2162 0.73455,-0.6269 0.73455,-0.9126 z m -3.9015,-3.0023 c 0,-0.1951 -0.0704,-0.3547 -0.15641,-0.3547 -0.086,0 -0.25506,0.1596 -0.37561,0.3547 -0.12056,0.195 -0.0502,0.3546 0.15641,0.3546 0.20657,0 0.37561,-0.1596 0.37561,-0.3546 z m 1.97866,-5.5948 c -0.61072,-0.5849 -0.61828,-0.5773 -0.16964,0.1697 0.25824,0.4302 0.54588,0.7056 0.63921,0.6124 0.0933,-0.093 -0.11801,-0.4453 -0.46957,-0.7821 z m 0.85879,-0.5912 c 0,-0.086 -0.1596,-0.2551 -0.35468,-0.3757 -0.19508,-0.1205 -0.35469,-0.05 -0.35469,0.1564 0,0.2066 0.15961,0.3756 0.35469,0.3756 0.19508,0 0.35468,-0.07 0.35468,-0.1563 z m 1.7734,-1.2624 c 0,-0.1951 -0.24884,-0.3547 -0.55294,-0.3547 -0.30414,0 -0.45432,0.1596 -0.33376,0.3547 0.12056,0.1951 0.3694,0.3547 0.55295,0.3547 0.18358,0 0.33375,-0.1596 0.33375,-0.3547 z m 1.34648,-1.7572 c -0.2381,-0.3813 -0.50162,-0.6245 -0.58554,-0.5406 -0.15201,0.152 0.62094,1.2338 0.88155,1.2338 0.0753,0 -0.0579,-0.312 -0.29601,-0.6932 z m -348.43738,-37.8838 c -0.21459,-0.1433 -0.48129,-0.5 -0.59269,-0.7926 -0.13533,-0.3555 -0.21181,-0.2672 -0.23052,0.266 -0.0188,0.5361 0.17568,0.7962 0.59269,0.7926 0.38285,0 0.47119,-0.1053 0.23052,-0.266 z m -1.66946,-8.1454 c -0.0899,-0.3451 -0.16942,-0.1487 -0.17664,0.4366 -0.007,0.5852 0.0663,0.8675 0.1635,0.6274 0.0971,-0.2401 0.10307,-0.7189 0.0132,-1.064 z m 243.98017,-75.35006 c 0.34255,-0.75965 1.00026,-1.78846 1.4616,-2.28624 0.46133,-0.49779 1.06273,-1.40997 1.33645,-2.02709 l 0.49766,-1.12202 -0.19002,1.41873 c -0.21607,1.61323 -0.69058,2.64273 -1.50695,3.26951 -0.42881,0.32923 -0.44738,0.43475 -0.078,0.44335 0.30291,0.007 0.41739,0.26875 0.30522,0.69771 -0.0987,0.37753 2.01142,-1.50792 4.68923,-4.18991 3.643,-3.64867 4.92693,-5.16723 5.09983,-6.03177 0.18096,-0.90479 0.36925,-1.11156 0.86804,-0.95326 0.73871,0.23446 3.54133,-2.484 5.36929,-5.20807 0.6225,-0.92768 2.17014,-2.90845 3.43918,-4.40173 1.26905,-1.49327 2.54173,-3.16827 2.82818,-3.7222 0.28645,-0.55393 0.66558,-1.00716 0.84249,-1.00716 0.17692,0 0.41183,-0.28408 0.52204,-0.63128 0.1102,-0.34722 0.73782,-1.46551 1.39471,-2.48511 1.6691,-2.59071 4.07894,-8.81412 4.8944,-12.63975 0.51393,-2.41103 0.76702,-5.66816 1.00811,-12.97302 0.65125,-19.73432 0.42205,-25.30307 -1.27949,-31.08651 -0.46755,-1.58916 -0.85008,-3.14931 -0.85008,-3.467 0,-1.35019 -2.70273,-5.795 -5.3425,-8.78607 -1.54834,-1.7544 -2.81686,-3.37443 -2.81895,-3.60008 -0.004,-0.47675 -2.11818,-2.76573 -5.14401,-5.57033 -2.12263,-1.96744 -5.89176,-6.31413 -6.86267,-7.91427 -0.28315,-0.46665 -1.00845,-1.13385 -1.6118,-1.48266 -0.60335,-0.34881 -1.84563,-1.25315 -2.76062,-2.00965 -1.10355,-0.91239 -2.71557,-1.72981 -4.78819,-2.42798 -1.71852,-0.57889 -4.08221,-1.51168 -5.25266,-2.07289 -1.17045,-0.5612 -3.26978,-1.36174 -4.66518,-1.77897 -1.39541,-0.41722 -2.62404,-0.98517 -2.73031,-1.26209 -0.22346,-0.58234 -3.41622,-2.13748 -5.10701,-2.48755 -0.634,-0.13126 -1.15272,-0.38558 -1.15272,-0.56516 0,-0.17957 -0.30781,-0.32649 -0.68403,-0.32649 -0.37622,0 -0.92343,-0.23942 -1.21605,-0.53203 -0.29261,-0.29261 -1.06214,-0.53205 -1.71007,-0.53209 -0.64792,-4e-5 -3.17313,-0.3397 -5.61156,-0.75482 -2.43843,-0.4151 -4.71282,-0.73143 -5.05421,-0.70295 -2.30567,0.19236 -4.24933,-0.0123 -4.63785,-0.4885 -0.19441,-0.23826 -0.34932,-0.22258 -0.46035,0.0466 -0.18778,0.45525 -1.55206,0.21816 -1.55206,-0.26973 0,-0.17232 0.28398,-0.31331 0.63106,-0.31331 0.34708,0 0.85498,-0.31066 1.12865,-0.69036 0.27367,-0.37971 0.62812,-0.60969 0.78766,-0.51109 0.15955,0.0986 0.29008,-0.007 0.29008,-0.23429 0,-0.22804 0.24692,-0.3188 0.55044,-0.20233 0.35399,0.13584 0.46176,0.0677 0.30196,-0.19082 -0.1692,-0.27378 0.0409,-0.34673 0.65857,-0.22865 0.63106,0.12064 0.85512,0.0381 0.73642,-0.27122 -0.0938,-0.24453 0.12024,-0.53179 0.47574,-0.63835 1.25156,-0.37517 7.07071,-1.26082 10.5774,-1.60983 3.84868,-0.38306 4.60498,-0.34501 9.93108,0.49962 1.95074,0.30935 4.34484,0.64996 5.32021,0.75691 l 1.77341,0.19446 -1.16463,-0.74449 c -1.81948,-1.16309 -6.54397,-3.47725 -9.48049,-4.64376 -1.46867,-0.58342 -3.82411,-1.64178 -5.2343,-2.35192 -3.12603,-1.57417 -10.23116,-6.1753 -12.05274,-7.8051 -0.73209,-0.655 -1.57003,-1.19091 -1.86207,-1.19091 -0.29205,0 -0.531,-0.15962 -0.531,-0.35469 0,-0.51986 -4.09475,-0.43437 -7.32046,0.15285 -5.17245,0.94161 -7.40811,1.16464 -14.01125,1.39775 -3.93833,0.13904 -4.23415,0.20387 -6.38427,1.39918 -1.24001,0.68938 -4.24966,2.04675 -6.68808,3.0164 -7.32299,2.91199 -11.32944,4.79154 -15.2513,7.15489 -5.53173,3.33345 -8.52193,5.37456 -8.3296,5.68576 0.0941,0.15227 -0.33341,0.45272 -0.95003,0.66767 -0.61663,0.21497 -1.02445,0.48753 -0.90627,0.60571 0.21595,0.21595 2.62057,-0.51974 8.76718,-2.68232 5.6619,-1.99204 10.52396,-2.55212 16.66834,-1.92008 2.43935,0.25092 4.77071,0.53913 5.18079,0.64047 0.41008,0.10133 1.36772,0.28161 2.12809,0.40061 0.76036,0.119 1.43601,0.36229 1.50144,0.54064 0.0654,0.17834 0.27457,0.22809 0.46476,0.11055 0.40368,-0.24948 2.43107,0.52087 2.43107,0.92373 0,0.37995 -1.05808,0.74984 -1.45073,0.50717 -0.17747,-0.10969 -0.32267,-0.0234 -0.32267,0.19173 0,0.21514 -0.19951,0.35899 -0.44336,0.31967 -0.24384,-0.0393 -0.68276,0.0193 -0.97537,0.13024 -1.01562,0.3851 -3.86556,0.9742 -4.71295,0.9742 -0.4686,0 -1.12598,0.30274 -1.46084,0.67276 -0.67418,0.74496 -3.06958,1.45533 -4.90744,1.45533 -0.65491,0 -1.36942,0.17869 -1.58782,0.39709 -0.21841,0.2184 -1.00845,0.52084 -1.75568,0.6721 -0.74721,0.15125 -2.15661,0.60244 -3.13198,1.00262 -0.97538,0.40018 -2.73105,1.07612 -3.9015,1.50207 -1.17044,0.42596 -3.72415,1.52895 -5.67489,2.45109 -1.95074,0.92215 -4.10543,1.88533 -4.7882,2.14042 -0.68276,0.25508 -1.48079,0.65871 -1.7734,0.89695 -0.29261,0.23825 -1.33006,0.83373 -2.30542,1.32328 -0.97538,0.48957 -2.19587,1.26589 -2.71221,1.72517 -0.51634,0.45929 -2.33522,1.6331 -4.04194,2.60847 -1.89464,1.08276 -4.40465,2.98205 -6.44506,4.87687 -1.83804,1.7069 -3.47975,3.10345 -3.64822,3.10345 -0.75228,0 -1.83821,2.30843 -2.28751,4.86274 -0.74592,4.24048 -3.2419,11.25978 -5.33362,14.99941 -3.62491,6.48069 -3.3929,5.70468 -3.40513,11.38918 -0.008,3.56043 -0.21066,6.06864 -0.6714,8.29562 -0.85037,4.11021 -1.52667,9.79775 -1.43395,12.05915 0.04,0.97538 0.0657,2.08526 0.0572,2.46643 -0.009,0.38116 0.11677,0.85997 0.27846,1.06403 0.1617,0.20408 1.83825,5.47844 3.72568,11.72083 4.42072,14.62092 4.38811,14.52139 5.57924,17.02468 0.8433,1.77231 0.97626,1.92056 0.7953,0.88671 -0.1195,-0.68277 -0.25085,-1.48079 -0.29187,-1.7734 -0.041,-0.29262 -0.27796,-1.13713 -0.52653,-1.87671 -0.24858,-0.73957 -0.35485,-1.59774 -0.23617,-1.90703 0.1187,-0.30929 0.0339,-0.78153 -0.18843,-1.04942 -0.24958,-0.30072 -0.26644,-0.48706 -0.0441,-0.48706 0.19809,0 0.45886,-0.25718 0.57948,-0.57152 0.15693,-0.40894 0.0668,-0.513 -0.31673,-0.36581 -0.47698,0.18303 -0.69538,-0.16077 -0.58128,-0.91506 0.2496,-1.65016 0.084,-3.57933 -0.32915,-3.83468 -0.27048,-0.16716 -0.39569,-0.40002 -0.27826,-0.51746 0.48242,-0.48242 1.27973,0.96372 1.69352,3.07171 0.2425,1.23536 0.56755,2.56533 0.72235,2.95548 0.59283,1.49418 2.11821,6.45668 2.46593,8.02238 0.20009,0.90096 0.55397,2.09801 0.78638,2.6601 0.45735,1.10609 0.54706,1.38032 0.61502,1.87998 0.0932,0.68521 3.58434,4.35872 7.74124,8.14562 2.38009,2.16823 4.42068,3.94225 4.53466,3.94225 0.11397,0 0.042,-0.30873 -0.15993,-0.68605 -0.59871,-1.1187 -0.42305,-1.26351 0.49102,-0.40479 0.47201,0.44342 1.04941,1.26787 1.28312,1.8321 0.39574,0.95538 2.27878,2.45087 3.08602,2.45087 0.19547,0 0.55602,-0.7166 0.80124,-1.59242 0.24521,-0.87584 1.0594,-2.41477 1.8093,-3.41986 0.74989,-1.00507 1.27859,-1.9647 1.17489,-2.13249 -0.1037,-0.16779 -0.83006,-0.20248 -1.61416,-0.0771 -2.26028,0.36143 -6.87556,-0.79375 -7.26915,-1.81943 -0.21878,-0.57015 -0.13204,-0.8166 0.87497,-2.48583 0.55098,-0.91334 3.7013,-3.23014 5.37985,-3.95645 0.29262,-0.12661 0.7812,-0.44282 1.08575,-0.70269 0.30454,-0.25986 1.42179,-0.95094 2.48277,-1.53573 2.12189,-1.16954 2.15834,-1.24823 0.33063,-0.71378 -0.68147,0.19928 -3.54018,0.51107 -6.35268,0.69287 -5.536,0.35786 -8.05214,0.0735 -9.04354,-1.02196 -0.53261,-0.58854 -0.4902,-0.71958 0.6109,-1.88708 1.4893,-1.57912 2.33825,-2.01116 7.16202,-3.64481 2.14582,-0.72671 4.61972,-1.6924 5.49756,-2.14596 2.24106,-1.15793 6.75729,-3.20779 7.74103,-3.51357 1.58764,-0.49349 0.52318,-0.53536 -1.38315,-0.0544 -3.09157,0.77998 -10.62479,0.98699 -12.83849,0.35278 -2.21463,-0.63446 -4.69415,-1.80669 -5.98327,-2.82868 l -0.93675,-0.74263 2.35547,-1.06992 c 1.29551,-0.58846 3.19524,-1.26818 4.22162,-1.51048 1.02639,-0.2423 2.44324,-0.83217 3.14855,-1.31081 1.18057,-0.80116 7.13861,-2.95852 8.17061,-2.95852 0.66236,0 8.06764,-2.57891 11.02638,-3.83996 1.41688,-0.60388 3.2883,-1.58796 4.15873,-2.18683 1.51411,-1.04173 1.63669,-1.26215 2.83274,-5.09354 0.68759,-2.20258 1.25016,-4.57218 1.25016,-5.26578 0,-0.69361 0.23207,-1.4537 0.51572,-1.6891 0.43699,-0.36268 0.28808,-0.661 -0.97537,-1.95395 -0.82011,-0.83926 -2.2027,-1.96606 -3.07243,-2.50399 -0.86974,-0.53793 -2.05804,-1.42358 -2.64067,-1.96809 -1.50784,-1.4092 -2.1073,-1.62172 -5.88641,-2.0869 -3.71729,-0.45757 -9.12584,-0.27903 -10.28137,0.3394 -0.40789,0.21829 -1.01465,0.352 -1.34836,0.29713 -0.33372,-0.0549 -0.78752,0.0138 -1.00843,0.15258 -0.22091,0.13877 -0.80882,-0.0679 -1.30646,-0.45939 l -0.9048,-0.71172 0.81978,-0.88456 c 0.45088,-0.4865 0.91123,-1.34174 1.02298,-1.90052 0.35745,-1.78725 4.70383,-4.35299 9.63719,-5.689 9.87777,-2.67502 21.97327,-3.84981 27.8248,-2.70253 3.98185,0.7807 5.29316,1.10499 6.58418,1.62828 0.95908,0.38874 1.21146,0.33658 2.45515,-0.5074 0.76239,-0.51738 2.27644,-1.1834 3.36454,-1.48004 1.08811,-0.29666 2.19688,-0.65645 2.46394,-0.79955 0.81622,-0.43736 5.79969,0.17796 7.53044,0.9298 1.69669,0.73703 5.59369,3.98773 6.86022,5.72248 0.40136,0.54971 1.97307,2.47852 3.4927,4.28622 2.36393,2.81205 5.57205,7.60161 5.57205,8.31877 0,0.67979 3.02946,7.24035 3.68909,7.98903 0.42967,0.48768 1.3731,1.80443 2.0965,2.92611 1.00478,1.55799 1.51775,2.03943 2.17302,2.03943 0.47176,0 1.09461,0.23686 1.38411,0.52636 0.73579,0.73579 9.42714,1.35408 13.09682,0.93169 2.97617,-0.34257 3.5558,-0.64725 4.41154,-2.31893 0.30685,-0.59943 0.93767,-1.47367 1.40183,-1.94276 1.06759,-1.07895 0.85056,-1.94779 -0.8812,-3.52759 -5.02541,-4.58442 -5.73085,-5.39138 -5.30679,-6.07042 0.32193,-0.51551 0.31057,-0.78935 -0.0508,-1.22478 -0.36071,-0.43463 -0.36608,-0.56082 -0.0239,-0.56082 0.35226,0 0.35226,-0.10757 0,-0.53202 -0.2463,-0.29677 -0.28471,-0.53203 -0.0869,-0.53203 0.19507,0 0.55337,0.23942 0.79622,0.53203 0.26139,0.31496 0.29266,0.53202 0.0766,0.53202 -0.2007,0 -0.28144,0.31921 -0.1794,0.70936 0.18707,0.71537 1.1668,1.01318 1.1668,0.35468 0,-0.19507 -0.19153,-0.35468 -0.42561,-0.35468 -0.32629,0 -0.32825,-0.0974 -0.008,-0.41724 0.31986,-0.31986 0.56406,-0.28548 1.04632,0.14734 0.34599,0.31051 1.2675,0.67868 2.04779,0.81816 0.7803,0.13948 1.57834,0.3759 1.77341,0.52541 0.19507,0.14949 1.00087,0.46352 1.79067,0.69786 5.02701,1.49151 7.84464,6.98987 5.84276,11.40161 -0.38587,0.85037 -0.70508,1.96476 -0.70936,2.47641 -0.0237,2.8341 -2.8437,6.14728 -7.02393,8.2524 -3.8998,1.96391 -6.46377,2.69578 -9.55401,2.72713 -1.51798,0.0154 -2.52056,0.11557 -2.22795,0.22259 0.29261,0.10702 1.39347,0.58184 2.44635,1.05513 3.32662,1.49541 7.6768,1.99834 8.67252,1.00262 0.39224,-0.39224 0.95459,-0.47079 2.17394,-0.30366 1.3032,0.17863 2.00867,0.055 3.39668,-0.59508 0.96353,-0.45129 1.82506,-0.74732 1.91453,-0.65786 0.31961,0.3196 -0.93525,3.34336 -1.74872,4.2138 -0.45577,0.48768 -1.07085,1.47582 -1.36685,2.19585 -0.89678,2.18146 -4.7788,3.68651 -10.34557,4.01093 -1.75568,0.10232 -3.97199,0.28189 -4.92514,0.39903 l -1.73301,0.21297 1.20099,0.72747 c 1.41653,0.85805 4.92513,4.47495 4.92513,5.07716 0,0.76341 -1.5796,1.46928 -4.65247,2.07904 l -3.03765,0.60277 -4.04404,-1.06401 c -2.22423,-0.58519 -4.09686,-1.01118 -4.16142,-0.94663 -0.0645,0.0646 0.13381,0.6031 0.4408,1.19676 0.307,0.59367 0.55818,1.32479 0.55818,1.62474 0,0.29993 0.63817,1.14578 1.41815,1.87968 0.77997,0.73388 1.4184,1.5231 1.41872,1.7538 7.1e-4,0.62093 -1.33693,0.95421 -3.62188,0.90231 -3.03364,-0.0689 -4.87739,-0.6919 -6.79428,-2.29576 l -1.72706,-1.44503 0.24751,3.51494 c 0.23067,3.27573 0.1964,3.56925 -0.50351,4.31298 -0.70803,0.75233 -0.71277,0.79802 -0.0828,0.79802 0.36752,0 0.97226,0.34366 1.34387,0.76366 1.16982,1.32218 6.54478,4.59953 8.79876,5.365 2.73686,0.92947 8.85081,1.62999 10.37761,1.18905 0.81623,-0.23572 1.29082,-0.69967 1.74418,-1.70501 z m -119.28956,-37.43476 c -0.5089,-0.18175 -0.59954,-1.37956 -0.1265,-1.6719 0.17426,-0.10771 0.42144,0.22092 0.54927,0.73028 0.26208,1.04417 0.20712,1.16658 -0.42277,0.94162 z m -0.6207,-2.58199 c -0.12056,-0.19508 -0.0502,-0.35468 0.15641,-0.35468 0.20659,0 0.37562,0.1596 0.37562,0.35468 0,0.19507 -0.0704,0.35468 -0.15641,0.35468 -0.086,0 -0.25505,-0.15961 -0.37562,-0.35468 z m 23.44549,-28.07892 c 0.10046,-0.16256 0.33286,-0.29556 0.51642,-0.29556 0.18356,0 0.33375,0.133 0.33375,0.29556 0,0.16257 -0.23239,0.29557 -0.51642,0.29557 -0.28404,0 -0.43422,-0.133 -0.33375,-0.29557 z m 15.3921,-49.07534 c 0,-0.29874 -0.22685,-0.6302 -0.50409,-0.7366 -0.65647,-0.25191 -0.0199,-2.26706 0.71612,-2.26706 0.27353,0 0.49732,-0.20114 0.49732,-0.44697 0,-1.43821 5.48591,-4.46021 7.21768,-3.97598 0.52598,0.14707 0.61658,0.11175 0.29197,-0.11382 -0.54099,-0.37593 1.32629,-0.77323 3.66281,-0.77937 l 1.41872,-0.004 -1.95074,1.9396 c -1.07291,1.06679 -2.11238,1.94455 -2.30992,1.95058 -0.19754,0.006 -0.64088,0.38609 -0.98521,0.84458 -0.80679,1.07436 -3.79849,3.22862 -3.79849,2.73522 0,-0.2072 -0.17101,-0.37672 -0.38003,-0.37672 -0.49104,0 -1.39338,0.90235 -1.39338,1.39339 0,0.55951 -0.38504,0.46349 -0.96522,-0.24067 -0.48706,-0.59114 -0.50212,-0.59114 -0.31625,0 0.14056,0.44702 -2e-4,0.62068 -0.50307,0.62068 -0.39055,0 -0.69822,-0.23933 -0.69822,-0.54314 z m 15.96064,-8.67856 c 0.29261,-0.1891 0.77143,-0.33505 1.06404,-0.32432 0.3508,0.0128 0.29039,0.12333 -0.17734,0.32432 -0.97505,0.41899 -1.53504,0.41899 -0.8867,0 z m 27.1331,-9.57639 c -0.12056,-0.19507 -0.0596,-0.35468 0.13548,-0.35468 0.19507,0 0.45331,0.15961 0.57389,0.35468 0.12056,0.19508 0.0596,0.35468 -0.13549,0.35468 -0.19507,0 -0.45332,-0.1596 -0.57388,-0.35468 z m 152.33551,123.6443 c 0,-8.67979 -0.0621,-9.73959 -0.58199,-9.93911 -0.8047,-0.3088 -1.90078,0.0917 -1.90078,0.69458 0,0.37657 -0.20348,0.42197 -0.82764,0.18467 -0.48769,-0.18543 -1.03397,-0.18208 -1.33005,0.008 -0.27633,0.17754 -0.92314,0.23461 -1.43735,0.1268 -1.25596,-0.26331 -4.24269,0.98384 -10.76954,4.49694 -5.63733,3.03432 -9.04437,5.34407 -9.04437,6.13148 0,0.26241 0.25598,0.68956 0.56888,0.94922 0.47793,0.39666 0.73752,0.37531 1.62426,-0.13359 1.12165,-0.64374 2.39212,-0.52772 3.64934,0.33327 0.38481,0.26351 1.15467,0.4791 1.71089,0.4791 1.42542,0 5.68316,1.48625 10.31068,3.59916 3.6458,1.66466 6.49634,2.70242 7.58432,2.76117 0.34447,0.0186 0.44335,-2.14291 0.44335,-9.69185 z m -9.57639,0.13939 c -0.73468,-0.40222 -0.99658,-0.68569 -0.64161,-0.69449 0.32985,-0.008 0.69999,0.14734 0.82253,0.3456 0.12251,0.19825 0.35462,0.27897 0.51579,0.17937 0.16116,-0.0996 0.38454,0.0574 0.49637,0.34889 0.24565,0.64011 0.32574,0.65215 -1.19308,-0.17937 z m -322.89951,-1.21143 c 0.15861,-0.41333 1.38209,-0.48506 6.92345,-0.40587 5.54716,0.0793 6.69834,0.0116 6.54627,-0.38464 -0.23581,-0.61451 -0.033,-0.61101 0.58822,0.0101 0.55385,0.55386 6.24368,1.30361 6.5185,0.85894 0.0978,-0.15828 0.4769,-0.12776 0.84239,0.0679 0.36548,0.19559 1.25093,0.35563 1.96767,0.35563 1.24218,0 1.29215,-0.0456 1.06794,-0.97536 -0.2973,-1.23289 -1.20673,-1.94661 -2.23579,-1.75463 -0.43892,0.0819 -0.80273,-0.0285 -0.80846,-0.2453 -0.006,-0.21679 -1.36495,-1.19221 -3.02046,-2.16757 -1.65551,-0.97538 -5.07462,-3.28967 -7.59801,-5.14288 -3.69246,-2.7118 -4.63122,-3.57716 -4.80954,-4.43351 -0.12186,-0.58523 -0.57666,-1.50565 -1.01067,-2.0454 l -0.7891,-0.98135 -1.09364,0.98135 c -0.82194,0.73755 -1.20153,1.50413 -1.5279,3.08559 -0.23885,1.15732 -0.67037,2.7534 -0.95892,3.54681 -0.28856,0.79342 -0.66954,2.40022 -0.84664,3.57066 -0.46602,3.08009 -0.90114,5.2308 -1.20193,5.94091 -0.20316,0.47958 -0.0905,0.62068 0.49552,0.62068 0.41714,0 0.84513,-0.22592 0.9511,-0.50206 z m 22.83934,-0.56197 c 0,-0.66208 0.0946,-0.75666 0.42562,-0.42562 0.33104,0.33104 0.33104,0.5202 0,0.85124 -0.33104,0.33102 -0.42562,0.23645 -0.42562,-0.42562 z m -10.10841,-1.41872 c -0.12056,-0.19508 -0.0596,-0.35469 0.13548,-0.35469 0.19507,0 0.45332,0.15961 0.57388,0.35469 0.12056,0.19507 0.0596,0.35468 -0.13548,0.35468 -0.19507,0 -0.45331,-0.15961 -0.57388,-0.35468 z m 286.84114,-40.73218 c 3.56923,-1.93373 12.91752,-6.081 14.28308,-6.33654 0.58522,-0.10952 1.38326,-0.47718 1.7734,-0.81703 0.39015,-0.33986 1.30789,-0.72468 2.03942,-0.85515 1.09007,-0.19443 1.33005,-0.38686 1.33005,-1.0665 0,-0.54087 0.25587,-0.89617 0.73568,-1.02165 0.40462,-0.10581 0.81938,-0.5124 0.92164,-0.90352 0.10382,-0.39692 0.38937,-0.63311 0.64627,-0.53452 0.47934,0.18395 1.5979,-1.12982 1.5979,-1.8768 0,-0.42657 -1.15704,-0.98579 -2.07736,-1.00404 -0.29088,-0.006 -1.13278,-1.79664 -2.12777,-4.52604 l -1.64643,-4.5165 -1.41624,-0.28007 c -1.00141,-0.19804 -1.45426,-0.48475 -1.54591,-0.97878 -0.19426,-1.04695 -0.75615,-1.5854 -1.65435,-1.5854 -0.88797,0 -1.43294,1.30483 -1.04949,2.51293 0.11857,0.37356 0.0708,0.67919 -0.10609,0.67919 -0.48907,0 -1.14487,1.6695 -1.14487,2.91452 0,0.7509 -0.72849,2.2594 -2.26145,4.68284 -1.24383,1.9663 -3.01337,4.89168 -3.93235,6.50084 -0.91894,1.60917 -1.87087,3.04563 -2.11539,3.19214 -0.24447,0.14651 -1.77325,1.94224 -3.39723,3.99053 -3.95768,4.99172 -3.87277,4.86274 -2.65817,4.03769 0.58523,-0.39754 2.29777,-1.39119 3.80566,-2.20814 z m -115.12215,-0.0562 2.25979,0 -1.77727,-2.86554 c -0.97749,-1.57604 -1.77726,-2.99853 -1.77726,-3.16108 0,-0.32123 -3.00847,-3.39496 -5.10681,-5.21758 -1.25293,-1.08831 -2.34149,-1.23306 -2.34149,-0.31137 0,0.23524 0.41158,1.28086 0.91461,2.32361 0.94277,1.95427 1.73309,4.92278 2.11555,7.94623 l 0.21872,1.72905 1.61719,-0.22166 c 0.88946,-0.12191 2.63409,-0.22166 3.87697,-0.22166 z m -143.64085,-0.94659 c -0.13047,-0.13048 0.0236,-0.52541 0.34236,-0.87764 0.90616,-1.00131 0.0549,-2.54789 -3.12165,-5.67118 -2.47691,-2.43541 -2.91209,-3.07637 -4.33455,-6.38425 -0.86966,-2.02238 -1.67152,-4.07606 -1.7819,-4.56376 -0.11038,-0.48768 -0.35196,-1.11976 -0.53686,-1.40462 -0.28807,-0.44383 -0.44073,-0.42328 -1.06717,0.14365 -0.91876,0.83146 -0.92478,0.35308 -0.0221,-1.7529 0.43396,-1.01239 0.62797,-2.02124 0.50016,-2.60084 -0.39678,-1.79935 -0.91032,-3.25229 -1.14797,-3.24792 -0.13118,0.002 -0.57574,0.52542 -0.98792,1.16225 -0.46692,0.72139 -1.06856,1.17997 -1.59607,1.21654 -1.39155,0.0965 -4.89598,4.11448 -6.88963,7.89933 -2.76348,5.24637 -2.74764,5.19893 -1.98106,5.93345 0.36241,0.34727 0.76343,1.21008 0.89115,1.91736 0.21194,1.17363 0.35711,1.30594 1.66181,1.51457 1.63095,0.26081 2.62704,-0.14943 2.63096,-1.08354 0.005,-1.21726 1.24635,-0.88956 3.53818,0.93411 1.32521,1.05451 3.14821,2.10975 4.34025,2.51234 1.13043,0.38179 3.57158,1.55234 5.42479,2.60123 2.94635,1.66758 4.8656,2.48026 4.13717,1.75182 z m 308.69153,-0.31572 c 0,-0.30413 -0.16221,-0.4527 -0.36047,-0.33017 -0.19827,0.12252 -0.26864,0.37135 -0.15641,0.55295 0.30403,0.49196 0.51688,0.40022 0.51688,-0.22278 z m -73.77663,-29.94029 c 0.42135,-0.26638 0.4394,-0.42413 0.0887,-0.77486 -0.63455,-0.63455 -0.54267,-1.00788 0.24804,-1.00788 0.37864,0 0.78708,-0.1596 0.90764,-0.35468 0.12056,-0.19508 -0.0348,-0.35468 -0.34518,-0.35468 -0.72028,0 -1.29403,-1.44115 -0.81193,-2.03942 0.19649,-0.24384 0.56637,-0.44334 0.82195,-0.44334 0.25559,0 0.56601,-0.31922 0.68984,-0.70937 0.12383,-0.39015 0.5336,-0.70937 0.91061,-0.70937 0.377,0 0.68545,-0.23941 0.68545,-0.53202 0,-0.29261 -0.1596,-0.53201 -0.35468,-0.53201 -0.19507,0 -0.35467,-0.24883 -0.35467,-0.55296 0,-0.30413 0.1197,-0.47905 0.26601,-0.38872 0.1463,0.0903 0.28902,-0.21946 0.31715,-0.68842 0.0281,-0.46897 -0.0916,-0.85267 -0.26601,-0.85267 -0.17443,0 -0.31715,-0.15961 -0.31715,-0.35468 0,-0.19507 0.22233,-0.35469 0.49407,-0.35469 0.57293,0 0.92465,-0.75573 0.92465,-1.9868 0,-0.4756 0.39901,-1.84672 0.8867,-3.04693 0.48769,-1.2002 0.8867,-2.44402 0.8867,-2.76404 0,-0.32002 0.46479,-1.02715 1.03288,-1.5714 0.9355,-0.89628 0.99725,-1.09478 0.6551,-2.10578 -0.51776,-1.52994 -1.67024,-3.1198 -2.07856,-2.86743 -0.185,0.11433 -0.2925,0.007 -0.2389,-0.23807 0.14519,-0.66431 -5.69738,-4.57845 -10.54297,-7.06311 -2.3409,-1.20033 -5.39812,-2.98525 -6.79383,-3.96646 -2.52813,-1.77733 -3.31459,-1.92335 -3.31459,-0.61544 0,0.37864 -0.22614,0.68843 -0.50255,0.68843 -0.38919,0 -0.32918,0.31936 0.26601,1.4158 0.42271,0.77868 0.98145,1.41711 1.24163,1.41872 0.26019,0.002 1.87516,1.4144 3.58884,3.13954 3.11279,3.13361 3.11593,3.13861 3.27784,5.23154 0.0891,1.15222 0.50914,2.84431 0.93335,3.76022 0.4242,0.91589 0.77127,1.91661 0.77127,2.2238 0,0.30719 0.36885,1.47309 0.81964,2.59089 0.54769,1.35806 0.73593,2.32657 0.56737,2.91907 -0.47713,1.67719 -0.32106,2.85554 0.55323,4.17667 1.08383,1.63779 3.0253,7.15113 3.0253,8.59119 0,1.12526 0.20222,1.26236 1.06108,0.71936 z m -201.10119,-3.00319 c 0,-0.086 -0.15961,-0.25505 -0.35468,-0.37561 -0.19508,-0.12056 -0.35469,-0.0502 -0.35469,0.15641 0,0.20658 0.15961,0.37561 0.35469,0.37561 0.19507,0 0.35468,-0.0704 0.35468,-0.15641 z m 1.80931,-3.99614 c 1.07734,-2.21144 1.08355,-2.25864 1.19188,-9.05498 0.11821,-7.41643 0.69028,-11.08683 3.03563,-19.47682 1.13744,-4.0689 1.74784,-8.10398 1.2259,-8.10398 -0.15625,0 -1.77639,1.12168 -3.6003,2.49263 -1.82392,1.37094 -5.18968,3.4595 -7.47948,4.64124 -2.37603,1.22623 -4.09941,2.32589 -4.01451,2.56157 0.0818,0.22714 0.16162,2.64746 0.17734,5.37851 0.0246,4.27644 0.14884,5.32401 0.89512,7.54863 0.58907,1.75595 1.01497,2.52615 1.33006,2.40523 0.32457,-0.12456 0.46351,0.17739 0.46351,1.0073 0,1.44329 1.21876,4.31484 1.95052,4.59565 0.56542,0.21697 0.75199,1.64522 0.21492,1.64522 -0.70716,0 0.42197,3.09026 1.73605,4.75134 0.38788,0.49031 0.4173,0.71273 0.1086,0.82095 -0.74753,0.26206 -0.0687,1.15541 0.8219,1.0817 0.67689,-0.056 1.09034,-0.54423 1.94286,-2.29419 z m 202.13229,1.3151 c 0,-0.19507 -0.0704,-0.35468 -0.1564,-0.35468 -0.086,0 -0.25506,0.15961 -0.37562,0.35468 -0.12057,0.19507 -0.0502,0.35468 0.15641,0.35468 0.20659,0 0.37561,-0.15961 0.37561,-0.35468 z m -10.80318,-16.29173 c -0.12859,-0.20805 -0.39027,-0.37828 -0.58153,-0.37828 -0.19125,0 -0.14193,0.22331 0.10961,0.49625 0.5092,0.55253 0.83584,0.47088 0.47192,-0.11797 z m -84.60602,-23.29339 c 0,-0.29354 -0.68869,-0.45954 -0.84659,-0.20406 -0.10244,0.16575 0.0461,0.30135 0.33017,0.30135 0.28403,0 0.51642,-0.0438 0.51642,-0.0973 z m 5.85223,-2.97661 c 0.12057,-0.19507 0.0502,-0.35468 -0.15641,-0.35468 -0.20658,0 -0.37561,0.15961 -0.37561,0.35468 0,0.19508 0.0704,0.35468 0.15641,0.35468 0.086,0 0.25505,-0.1596 0.37561,-0.35468 z m -45.64165,-22.22519 c 2.20753,-0.46302 4.13026,-0.76981 4.27273,-0.68176 0.14248,0.088 2.24668,-0.15219 4.676,-0.53388 2.42932,-0.3817 6.09282,-0.85192 8.14111,-1.04493 2.04827,-0.19302 4.52218,-0.58463 5.49755,-0.87026 2.04185,-0.59792 3.25889,-0.80678 5.49756,-0.94341 0.87783,-0.0536 1.98363,-0.2948 2.45733,-0.53607 0.4737,-0.24125 1.01708,-0.34234 1.20751,-0.22465 0.19043,0.1177 0.24355,0.0478 0.11803,-0.15526 -0.22984,-0.37189 -1.79463,-0.3621 -11.05384,0.0692 -5.63658,0.26253 -13.86316,1.56993 -19.33012,3.07202 -2.24335,0.61639 -4.71725,1.19419 -5.49755,1.284 -1.50757,0.17353 -2.15269,0.54101 -1.83948,1.04779 0.3158,0.51096 1.63377,0.40227 5.85317,-0.48274 z m 3.07993,-13.59759 c -0.13316,-0.41955 -0.32191,-0.68302 -0.41945,-0.58549 -0.0975,0.0975 -0.0684,0.52062 0.0648,0.94017 0.13316,0.41955 0.32191,0.68302 0.41944,0.58548 0.0975,-0.0975 0.0684,-0.52061 -0.0648,-0.94016 z m 1.17288,0.16795 c -0.1092,-0.1092 -0.30752,0.0876 -0.44071,0.43744 -0.19248,0.5055 -0.15174,0.54623 0.19854,0.19855 0.2424,-0.2406 0.35137,-0.52679 0.24217,-0.63599 z m 24.63016,-1.36019 c -0.0488,-0.12457 -0.0911,-0.42599 -0.0941,-0.66984 -0.004,-0.29557 -0.12003,-0.26601 -0.34924,0.0887 -0.25394,0.39294 -0.34524,0.40949 -0.34925,0.0633 -0.004,-0.36096 -0.12772,-0.3464 -0.53746,0.0633 -0.75316,0.75316 -0.66825,0.90349 0.44336,0.78498 0.53645,-0.0572 0.93546,-0.20591 0.88669,-0.33049 z m -7.18228,-0.38289 c 0,-0.086 -0.15961,-0.25506 -0.35468,-0.37562 -0.19508,-0.12057 -0.35469,-0.0502 -0.35469,0.15641 0,0.20659 0.15961,0.37561 0.35469,0.37561 0.19507,0 0.35468,-0.0704 0.35468,-0.1564 z m 4.61758,-0.73842 c 0.37483,-0.45163 0.35289,-0.50353 -0.13391,-0.31673 -0.3202,0.12287 -0.58218,0.36593 -0.58218,0.54013 0,0.45612 0.20531,0.39206 0.71609,-0.2234 z m -1.78014,-0.16922 c 0,-0.19507 -0.1596,-0.35468 -0.35468,-0.35468 -0.19507,0 -0.35467,0.15961 -0.35467,0.35468 0,0.19507 0.1596,0.35468 0.35467,0.35468 0.19508,0 0.35468,-0.15961 0.35468,-0.35468 z m 6.73894,0.0414 c 0,-0.17233 -0.32833,-0.39918 -0.72963,-0.50412 -0.59869,-0.15656 -0.65455,-0.10033 -0.31125,0.31331 0.46828,0.56424 1.04088,0.6692 1.04088,0.19081 z m 55.33024,-1.95075 c 0,-0.0748 -0.31943,-0.21951 -0.70984,-0.32161 -0.39042,-0.10209 -0.62042,-0.0409 -0.5111,0.13598 0.19092,0.3089 1.22094,0.4655 1.22094,0.18563 z m -20.71514,-1.33299 c 0.67327,-0.75691 0.67284,-0.75787 -0.12237,-0.26937 -0.43891,0.26964 -0.79802,0.61146 -0.79802,0.75961 0,0.42764 0.19753,0.32243 0.92039,-0.49024 z m 1.20769,0.60319 c 0,-0.37435 -0.68067,-0.53163 -0.88313,-0.20405 -0.12253,0.19825 0.026,0.36046 0.33018,0.36046 0.30412,0 0.55295,-0.0704 0.55295,-0.15641 z m -4.34489,-1.46926 c -0.33799,-0.33799 -1.01563,0.20948 -0.76374,0.61704 0.14971,0.24225 0.34811,0.23613 0.60283,-0.0186 0.20882,-0.20882 0.28123,-0.47812 0.16091,-0.59844 z m 2.57149,0.18578 c 0,-0.14169 -0.23941,-0.34949 -0.53203,-0.46177 -0.30502,-0.11705 -0.53202,-0.007 -0.53202,0.25762 0,0.25397 0.23941,0.46177 0.53202,0.46177 0.29262,0 0.53203,-0.11593 0.53203,-0.25762 z m -5.19632,-0.87689 c -0.27708,-0.72208 -0.44427,-0.65042 -0.38291,0.16413 0.0284,0.37663 0.17108,0.61093 0.31714,0.52066 0.14606,-0.0903 0.17566,-0.39843 0.0658,-0.68479 z m 2.28614,-0.0336 c 0.21856,0.1351 0.28793,-0.0571 0.17562,-0.48657 -0.10209,-0.39042 -0.33604,-0.70985 -0.51988,-0.70985 -0.18383,0 -0.24242,0.14858 -0.13019,0.33017 0.11224,0.1816 0.0419,0.43042 -0.1564,0.55295 -0.19826,0.12253 -0.35802,0.41288 -0.35504,0.64521 0.004,0.27772 0.11148,0.25499 0.31503,-0.0664 0.17028,-0.26884 0.47217,-0.38832 0.67086,-0.26553 z m -4.38434,-0.0961 c 0.46201,-0.18092 0.55122,-0.35176 0.27335,-0.52349 -0.38108,-0.23552 -1.84587,0.30176 -1.84587,0.67706 0,0.2355 0.77138,0.16017 1.57252,-0.15357 z m -17.88784,-1.10029 c 0,-0.19508 -0.0704,-0.35469 -0.15641,-0.35469 -0.086,0 -0.25505,0.15961 -0.37561,0.35469 -0.12056,0.19507 -0.0502,0.35468 0.1564,0.35468 0.20659,0 0.37562,-0.15961 0.37562,-0.35468 z m 18.44341,-0.86466 c 0,-0.29651 -0.30624,-0.48691 -0.73162,-0.45487 -0.68351,0.0515 -0.69072,0.085 -0.10955,0.50998 0.78287,0.57244 0.84117,0.56862 0.84117,-0.0551 z m -8.72621,-0.2585 c -0.10048,-0.16256 -0.42209,-0.29556 -0.7147,-0.29556 -0.29261,0 -0.44982,0.133 -0.34935,0.29556 0.10047,0.16256 0.42208,0.29557 0.71469,0.29557 0.29261,0 0.44983,-0.13301 0.34936,-0.29557 z m -15.3921,-0.47291 c 0,-0.29261 -0.1546,-0.53202 -0.34355,-0.53202 -0.18895,0 -0.25167,0.23941 -0.13939,0.53202 0.11229,0.29262 0.26688,0.53202 0.34355,0.53202 0.0767,0 0.13939,-0.2394 0.13939,-0.53202 z m 5.23902,-0.11108 c 0.0864,-0.25918 -0.0758,-0.33845 -0.42118,-0.2059 -0.30891,0.11854 -0.56167,0.37136 -0.56167,0.56183 0,0.46618 0.80612,0.17427 0.98285,-0.35593 z m 1.71421,-0.32488 c -0.36054,-0.36054 -0.65802,0.18227 -0.36221,0.66091 0.22346,0.36156 0.307,0.36184 0.42714,10e-4 0.0822,-0.24643 0.0529,-0.54448 -0.0649,-0.66234 z m 15.39168,0.5373 c 0,-0.15328 -0.31922,-0.27868 -0.70936,-0.27868 -0.39015,0 -0.70936,0.1254 -0.70936,0.27868 0,0.15328 0.31921,0.27868 0.70936,0.27868 0.39014,0 0.70936,-0.1254 0.70936,-0.27868 z m -40.64265,-0.58213 c 0.10315,-0.16689 -0.20664,-0.22809 -0.68843,-0.13599 -0.48178,0.0921 -0.87596,0.22865 -0.87596,0.30344 0,0.27444 1.38277,0.12642 1.56439,-0.16745 z m 35.67711,-0.0259 c 0,-0.18114 -0.27036,-0.59971 -0.6008,-0.93016 -0.56463,-0.56462 -0.61653,-0.5608 -0.86178,0.0633 -0.42009,1.06912 -0.35892,1.19616 0.57588,1.19616 0.48769,0 0.8867,-0.1482 0.8867,-0.32934 z m -1.24138,-0.38001 c 0.12056,-0.19508 0.28959,-0.35468 0.37561,-0.35468 0.086,0 0.15641,0.1596 0.15641,0.35468 0,0.19507 -0.16903,0.35468 -0.37561,0.35468 -0.20659,0 -0.27697,-0.15961 -0.15641,-0.35468 z m -18.26607,0 c 0,-0.19508 -0.15961,-0.35468 -0.35469,-0.35468 -0.19507,0 -0.35468,0.1596 -0.35468,0.35468 0,0.19507 0.15961,0.35468 0.35468,0.35468 0.19508,0 0.35469,-0.15961 0.35469,-0.35468 z m 6.73894,-0.15641 c 0,-0.086 -0.15961,-0.25505 -0.35469,-0.37562 -0.19507,-0.12056 -0.35468,-0.0502 -0.35468,0.15642 0,0.20658 0.15961,0.37561 0.35468,0.37561 0.19508,0 0.35469,-0.0704 0.35469,-0.15641 z m 1.05861,-0.99631 c 0.003,-0.1463 -0.31378,-0.26601 -0.70393,-0.26601 -0.39015,0 -0.72197,-0.1995 -0.73737,-0.44335 -0.0206,-0.32655 -0.0732,-0.33239 -0.19951,-0.0222 -0.23814,0.58484 1.03686,1.85701 1.3748,1.37173 0.14332,-0.2058 0.26302,-0.49389 0.26601,-0.6402 z m 1.06947,0.40149 c 0,-0.19508 -0.1596,-0.25604 -0.35468,-0.13548 -0.19507,0.12056 -0.35468,0.37881 -0.35468,0.57389 0,0.19508 0.15961,0.25604 0.35468,0.13548 0.19508,-0.12056 0.35468,-0.37882 0.35468,-0.57389 z m -6.94171,-0.57883 c -0.17655,-0.1463 -0.44011,-0.42561 -0.5857,-0.62069 -0.15106,-0.20241 -0.26704,-0.0882 -0.27014,0.26602 -0.003,0.34502 0.25711,0.62068 0.58571,0.62068 0.32512,0 0.44668,-0.1197 0.27013,-0.26601 z m 1.62149,0.10115 c 0,-0.0907 -0.35911,-0.35621 -0.79802,-0.59009 -0.72363,-0.38558 -0.75265,-0.37021 -0.31125,0.16487 0.45321,0.5494 1.10927,0.80089 1.10927,0.42522 z m -138.2779,361.23023 c -0.65651,-0.1551 -1.64472,-0.6155 -2.196,-1.023 -0.73591,-0.5441 -1.29459,-0.6826 -2.10178,-0.5212 -1.25838,0.2517 -2.12519,-0.073 -8.42977,-3.1598 -2.38967,-1.17 -4.34484,-2.2755 -4.34484,-2.4567 0,-0.1813 -0.14953,-0.2371 -0.33229,-0.1242 -0.39192,0.2422 -3.21453,-2.3477 -3.21453,-2.9495 0,-0.2271 0.31922,-0.6863 0.70937,-1.0204 0.39014,-0.3342 0.70935,-0.8114 0.70935,-1.0606 0,-0.2493 0.14657,-0.4532 0.32568,-0.4532 0.17912,0 0.57711,-0.097 0.88442,-0.2144 0.37345,-0.1434 0.66967,0.062 0.89323,0.6206 0.24636,0.6151 0.3404,0.6716 0.35696,0.2144 0.0314,-0.8664 0.81923,-0.7735 1.73841,0.2049 0.72197,0.7685 0.90951,0.8013 2.71535,0.474 2.56464,-0.465 4.13023,0.027 6.36876,1.9994 1.50418,1.3256 1.75567,1.7336 1.75567,2.8483 0,1.0896 0.12238,1.3011 0.75259,1.3011 1.63929,0 4.06759,1.1515 5.29635,2.5116 1.2007,1.329 1.62809,2.4539 0.93238,2.4539 -0.17883,0 -0.4075,-0.1995 -0.50816,-0.4433 -0.11088,-0.2686 -0.27864,-0.1288 -0.4256,0.3546 -0.13342,0.4389 -0.34367,0.7817 -0.46723,0.7617 -0.12355,-0.02 -0.76179,-0.1631 -1.41832,-0.3182 z m 1.7257,-1.4188 c 0,-0.1951 -0.0704,-0.3547 -0.1564,-0.3547 -0.086,0 -0.25506,0.1596 -0.37562,0.3547 -0.12057,0.195 -0.0502,0.3546 0.1564,0.3546 0.2066,0 0.37562,-0.1596 0.37562,-0.3546 z m -6.14936,-1.8621 c -0.0984,-0.2438 -0.1789,-0.044 -0.1789,0.4434 0,0.4876 0.0805,0.6871 0.1789,0.4433 0.0984,-0.2438 0.0984,-0.6429 0,-0.8867 z m -21.98867,-12.5616 c -0.34437,-0.3444 -0.28923,-2.0614 0.099,-3.0824 0.25815,-0.679 0.2016,-0.9908 -0.24542,-1.3532 -0.49441,-0.4007 -0.5366,-0.3916 -0.28342,0.061 0.20084,0.3592 0.18022,0.4168 -0.0635,0.1773 -0.4477,-0.4399 -0.8655,-2.1288 -0.59383,-2.4005 0.37906,-0.379 2.37332,0.7139 2.84056,1.5568 1.16163,2.0954 -0.35078,6.4434 -1.75342,5.0408 z m 317.02575,-40.1972 c 0.12056,-0.1951 0.3788,-0.3547 0.57388,-0.3547 0.19507,0 0.25604,0.1596 0.13548,0.3547 -0.12055,0.1951 -0.37879,0.3547 -0.57387,0.3547 -0.19508,0 -0.25605,-0.1596 -0.13549,-0.3547 z m 0.33174,-8.757 c 0.53652,-0.7895 0.81671,-1.5986 0.70634,-2.0395 -0.10066,-0.4019 0.0584,-1.0499 0.35354,-1.44 0.51873,-0.6858 0.53696,-0.6749 0.54785,0.3251 0.006,0.569 0.12449,0.9213 0.26285,0.7829 0.13836,-0.1383 0.20717,-0.8664 0.1529,-1.6179 -0.0714,-0.9894 0.0793,-1.499 0.54647,-1.847 0.35482,-0.2643 0.68896,-0.6918 0.74251,-0.95 0.0536,-0.2583 0.44023,-0.9333 0.85926,-1.5 0.58493,-0.7912 0.87123,-0.9398 1.23266,-0.6398 0.35159,0.2918 0.48449,0.2675 0.52482,-0.096 0.0298,-0.2677 0.0911,-0.6464 0.13644,-0.8414 0.0453,-0.1951 0.1008,-0.5542 0.12332,-0.7981 0.0611,-0.6627 0.67841,-0.5346 0.85411,0.1774 0.0842,0.3414 0.11261,0.236 0.063,-0.2341 -0.0976,-0.9254 1.1984,-2.5905 2.12184,-2.726 0.30369,-0.045 0.4706,0.051 0.3709,0.2122 -0.0997,0.1613 -0.0195,0.3471 0.17823,0.413 0.19769,0.066 -0.0407,0.5514 -0.52983,1.0789 -0.48907,0.5275 -0.88925,1.2313 -0.88925,1.564 0,0.6623 -1.33453,3.0732 -2.90207,5.2427 -0.88352,1.2229 -1.18045,1.3594 -1.04142,0.4788 0.0231,-0.1463 -0.13467,-0.266 -0.35063,-0.266 -0.21593,0 -0.30078,-0.2394 -0.18848,-0.532 0.11229,-0.2926 0.0669,-0.532 -0.10095,-0.532 -0.69237,0 -1.03286,2.8814 -0.36943,3.1264 0.16623,0.061 0.20922,0.354 0.0955,0.6504 -0.16783,0.4374 -0.26328,0.4498 -0.50669,0.066 -0.2181,-0.3441 -0.30137,-0.2675 -0.30531,0.2806 -0.004,0.5526 -0.2906,0.8108 -1.07341,0.9674 -0.67262,0.1345 -1.21886,0.5448 -1.47565,1.1084 -0.22423,0.4921 -0.54742,0.8947 -0.71823,0.8947 -0.17078,0 0.0897,-0.5889 0.57881,-1.3087 z m 5.32018,-6.4571 c 0.10793,-0.1746 -0.034,-0.4059 -0.31568,-0.514 -0.34148,-0.131 -0.44625,-0.025 -0.3147,0.3176 0.22862,0.5958 0.35854,0.6362 0.63038,0.1964 z m 0.555,-1.4559 c 0,-0.1951 -0.15961,-0.3547 -0.35468,-0.3547 -0.19507,0 -0.35469,0.1596 -0.35469,0.3547 0,0.1951 0.15962,0.3547 0.35469,0.3547 0.19507,0 0.35468,-0.1596 0.35468,-0.3547 z m 3.36946,-4.2561 c 0.12057,-0.1951 0.0502,-0.3547 -0.15641,-0.3547 -0.20656,0 -0.3756,0.1596 -0.3756,0.3547 0,0.195 0.0704,0.3546 0.15641,0.3546 0.086,0 0.25505,-0.1596 0.3756,-0.3546 z m -354.99562,2.4178 c 0.10244,-0.1657 0.33483,-0.2095 0.51642,-0.097 0.46406,0.2868 0.41181,0.3987 -0.18624,0.3987 -0.28403,0 -0.43262,-0.1356 -0.33018,-0.3014 z m -2.70021,-2.7516 c 0,-0.1835 0.15778,-0.4312 0.35062,-0.5504 0.20105,-0.1243 0.26051,0.018 0.13939,0.3337 -0.23579,0.6145 -0.49001,0.7269 -0.49001,0.2167 z m 357.96607,-2.0392 c 0.32978,-0.3298 0.69918,-0.5 0.82087,-0.3783 0.34909,0.3491 -0.18681,0.9779 -0.83335,0.9779 -0.54143,0 -0.54043,-0.047 0.0124,-0.5996 z m 1.35382,-0.6714 c 0.017,-0.4132 0.10108,-0.4973 0.2143,-0.2144 0.10246,0.2562 0.0899,0.5621 -0.028,0.68 -0.11786,0.1178 -0.20171,-0.092 -0.18631,-0.4656 z m -364.28543,-2.2325 c 0,-0.414 0.15019,-0.7528 0.33375,-0.7528 0.61447,0 0.72816,0.6243 0.19436,1.0673 -0.43948,0.3647 -0.52811,0.312 -0.52811,-0.3145 z m -1.94824,-9.6157 c -0.12426,-0.201 0.0181,-0.2605 0.33376,-0.1394 0.61445,0.2358 0.72687,0.4901 0.21669,0.4901 -0.18356,0 -0.43126,-0.1578 -0.55045,-0.3507 z m 379.81633,-10.4554 c -0.10982,-0.2862 -0.0376,-0.9645 0.16045,-1.5074 0.34461,-0.9445 0.36135,-0.922 0.38816,0.5203 0.0284,1.5342 -0.18872,1.925 -0.54861,0.9871 z m 1.16387,-0.4543 c -0.43285,-0.7004 -0.35766,-3.6944 0.0999,-3.9772 0.25725,-0.159 0.35805,-0.4665 0.22402,-0.6834 -0.13403,-0.217 -0.0653,-0.3945 0.15283,-0.3945 0.21809,0 0.29194,-0.1692 0.16411,-0.376 -0.27253,-0.441 0.49237,-2.4614 0.93182,-2.4614 0.16528,0 0.19862,-0.2656 0.0741,-0.5902 -0.15231,-0.3968 -0.0906,-0.5062 0.18848,-0.3337 0.29115,0.1799 0.41493,-0.1793 0.41493,-1.2042 0,-0.9717 0.13056,-1.3798 0.39008,-1.2195 0.25903,0.1601 0.24757,-0.025 -0.0341,-0.5514 -0.34219,-0.6394 -0.31552,-1.0076 0.1379,-1.9049 0.7432,-1.4708 1.93621,-6.7725 2.19151,-9.7387 0.11211,-1.3028 0.29835,-2.6082 0.41387,-2.9008 0.19628,-0.4972 0.24863,-0.8458 0.39948,-2.6601 0.037,-0.4449 0.1561,-0.5581 0.31953,-0.3038 0.14333,0.223 0.28627,-0.6348 0.31765,-1.9063 0.0518,-2.0987 -0.0301,-2.3866 -0.8867,-3.1231 -0.87467,-0.7519 -0.94302,-1.0148 -0.93376,-3.5913 0.0142,-3.9035 0.18915,-6.477 0.539,-7.9228 0.36128,-1.4931 0.63354,-3.5819 0.90146,-6.9163 0.10974,-1.3655 0.29165,-2.7222 0.40426,-3.0148 0.11265,-0.2926 0.22022,-0.75769 0.23906,-1.03351 0.0188,-0.27581 0.25923,-0.5769 0.53415,-0.66908 0.3461,-0.11604 0.43041,0.0135 0.27403,0.42102 -0.18905,0.49262 -0.11151,0.5274 0.47548,0.21326 0.38575,-0.20645 0.70139,-0.45897 0.70139,-0.56116 0,-0.10219 -0.15159,-0.0921 -0.33689,0.0224 -0.84268,0.5208 -1.0347,-1.44199 -0.75567,-7.72425 0.0156,-0.3529 0.1668,-0.55615 0.33584,-0.45168 0.17287,0.10684 0.17213,-0.5339 0,-1.46446 -0.22816,-1.22136 -0.19255,-1.72836 0.13602,-1.93699 0.34429,-0.21858 0.33368,-0.28381 -0.0468,-0.28801 -0.38834,-0.004 -0.45239,-0.49768 -0.30424,-2.34358 0.10325,-1.28598 0.3645,-2.51496 0.58061,-2.73105 0.28102,-0.28103 0.39288,-0.28252 0.39288,-0.005 0,0.21322 0.2431,0.48096 0.54022,0.59498 0.44075,0.16913 0.47112,0.0782 0.16489,-0.49408 -0.20646,-0.38576 -0.50539,-0.70137 -0.66425,-0.70137 -0.15889,0 -0.28349,-1.51627 -0.27689,-3.36948 0.007,-1.85321 0.13144,-3.36947 0.27746,-3.36947 0.14599,0 0.37188,-0.33527 0.50191,-0.74506 0.13868,-0.43683 0.36744,-0.61412 0.55301,-0.42854 0.449,0.449 0.74526,3.74038 0.31259,3.47299 -0.18968,-0.11725 -0.3449,-0.0831 -0.3449,0.0759 0,0.15897 0.47883,0.50098 1.06405,0.76002 1.24007,0.54891 1.48838,1.83026 0.35468,1.83026 -0.39015,0 -0.70936,0.14007 -0.70936,0.31125 0,0.45937 0.98669,1.19715 1.32303,0.98927 0.27562,-0.17035 0.25714,2.00495 -0.0348,4.10836 -0.0745,0.53646 -0.1578,1.73351 -0.18518,2.66011 -0.034,1.14933 -0.15116,1.52452 -0.36886,1.18058 -0.24311,-0.38408 -0.45297,-0.18373 -0.88128,0.84136 -0.6971,1.66839 -0.6977,1.84032 -0.008,2.10511 0.31333,0.12023 0.44282,0.39348 0.29776,0.6282 -0.1412,0.22848 -0.24445,1.26705 -0.22944,2.30794 0.0149,1.04087 -0.1246,1.89251 -0.31024,1.89251 -0.20337,0 -0.1916,0.27268 0.0294,0.68604 0.54312,1.01482 0.48098,5.01161 -0.0762,4.90021 -0.25591,-0.051 -0.39583,0.1888 -0.33096,0.5676 0.0793,0.463 -0.0252,0.5735 -0.35468,0.3752 -0.36202,-0.2178 -0.35758,-0.146 0.0195,0.3191 0.51561,0.6357 0.93714,0.8277 0.59243,0.27 -0.11222,-0.1816 -0.0546,-0.4226 0.12811,-0.5355 0.37011,-0.2287 0.25569,2.9979 -0.33249,9.378 -0.20681,2.2434 -0.52191,6.4729 -0.70024,9.399 -0.17833,2.9262 -0.48055,6.1183 -0.67163,7.0937 -0.19103,0.9753 -0.35932,2.5714 -0.37393,3.5467 -0.0192,1.2743 -0.12255,1.6237 -0.36752,1.2414 -0.23973,-0.374 -0.29141,-0.1371 -0.17408,0.798 0.0918,0.7316 0.0472,1.3301 -0.0989,1.3301 -0.14616,0 -0.27988,0.7715 -0.29715,1.7145 -0.0174,0.9431 -0.2957,2.2445 -0.61874,2.892 -0.75664,1.5167 -0.73983,1.8846 0.12197,2.6645 0.98041,0.8873 0.8955,1.1998 -0.48236,1.7755 -1.27115,0.5311 -1.48448,0.9167 -2.74644,4.9634 -0.93707,3.005 -1.88925,4.4889 -2.68458,4.1837 -0.38962,-0.1495 -0.51078,-0.061 -0.38625,0.282 0.0997,0.2749 0.36777,0.4577 0.59558,0.4062 0.31432,-0.071 0.31343,0.1 -0.004,0.7093 -0.55106,1.0589 -0.57362,1.0792 -0.7986,0.7152 z m 2.15264,-5.0551 c 0.0294,-0.3901 -0.0776,-0.7093 -0.23781,-0.7093 -0.16021,0 -0.37476,0.3192 -0.47677,0.7093 -0.109,0.4169 -0.011,0.7095 0.23782,0.7095 0.23284,0 0.44739,-0.3192 0.47676,-0.7095 z m 0.27487,-1.4187 c 0.12056,-0.195 -0.039,-0.3546 -0.35468,-0.3546 -0.31562,0 -0.47523,0.1596 -0.35467,0.3546 0.12055,0.1951 0.28016,0.3547 0.35467,0.3547 0.0745,0 0.23413,-0.1596 0.35468,-0.3547 z m 0.66738,-2.6785 c 0.12112,-0.3156 0.0616,-0.458 -0.13943,-0.3337 -0.19285,0.1192 -0.35061,0.3669 -0.35061,0.5504 0,0.5102 0.25424,0.3978 0.49004,-0.2167 z m 0.21933,-1.0247 c 0,-0.086 -0.15961,-0.255 -0.35468,-0.3756 -0.19508,-0.1205 -0.35469,-0.05 -0.35469,0.1564 0,0.2066 0.15961,0.3756 0.35469,0.3756 0.19507,0 0.35468,-0.07 0.35468,-0.1564 z m 2.72505,-13.7426 c -0.11321,-0.283 -0.19727,-0.1989 -0.2143,0.2143 -0.0153,0.3739 0.0685,0.5833 0.18632,0.4655 0.11785,-0.1179 0.13045,-0.4238 0.028,-0.6798 z m 0.82175,-12.4868 c 0,-0.077 -0.2477,-0.2344 -0.55042,-0.3506 -0.31567,-0.1211 -0.45803,-0.062 -0.33375,0.1394 0.20826,0.337 0.88417,0.4985 0.88417,0.2112 z m 0.968,-4.331 c -0.11786,-0.1178 -0.42377,-0.1304 -0.67981,-0.028 -0.28294,0.1132 -0.19891,0.1973 0.2143,0.2143 0.37386,0.015 0.58337,-0.068 0.46551,-0.1863 z m -0.62466,-3.9827 c -0.18883,-0.065 -0.34334,-0.4242 -0.34334,-0.7981 0,-0.3739 -0.12541,-0.6799 -0.27867,-0.6799 -0.15329,0 -0.27867,0.3193 -0.27867,0.7095 0,0.3901 0.12538,0.7094 0.27867,0.7094 0.15326,0 0.28112,0.2793 0.2841,0.6206 0.005,0.5294 0.0552,0.5425 0.34334,0.089 0.21515,-0.3388 0.2132,-0.5749 -0.005,-0.6502 z m 2.2845,-5.7863 c -0.10282,-0.1664 -0.37703,-0.3 -0.60934,-0.297 -0.25381,0 -0.21008,0.1426 0.10959,0.3492 0.35468,0.2292 0.38423,0.3456 0.0887,0.3493 -0.24384,0 -0.43827,0.2847 -0.43207,0.6261 0.0103,0.5678 0.0546,0.5634 0.52067,-0.052 0.28016,-0.3701 0.42526,-0.809 0.32248,-0.9753 z m -1.32428,-3.728 c -0.12835,-0.1283 -0.0351,-0.4782 0.20693,-0.7774 0.35117,-0.434 0.35057,-0.4902 -0.004,-0.2777 -0.24386,0.1465 -0.44336,0.097 -0.44336,-0.1093 0,-0.2065 -0.27931,-0.3705 -0.62069,-0.3643 -0.55983,0.01 -0.56547,0.054 -0.0575,0.4434 0.30971,0.2376 0.49591,0.6315 0.41377,0.8754 -0.0821,0.2438 0.0502,0.4433 0.29399,0.4433 0.24384,0 0.33833,-0.105 0.20997,-0.2334 z m 1.73667,-3.58353 c -0.11804,-0.11803 -0.41012,-0.0191 -0.64907,0.21987 -0.34283,0.34285 -0.3229,0.50419 0.0946,0.76505 0.37688,0.23549 0.56356,0.17225 0.64907,-0.21987 0.066,-0.30274 0.0234,-0.64702 -0.0946,-0.76505 z m -0.91214,-0.79391 c 0.009,0.43513 0.0665,0.44413 0.31663,0.0494 0.16818,-0.26543 0.22266,-0.80049 0.12105,-1.18902 -0.10364,-0.39641 0.0323,-0.84373 0.3095,-1.01935 0.39497,-0.2501 0.36958,-0.31403 -0.12649,-0.31837 -0.34138,-0.003 -0.62069,0.2434 -0.62069,0.54752 0,0.30413 -0.14857,0.46113 -0.33017,0.3489 -0.49911,-0.30847 -0.81037,0.42639 -0.54064,1.27627 0.18787,0.59194 0.30542,0.64817 0.54948,0.26284 0.2576,-0.40675 0.31233,-0.39963 0.32133,0.0418 z m 0.25864,-3.40643 c -0.11786,-0.11785 -0.42377,-0.13045 -0.67982,-0.028 -0.28293,0.11322 -0.1989,0.19727 0.2143,0.21428 0.37387,0.0154 0.58338,-0.0684 0.46552,-0.18628 z m -0.48361,-0.7665 c -0.22128,-0.14332 -0.48209,-0.5798 -0.57955,-0.96995 -0.13584,-0.5437 -0.18685,-0.48158 -0.21838,0.26601 -0.0298,0.71 0.12772,0.9739 0.57956,0.96994 0.3939,-0.004 0.47371,-0.10063 0.21837,-0.266 z m 0.56096,-5.79307 c -0.20642,-0.38568 -0.26987,-1.0333 -0.14109,-1.43917 0.15897,-0.50084 0.0947,-0.69142 -0.19997,-0.59318 -0.2388,0.0796 -0.48779,0.74188 -0.5533,1.47175 -0.07,0.78098 0.0202,1.24088 0.21966,1.11768 0.18631,-0.11514 0.33871,-0.0309 0.33871,0.18721 0,0.2181 0.16004,0.29763 0.35564,0.17674 0.23583,-0.14575 0.22923,-0.45602 -0.0195,-0.92103 z m 1.22103,-0.94045 c -0.24725,-1.04914 -0.84766,-1.93219 -0.84766,-1.24674 0,0.5756 0.65553,2.22211 0.88469,2.22211 0.10608,0 0.0894,-0.43891 -0.037,-0.97537 z m -0.26324,-4.97628 c -0.6411,-0.63486 -0.89451,-0.75243 -0.74129,-0.34393 0.128,0.34138 0.38473,0.62068 0.57044,0.62068 0.18571,0 0.24746,0.14598 0.13719,0.3244 -0.11027,0.17841 0,0.39597 0.24508,0.48346 0.84308,0.301 0.76065,-0.12195 -0.21142,-1.08461 z m -397.41651,66.24737 c 0,-0.4876 0.0805,-0.6872 0.17889,-0.4433 0.0984,0.2438 0.0984,0.6428 0,0.8867 -0.0984,0.2438 -0.17889,0.044 -0.17889,-0.4434 z m -10.4448,-63.75008 c -0.10215,-0.53437 -0.0415,-1.24102 0.13469,-1.57031 0.23732,-0.44343 0.15978,-0.64072 -0.29896,-0.76067 -0.3795,-0.0992 -0.24163,-0.17788 0.35598,-0.20309 0.61226,-0.0258 0.97538,-0.2392 0.97538,-0.57316 0,-0.29262 -0.16903,-0.53203 -0.37561,-0.53203 -0.20659,0 -0.26173,0.18427 -0.12254,0.40949 0.15035,0.24327 0.0979,0.3136 -0.12912,0.17327 -0.21021,-0.12991 -0.48404,-0.69987 -0.6085,-1.26655 -0.12447,-0.5667 -0.45596,-1.11848 -0.73665,-1.22619 -0.68985,-0.26472 -0.6429,-0.91796 0.11034,-1.53535 0.34138,-0.27982 0.45346,-0.42766 0.24908,-0.32852 -0.20439,0.0991 -0.60119,0.0384 -0.88179,-0.13507 -0.67461,-0.41693 -0.71893,-12.68642 -0.0562,-15.5714 0.24303,-1.05799 0.52218,-4.40972 0.62034,-7.4483 0.19939,-6.17223 0.79736,-9.76278 2.36724,-14.21438 1.62378,-4.60443 3.12081,-7.43152 4.95864,-9.3642 1.55619,-1.6365 1.73405,-1.72855 2.58813,-1.33941 0.50439,0.22983 1.14174,0.41787 1.4163,0.41787 0.27457,0 0.90549,0.40626 1.40204,0.90281 0.78165,0.78166 0.90283,1.21148 0.90283,3.20242 0,1.87911 -0.47922,3.80552 -2.62081,10.53563 -1.44144,4.52984 -2.732,8.87449 -2.86791,9.65478 -0.21613,1.24092 -0.81131,3.00965 -2.68541,7.98033 -0.25742,0.68276 -0.45109,2.03942 -0.43037,3.01479 0.0359,1.68921 0.0169,1.7267 -0.39962,0.78966 -0.24051,-0.54106 -0.53215,-0.8889 -0.64808,-0.77296 -0.11594,0.11593 0.005,0.62697 0.26904,1.13565 0.2639,0.50868 0.39877,1.05602 0.2997,1.21631 -0.0991,0.16029 -0.0111,0.29144 0.19549,0.29144 0.46444,0 0.49955,1.30027 0.0427,1.5826 -0.18309,0.11315 -0.2727,0.51823 -0.19914,0.90017 0.0736,0.38195 -0.009,0.78272 -0.18365,0.89061 -0.17457,0.10788 -0.22748,0.43045 -0.1176,0.71681 0.10989,0.28637 0.0231,0.52067 -0.19283,0.52067 -0.21594,0 -0.39262,0.16902 -0.39262,0.37561 0,0.20659 0.18673,0.26021 0.41495,0.11915 0.29281,-0.18096 0.33237,-0.0566 0.1344,0.42242 -0.15431,0.37339 -0.36106,1.43406 -0.45945,2.35705 -0.10337,0.96964 -0.3259,1.58731 -0.52708,1.46298 -0.21155,-0.13075 -0.2543,0.0806 -0.10895,0.53859 0.28095,0.88518 -0.0785,2.26673 -0.51894,1.99452 -0.16755,-0.10355 -0.42014,-10e-4 -0.5613,0.22699 -0.16028,0.25935 -0.1029,0.32026 0.15283,0.16219 0.64431,-0.39819 0.50138,1.62787 -0.18385,2.60616 -0.33706,0.48122 -0.39724,0.72592 -0.13934,0.56652 0.34351,-0.2123 0.38996,-0.0756 0.19085,0.56186 -0.14473,0.46335 -0.42168,0.94432 -0.61546,1.06881 -0.19377,0.12449 -0.24264,0.4038 -0.1086,0.62069 0.13404,0.21689 0.0933,0.39434 -0.0905,0.39434 -0.18385,0 -0.41785,-0.43722 -0.52001,-0.9716 z m 0.18246,-10.64729 c -0.24119,-0.0804 -0.36474,-0.26555 -0.27457,-0.41145 0.0902,-0.1459 -0.0738,-0.26527 -0.36429,-0.26527 -0.36352,0 -0.41395,0.11429 -0.16174,0.3665 0.20158,0.20158 0.37731,0.77351 0.39051,1.27094 l 0.024,0.90444 0.41231,-0.8595 c 0.31962,-0.66629 0.31373,-0.89235 -0.0262,-1.00566 z m 406.69772,-1.41564 c -0.0231,-0.34138 -0.016,-0.8202 0.0156,-1.06405 0.0316,-0.24384 -0.10906,-0.44335 -0.31269,-0.44335 -0.20362,0 -0.37021,0.23785 -0.37021,0.52855 0,0.44002 -0.12424,0.42517 -0.74175,-0.0887 -0.82888,-0.68975 -1.38176,-1.88138 -1.58439,-3.41496 -0.0744,-0.5634 -0.37951,-1.29419 -0.67801,-1.62399 -0.57618,-0.63669 -0.76923,-3.03112 -0.21686,-2.68972 0.34678,0.21431 0.93566,-1.85373 0.61825,-2.17113 -0.42122,-0.42121 -0.95778,0.34853 -0.74313,1.0661 0.17699,0.59166 -0.0642,0.46236 -1.04961,-0.56269 -0.70368,-0.73199 -1.27939,-1.65608 -1.27939,-2.05355 0,-0.39746 -0.315,-1.34008 -0.69997,-2.0947 -0.38497,-0.75461 -0.78332,-2.38422 -0.88518,-3.62134 -0.25317,-3.07405 -1.55035,-14.15337 -1.75269,-14.97005 -0.0902,-0.36385 0.0106,-0.94124 0.22419,-1.28307 0.42644,-0.68283 0.11914,-1.94352 -0.3961,-1.62507 -0.55497,0.34297 -1.17581,-1.9926 -1.26675,-4.7653 -0.048,-1.46306 0.0163,-2.2627 0.14301,-1.77698 0.14609,0.5603 0.32428,0.73103 0.48744,0.46702 0.14145,-0.22885 -0.31163,-1.45086 -1.0068,-2.71557 -1.35321,-2.46185 -2.07499,-4.48682 -1.59929,-4.48682 0.39423,0 0.77398,1.04855 0.52542,1.45073 -0.17209,0.27849 0.25647,0.45573 0.93243,0.38559 0.26324,-0.0273 2.16273,3.29788 2.80059,4.90263 0.62275,1.56679 2.42386,4.25617 2.8504,4.25617 0.44937,0 1.738,4.45618 2.51284,8.68968 0.35706,1.95075 0.9864,4.74386 1.39862,6.20692 0.60178,2.13596 0.70765,3.21921 0.5374,5.49756 -0.2216,2.96563 -0.77494,6.7571 -0.8567,5.86997 -0.0344,-0.37421 -0.15371,-0.40796 -0.43778,-0.12391 -0.28402,0.28405 -0.26377,0.74049 0.0744,1.67581 0.34748,0.96093 0.36848,1.54069 0.0832,2.29657 -0.32144,0.85155 -0.27721,1.08644 0.28024,1.48821 0.36405,0.26239 0.66191,0.61286 0.66191,0.7788 0,0.16594 0.2394,0.54112 0.53201,0.83373 0.41293,0.41291 0.53884,0.4271 0.56253,0.0633 0.0167,-0.25778 0.18054,0.0101 0.36394,0.59536 0.42224,1.34727 0.81226,5.14287 0.52843,5.14287 -0.11743,0 -0.23242,-0.27931 -0.25554,-0.62069 z m -0.22685,-2.75402 c -0.0938,-0.49057 -0.32815,-0.98938 -0.52081,-1.10846 -0.21704,-0.13412 -0.25392,0.0873 -0.097,0.58168 0.19585,0.61707 0.1441,0.73242 -0.22804,0.50835 -0.39862,-0.24004 -0.3977,-0.18673 0.005,0.31026 0.69689,0.85912 1.0378,0.74074 0.84042,-0.29183 z m -2.77573,-10.33067 c 0.18681,-0.4868 0.13488,-0.50874 -0.31673,-0.13391 -0.61548,0.51078 -0.6795,0.71609 -0.22341,0.71609 0.17422,0 0.41728,-0.26198 0.54014,-0.58218 z m -0.52713,-0.92521 c -0.0138,-0.24384 -0.16209,-0.76257 -0.32975,-1.15271 -0.25544,-0.59445 -0.30885,-0.52263 -0.32974,0.44334 -0.0138,0.634 0.13467,1.15272 0.32974,1.15272 0.19508,0 0.34348,-0.19951 0.32975,-0.44335 z m -2.67716,-17.48647 c 0.12112,-0.31563 0.0616,-0.458 -0.13943,-0.33374 -0.19285,0.11918 -0.35061,0.36688 -0.35061,0.55044 0,0.51019 0.25424,0.39777 0.49004,-0.2167 z m -1.15609,-1.46237 c -0.41813,-0.719 -0.51908,-0.48887 -0.17684,0.40304 0.12165,0.31699 0.29587,0.50162 0.3872,0.4103 0.0913,-0.0913 -0.004,-0.45733 -0.21036,-0.81334 z m -0.22064,-1.88867 c 0.12055,-0.19507 0.0502,-0.35469 -0.15642,-0.35469 -0.20657,0 -0.37561,0.15962 -0.37561,0.35469 0,0.19507 0.0704,0.35468 0.15641,0.35468 0.086,0 0.25506,-0.15961 0.37562,-0.35468 z m 0.3734,-2.0978 c -0.11027,-0.17841 -0.0798,-0.39166 0.0677,-0.47388 0.14751,-0.0822 0.0786,-0.10469 -0.15305,-0.0499 -0.23167,0.0548 -0.48924,-0.25069 -0.57239,-0.67882 -0.12892,-0.66392 -0.15826,-0.6393 -0.19943,0.16739 -0.0405,0.7921 0.20926,1.14288 0.94799,1.33161 0.0603,0.0154 0.0195,-0.11798 -0.0909,-0.29639 z m -1.26011,-3.57709 c 0,-0.39016 -0.14467,-0.70937 -0.32148,-0.70937 -0.17681,0 -0.23799,0.31921 -0.13595,0.70937 0.10201,0.39014 0.24668,0.70935 0.32145,0.70935 0.0748,0 0.13598,-0.31921 0.13598,-0.70935 z m -0.82886,-2.51938 c -0.27548,-0.73501 -0.45172,-0.90609 -0.53049,-0.51499 -0.0649,0.32213 0.0744,0.81741 0.30946,1.10065 0.6324,0.76203 0.67946,0.63737 0.22103,-0.58566 z m -2.21856,-3.33287 c -0.31953,-0.48768 -0.65184,-0.8867 -0.73845,-0.8867 -0.17383,0 0.16067,0.64253 0.69238,1.33006 0.61072,0.78964 0.64402,0.46921 0.0461,-0.44336 z m 9.07699,38.63931 c 0,-0.30413 0.16221,-0.45271 0.36047,-0.33018 0.19827,0.12253 0.26864,0.37137 0.15642,0.55296 -0.30403,0.49195 -0.51689,0.40022 -0.51689,-0.22278 z m -4.41201,-42.48705 c -0.4995,-0.49952 -0.90819,-1.11648 -0.90819,-1.37103 0,-0.25456 -0.3105,-0.65673 -0.68997,-0.89371 -0.77402,-0.48338 -3.09477,-3.78684 -4.17768,-5.94667 -0.93686,-1.86848 -1.39546,-4.26193 -0.74122,-3.86832 0.37987,0.22852 0.38268,0.17743 0.0152,-0.27645 -0.37961,-0.46884 -0.33151,-0.58798 0.30443,-0.75428 0.52479,-0.13723 1.01516,0.083 1.60706,0.72162 0.4685,0.50553 0.79416,0.97678 0.72372,1.04723 -0.0704,0.0704 0.38183,0.66875 1.00503,1.32954 0.65439,0.69386 1.32257,1.92741 1.58159,2.91978 0.24665,0.94508 0.73147,2.51636 1.07731,3.49173 1.64515,4.63963 1.6692,5.06699 0.20277,3.60056 z m -11.59388,-1.20646 c -0.44116,-0.56255 -0.42864,-0.57509 0.13392,-0.13391 0.59079,0.46334 0.7787,0.7546 0.48676,0.7546 -0.0736,0 -0.35294,-0.27931 -0.62068,-0.62069 z m -381.16594,-6.18919 c -0.60465,-0.60463 -0.54623,-0.81819 0.54975,-2.00982 1.07946,-1.17367 2.70278,-1.75969 3.09893,-1.1187 0.33392,0.54029 -0.49539,2.4901 -1.05911,2.4901 -0.24507,0 -0.64426,0.23941 -0.88711,0.53202 -0.53304,0.64229 -1.12932,0.67956 -1.70246,0.1064 z m 80.85817,-93.32171 c -1.59257,-1.6952 -0.65267,-4.12972 1.30871,-3.38982 0.6573,0.24796 0.75179,0.42081 0.43723,0.79983 -0.22071,0.26594 -0.30151,0.74352 -0.17958,1.06129 0.26227,0.68346 -0.0987,2.3496 -0.50909,2.3496 -0.15735,0 -0.63312,-0.36941 -1.05727,-0.8209 z m 10.08424,-6.71608 c -0.17692,-0.63483 0.0866,-1.06966 1.28869,-2.1262 1.89294,-1.6638 3.48391,-2.46452 4.01728,-2.02187 0.47236,0.39203 0.87952,0.0809 0.65608,-0.50138 -0.0952,-0.2481 1.08117,-0.88807 2.95056,-1.60515 1.70989,-0.65591 3.86386,-1.48193 4.78663,-1.8356 1.11088,-0.42577 1.755,-0.51802 1.9064,-0.27305 0.15181,0.24563 0.3195,0.22304 0.49888,-0.0672 0.40967,-0.66287 3.01059,-0.657 3.01059,0.007 0,0.29744 -0.28442,0.50851 -0.64508,0.47869 -0.41426,-0.0343 -0.57789,0.12174 -0.45731,0.43597 0.27028,0.70434 -2.00309,2.3565 -2.81425,2.04524 -0.48889,-0.18761 -0.58883,-0.1122 -0.42323,0.31933 0.15947,0.41558 -0.2228,0.77765 -1.44582,1.36943 -0.91444,0.44247 -1.86212,0.76758 -2.10596,0.72247 -0.24384,-0.0451 -0.44335,0.126 -0.44335,0.38024 0,0.49114 -0.92487,1.17204 -2.30434,1.69651 -0.64772,0.24628 -1.06001,0.14439 -1.81322,-0.44809 -0.6704,-0.52733 -1.01992,-0.63174 -1.11906,-0.33429 -0.0793,0.2379 -0.29016,0.34232 -0.46857,0.23206 -0.17841,-0.11026 -0.32439,-0.022 -0.32439,0.19606 0,0.2181 -0.15961,0.2979 -0.35468,0.17734 -0.19507,-0.12056 -0.35468,-0.0671 -0.35468,0.11889 0,0.18595 0.3837,0.31508 0.85267,0.28695 0.46896,-0.0281 0.77876,-0.17087 0.68842,-0.31717 -0.0903,-0.14631 0.0675,-0.26601 0.35077,-0.26601 0.28326,0 0.59831,0.21705 0.7001,0.48234 0.13217,0.34443 -0.38941,0.61089 -1.82412,0.93192 -1.10507,0.24727 -2.20873,0.52612 -2.45257,0.61966 -0.24384,0.0935 -0.44336,-0.0864 -0.44336,-0.39991 0,-0.32774 0.29258,-0.56996 0.68843,-0.56996 0.91684,0 1.25173,-0.61311 0.6988,-1.27934 -0.3991,-0.48088 -0.48109,-0.47841 -0.76169,0.023 -0.17295,0.30904 -0.44481,0.48132 -0.60416,0.38284 -0.15933,-0.0985 -0.38494,0.2972 -0.50135,0.87925 -0.24904,1.24521 -1.11479,1.40243 -1.43311,0.26025 z m 8.65202,-3.81282 c 0,-0.19508 -0.16903,-0.35468 -0.37561,-0.35468 -0.20659,0 -0.27697,0.1596 -0.15641,0.35468 0.12056,0.19507 0.28959,0.35468 0.37561,0.35468 0.086,0 0.15641,-0.15961 0.15641,-0.35468 z m 2.36144,-0.86864 c -0.13182,-0.34352 -0.0268,-0.44856 0.31673,-0.31674 0.28268,0.10848 0.51397,0.0205 0.51397,-0.1954 0,-0.48938 -0.94455,-0.51825 -1.24139,-0.038 -0.12056,0.19507 -0.12056,0.51429 0,0.70937 0.33355,0.53969 0.63417,0.4231 0.41069,-0.15928 z m 199.93999,0.5972 c -0.64767,-0.42321 -0.88046,-2.31367 -0.3986,-3.23707 0.24349,-0.46662 0.79162,-1.07783 1.21806,-1.35825 0.74094,-0.48723 0.79464,-0.44546 1.21021,0.94161 0.35708,1.19178 0.34537,1.62516 -0.0654,2.4223 -0.47715,0.92591 -1.00381,1.49198 -1.38813,1.49198 -0.0975,0 -0.35679,-0.11726 -0.57613,-0.26057 z m -9.22275,-3.70311 c -0.10845,-0.17549 -0.38207,-0.25095 -0.60803,-0.16769 -0.69554,0.25628 -5.90784,-2.61429 -5.91385,-3.25691 -0.005,-0.50481 -0.0506,-0.51127 -0.34925,-0.0491 -0.22921,0.35468 -0.34562,0.38423 -0.34924,0.0887 -0.003,-0.24384 -0.20494,-0.40345 -0.44878,-0.35468 -0.24385,0.0488 -0.4106,-0.0894 -0.37056,-0.30709 0.04,-0.21766 -0.62691,-0.75562 -1.48213,-1.19547 -1.62622,-0.83641 -2.11232,-2.13292 -0.79968,-2.13292 0.42945,0 0.56314,0.15258 0.38846,0.44334 -0.16072,0.26753 -0.0131,0.23767 0.37212,-0.0753 0.56757,-0.46102 0.6921,-0.44532 1.12105,0.1413 0.39875,0.54534 0.57686,0.58166 1.02566,0.2092 0.38016,-0.31551 0.5431,-0.32927 0.5431,-0.0459 0,0.25224 0.32667,0.32288 0.86655,0.18738 0.4766,-0.11962 1.07513,-0.0873 1.33005,0.0719 0.25493,0.15918 0.67135,0.32091 0.92537,0.3594 0.82031,0.12428 2.22712,1.21238 2.01379,1.55755 -0.11388,0.18427 0.034,0.24251 0.32875,0.12943 0.83191,-0.31923 2.98926,0.53507 4.10467,1.62541 l 1.0088,0.98613 -0.65883,1.08335 c -0.51641,0.84917 -0.89574,1.07662 -1.75482,1.05219 -0.6028,-0.0171 -1.18474,-0.17474 -1.2932,-0.35023 z m 2.35059,-1.70035 c 0,-0.19507 -0.0704,-0.35468 -0.15641,-0.35468 -0.086,0 -0.25505,0.15961 -0.37562,0.35468 -0.12056,0.19507 -0.0502,0.35468 0.15641,0.35468 0.20659,0 0.37562,-0.15961 0.37562,-0.35468 z m -59.08029,-3.71654 c -0.37591,-0.28439 -0.52387,-0.5197 -0.32879,-0.52292 0.52703,-0.009 1.42785,0.62442 1.20521,0.84704 -0.10612,0.10613 -0.50052,-0.0397 -0.87642,-0.32412 z m 44.36102,-1.60368 c -0.12056,-0.19507 -0.0596,-0.35467 0.13547,-0.35467 0.19508,0 0.45333,0.1596 0.57389,0.35467 0.12057,0.19508 0.0596,0.35469 -0.13547,0.35469 -0.19508,0 -0.45333,-0.15961 -0.57389,-0.35469 z"
       id="path3345"/>
  </g>
</svg>
