<?xml version="1.0" encoding="UTF-8" standalone="no"?>
<!-- Created with Inkscape (http://www.inkscape.org/) -->

<svg
   width="390.42294"
   height="399.99973"
   viewBox="0 0 390.42294 399.9997"
   id="svg2"
   version="1.1">
  <g
     id="layer1"
     transform="translate(72.241752,671.03948)">
    <path
       style="fill:#90119e"
       d="m 123.13403,-271.10947 c -5.32717,-0.45125 -9.12494,-1.06643 -18.32727,-2.96887 -13.812568,-2.8555 -19.586785,-4.64896 -28.944983,-8.9903 -3.362923,-1.56005 -15.209706,-5.95172 -16.055204,-5.95172 -0.297695,0 -0.910094,-0.31989 -1.36089,-0.71086 -0.911608,-0.79062 -1.277954,-0.8756 -1.591042,-0.36901 -0.13007,0.21045 -0.533932,0.21916 -1.050724,0.0228 -0.461697,-0.17551 -0.912067,-0.24653 -1.000828,-0.15778 -0.08876,0.0888 -0.625021,-0.0804 -1.191695,-0.37593 -0.566673,-0.29551 -1.350202,-0.54072 -1.741176,-0.54495 -0.600752,-0.006 -0.62828,-0.0666 -0.177715,-0.38845 0.435065,-0.31075 0.395811,-0.35113 -0.213361,-0.21944 -0.410579,0.0888 -1.127508,-0.12604 -1.593175,-0.47731 -0.603837,-0.45545 -0.974199,-0.53279 -1.291329,-0.26959 -0.33071,0.27446 -0.542479,0.11174 -0.826386,-0.63498 -0.305095,-0.80246 -0.447896,-0.89942 -0.711309,-0.48292 -0.28325,0.44784 -0.330348,0.44201 -0.335025,-0.0415 -0.0067,-0.69554 -1.354237,-0.66362 -1.790606,0.0424 -0.235121,0.38042 -0.392178,0.27102 -0.673644,-0.46931 -0.412047,-1.08374 -1.089565,-1.29398 -1.106729,-0.34338 -0.0088,0.48626 -0.213034,0.39236 -0.936022,-0.43043 -0.980516,-1.1158 -1.978948,-1.53166 -1.655837,-0.68968 0.311549,0.81191 -0.734789,0.56848 -1.296522,-0.30161 -0.283964,-0.43985 -0.47842,-0.93155 -0.432122,-1.0927 0.0463,-0.16116 -0.07973,-0.19172 -0.280054,-0.0679 -0.200331,0.12372 -0.364238,0.0462 -0.364238,-0.17235 0,-0.21855 -0.162553,-0.29693 -0.361228,-0.17413 -0.198675,0.12277 -0.285684,0.34548 -0.19335,0.49487 0.233955,0.37857 -0.956983,0.36215 -1.444097,-0.0199 -0.219581,-0.17221 -0.658079,-0.2138 -0.974437,-0.0924 -0.352697,0.13535 -0.659814,2.1e-4 -0.79394,-0.34928 -0.120306,-0.31353 -0.512072,-0.57004 -0.870595,-0.57004 -0.358522,0 -0.765981,-0.18465 -0.905466,-0.41035 -0.157129,-0.25423 -0.0975,-0.31388 0.156738,-0.15674 0.612606,0.3786 0.495335,-0.46501 -0.155053,-1.11538 -0.481619,-0.48161 -0.617301,-0.49102 -0.915635,-0.0635 -0.277872,0.39823 -0.388504,0.40708 -0.535456,0.0428 -0.151368,-0.37523 -0.288507,-0.37523 -0.75035,0 -0.48244,0.39194 -0.53102,0.36809 -0.332022,-0.16289 0.128211,-0.3421 0.07818,-0.622 -0.111164,-0.622 -0.189352,0 -0.344277,0.23046 -0.344277,0.51217 0,0.28168 -0.163907,0.61347 -0.364238,0.73727 -0.200328,0.12383 -0.328585,0.0933 -0.285009,-0.0679 0.04357,-0.16115 -0.04992,-0.674 -0.207767,-1.13965 -0.217261,-0.64098 -0.359351,-0.72963 -0.584804,-0.36481 -0.179063,0.28971 -0.12814,0.60117 0.127717,0.78109 0.245591,0.1727 0.04979,0.19737 -0.463052,0.0583 -1.258508,-0.34125 -1.734408,-0.87191 -0.781947,-0.87191 0.430071,0 0.781947,-0.17 0.781947,-0.37778 0,-0.20775 -0.279901,-0.34928 -0.622003,-0.31449 -1.462693,0.14879 -2.186967,-0.0609 -2.386975,-0.69106 -0.117392,-0.36986 -0.53717,-0.75714 -0.932842,-0.86064 -0.594788,-0.15554 -0.645543,-0.0991 -0.29301,0.32565 0.234517,0.2826 0.32363,0.61656 0.198028,0.74213 -0.125598,0.12561 -0.228364,0.0468 -0.228364,-0.17512 0,-0.23238 -0.263811,-0.30887 -0.622003,-0.18034 -0.342102,0.12276 -0.516387,0.10542 -0.387302,-0.0385 0.129085,-0.14391 -0.207412,-0.68922 -0.747773,-1.21177 -0.816726,-0.7898 -0.962157,-1.19492 -0.862054,-2.40139 0.09079,-1.0942 -0.0081,-1.45137 -0.401732,-1.45137 -0.318448,0 -0.407711,0.15024 -0.228812,0.38507 0.161341,0.21177 0.174744,0.7849 0.02979,1.27362 -0.188609,0.6359 -0.273635,0.70222 -0.298988,0.2333 -0.01948,-0.3604 -0.364362,-0.74132 -0.766393,-0.84642 -0.402028,-0.10514 -0.659736,-0.37679 -0.572684,-0.60363 0.08705,-0.22687 -0.04493,-0.69039 -0.293294,-1.03003 -0.392222,-0.53639 -0.478986,-0.54612 -0.660166,-0.074 -0.114726,0.29899 -0.390672,0.5436 -0.613207,0.5436 -0.222538,0 -0.310227,-0.24596 -0.194865,-0.54662 0.119354,-0.311 -0.01745,-0.63377 -0.317403,-0.74886 -0.289935,-0.11128 -0.527153,-0.42509 -0.527153,-0.69742 0,-0.2723 -0.16557,-0.49512 -0.367934,-0.49512 -0.48436,0 0.189512,1.28908 0.808149,1.54595 0.246598,0.1024 0.0485,0.15632 -0.440215,0.11981 -0.547157,-0.0408 -0.854433,0.10439 -0.799718,0.37797 0.196421,0.98212 -1.200325,0.0917 -1.954868,-1.24628 -0.244359,-0.43331 -0.444288,-1.0299 -0.444288,-1.32576 0,-0.2959 -0.19993,-0.49799 -0.444289,-0.44912 -0.26187,0.0524 -0.401718,-0.20302 -0.340609,-0.62201 0.08574,-0.58788 0.03963,-0.61862 -0.266572,-0.17771 -0.329115,0.47389 -0.40914,0.47389 -0.720241,0 -0.211215,-0.32174 -0.352147,-0.36531 -0.355431,-0.10983 -0.0028,0.23281 0.154502,0.52216 0.349989,0.64298 0.195487,0.12081 0.342802,0.41016 0.327369,0.64297 -0.02164,0.32636 -0.0676,0.32611 -0.200679,0 -0.09494,-0.23338 -0.375541,-0.34647 -0.62356,-0.25129 -0.250707,0.0962 -0.479323,-0.10994 -0.514856,-0.46426 -0.2066541,-2.06072 0.03398,-2.66765 0.751078,-1.89431 0.348013,0.3753 0.346794,0.42105 -0.0059,0.2219 -0.244359,-0.13798 -0.444289,-0.0815 -0.444289,0.12557 0,0.58294 0.70725,0.44397 0.949195,-0.18653 0.17393,-0.45328 0.274581,-0.47059 0.516547,-0.0889 0.202582,0.31956 0.302301,0.12546 0.305969,-0.5956 0.0036,-0.68886 -0.24761,-1.22766 -0.705419,-1.51357 -0.390974,-0.24418 -0.708412,-0.64251 -0.705419,-0.88523 0.0036,-0.29017 0.123416,-0.25872 0.349988,0.0919 0.189502,0.29323 0.346119,0.3732 0.348042,0.17771 0.0018,-0.19548 -1.315164,-1.71587 -2.9268605,-3.37865 -1.6116819,-1.66373 -4.4498051,-5.08382 -6.3069295,-7.60114 -8.9073728,-12.0739 -12.632537,-16.1727 -20.065504,-22.0781 -5.70268,-4.53071 -9.736923,-9.00286 -14.586847,-16.17023 -1.124379,-1.66163 -2.875472,-3.98082 -3.891324,-5.15374 -2.817409,-3.25303 -4.521858,-5.64807 -7.277617,-10.22628 -2.56168,-4.25577 -6.230203,-11.27726 -5.892043,-11.27726 0.1023,0 -0.215654,-0.60694 -0.706567,-1.34876 -1.123246,-1.69734 -3.315243,-8.12449 -3.690933,-10.82217 l -0.284259,-2.04117 1.095974,0.68275 c 0.641747,0.39979 1.645504,1.68766 2.421914,3.10746 0.729269,1.33358 1.59369,2.90453 1.920935,3.49099 0.560446,1.00438 0.559707,1.03703 -0.01273,0.56219 -0.561733,-0.46597 -0.574667,-0.4316 -0.17099,0.45437 0.240189,0.52717 0.5366,0.79685 0.658687,0.59931 0.207504,-0.33575 1.866152,1.97526 3.308987,4.61045 0.348208,0.63596 0.700813,1.08858 0.783571,1.00582 0.08276,-0.0828 -1.084649,-2.62353 -2.594234,-5.64617 -3.522803,-7.05371 -6.080705,-13.07444 -8.299508,-19.53521 -6.488174,-18.89243 -9.009708,-41.80522 -5.512717,-50.09324 0.339497,-0.80464 0.453871,-1.90025 0.335097,-3.21009 -0.09917,-1.09368 0.07472,-3.66289 0.386424,-5.70934 0.311705,-2.04645 0.653736,-6.35989 0.760067,-9.58542 0.220221,-6.68037 0.415757,-9.00783 0.898048,-10.68948 0.247529,-0.86309 0.220331,-1.2563 -0.101017,-1.4604 -0.348016,-0.22104 -0.347067,-0.28044 0.0046,-0.28474 0.244358,-0.003 0.444288,-0.16539 0.444288,-0.36088 0,-0.19548 -0.239916,-0.35543 -0.533146,-0.35543 -0.29323,0 -0.533146,-0.16938 -0.533146,-0.3764 0,-0.20703 -0.166977,-0.27321 -0.371062,-0.14708 -0.204081,0.12613 -0.733171,-0.008 -1.17575,-0.29793 -0.573384,-0.37569 -0.985221,-0.42622 -1.432747,-0.17577 -0.911022,0.50984 -1.017573,0.221 -0.739506,-2.00459 0.212953,-1.70442 0.342483,-1.96575 0.888435,-1.79247 0.505091,0.16031 0.599565,0.0515 0.450465,-0.51861 -0.103764,-0.39681 -0.330426,-0.63386 -0.503688,-0.52678 -0.490664,0.30325 -0.370252,-0.70215 0.173084,-1.4452 0.471269,-0.6445 0.496615,-0.64071 0.734814,0.10978 0.322311,1.01552 0.826017,1.00076 0.764609,-0.0224 -0.02641,-0.43984 0.162613,-0.9628 0.42003,-1.16213 0.38497,-0.2981 0.373064,-0.5897 -0.0671,-1.64315 -0.294317,-0.70441 -0.434837,-1.38102 -0.312263,-1.50359 0.122574,-0.12256 0.06396,-0.22285 -0.130251,-0.22285 -0.413757,0 -0.18096,-2.05345 0.263971,-2.32843 0.166544,-0.10293 0.207508,-0.66365 0.09103,-1.24604 -0.175618,-0.8781 -0.112945,-1.02097 0.367075,-0.83677 0.318366,0.12217 0.57885,0.39161 0.57885,0.59877 0,0.20715 0.09275,0.28389 0.206115,0.17052 0.113364,-0.11336 -0.07616,-0.63692 -0.421168,-1.16347 -0.58952,-0.89972 -0.590779,-0.97778 -0.02094,-1.29668 0.333497,-0.18664 0.513583,-0.48945 0.400194,-0.67293 -0.113393,-0.18347 -0.06246,-0.33358 0.113187,-0.33358 0.490078,0 1.143764,-1.67764 1.149074,-2.94903 0.0025,-0.62613 0.480308,-2.49794 1.061536,-4.15958 1.233309,-3.52582 1.164462,-3.29606 1.099574,-3.66958 -0.02801,-0.16115 0.08962,-0.20615 0.26137,-0.10001 0.34025,0.21029 1.245819,-1.41342 1.267529,-2.27271 0.0074,-0.29323 0.178767,-0.65311 0.380794,-0.79972 0.244472,-0.17743 0.218209,-0.36307 -0.07852,-0.55511 -0.537187,-0.34761 -0.450302,-2.19948 0.103192,-2.19948 0.227757,0 0.350362,-0.51452 0.293792,-1.23284 -0.0534,-0.67809 0.04872,-1.32299 0.226935,-1.43314 0.178213,-0.11014 0.223857,-0.46127 0.101433,-0.78031 -0.139929,-0.36463 -0.08046,-0.49223 0.160125,-0.34352 0.266669,0.16478 0.261074,-0.15984 -0.01845,-1.07059 -0.309285,-1.00772 -0.3017,-1.34023 0.03313,-1.45183 0.23885,-0.0796 0.434272,-0.47091 0.434272,-0.86953 0,-0.63579 0.07363,-0.66486 0.599693,-0.23696 0.524012,0.42623 0.570825,0.41073 0.370953,-0.1228 -0.125805,-0.33585 -0.07578,-0.70518 0.111168,-0.82069 0.186949,-0.11555 0.339908,-0.6005 0.339908,-1.0777 0,-1.01191 0.259916,-1.07266 1.343261,-0.31385 1.058312,0.74125 1.569165,0.38483 1.124543,-0.78461 -0.278554,-0.73265 -0.249174,-0.87845 0.146423,-0.72664 0.288375,0.11064 0.687008,-0.16908 0.955266,-0.67031 0.253198,-0.47311 0.593281,-0.86018 0.755734,-0.86018 0.162453,0 0.29537,-0.40931 0.29537,-0.90958 0,-0.51583 0.153845,-0.81447 0.355431,-0.68985 0.202382,0.12507 0.35543,-0.18102 0.35543,-0.71086 0,-0.51182 0.153557,-0.83566 0.341238,-0.71964 0.347889,0.215 1.791345,-2.40936 1.791345,-3.25689 0,-0.25651 0.140057,-0.46636 0.311236,-0.46636 0.387018,0 2.595002,-4.51165 4.95833,-10.13151 2.737725,-6.51017 9.71097,-19.72255 12.710917,-24.08372 0.667022,-0.96965 1.212764,-1.94651 1.212764,-2.17079 0,-0.22428 0.319888,-0.60754 0.710861,-0.85172 0.390974,-0.24414 0.710861,-0.68897 0.710861,-0.98845 0,-0.69991 1.450079,-2.67277 1.803821,-2.45414 0.374232,0.23131 2.239084,-2.01576 5.700501,-6.8688 6.034533,-8.46071 8.5842919,-11.38302 13.6437918,-15.63735 1.1729207,-0.98628 3.6434719,-3.25553 5.4901111,-5.04274 3.3191274,-3.21238 6.5495821,-5.73931 8.8411171,-6.91579 0.940817,-0.48303 1.097644,-0.70556 0.772926,-1.09682 -0.584008,-0.70368 1.00193,-3.27355 3.337425,-5.40802 3.689753,-3.37211 10.31271,-7.53544 12.015609,-7.55321 0.526051,-0.005 1.055309,-0.16994 1.176127,-0.36542 0.120818,-0.19549 0.410159,-0.35302 0.642981,-0.35 0.286768,0.004 0.269459,0.10294 -0.05366,0.30774 -0.348283,0.22075 -0.22841,0.34981 0.444288,0.47841 0.506691,0.0969 0.921258,0.0562 0.921258,-0.0905 0,-0.14662 0.54436,-0.36872 1.20969,-0.49355 0.665331,-0.12479 1.30223,-0.46807 1.415335,-0.76283 0.182841,-0.47649 0.322657,-0.47542 1.260673,0.01 1.433494,0.74129 2.166218,0.69131 1.080559,-0.0737 -0.483343,-0.34057 -1.011296,-0.57633 -1.173227,-0.52387 -0.526517,0.17057 -0.0779,-1.08037 0.523191,-1.45886 0.44046,-0.27735 0.746535,-0.20551 1.244006,0.29195 0.362895,0.36289 0.607826,0.74722 0.544292,0.85402 -0.06353,0.10685 0.09641,0.25041 0.355431,0.31904 0.321615,0.0852 0.34545,0.0316 0.07517,-0.16883 -0.239674,-0.17782 -0.284572,-0.57402 -0.113837,-1.00448 0.155063,-0.39098 0.293176,-0.51598 0.306914,-0.27774 0.01511,0.26167 0.271218,0.34086 0.646986,0.2 0.521559,-0.19545 0.550754,-0.14533 0.180801,0.31044 -0.513761,0.63295 -0.252189,1.0113 0.699132,1.0113 0.369932,0 0.572136,0.16254 0.449349,0.36123 -0.122787,0.19865 -0.372143,0.2692 -0.554123,0.15674 -0.181977,-0.11249 -0.33087,-0.0352 -0.33087,0.17189 0,0.20704 0.159943,0.37644 0.35543,0.37644 0.195487,0 0.33649,0.11995 0.313341,0.26657 -0.02314,0.14661 -0.02314,0.38813 0,0.5367 0.05329,0.34199 5.40614,-2.3382 9.504744,-4.75907 3.570602,-2.10899 8.684838,-4.57454 9.488836,-4.57454 0.298142,0 2.513786,-0.85801 4.923654,-1.90667 4.544684,-1.97761 7.325277,-2.90845 17.532509,-5.86929 6.553186,-1.90088 8.609714,-2.31016 14.572651,-2.90014 2.150355,-0.21272 4.046862,-0.52191 4.214472,-0.68705 0.40365,-0.39769 -1.101864,-1.18809 -1.772693,-0.93065 -0.288108,0.11053 -0.434617,0.0566 -0.325574,-0.11978 0.248606,-0.40225 6.705917,-3.58079 7.274487,-3.58079 0.23042,0 0.89084,-0.24404 1.46759,-0.54228 0.75035,-0.38802 1.04864,-0.80327 1.04864,-1.45975 0,-0.66953 0.1441,-0.86221 0.53315,-0.71289 0.29323,0.11253 0.53314,0.0231 0.53314,-0.19893 0,-0.22194 0.11996,-0.28357 0.26658,-0.13695 0.25377,0.25378 0.29666,0.39474 0.39985,1.31399 0.0459,0.40871 0.8358,0.32604 3.42102,-0.35806 1.76407,-0.46679 7.31011,-0.50446 9.63697,-0.0655 0.95525,0.1802 3.25627,0.49892 5.1134,0.70826 4.73905,0.53415 4.97024,0.60033 6.08696,1.74254 0.96069,0.98262 1.1589,1.02865 5.36362,1.24603 4.07613,0.21074 11.05717,1.00047 13.32418,1.50735 2.95892,0.66156 7.31522,2.15074 9.34657,3.19507 1.27066,0.65328 4.14965,1.66643 6.39775,2.25151 4.98101,1.29629 13.61234,4.25194 17.80542,6.09712 1.70254,0.74922 4.43068,1.83644 6.06255,2.41604 4.42803,1.57275 12.50635,5.16363 14.5122,6.45075 0.97011,0.62253 2.27252,1.71783 2.89425,2.43398 0.67415,0.77651 3.68283,2.80847 7.45398,5.03414 3.47796,2.05262 7.41213,4.64797 8.7426,5.7675 1.33047,1.11954 3.29873,2.76074 4.3739,3.64715 5.45698,4.49882 6.71098,5.58434 8.28157,7.16882 3.44121,3.47163 5.9283,6.40908 5.6688,6.69524 -0.14646,0.16151 -0.0809,0.18763 0.1456,0.058 0.22654,-0.12963 0.78634,0.20462 1.24401,0.74274 0.45766,0.53809 1.74565,1.76333 2.8622,2.72267 1.11654,0.95938 1.94436,1.88304 1.83959,2.05254 -0.10477,0.16954 -0.0244,0.2643 0.17858,0.21056 0.203,-0.0537 0.67371,0.46216 1.04605,1.14637 0.37233,0.6842 0.78398,1.1989 0.91478,1.14384 0.1308,-0.0551 0.67162,0.42076 1.20182,1.05748 0.53019,0.63672 1.50634,1.63782 2.16921,2.22468 2.41887,2.14146 7.03771,7.849 7.49234,9.25832 0.25221,0.78181 0.57326,1.58142 0.71344,1.7769 0.14018,0.19549 0.53081,1.23513 0.86807,2.3103 0.33726,1.07518 1.2573,3.03051 2.04454,4.34518 0.78724,1.31466 1.5569,2.9141 1.71037,3.5543 0.15346,0.6402 0.39895,1.48389 0.54553,1.87486 0.23651,0.63082 0.21109,0.64802 -0.22562,0.15284 -0.76859,-0.87155 -2.34951,-1.75228 -3.14532,-1.75228 -0.39785,0 -0.72337,-0.14263 -0.72337,-0.3169 0,-0.1743 -0.38344,-0.41315 -0.85209,-0.53076 -1.17451,-0.2948 -3.50776,-2.30692 -5.06196,-4.36533 -0.71342,-0.94484 -1.95836,-2.43765 -2.76652,-3.31734 -0.80816,-0.87969 -2.2324,-2.75235 -3.16498,-4.16141 -0.93257,-1.40911 -2.44749,-3.22369 -3.36649,-4.0324 -0.919,-0.80871 -2.67055,-2.5801 -3.89235,-3.93639 -1.22179,-1.35632 -2.22163,-2.34076 -2.22187,-2.18768 -2.4e-4,0.15312 -0.4001,-0.18635 -0.88858,-0.75436 -0.48848,-0.56798 -0.88814,-0.95728 -0.88814,-0.86505 0,0.0922 -0.77856,-0.5828 -1.73014,-1.49999 -1.07681,-1.03789 -2.38906,-1.88648 -3.47513,-2.24721 -0.95975,-0.31878 -2.3102,-0.96367 -3.00099,-1.43306 -0.69079,-0.46941 -1.80603,-1.08431 -2.47832,-1.36641 -1.59516,-0.66942 -5.54457,-3.44444 -7.89272,-5.54579 -2.12296,-1.89984 -5.39363,-4.3869 -6.55966,-4.98804 -0.43448,-0.22399 -2.27384,-0.88384 -4.08745,-1.46636 -1.81361,-0.58248 -5.05686,-1.93038 -7.20722,-2.99532 -2.15035,-1.06494 -5.02934,-2.26889 -6.39774,-2.67547 l -2.48802,-0.73922 -3.02116,0.69138 c -4.24216,0.97079 -6.48202,1.72882 -5.33146,1.80431 0.48872,0.032 1.92822,0.60544 3.19888,1.27418 1.27066,0.66874 2.91009,1.48229 3.64316,1.8079 0.73308,0.32561 1.33287,0.72771 1.33287,0.89352 0,0.16584 0.24336,0.30154 0.54079,0.30154 0.66091,0 6.4392,2.18274 8.87811,3.3537 0.97744,0.46928 2.97674,1.37971 4.44289,2.02315 1.46615,0.64347 3.14556,1.51072 3.73202,1.92718 0.58646,0.41649 1.5808,0.95995 2.20965,1.20772 1.3182,0.51935 2.11197,1.28786 1.42786,1.38244 -0.24125,0.0334 -0.99844,0.13425 -1.68265,0.22421 -1.32702,0.17444 -5.6696,-0.75582 -8.88576,-1.90354 -1.07518,-0.38369 -4.91383,-1.68467 -8.53033,-2.89111 -3.61651,-1.2064 -6.97532,-2.40321 -7.46404,-2.65951 -0.48872,-0.25634 -2.00818,-0.69963 -3.37659,-0.98511 -1.36841,-0.28548 -3.44768,-0.92199 -4.6206,-1.41451 -1.17292,-0.49248 -2.85233,-1.007 -3.73202,-1.14335 -0.87969,-0.1363 -3.43879,-0.85769 -5.68689,-1.60302 -2.24809,-0.74531 -5.60691,-1.67785 -7.46404,-2.07231 -1.85712,-0.39445 -4.57616,-0.9872 -6.04231,-1.31726 -1.46616,-0.33001 -4.42511,-0.99648 -6.57547,-1.48104 -3.58683,-0.80821 -9.8712,-1.92324 -9.99841,-1.77395 -0.0295,0.0345 0.1602,1.5823 0.42145,3.43943 0.26125,1.85712 0.65111,4.89605 0.86634,6.75318 0.39855,3.43875 1.42271,9.66966 1.62773,9.90293 0.0622,0.0707 0.81431,-0.44603 1.67141,-1.14836 4.73225,-3.87771 11.12391,-3.92719 15.14036,-0.11719 2.31162,2.1928 3.20922,5.87516 1.99814,8.19733 -0.29203,0.55991 -0.53096,1.13663 -0.53096,1.28154 0,0.14495 1.22822,0.35639 2.72938,0.46992 3.55531,0.26892 7.31149,2.03779 9.24895,4.35562 l 1.32039,1.5796 0.85699,-2.39752 c 1.08847,-3.04511 7.16024,-12.20871 9.05247,-13.66211 0.43086,-0.33094 0.78338,-0.74668 0.78338,-0.92387 0,-0.77355 2.89105,-3.17804 3.99487,-3.32252 0.14866,-0.0195 0.6283,-0.1715 1.06585,-0.33784 1.2335,-0.46899 1.33284,0.78472 0.5021,6.33651 -0.40259,2.69046 -1.06199,7.3251 -1.46533,10.2992 -0.40334,2.9741 -0.81628,5.62359 -0.91764,5.88774 -0.13948,0.36347 0.22427,0.47464 1.49564,0.45716 l 1.67995,-0.0231 0.0723,1.77716 c 0.0398,0.97743 0.18851,2.98942 0.33058,4.47106 0.28503,2.97265 -0.2051,5.30025 -1.8501,8.78607 l -0.88879,1.88339 0.12289,12.51154 0.12289,12.51158 2.03173,2.38978 c 1.11744,1.31441 2.36394,3.04099 2.76998,3.8369 0.40603,0.79592 1.27067,2.03968 1.9214,2.76394 1.17217,1.30461 3.07724,4.75825 3.56928,6.47061 0.53316,1.85545 3.47937,5.64537 5.47898,7.04804 1.10008,0.77164 2.11717,1.42744 2.2602,1.45728 1.16429,0.24297 8.4709,3.81162 9.63872,4.70769 1.9065,1.46286 2.44393,2.10713 4.15106,4.9762 1.23471,2.07511 1.45423,2.78363 1.75091,5.65121 0.41444,4.00585 -0.10303,6.91379 -1.93647,10.88202 -1.13341,2.45312 -5.14255,8.30714 -6.40896,9.35817 -0.28843,0.23937 -0.52441,0.55847 -0.52441,0.70911 0,0.47872 1.0947,0.71517 1.732,0.3741 0.88682,-0.47461 1.43302,0.56543 8.91954,16.98388 3.67372,8.05673 6.78379,14.43191 7.09648,14.54675 0.66413,0.24391 6.12826,4.45096 6.74305,5.19174 0.23649,0.28496 1.10054,0.62606 1.9201,0.758 0.81957,0.13195 2.15517,0.6048 2.96801,1.05078 0.81283,0.44599 2.3323,1.0036 3.37659,1.23915 4.9788,1.12299 8.59076,2.89361 9.2065,4.51311 0.32513,0.85517 1.40025,1.16739 1.40025,0.40665 0,-0.234 0.48562,0.23489 1.07916,1.04198 1.13352,1.54135 1.17827,2.80757 0.12997,3.67758 -0.27405,0.22744 -0.49827,0.63386 -0.49827,0.90315 0,0.2693 -0.19993,0.49088 -0.44429,0.4924 -0.48306,0.003 -1.33286,1.5782 -1.33286,2.47061 0,0.30497 -0.33328,0.76263 -0.74061,1.01701 -0.42012,0.26238 -0.65566,0.68388 -0.5443,0.97408 0.26484,0.69017 -0.10847,1.57785 -0.66356,1.57785 -0.24788,0 -0.54959,0.49453 -0.67048,1.09895 -0.12866,0.64329 -0.48968,1.16953 -0.8707,1.26917 -0.358,0.0936 -0.85337,0.73009 -1.10081,1.41439 -0.38498,1.06464 -0.36832,1.33431 0.11541,1.86883 0.3321,0.36696 0.56531,1.25447 0.56531,2.1513 0,1.18927 0.31417,1.99711 1.42172,3.65568 0.78195,1.17097 1.42173,2.53806 1.42173,3.03798 0,0.49993 0.24485,1.17951 0.54411,1.51019 0.29927,0.33069 0.64143,1.4229 0.76037,2.42715 l 0.21625,1.8259 -1.2584,0 c -1.0714,0 -1.38029,0.19807 -2.07858,1.33286 -0.88916,1.44499 -1.67103,6.3967 -1.71451,10.85828 -0.0246,2.52471 -0.44941,3.71083 -2.11246,5.89832 -1.29749,1.70664 -2.4805,2.12272 -4.82642,1.6975 -1.46567,-0.26565 -2.19343,-0.23177 -3.09819,0.14426 -0.6504,0.27031 -1.42246,0.46589 -1.71569,0.43463 -0.29323,-0.0313 -1.35583,0.94695 -2.36133,2.1738 l -1.82819,2.23066 0.49532,1.90952 c 0.27244,1.05024 0.49533,2.22018 0.49533,2.59987 0,0.37969 0.43017,2.43478 0.95594,4.56688 0.84385,3.42193 0.90637,4.06191 0.53315,5.45733 -0.23254,0.86944 -0.4228,2.13526 -0.4228,2.81293 0,1.37502 0.0569,1.40232 3.67378,1.76306 1.14088,0.11378 2.54056,0.44798 3.1104,0.74265 0.76784,0.39707 1.9092,0.50488 4.40888,0.41643 1.85505,-0.0656 3.51511,0.023 3.68903,0.19687 0.18464,0.18464 0.85826,0.16653 1.6191,-0.0436 1.24071,-0.34258 1.2923,-0.32273 1.0807,0.41581 -0.12221,0.42656 -0.29469,1.03791 -0.38328,1.35856 -0.19603,0.70948 -6.22498,3.79801 -7.96258,4.07909 -2.09397,0.33874 -9.61064,-0.45651 -11.3709,-1.203 -0.87843,-0.37253 -2.38555,-0.8729 -3.34915,-1.11193 -0.9636,-0.23903 -2.18317,-0.74162 -2.71015,-1.11687 l -0.95815,-0.68226 -0.76427,3.28029 c -0.45716,1.96214 -1.63853,5.17816 -2.93989,8.00319 -2.14523,4.65696 -2.21894,4.76117 -5.27926,7.46404 -2.86292,2.52854 -4.38665,3.63109 -9.28304,6.71704 l -1.79682,1.13245 1.1903,0.17683 c 4.91433,0.73008 8.95803,1.00479 12.95244,0.87993 5.10929,-0.15971 5.16947,-0.18065 8.43999,-2.93803 0.94587,-0.79746 3.66056,-2.81592 6.03266,-4.48548 2.70789,-1.9059 4.89229,-3.75768 5.86983,-4.97602 0.85631,-1.06726 3.35646,-3.86263 5.55587,-6.21193 2.19942,-2.34931 4.26081,-4.77785 4.58086,-5.39676 0.32005,-0.61891 1.42884,-2.05557 2.46397,-3.19258 1.6851,-1.85093 3.70706,-4.30567 6.288,-7.63388 0.4827,-0.62245 1.41371,-2.02198 2.06893,-3.11009 1.6406,-2.72444 8.31306,-9.97049 8.54381,-9.27823 0.0662,0.19861 0.28658,0.36111 0.48971,0.36111 0.2279,0 0.20487,-0.19818 -0.0602,-0.51758 -0.5141,-0.61944 -0.18824,-1.30454 0.49565,-1.04211 0.26717,0.10253 0.60664,-0.009 0.7544,-0.24815 0.17174,-0.2779 0.12063,-0.34315 -0.14178,-0.18097 -0.2257,0.13948 -0.41035,0.0842 -0.41035,-0.1228 0,-0.20702 0.23491,-0.37641 0.52199,-0.37641 0.34356,0 0.44716,-0.21262 0.30311,-0.622 -0.15277,-0.43421 -0.10297,-0.51469 0.16502,-0.26657 0.94712,0.87689 -1.42982,7.24449 -4.06438,10.88825 -1.4965,2.06969 -1.50614,2.39269 -0.0358,1.19758 0.63534,-0.51639 2.27476,-1.79722 3.64317,-2.84629 1.3684,-1.04906 2.79987,-2.43752 3.18103,-3.08545 0.3812,-0.64794 1.36133,-1.89781 2.17815,-2.7775 0.81681,-0.8797 2.08271,-2.79902 2.81316,-4.26517 0.73041,-1.46615 1.83754,-3.38548 2.46022,-4.26517 1.44095,-2.03564 2.89288,-4.58967 5.48735,-9.65245 3.36482,-6.56606 4.69133,-8.96564 5.37244,-9.71851 0.35372,-0.39097 0.96737,-1.39292 1.36364,-2.22654 0.66626,-1.40147 0.67948,-1.59807 0.17526,-2.60877 -0.50144,-1.00517 -0.48455,-1.32636 0.2101,-3.99349 0.41546,-1.59523 0.97797,-3.94004 1.24998,-5.2107 0.27201,-1.27067 0.90062,-3.50988 1.39695,-4.97603 0.49632,-1.46615 1.37473,-4.10522 1.95202,-5.8646 0.57733,-1.75939 1.37154,-4.07857 1.765,-5.15375 0.39342,-1.07517 0.81418,-2.75458 0.93502,-3.73202 0.12085,-0.97743 0.38401,-2.57687 0.58483,-3.5543 0.20082,-0.97744 0.45627,-3.25435 0.56769,-5.0598 0.13133,-2.12903 0.3319,-3.20268 0.57072,-3.0551 0.21336,0.13189 0.26127,0.0546 0.11391,-0.18385 -0.13986,-0.22626 -0.14494,-1.14026 -0.0114,-2.03109 0.17533,-1.16912 0.3791,-1.56745 0.73247,-1.43184 0.26928,0.10333 0.48961,0.0279 0.48961,-0.16755 0,-0.19549 -0.23992,-0.4475 -0.53315,-0.56002 -0.78323,-0.30055 -0.66341,-2.00876 0.17772,-2.53406 0.56947,-0.35563 0.71189,-0.35497 0.71608,0.003 0.004,0.24602 0.216,0.0474 0.47354,-0.44127 0.57882,-1.09837 0.45104,-1.336 -0.30951,-0.57546 -0.31651,0.3165 -0.8687,0.57546 -1.22712,0.57546 -0.55682,0 -0.62648,-0.21985 -0.47877,-1.51058 0.0951,-0.83082 0.31979,-1.97429 0.49931,-2.54105 0.17957,-0.56677 0.32647,-1.43386 0.32647,-1.92688 0,-0.49303 0.27776,-1.20336 0.61727,-1.57851 0.58685,-0.64845 0.58508,-0.70565 -0.0363,-1.16003 -0.61522,-0.44986 -0.6187,-0.52627 -0.0592,-1.30076 l 0.59439,-0.82282 -0.11377,0.85554 c -0.0626,0.47054 0.0462,0.90986 0.24165,0.97627 0.19549,0.0664 0.3661,-0.40676 0.37914,-1.05147 0.0132,-0.64471 0.15358,-1.48389 0.31228,-1.86485 0.15874,-0.38095 0.31772,-1.01253 0.35334,-1.40351 0.0356,-0.39097 0.17295,-1.03075 0.3052,-1.42172 0.19936,-0.58941 0.0744,-0.72055 -0.73133,-0.76758 -0.5345,-0.0312 -1.06643,0.0963 -1.18202,0.2834 -0.12188,0.19719 -0.38198,0.13314 -0.61898,-0.15242 -0.33489,-0.40351 -0.17335,-0.50139 0.89369,-0.5415 1.27774,-0.048 2.65126,-0.77677 1.46409,-0.77677 -0.50716,0 -1.17221,-0.90476 -1.07166,-1.45793 0.0213,-0.11766 -0.35539,-0.13856 -0.83728,-0.0464 -0.69576,0.13301 -0.83068,0.049 -0.65528,-0.40807 0.12145,-0.31656 0.0609,-0.57556 -0.13456,-0.57556 -0.19549,0 -0.45069,-0.24822 -0.56713,-0.55161 -0.12138,-0.3163 -0.0618,-0.45897 0.13972,-0.33445 0.19325,0.11943 0.35135,0.0611 0.35135,-0.12964 0,-0.19073 -0.17562,-0.40533 -0.39027,-0.47687 -0.21464,-0.0716 -0.3346,-0.51466 -0.26657,-0.98469 0.12237,-0.84551 0.13101,-0.84728 0.81465,-0.1661 0.60199,0.59983 0.66067,0.60839 0.45545,0.0665 -0.12952,-0.3421 -0.1206,-0.62325 0.0199,-0.62478 0.14047,-10e-4 0.43011,-0.37981 0.64365,-0.84064 0.33958,-0.73289 0.30617,-0.81641 -0.26657,-0.66663 -0.50081,0.13096 -0.65353,-0.0266 -0.64938,-0.66994 0.005,-0.69155 0.0725,-0.74634 0.38248,-0.30803 0.3067,0.43365 0.35127,0.43779 0.23892,0.0222 -0.0759,-0.28101 -0.35191,-0.5822 -0.61319,-0.66929 -0.3716,-0.12386 -0.4215,0.17658 -0.22914,1.3795 l 0.24592,1.53786 -0.74288,-0.67231 c -0.99333,-0.89893 -0.83399,-2.4436 0.26817,-2.60013 0.80896,-0.11489 0.98045,-0.60129 0.57995,-1.64495 -0.19701,-0.51344 -0.26134,-0.51598 -0.622,-0.0246 -0.31502,0.42923 -0.41713,0.008 -0.47084,-1.94442 -0.071,-2.57868 0.008,-2.8046 0.71598,-2.03974 0.56155,0.60689 0.72113,1.4433 0.21582,1.13101 -0.25421,-0.15712 -0.34623,-0.006 -0.25424,0.41787 0.0793,0.36525 0.33457,0.62411 0.5673,0.57524 0.23274,-0.0489 0.42318,0.23103 0.42318,0.622 0,0.39097 0.15994,0.71086 0.35543,0.71086 0.19548,0 0.35543,0.31989 0.35543,0.71086 0,0.39097 -0.17953,0.71086 -0.39894,0.71086 -0.26181,0 -0.2832,0.15275 -0.0622,0.44429 0.37455,0.49423 1.22182,3.2272 1.36368,4.39871 0.0503,0.41555 0.25193,1.05532 0.44802,1.42172 0.37665,0.70381 0.42662,0.90183 0.42662,1.69101 0,0.27043 0.35987,0.59312 0.79972,0.71708 l 0.79972,0.22538 -0.74865,0.63139 c -0.41173,0.34727 -0.82893,1.1042 -0.92714,1.68208 -0.0982,0.57788 -0.31107,1.37058 -0.47307,1.76156 -0.27269,0.65812 -0.24344,0.6713 0.39403,0.17771 0.63604,-0.49249 0.65164,-0.48606 0.20448,0.0843 -0.26622,0.33961 -0.39066,0.86082 -0.27653,1.15824 0.11413,0.29742 0.0589,0.93157 -0.12269,1.40923 -0.26562,0.69864 -0.22894,0.82962 0.18766,0.66975 0.28485,-0.1093 0.5179,-0.0388 0.5179,0.1567 0,0.19549 -0.23991,0.4475 -0.53314,0.56002 -0.29323,0.11252 -0.53315,0.44952 -0.53315,0.74889 0,0.29936 0.23992,0.5443 0.53315,0.5443 0.67087,0 0.69938,0.66938 0.0393,0.92269 -0.29447,0.113 -0.41806,0.47936 -0.30613,0.90746 0.13975,0.53436 0.2611,0.59929 0.47457,0.25392 0.47091,-0.76199 0.70691,-0.1597 0.81017,2.06768 0.0537,1.15827 0.21596,2.29741 0.36055,2.5314 0.14462,0.23401 0.0936,0.42546 -0.11346,0.42546 -0.207,0 -0.3764,-0.15995 -0.3764,-0.35543 0,-0.19549 -0.14498,-0.35543 -0.32216,-0.35543 -0.17718,0 -0.23896,0.31809 -0.1373,0.70686 0.10165,0.38878 0.31857,0.62421 0.48203,0.52319 0.46213,-0.2856 1.12974,1.24147 0.95117,2.17561 -0.0881,0.4609 -0.0496,0.76961 0.0857,0.68603 0.13524,-0.0836 0.53286,1.72063 0.88364,4.00935 0.54434,3.55167 0.5801,4.70806 0.24407,7.89333 -0.21653,2.05261 -0.71981,7.25078 -1.11847,11.55149 -0.39865,4.30071 -0.96876,9.17899 -1.26689,10.84063 -0.29817,1.66164 -0.69078,4.09855 -0.87244,5.41537 -0.64038,4.64153 -1.46836,7.31175 -2.72089,8.77508 -0.98686,1.15291 -1.18504,1.67086 -1.18782,3.10443 -0.005,2.677 -1.28125,8.34657 -2.43931,10.83795 -3.84096,8.26317 -4.94884,10.41122 -6.9299,13.43595 -1.22233,1.86625 -2.64689,4.29119 -3.16575,5.38876 -0.51882,1.09757 -2.00033,3.32634 -3.29225,4.95282 -2.76023,3.47504 -3.365,4.59004 -4.9745,9.17138 l -1.20462,3.4289 1.67479,-1.8307 c 2.10081,-2.29621 3.98508,-4.72428 3.98508,-5.13501 0,-1.18389 7.96748,-10.62793 8.96627,-10.62793 0.5941,0 0.2069,1.62169 -1.33958,5.61026 -3.50369,9.03661 -4.79433,11.7 -6.92567,14.29178 -0.88509,1.07631 -2.11808,2.76043 -2.73998,3.74247 -0.62189,0.98205 -1.609,2.24373 -2.1935,2.80374 -0.58454,0.56002 -1.65186,2.02549 -2.37186,3.25659 -0.71996,1.23112 -2.47756,3.56816 -3.90572,5.19345 -1.42819,1.62528 -3.10575,3.83475 -3.72793,4.90993 -1.81444,3.13545 -12.86321,13.72057 -18.87353,18.08148 -4.52193,3.28098 -12.99419,8.80701 -16.11562,10.51141 -1.36841,0.74722 -3.30283,1.96329 -4.29873,2.70241 -0.99589,0.73911 -3.31508,2.17815 -5.15374,3.19788 -3.9818,2.20825 -6.71962,3.96447 -6.71962,4.31037 0,0.49654 -6.29152,4.11038 -9.59662,5.5123 -1.85713,0.78771 -5.21594,2.03694 -7.46404,2.77602 -2.9732,0.97744 -5.09886,1.97509 -7.79765,3.65966 -6.60004,4.11976 -12.24746,6.47278 -15.53507,6.47278 -1.03878,0 -5.69249,2.28446 -15.05378,7.38968 -3.61281,1.9703 -7.37237,3.44821 -13.50636,5.30956 -11.80233,3.58136 -16.81293,4.41253 -27.36814,4.53985 -4.39846,0.053 -8.71694,0.0355 -9.59663,-0.0391 z m -98.167459,-33.0261 c -0.109433,-0.10941 -0.308176,0.0879 -0.441651,0.43838 -0.192885,0.50656 -0.15206,0.54737 0.19897,0.19897 0.242908,-0.24112 0.352115,-0.52792 0.242681,-0.63735 z m -4.818525,-4.31344 c -0.244359,-0.0986 -0.644218,-0.0986 -0.888576,0 -0.244359,0.0986 -0.04443,0.17928 0.444288,0.17928 0.488717,0 0.688646,-0.0807 0.444288,-0.17928 z m -5.598031,-4.74062 c 0.120818,-0.19549 0.05029,-0.35543 -0.156737,-0.35543 -0.207024,0 -0.376408,0.15994 -0.376408,0.35543 0,0.19548 0.07053,0.35543 0.156737,0.35543 0.08621,0 0.25559,-0.15995 0.376408,-0.35543 z m 31.428698,-17.98974 c -0.473921,-0.511 -2.054965,-1.90833 -3.513427,-3.10518 l -2.651754,-2.17611 1.116027,1.6221 c 1.134552,1.64901 2.621378,2.95378 4.54291,3.98665 1.450374,0.77961 1.502018,0.7462 0.506244,-0.32746 z M 193.1484,-353.61985 c -0.0134,-0.65417 -0.72717,-1.26295 -2.37722,-2.02742 -1.9212,-0.89011 -3.97127,-2.73535 -4.824,-4.34203 -0.29358,-0.55315 -1.1691,-2.20531 -1.94559,-3.67146 -1.55681,-2.93953 -2.15248,-5.04667 -2.41143,-8.53034 -0.49427,-6.64934 -1.32542,-12.42691 -1.95341,-13.57874 -0.21109,-0.38716 -0.19823,-0.68704 0.0357,-0.83159 0.51988,-0.3213 -1.03401,-1.5846 -1.94531,-1.58151 -0.40993,10e-4 -1.80425,0.10255 -3.09847,0.22481 l -2.35314,0.22229 -0.42081,1.99662 c -0.39714,1.88432 -0.76254,2.96123 -1.48985,4.39096 -0.17268,0.33946 -0.31396,1.00978 -0.31396,1.48961 0,0.47983 -0.15994,0.97127 -0.35543,1.09209 -0.81162,0.50161 -0.28118,1.23535 1.15515,1.59787 0.83082,0.2097 1.84146,0.51911 2.24588,0.68759 1.15747,0.4822 2.61487,0.0319 3.13988,-0.97009 0.47176,-0.90038 0.47877,-0.90166 0.87579,-0.15982 0.75893,1.41808 -0.67215,3.42627 -2.86181,4.01588 -0.74581,0.20083 -1.35601,0.50487 -1.35601,0.67565 0,0.44604 11.81927,13.00857 14.22855,15.12332 2.28854,2.00877 5.36393,4.36183 5.76441,4.41049 0.14662,0.0178 0.26412,-0.0876 0.26113,-0.23418 z m 93.33819,-9.59401 c -0.24649,-0.24649 -0.92081,0.25433 -0.92081,0.68388 0,0.23569 0.20394,0.20872 0.54174,-0.0716 0.29796,-0.24728 0.46853,-0.5228 0.37907,-0.61226 z m -88.15709,-1.8962 c 1.55184,-0.40614 2.93797,-0.94545 3.08028,-1.19847 0.14231,-0.25302 1.10198,-0.89057 2.13258,-1.41678 1.32156,-0.67478 2.9214,-2.10087 5.42814,-4.83864 3.25288,-3.55268 3.59067,-4.05564 3.98309,-5.93082 0.64051,-3.06073 0.55138,-4.68531 -0.40636,-7.407 -1.35353,-3.84645 -2.86273,-6.49616 -5.39542,-9.47284 -3.38773,-3.98161 -8.81957,-7.53048 -13.66315,-8.92679 -1.08652,-0.31322 -2.68596,-1.05086 -3.55431,-1.63922 -0.86835,-0.58835 -2.00285,-1.07264 -2.52111,-1.0762 -0.64479,-0.004 -1.45343,-0.52493 -2.56125,-1.64862 -1.58828,-1.61103 -1.60746,-1.65796 -1.01257,-2.47684 0.33351,-0.45908 0.80631,-0.83972 1.05066,-0.84587 0.54242,-0.0136 0.54687,-0.10801 0.0559,-1.18549 -0.32596,-0.71539 -0.21687,-1.16068 0.67889,-2.77131 1.52015,-2.73333 3.09192,-8.02308 3.75772,-12.64653 0.31479,-2.18591 0.57234,-4.33303 0.57234,-4.77138 0,-0.56372 -1.91178,-2.67738 -6.53193,-7.22167 -3.59256,-3.53358 -7.63114,-7.65355 -8.97462,-9.15549 l -2.44269,-2.7308 -3.90974,-0.58811 c -7.33349,-1.10312 -7.14051,-1.10447 -7.69563,0.0537 -0.65503,1.36666 -3.64362,3.09435 -6.86956,3.97126 -2.34582,0.63766 -3.08826,0.68098 -6.65537,0.38829 -5.91548,-0.48538 -10.29088,-1.28918 -14.62037,-2.68589 -2.11871,-0.6835 -3.92324,-1.17168 -4.01007,-1.08485 -0.0868,0.0868 0.25929,1.25899 0.76915,2.6048 1.28395,3.38904 1.48191,4.55298 1.7763,10.44411 0.29094,5.82207 0.59901,6.80924 3.54949,11.37377 0.94771,1.46616 2.4747,4.10523 3.39331,5.86461 0.91861,1.75938 2.24809,4.29775 2.95441,5.64082 0.70631,1.34307 1.2842,2.79776 1.2842,3.23265 0,0.43488 0.34122,1.09538 0.75827,1.46778 2.34832,2.09692 5.02556,6.7562 5.02556,8.74615 0,0.73254 0.11865,1.25856 0.26368,1.16893 0.41613,-0.25718 0.69498,1.74735 0.45265,3.25379 -0.23127,1.43764 -0.92382,2.2283 -1.96842,2.24729 -0.85904,0.0156 -0.81337,0.18097 0.79972,2.89621 0.78195,1.31621 1.42172,2.47709 1.42172,2.57973 0,0.10263 0.45911,0.87439 1.02025,1.71501 1.17873,1.76583 6.02339,10.07358 7.79648,13.36962 2.04706,3.80534 1.68948,2.12777 -0.56925,-2.67057 -2.34212,-4.9755 -3.5421,-9.12713 -2.87161,-9.93502 0.36505,-0.43987 0.18826,-0.62862 -0.4887,-0.52173 -0.14661,0.0231 -0.26657,-0.20727 -0.26657,-0.51203 0,-0.30477 0.15994,-0.45527 0.35543,-0.33446 0.19548,0.12082 0.35543,0.0255 0.35543,-0.21182 0,-0.30581 0.18118,-0.28091 0.622,0.0855 0.3421,0.28434 1.22179,0.82533 1.95487,1.20221 0.73307,0.37687 1.33286,0.8088 1.33286,0.95983 0,0.15103 0.16453,0.2746 0.36562,0.2746 0.2011,0 1.40489,0.80655 2.67511,1.79234 1.27021,0.98578 2.45684,1.70126 2.63695,1.58995 0.18011,-0.11132 0.32296,-1.1456 0.31745,-2.29841 -0.0103,-2.16494 0.75066,-4.40834 2.17305,-6.4059 0.70425,-0.98902 4.5114,-3.08271 7.07952,-3.89327 2.06624,-0.65216 6.52575,-0.46985 8.73608,0.35714 3.96946,1.48517 5.22052,3.42377 6.05755,9.3866 0.29811,2.1237 0.72116,4.07711 0.9401,4.34093 0.27505,0.33141 0.30749,1.27336 0.10497,3.04774 -0.74464,6.52392 -0.004,9.73984 2.90933,12.63184 1.04651,1.03887 1.90275,2.03852 1.90275,2.22144 0,0.52232 1.40698,0.39443 4.4648,-0.40585 z M -21.954981,-430.4817 c 0.386534,-1.07518 0.80237,-2.19478 0.92408,-2.48801 0.183199,-0.44137 -0.169626,-0.53315 -2.049551,-0.53315 -2.163331,0 -2.257339,0.0355 -1.98552,0.74975 0.319237,0.83886 2.261665,4.38057 2.350938,4.28657 0.03149,-0.0332 0.373518,-0.93998 0.760053,-2.01516 z m 138.277071,-10.28746 c 0.13949,-0.95325 -0.48875,-1.75203 -0.98018,-1.24626 -0.44267,0.45558 -0.0425,2.35635 0.46122,2.19069 0.22001,-0.0724 0.45354,-0.49735 0.51896,-0.94443 z m -136.744146,-5.18187 c -1.041095,-0.94057 -1.459554,-1.60115 -1.459554,-2.30406 0,-0.72037 0.167312,-0.97216 0.622004,-0.93608 0.342101,0.0272 0.626229,-0.19055 0.631397,-0.48378 0.0052,-0.29323 0.145616,-0.75095 0.312111,-1.01717 0.308613,-0.49346 -0.281292,-1.09919 -1.080953,-1.10997 -0.222212,-0.003 -1.693883,-0.37904 -3.27038,-0.83565 l -2.866359,-0.83022 0.782363,1.04228 c 1.900863,2.53238 2.724279,4.07225 2.730524,5.10637 0.0037,0.61139 0.210087,1.28041 0.458658,1.48671 0.788586,0.65447 3.978476,1.74346 4.295338,1.46638 0.167422,-0.14641 -0.352395,-0.85957 -1.155149,-1.58481 z m 335.133136,-17.40799 c -0.24336,-0.29323 -0.57782,-0.53315 -0.74324,-0.53315 -0.16542,0 -0.20867,0.23992 -0.0961,0.53315 0.11252,0.29323 0.44695,0.53314 0.7432,0.53314 0.4385,0 0.45637,-0.0991 0.0962,-0.53314 z m -339.497719,-1.95458 c 0.131616,1.6e-4 1.358906,0.23009 2.727314,0.51095 1.368407,0.28086 3.762427,0.56063 5.320048,0.62171 2.403585,0.0943 2.850126,0.0223 2.951641,-0.47603 0.08474,-0.41597 -0.461054,-0.85293 -1.872454,-1.4991 -1.095633,-0.50159 -2.470733,-1.25284 -3.055775,-1.66942 l -1.063715,-0.75744 -1.975578,0.80183 c -1.148418,0.46611 -2.741802,1.53789 -3.805602,2.5598 -1.006512,0.96689 -1.297933,1.3416 -0.647601,0.8327 0.650327,-0.50891 1.290102,-0.92516 1.421722,-0.925 z m 339.142289,0.35514 c 0,-0.19548 -0.15049,-0.35543 -0.33446,-0.35543 -0.18394,0 -0.43331,0.15995 -0.55412,0.35543 -0.12081,0.19549 0.0295,0.35543 0.33446,0.35543 0.30475,0 0.55412,-0.15994 0.55412,-0.35543 z m 1.77715,-3.61331 c 0,-0.18611 -0.14889,-0.24636 -0.33087,-0.13389 -0.18198,0.11247 -0.43615,0.0342 -0.56478,-0.174 -0.16087,-0.26029 -0.40128,-0.23958 -0.7699,0.0663 -0.4714,0.39125 -0.4569,0.473 0.12053,0.67893 0.76254,0.27196 1.54502,0.0505 1.54502,-0.43737 z m -343.088198,-3.03012 1.501676,-0.52593 -1.47064,-1.56906 c -0.808853,-0.86299 -1.518427,-1.56906 -1.576835,-1.56906 -0.10138,0 -0.506151,1.48603 -1.004582,3.68811 -0.200502,0.88583 -0.145915,0.98763 0.408646,0.76213 0.352032,-0.14315 1.315814,-0.49693 2.141735,-0.78619 z m 340.717728,-0.0437 c 0.55337,-0.0346 1.27312,-0.21276 1.59944,-0.39599 0.53883,-0.30253 0.52998,-0.35753 -0.0962,-0.5987 -0.43903,-0.16907 -0.74338,-0.10413 -0.83764,0.17875 -0.0989,0.29657 -0.31648,0.20397 -0.65442,-0.27852 -0.47791,-0.68232 -0.54551,-0.68925 -1.20608,-0.12366 -0.77761,0.66582 -1.01867,2.19004 -0.25549,1.61547 0.24436,-0.18397 0.89704,-0.36278 1.45041,-0.39735 z m 1.83733,-2.19865 c -0.12081,-0.19549 -0.41017,-0.35298 -0.64298,-0.34999 -0.25434,0.003 -0.21052,0.14297 0.10983,0.34999 0.68282,0.44128 0.80587,0.44128 0.53315,0 z m -326.088949,-8.90185 c 0.460994,-0.39982 1.33901,-1.03647 1.9511431,-1.41479 0.901617,-0.55723 1.1985792,-1.07042 1.5638054,-2.70242 0.2479625,-1.10801 0.7368962,-2.846 1.0865226,-3.8622 l 0.6356803,-1.84764 -2.287014,-0.4214 c -5.0460814,-0.92978 -7.8242184,-3.04574 -12.5440754,-9.55417 -1.454472,-2.00565 -2.761585,-3.52511 -2.904692,-3.37659 -0.143111,0.14851 -0.509702,1.48912 -0.814651,2.97912 -0.304948,1.49001 -0.649076,2.95569 -0.764733,3.25708 -0.165243,0.43062 0.233073,0.63686 1.859708,0.96291 3.232594,0.64795 8.467741,3.09043 8.467741,3.95066 0,0.68693 -3.610986,2.4489 -5.018785,2.4489 -0.637614,0 -1.255488,0.15564 -1.373053,0.34587 -0.31022,0.50195 2.883895,5.91469 4.774654,8.09112 1.456128,1.67614 1.762207,1.86197 3.073379,1.86601 0.961713,0.003 1.740817,-0.24236 2.29437,-0.72246 z m 323.778649,-5.11668 c 0,-0.0862 -0.15995,-0.25559 -0.35543,-0.37641 -0.19549,-0.12081 -0.35543,-0.0503 -0.35543,0.15674 0,0.20703 0.15994,0.37641 0.35543,0.37641 0.19548,0 0.35543,-0.0705 0.35543,-0.15674 z m 0.3287,-2.02575 c -0.52334,-0.9779 -1.03956,-1.12961 -1.03956,-0.30552 0,0.41404 0.15994,0.65396 0.35543,0.53314 0.19733,-0.12195 0.35784,0.14542 0.36087,0.60103 0.004,0.63467 0.0791,0.70419 0.33062,0.3067 0.19751,-0.31219 0.19463,-0.75795 -0.007,-1.13535 z m -130.26577,-3.12572 c 2.13538,-0.59925 4.29462,-1.09565 4.79831,-1.10313 0.52255,-0.008 -0.38149,-0.45158 -2.10537,-1.03359 -6.04946,-2.04241 -8.25402,-3.20585 -14.87366,-7.84948 -3.614,-2.53519 -6.61564,-4.56471 -6.67031,-4.51004 -0.0547,0.0547 0.38659,1.66015 0.98058,3.56772 0.98738,3.17089 1.29817,3.71921 3.62422,6.39409 1.39933,1.60918 3.37761,3.97698 4.39617,5.26177 l 1.85194,2.33599 2.0578,-0.9869 c 1.13179,-0.54279 3.80493,-1.47719 5.94032,-2.07643 z m -241.363194,-7.40456 c -0.114139,-0.43647 -0.348816,-0.79359 -0.521502,-0.79359 -0.368197,0 -0.426026,1.54663 -0.0711,1.90155 0.426367,0.42637 0.807495,-0.28621 0.592602,-1.10796 z m -1.102051,-1.7159 c 0.417894,-0.41145 0.316809,-1.6387 -0.113088,-1.37301 -0.208815,0.12905 -0.299855,0.44262 -0.202311,0.69681 0.09754,0.2542 -0.122406,0.54056 -0.488777,0.63637 -0.499582,0.13064 -0.632851,0.42821 -0.533039,1.19017 0.193194,1.47483 0.197378,1.47637 0.653395,0.24177 0.229484,-0.62131 0.537205,-1.24775 0.68382,-1.39211 z m -1.86601,1.07905 c 0,-0.30477 -0.162553,-0.45366 -0.361228,-0.33087 -0.198675,0.12278 -0.26921,0.37214 -0.156741,0.55412 0.304689,0.493 0.517969,0.40107 0.517969,-0.22325 z m 58.3661122,-6.20235 c 1.5076793,-0.58647 3.28879132,-1.42544 3.9580243,-1.86437 0.669233,-0.43894 1.7286469,-1.07843 2.3542508,-1.4211 l 1.13747,-0.62304 -1.7189045,-1.36165 c -2.39850194,-1.89999 -7.05912,-6.92945 -8.1565259,-8.80203 -1.0097496,-1.72301 -1.1616073,-1.78657 -2.5546461,-1.06921 -0.5278818,0.27183 -2.239333,0.92869 -3.8032258,1.45969 -3.307935,1.12316 -4.217876,1.75369 -3.060793,2.12093 0.412772,0.13101 0.750495,0.40448 0.750495,0.60771 0,0.20322 0.235959,0.27896 0.524356,0.16829 0.431798,-0.1657 0.486396,0.0757 0.309306,1.36772 -0.211261,1.54131 -0.181035,1.60001 1.716893,3.33461 1.062565,0.97113 2.7227454,2.97049 3.6892853,4.44302 0.9665399,1.47252 1.8373162,2.68372 1.9350596,2.69153 0.097743,0.008 1.4112724,-0.46563 2.9189553,-1.0521 z M -56.8634,-517.40712 c -0.644936,-0.64494 -0.916691,-0.647 -0.916691,-0.007 0,0.52775 0.696754,0.93083 1.157875,0.66986 0.148115,-0.0838 0.03958,-0.38213 -0.241184,-0.6629 z m 48.4529176,-11.43997 c -0.2051865,-0.53759 -0.687463,-2.29869 -1.071726,-3.91352 -0.3842631,-1.61487 -1.0428016,-3.5194 -1.4634176,-4.23229 -0.420615,-0.71289 -1.10506,-2.30738 -1.520989,-3.54332 l -0.756235,-2.24714 -0.753442,2.74741 c -0.414392,1.51107 -0.998742,4.50678 -1.298551,6.65714 -0.299809,2.15035 -0.648085,4.26959 -0.773946,4.70943 -0.227923,0.79651 -0.212288,0.79972 3.891267,0.79972 l 4.1201066,0 -0.373067,-0.97743 z m 20.5987584,-9.37599 c 2.702764,-0.90596 4.244377,-1.25247 11.425217,-2.56809 1.270664,-0.23281 2.277336,-0.54413 2.237044,-0.69185 -0.369939,-1.35625 -3.471233,-5.28944 -6.642512,-8.42427 l -3.87232,-3.82784 -3.591721,0.29653 c -1.9754436,0.16311 -5.4310705,0.46341 -7.6791685,0.66736 -2.2480979,0.20394 -4.53286205,0.37217 -5.0772536,0.37384 l -0.9897993,0.004 1.2153768,1.06711 c 1.18759639,1.04273 1.21146355,1.1179 1.04408421,3.28773 -0.27535556,3.56966 0.47760263,4.96562 4.51845299,8.37711 2.1426594,1.80893 3.571419,2.77467 3.9097355,2.6427 0.2932302,-0.11434 1.8695179,-0.65588 3.5028639,-1.20335 z m -61.728304,-4.65166 c -0.255043,-0.25506 -0.420592,-0.27603 -0.420592,-0.0533 0,0.47443 0.420336,0.89476 0.657547,0.65755 0.101003,-0.10101 -0.0056,-0.37292 -0.236955,-0.60423 z m 59.2790996,-21.45603 c -0.3840249,-0.89586 -0.698229,-1.76517 -0.698229,-1.93173 0,-0.16652 -0.1637113,-0.73339 -0.3638044,-1.25968 -0.3619349,-0.95195 -0.3719652,-0.94431 -1.9472652,1.48744 -0.8709007,1.34438 -1.5868763,2.53959 -1.5910597,2.65606 -0.00419,0.11644 0.9038491,0.24152 2.0178465,0.27792 1.1140009,0.0364 2.1003206,0.14103 2.1918226,0.23255 0.091502,0.0915 0.3739413,0.16638 0.6276441,0.16638 0.3436125,0 0.2831675,-0.41553 -0.2369549,-1.62894 z m 35.8979084,-4.53106 c -0.773015,-1.43313 -1.704029,-3.47241 -2.068914,-4.53174 -0.723387,-2.1001 -2.723999,-5.30263 -3.312549,-5.30263 -0.202549,0 -0.277939,-0.23544 -0.167532,-0.52316 0.110411,-0.28772 0.04585,-0.96748 -0.143473,-1.51058 l -0.34422,-0.98742 -8.130573,0 -8.130575,0 0.735876,1.27862 0.735872,1.27863 -1.042985,1.74253 c -0.58784,0.98209 -1.213835,2.72804 -1.434482,4.00087 l -0.391493,2.25834 1.102354,0.37661 c 0.606293,0.20711 2.584185,1.15017 4.39531,2.09569 l 3.292957,1.71907 4.526514,0.0441 c 2.489585,0.0242 5.64612,0.15905 7.014528,0.29949 1.368407,0.14046 3.001205,0.28054 3.628441,0.31128 l 1.14043,0.056 -1.405486,-2.6057 z m 28.887892,-8.36588 c 0.972106,-0.2242 0.969618,-0.22875 -1.878653,-3.42336 -3.600774,-4.03869 -4.447658,-5.26698 -5.296409,-7.68181 -0.884506,-2.51659 -1.580247,-7.78748 -1.319038,-9.99297 0.169626,-1.4322 0.100395,-1.7629 -0.402375,-1.92202 -0.333988,-0.10571 -1.406969,-0.51111 -2.384402,-0.90095 -1.526148,-0.60864 -7.073416,-1.6964 -8.708048,-1.70756 -0.472804,-0.004 -2.367526,2.73923 -2.072099,2.99923 0.06448,0.0567 0.80918,0.45218 1.654895,0.87873 1.208265,0.60946 1.646077,0.68563 2.043725,0.35561 0.649077,-0.53869 0.64687,-0.1025 -0.01269,2.51051 -0.744371,2.94894 -1.062772,3.87803 -2.277318,6.64527 -1.330365,3.03112 -1.394318,3.91887 -0.31393,4.35772 1.147952,0.46633 12.750145,5.55791 15.905515,6.98009 2.681627,1.20864 3.272804,1.31396 5.060844,0.90151 z m 101.320858,-4.16024 0.46113,-3.57353 -1.26199,0.45132 c -2.80001,1.00129 -5.34787,0.29242 -5.15824,-1.43512 0.0648,-0.59047 -0.0517,-0.82069 -0.35615,-0.70382 -1.23343,0.47329 -0.55518,-2.98256 0.72608,-3.69961 0.54442,-0.30467 0.56849,-0.48747 0.18584,-1.41127 -0.46723,-1.12799 -1.66611,-1.8643 -3.03546,-1.8643 -0.60247,0 -0.89802,-0.2578 -1.06687,-0.93052 -0.12844,-0.51178 -0.3261,-0.83796 -0.43922,-0.72486 -0.31542,0.31544 -2.83574,6.0935 -3.07674,7.05373 -0.18792,0.74871 0.0463,0.99119 1.98886,2.05911 3.55853,1.95633 6.51419,4.17237 8.42632,6.31771 0.98318,1.10311 1.80023,2.17367 1.81566,2.379 0.0663,0.88246 0.35747,-0.55998 0.79078,-3.91784 z m -92.035947,-1.04027 c -0.112526,-0.29323 -0.267447,-0.53315 -0.344277,-0.53315 -0.07683,0 -0.139688,0.23992 -0.139688,0.53315 0,0.29323 0.154925,0.53314 0.344277,0.53314 0.189349,0 0.25221,-0.23991 0.139688,-0.53314 z m 181.685197,-5.1359 c -0.13082,-0.2117 -0.40383,-0.28232 -0.60668,-0.15696 -0.2388,0.14761 -0.20245,0.33076 0.10312,0.51964 0.57039,0.35252 0.83001,0.16552 0.50356,-0.36268 z m -229.998432,-6.77102 c 0.349196,-1.07518 1.108339,-2.81189 1.68699,-3.85937 0.860547,-1.55771 1.009935,-2.15398 0.82054,-3.27501 -0.481981,-2.85283 2.891765,-6.96619 7.67715,-9.36023 4.237691,-2.12 7.605989,-2.14051 10.327684,-0.0628 0.851504,0.65001 2.347913,1.47195 3.325347,1.82652 2.633477,0.95529 4.688039,2.48521 5.969189,4.44487 1.070254,1.63708 1.672567,2.15772 1.672567,1.44583 0,-0.56937 3.608604,-5.89272 4.922727,-7.26191 0.713519,-0.74342 2.057039,-1.83971 2.985602,-2.43619 0.928562,-0.59649 1.688294,-1.14353 1.688294,-1.21565 0,-0.44112 -3.470124,-5.64363 -4.090361,-6.13238 -0.414109,-0.32632 -1.211116,-1.39301 -1.771128,-2.37044 -0.56001,-0.97743 -1.046445,-1.82055 -1.080971,-1.87358 -0.03451,-0.053 -1.053471,0.39513 -2.264327,0.99592 -1.431486,0.71022 -2.475239,1.01553 -2.983992,0.87283 -0.616324,-0.17288 -0.669247,-0.14022 -0.249288,0.15379 0.29323,0.2053 0.426268,0.37573 0.295643,0.37871 -0.130627,0.004 -0.516739,0.1126 -0.858027,0.24358 -0.460958,0.1769 -0.553053,0.10833 -0.358142,-0.26657 0.144308,-0.27759 0.0183,-0.20473 -0.280047,0.1619 -0.302998,0.37234 -0.780273,0.5753 -1.081266,0.45982 -0.296362,-0.11374 -0.648647,-0.0292 -0.782854,0.18802 -0.147763,0.2391 -0.08215,0.29479 0.166331,0.14121 0.225691,-0.13947 0.409335,-0.12419 0.408102,0.0341 -0.0036,0.44529 -2.149967,1.56141 -2.539633,1.32057 -0.190496,-0.11772 -0.656167,0.0663 -1.034821,0.40899 -0.749355,0.67816 -0.968527,0.22631 -0.244178,-0.50339 0.356231,-0.35885 0.321007,-0.40064 -0.177715,-0.21077 -0.583535,0.22214 -0.745025,0.55664 -0.67824,1.40476 0.01539,0.19549 -0.685401,0.71623 -1.557325,1.15721 l -1.585313,0.80179 -0.02499,-0.80179 c -0.02367,-0.76001 -0.03989,-0.76474 -0.310952,-0.0909 -0.157285,0.39097 -0.226935,0.81404 -0.154775,0.94018 0.07216,0.12611 -0.103569,0.31939 -0.390508,0.4295 -0.286936,0.11012 -0.681012,-0.073 -0.875724,-0.40704 -0.33161,-0.56879 -0.354709,-0.56783 -0.364832,0.0149 -0.0059,0.34214 -0.170749,0.62204 -0.366235,0.62204 -0.195487,0 -0.355431,0.21027 -0.355431,0.46729 0,0.62747 -2.252207,1.66988 -3.209584,1.48552 -0.543161,-0.10461 -0.710253,-0.004 -0.575545,0.34725 0.130465,0.33997 -0.02605,0.45307 -0.500538,0.36169 -0.393679,-0.0758 -0.69036,0.0629 -0.69036,0.32277 0,0.36332 -1.684908,1.44621 -2.043725,1.31349 -0.04887,-0.0181 -0.422607,0.30091 -0.830521,0.7088 -0.530451,0.53044 -0.994419,0.67823 -1.629218,0.51889 -0.571934,-0.14352 -0.806309,-0.0913 -0.659082,0.14694 0.125659,0.2033 0.05909,0.36968 -0.147934,0.36968 -0.207024,0 -0.388699,-0.35987 -0.403723,-0.79972 -0.01933,-0.5662 -0.149071,-0.41095 -0.444288,0.53169 -0.229334,0.73229 -0.759338,1.5688 -1.177783,1.8589 -0.688078,0.47706 -0.849475,0.45776 -1.688295,-0.20206 -0.739676,-0.58184 -0.927485,-0.62122 -0.927485,-0.19456 0,0.29422 0.319887,0.6365 0.710861,0.76062 0.390974,0.12408 0.710861,0.35767 0.710861,0.51907 0,0.51964 -1.140882,0.75006 -1.644488,0.33211 -0.380926,-0.31615 -0.488095,-0.27386 -0.488095,0.19254 0,0.3287 0.150265,0.50478 0.33392,0.39129 0.183654,-0.11352 0.310397,0.10588 0.281646,0.48755 -0.02875,0.38169 -0.13903,0.68608 -0.245062,0.67645 -0.643741,-0.0584 -1.081365,0.11385 -1.081365,0.42563 0,0.55365 -3.858166,5.17763 -7.043709,8.44179 -1.575961,1.61487 -3.20583,3.41423 -3.621929,3.9986 l -0.756544,1.06249 0.823923,0.006 c 1.58554,0.0107 7.393047,1.39592 8.723025,2.08062 l 1.342088,0.69096 0.38148,-1.83289 c 0.209811,-1.00807 0.667182,-2.71253 1.016375,-3.78771 z m 38.690029,3.53337 c -0.227661,-1.86498 -0.245173,-1.89075 -0.491102,-0.72235 -0.145123,0.68947 -0.09134,1.57087 0.124798,2.04522 0.54533,1.19688 0.634558,0.87465 0.366304,-1.32287 z m 53.218783,-3.79995 c 0.006,-4.84014 0.41082,-10.61855 0.90958,-12.97321 0.30754,-1.45193 -0.4483,-1.23878 -2.39038,0.67411 l -1.67677,1.65154 0.54929,1.37282 c 0.3021,0.75504 0.47388,1.88652 0.38173,2.51442 -0.0922,0.62787 0.20447,2.98562 0.65916,5.2394 0.4547,2.25379 0.83204,4.69758 0.83855,5.43066 0.007,0.73307 0.17176,1.33286 0.36725,1.33286 0.22061,0 0.35777,-1.98859 0.36159,-5.2426 z m -104.192952,-5.06282 c 1.636526,-1.36325 3.086658,-2.40996 3.222514,-2.32597 0.13586,0.0839 0.521232,-0.31157 0.856385,-0.87895 0.419589,-0.71029 0.790147,-0.96218 1.189814,-0.80881 0.388077,0.14889 0.495271,0.0849 0.323445,-0.19311 -0.453085,-0.73311 0.169857,-1.22225 0.675653,-0.53055 0.427408,0.58454 0.493426,0.53681 0.778314,-0.56261 0.289317,-1.11652 0.352708,-1.15991 0.897917,-0.61472 0.406286,0.40629 0.662217,0.46434 0.832536,0.18873 0.135252,-0.21883 0.02548,-0.53748 -0.243911,-0.70812 -0.443808,-0.28111 -0.189946,-0.47023 0.487608,-0.36325 0.146615,0.0231 0.266573,-0.13115 0.266573,-0.34295 0,-0.21177 -0.130262,-0.33173 -0.28947,-0.26658 -4.491685,1.8384 -6.39197,2.7724 -7.142586,3.51055 -1.378924,1.35604 -5.363442,5.94671 -5.363442,6.17938 0,0.50574 0.735037,0.0274 3.50865,-2.28304 z m 130.110342,1.14267 c 1.96878,-1.63011 3.4133,-2.56645 3.95931,-2.56645 0.22393,0 1.20031,-0.51396 2.16973,-1.14214 l 1.76259,-1.14211 -1.71294,-0.78315 c -0.94211,-0.43075 -1.55299,-0.80136 -1.3575,-0.82357 0.19549,-0.022 0.0777,-0.20224 -0.26186,-0.40004 -0.91833,-0.53503 -1.85814,0.12035 -3.23702,2.25738 -0.65861,1.02076 -1.79179,2.39012 -2.51819,3.04308 -0.81899,0.73617 -1.24343,1.3886 -1.11727,1.71737 0.11189,0.2916 0.20344,0.67703 0.20344,0.85652 0,0.57434 0.44976,0.35753 2.10971,-1.01689 z m -43.13775,-1.1742 c -0.75148,-2.53052 -0.70131,-4.49306 0.1838,-7.18929 0.918,-2.79642 3.83911,-6.7857 5.88321,-8.03454 0.91682,-0.56016 1.73815,-1.43022 2.10408,-2.22891 0.81366,-1.77601 2.33599,-3.26448 4.26698,-4.17218 3.19779,-1.50312 5.8551,-1.32864 8.82127,0.57924 1.14135,0.73415 1.52473,0.82108 2.22144,0.50361 0.72337,-0.32959 0.84203,-0.63568 0.84203,-2.17225 0,-2.30862 0.92319,-8.03916 1.60764,-9.97906 0.29289,-0.83018 0.45323,-1.58867 0.35631,-1.6856 -0.0969,-0.0969 -1.57811,-0.29856 -3.29153,-0.44809 -1.71342,-0.14949 -3.91502,-0.44706 -4.89245,-0.66124 -1.0088,-0.22104 -4.35118,-0.34914 -7.73069,-0.29622 -3.27444,0.0513 -5.9535,-0.0171 -5.95346,-0.15177 4e-5,-0.13477 -0.73232,0.005 -1.62747,0.30955 -1.20209,0.4096 -1.73168,0.4504 -2.02595,0.15614 -0.21913,-0.21912 -0.56636,-0.39599 -0.77162,-0.39296 -0.20526,0.004 -0.13328,0.16047 0.15995,0.34999 0.45562,0.29444 0.4427,0.34533 -0.0889,0.34995 -0.4074,0.004 -0.62473,-0.27048 -0.62991,-0.79424 l -0.008,-0.79972 -0.6141,0.75828 c -0.34531,0.42637 -1.23639,0.86248 -2.03582,0.99638 -0.78195,0.13094 -1.70163,0.32031 -2.04373,0.42082 -0.40172,0.11801 -0.622,-0.0107 -0.622,-0.36325 0,-0.33925 -0.20184,-0.46849 -0.53315,-0.34135 -0.29323,0.11253 -0.53314,0.4274 -0.53314,0.6997 0,0.31662 -0.41646,0.50396 -1.15515,0.51964 -0.63533,0.0135 -1.595,0.0825 -2.132585,0.15344 -0.79925,0.10549 -0.983892,-0.0124 -1.012863,-0.64649 -0.03284,-0.71833 -0.0564,-0.71001 -0.320012,0.11313 -0.189715,0.59236 -0.296383,0.68122 -0.320001,0.26657 -0.03178,-0.55781 -0.112217,-0.54523 -0.77915,0.1217 -0.492528,0.49252 -1.002734,0.67425 -1.51058,0.53802 -0.421772,-0.11317 -1.486606,-0.21358 -2.366296,-0.22318 -1.558954,-0.0171 -1.576946,-0.0299 -0.710861,-0.51352 0.550089,-0.3071 1.017199,-0.37001 1.226235,-0.16514 0.501683,0.49174 0.91073,0.40054 0.697376,-0.15546 -0.109469,-0.28527 0.104624,-0.56261 0.517706,-0.67063 0.470384,-0.12301 0.647384,-0.0357 0.532822,0.26284 -0.09435,0.24589 0.07756,0.54264 0.382024,0.65947 0.409015,0.15696 0.553572,-0.0167 0.553572,-0.66498 0,-0.75514 -0.162961,-0.87741 -1.169331,-0.87741 -1.867037,0 -5.179269,0.98305 -8.249577,2.44845 -1.563894,0.74641 -5.122642,2.28126 -7.908329,3.41075 -2.897814,1.17494 -5.064885,2.25304 -5.064885,2.51975 0,0.82439 1.451102,2.95622 2.166861,3.18342 0.381434,0.12105 1.352477,1.12778 2.157872,2.23718 0.805391,1.10941 1.570587,2.13831 1.700433,2.28649 0.129842,0.14817 1.266441,-0.15312 2.525771,-0.66956 1.259333,-0.51644 4.28899,-1.2829 6.732575,-1.70319 3.714007,-0.63882 4.434781,-0.86427 4.393516,-1.37413 -0.07965,-0.98419 1.392328,-0.73926 3.673484,0.61127 3.088223,1.8283 7.217913,5.26965 8.122603,6.76864 0.87881,1.45613 0.97643,3.64441 0.20409,4.57503 -0.25137,0.30286 -0.48853,0.75856 -0.52703,1.01262 -0.13483,0.88989 -0.63224,1.35057 -1.45823,1.35057 -0.53458,0 -1.21347,0.4741 -1.89455,1.32309 l -1.06142,1.32309 -1.54627,-1.50081 c -1.509414,-1.46505 -1.603802,-1.50081 -3.960342,-1.50081 l -2.414073,0 1.166413,1.59176 c 0.907911,1.239 1.94081,1.99404 4.660685,3.40698 1.921847,0.99841 3.531987,1.76159 3.578087,1.69598 0.0461,-0.0656 0.53807,-1.03687 1.09327,-2.15839 0.55519,-1.12153 1.28974,-2.29281 1.63232,-2.60285 0.57385,-0.51932 0.64211,-0.50305 0.86734,0.20657 0.13446,0.42364 0.27052,2.20431 0.30235,3.95701 l 0.0579,3.18679 1.94478,1.19954 c 1.06962,0.65975 1.99856,1.14577 2.06431,1.08001 0.0658,-0.0657 -0.13126,-0.96403 -0.43779,-1.99624 z m -35.502146,0.31826 c -0.113461,-0.28357 -0.197684,-0.19933 -0.214737,0.21471 -0.01543,0.3747 0.06857,0.58461 0.186679,0.4665 0.118106,-0.11811 0.130731,-0.42466 0.02804,-0.68121 z m -44.839922,-4.12989 c -0.109434,-0.10944 -0.396231,-2.5e-4 -0.637333,0.24268 -0.348415,0.35103 -0.30759,0.39183 0.19897,0.19897 0.350532,-0.1335 0.547796,-0.33222 0.438363,-0.44165 z m 8.807724,-5.65995 c -0.213976,-0.0713 -0.306779,-0.44429 -0.206228,-0.82879 0.146338,-0.55959 0.05374,-0.64955 -0.46405,-0.45087 -0.412313,0.15824 -0.486908,0.30155 -0.205716,0.39528 0.347305,0.11576 0.343481,0.26764 -0.01798,0.71388 -0.347316,0.42876 -0.350927,0.5018 -0.01482,0.29988 0.249668,-0.14999 0.444288,-0.0928 0.444288,0.13048 0,0.21869 0.191897,0.27876 0.426783,0.1336 0.293003,-0.18109 0.304832,-0.30442 0.03773,-0.39346 z m 4.368724,-2.7725 c -0.084,-0.57231 -0.31125,-0.66771 -1.021244,-0.42872 -0.333284,0.11221 -0.321753,0.28427 0.04916,0.73361 0.552307,0.6691 1.090272,0.50037 0.972084,-0.30489 z m 4.014435,-2.37019 c 0.224963,-0.36023 0.252089,-0.63977 0.06208,-0.63977 -0.185606,0 -0.438939,0.16417 -0.56296,0.36485 -0.12402,0.20067 -0.476742,0.32063 -0.78382,0.26657 -0.307081,-0.0541 -0.617575,0.0697 -0.689983,0.27492 -0.227721,0.6455 1.555403,0.4048 1.974683,-0.26657 z m 1.459814,-1.37164 c 0,-0.40249 -0.15296,-0.63729 -0.339909,-0.52174 -0.18695,0.11552 -0.249807,0.44486 -0.139688,0.73183 0.281938,0.73472 0.479597,0.64813 0.479597,-0.21009 z m 48.936777,-18.88345 c -0.113461,-0.28357 -0.197684,-0.19933 -0.214737,0.21471 -0.01543,0.3747 0.06857,0.58461 0.186679,0.4665 0.118106,-0.11811 0.130731,-0.42466 0.02804,-0.68121 z m 3.767294,-1.08851 c -0.0783,-0.14662 -0.30225,-0.26657 -0.49774,-0.26657 -0.19549,0 -0.25658,0.15994 -0.13576,0.35543 0.12082,0.19548 0.0503,0.35543 -0.15674,0.35543 -0.20702,0 -0.37641,0.23991 -0.37641,0.53314 0,0.44173 0.11221,0.42648 0.65448,-0.0888 0.35997,-0.34211 0.59044,-0.74196 0.51217,-0.88858 z m 5.22397,0.25797 c -0.24728,-0.29796 -0.52279,-0.46853 -0.61226,-0.37907 -0.24648,0.2465 0.25433,0.92082 0.68389,0.92082 0.23568,0 0.20872,-0.20395 -0.0716,-0.54175 z m 1.78428,-0.52454 c 0.29323,-0.18952 0.37321,-0.34456 0.17772,-0.34456 -0.19549,0 -0.59535,0.15504 -0.88858,0.34456 -0.29323,0.18948 -0.3732,0.34452 -0.17771,0.34452 0.19548,0 0.59534,-0.15504 0.88857,-0.34452 z m 5.68689,-0.35543 c 0,-0.19549 -0.15994,-0.35543 -0.35543,-0.35543 -0.19549,0 -0.35543,0.15994 -0.35543,0.35543 0,0.19548 0.15994,0.35543 0.35543,0.35543 0.19549,0 0.35543,-0.15995 0.35543,-0.35543 z m -77.943559,-4.4003 c -0.06821,-0.20466 0.28722,-0.76023 0.789849,-1.23466 0.502628,-0.47443 0.673953,-0.78177 0.380722,-0.683 -0.29323,0.0987 -0.813047,0.0356 -1.155149,-0.14036 -0.466054,-0.23966 -0.622003,-0.17782 -0.622003,0.24674 0,0.31164 0.159944,0.46778 0.35543,0.34697 0.562284,-0.34754 0.413139,0.39819 -0.177715,0.88858 -0.68372,0.56741 -0.679757,0.94779 0.0099,0.94779 0.298661,0 0.487207,-0.16741 0.418992,-0.37206 z m 3.076447,-1.72132 c -0.341562,-0.55266 -1.090205,-0.25577 -1.472876,0.58412 l -0.391965,0.86028 1.017757,-0.58411 c 0.559768,-0.32128 0.940953,-0.70838 0.847084,-0.86029 z m 85.530032,-24.60215 c 0,-0.0862 -0.15995,-0.25559 -0.35543,-0.3764 -0.19549,-0.12085 -0.35543,-0.0503 -0.35543,0.15671 0,0.20704 0.15994,0.37643 0.35543,0.37643 0.19548,0 0.35543,-0.0705 0.35543,-0.15674 z m 6.23465,-0.22236 c 0.12885,-0.20849 0.11639,-0.4884 -0.0277,-0.622 -0.14408,-0.13361 -0.33337,-0.043 -0.42064,0.20138 -0.0873,0.24436 -0.30027,0.44429 -0.47333,0.44429 -0.17306,0 -0.21819,-0.2799 -0.10028,-0.622 0.17723,-0.51427 0.10916,-0.49888 -0.39294,0.0889 -0.33403,0.39097 -0.48479,0.47094 -0.33503,0.17771 0.24041,-0.47073 0.19146,-0.47208 -0.41793,-0.0117 -0.37962,0.28676 -0.75687,0.56667 -0.83832,0.62201 -0.0815,0.0553 0.5089,0.10055 1.31189,0.10055 0.80299,0 1.56541,-0.17057 1.69427,-0.37907 z m -18.85244,-0.68719 c 0.27801,-0.44983 -0.19251,-0.44983 -0.88857,0 -0.45946,0.29693 -0.45008,0.34527 0.0679,0.34996 0.33056,0.004 0.69988,-0.15447 0.82069,-0.34996 z m 2.13259,-0.35543 c 0.12081,-0.19549 -0.0297,-0.35543 -0.33446,-0.35543 -0.30476,0 -0.55412,0.15994 -0.55412,0.35543 0,0.19549 0.1505,0.35543 0.33445,0.35543 0.18395,0 0.43331,-0.15994 0.55413,-0.35543 z m 13.12791,0.0372 c 0.10816,-0.17497 -0.0423,-0.40988 -0.33446,-0.52198 -0.32261,-0.1238 -0.5311,0 -0.5311,0.31818 0,0.57487 0.5554,0.70567 0.86556,0.2038 z m 39.65352,396.40747 c 0,-0.36169 0.19554,-0.49615 0.53314,-0.36659 0.29323,0.11253 0.53315,0.0497 0.53315,-0.13969 0,-0.18933 -0.19993,-0.34913 -0.44429,-0.35507 -0.24533,-0.006 -0.16448,-0.17377 0.18053,-0.37466 0.34365,-0.20014 0.76983,-0.27425 0.94708,-0.16471 0.17724,0.10955 0.3759,0.0471 0.44147,-0.13879 0.14551,-0.41251 3.14037,-1.12149 3.14037,-0.74346 0,0.36084 -1.77233,2.1157 -2.56538,2.54012 -0.40046,0.21433 -0.63349,0.21458 -0.63349,0 0,-0.18606 0.19993,-0.41532 0.44429,-0.5094 0.24436,-0.0941 0.10198,-0.15472 -0.31638,-0.13467 -0.46803,0.0224 -0.69269,0.21361 -0.58398,0.49693 0.11682,0.30442 -0.13731,0.46046 -0.74991,0.46046 -0.61411,0 -0.9266,-0.19261 -0.9266,-0.57118 z m 8.77318,-2.36902 c -1.00727,-0.33577 -1.25386,-1.09764 -0.50942,-1.57388 0.24435,-0.15632 0.76417,-0.91697 1.15514,-1.69032 1.04125,-2.05961 2.44763,-2.73187 5.86006,-2.80125 1.56458,-0.032 2.84543,-0.15913 2.84634,-0.28296 0.003,-0.42591 1.38946,-0.58756 1.55599,-0.18141 0.0917,0.2236 0.17932,0.0467 0.19475,-0.39318 0.0154,-0.43984 0.17493,-0.79972 0.35442,-0.79972 0.1795,0 0.57936,-0.0971 0.88858,-0.21574 0.37402,-0.14353 0.56222,-0.0174 0.56222,0.3764 0,0.32568 -0.15812,0.49444 -0.35136,0.37501 -0.20033,-0.12383 -0.26174,0.0163 -0.14286,0.32618 0.30595,0.7973 -1.42294,1.53656 -2.16099,0.92405 -0.37095,-0.30788 -0.54367,-0.32447 -0.54367,-0.0522 0,0.21941 -0.2799,0.40402 -0.622,0.41024 -0.56609,0.0103 -0.56072,0.0577 0.0597,0.52714 0.54638,0.4134 0.79331,0.42882 1.244,0.0776 0.30927,-0.24105 0.1425,0.12152 -0.37061,0.80573 -1.54484,2.05997 -3.95488,3.51975 -6.65341,4.03001 -1.55051,0.29319 -2.75409,0.34263 -3.36688,0.1384 z M 17.038029,-306.79188 c -0.678289,-0.29146 -0.674216,-0.30663 0.08886,-0.33045 0.439845,-0.0139 0.799718,0.13496 0.799718,0.33045 0,0.19548 -0.03999,0.3442 -0.08886,0.33044 -0.04887,-0.0139 -0.408745,-0.16243 -0.799719,-0.33044 z m -29.157641,-25.9292 c -1.127653,-0.45708 -1.674916,-1.31319 -1.39773,-2.18652 0.202272,-0.63731 0.136677,-0.73893 -0.355135,-0.55021 -0.331777,0.12732 -0.679562,0.23149 -0.772852,0.23149 -0.09329,0 -0.0719,0.15811 0.04753,0.35136 0.124522,0.20148 -0.01816,0.26106 -0.334453,0.13968 -0.683667,-0.26235 -0.689766,-0.46012 -0.03644,-1.18204 0.317076,-0.35036 0.40035,-0.75502 0.216571,-1.05238 -0.230003,-0.37215 -0.353842,-0.30905 -0.539114,0.27469 -0.132291,0.4168 -0.509648,0.75538 -0.838578,0.75238 -0.498626,-0.005 -0.512776,-0.0594 -0.08512,-0.32997 0.418296,-0.26466 0.434692,-0.49627 0.08886,-1.25529 -0.543585,-1.19305 -0.536579,-1.25274 0.147095,-1.25274 0.370177,0 0.496686,0.19411 0.3595,0.55161 -0.116418,0.30338 -0.07148,0.46496 0.09986,0.35907 0.171339,-0.1059 0.891228,0.51491 1.59975,1.37957 0.818447,0.99881 1.14647,1.65972 0.899503,1.81236 -0.240087,0.14838 0.06403,0.62758 0.795332,1.25325 1.252838,1.07185 1.268299,1.17505 0.105424,0.70369 z m -5.175938,-4.16151 c -0.545775,-0.14622 -3.875199,-3.7548 -3.875199,-4.20012 0,-0.11933 -0.405486,-0.64982 -0.901077,-1.17888 -0.534603,-0.5707 -0.875588,-1.32331 -0.838407,-1.8505 0.03448,-0.48871 -0.10107,-1.28843 -0.301199,-1.77715 -0.200125,-0.48872 -0.269519,-1.04691 -0.154203,-1.24042 0.115312,-0.19352 0.320506,0.0464 0.455982,0.53314 0.135479,0.48675 0.262268,0.73511 0.281753,0.55193 0.05246,-0.49318 2.168012,1.63087 2.168012,2.17672 0,0.25665 0.173273,0.46664 0.385049,0.46664 0.211779,0 0.311744,0.19993 0.222144,0.44429 -0.0896,0.24436 -0.354731,0.40034 -0.589183,0.34663 -0.234453,-0.0537 -0.324977,0.0662 -0.201167,0.26657 0.123811,0.20033 0.465024,0.36424 0.758254,0.36424 0.293231,0 0.441129,-0.1489 0.32866,-0.33087 -0.112473,-0.18198 -0.04996,-0.42638 0.138902,-0.54311 0.188869,-0.11672 0.511365,0.10163 0.716662,0.48522 0.469317,0.87694 0.475662,1.20486 0.01784,0.9219 -0.738506,-0.45642 -1.1186,0.24166 -0.502347,0.92261 0.469061,0.51831 0.722661,0.58103 1.096112,0.27109 0.371346,-0.30819 0.649179,-0.25543 1.178774,0.22385 0.614906,0.55648 0.636065,0.70824 0.187952,1.34801 -0.359799,0.51369 -0.40405,0.90949 -0.15393,1.37685 0.19307,0.36074 0.305418,0.63735 0.249669,0.61467 -0.05575,-0.0227 -0.35682,-0.10966 -0.669045,-0.19331 z m 0.577933,-2.32982 c 0.15479,0.13973 0.164767,0.0515 0.02218,-0.19602 -0.142595,-0.24755 -0.408152,-0.35807 -0.590132,-0.24559 -0.181977,0.11246 -0.33087,0.0288 -0.33087,-0.18594 0,-0.25117 -0.176852,-0.22695 -0.49584,0.0679 -0.667214,0.61671 -0.332104,1.07912 0.470679,0.64949 0.353404,-0.18914 0.769201,-0.22956 0.923988,-0.0898 z m -7.63903,-5.04326 c -0.178671,-0.46995 -0.674315,-1.18001 -1.101425,-1.57793 -0.555549,-0.51757 -0.715326,-0.96747 -0.561392,-1.5808 0.275697,-1.09846 -0.06206,-1.43431 -0.750296,-0.74607 -0.480859,0.48086 -0.684172,0.37465 -1.90353,-0.99436 -0.750847,-0.843 -2.001376,-2.1725 -2.778962,-2.95444 -0.777582,-0.78195 -1.521669,-1.87328 -1.653523,-2.42518 -0.14991,-0.62747 -0.365133,-0.87806 -0.574404,-0.66879 -0.357275,0.35727 -1.280609,-0.44251 -4.501819,-3.89942 -1.546129,-1.65926 -1.817216,-2.1343 -1.527213,-2.67617 0.304511,-0.56899 0.223331,-0.65147 -0.595386,-0.60489 -1.159129,0.0659 -3.042737,-1.76999 -2.793555,-2.72286 0.117469,-0.44921 -0.01105,-0.59642 -0.447395,-0.51239 -0.598538,0.11527 -2.063533,-1.78523 -1.867176,-2.42224 0.04967,-0.16114 -0.04636,-0.20852 -0.213411,-0.10528 -0.419657,0.25937 -2.744329,-2.86261 -3.64109,-4.88988 -0.406314,-0.91855 -1.447058,-2.46759 -2.312762,-3.44233 -1.943519,-2.1883 -2.627602,-3.50966 -4.03967,-7.80295 -0.609741,-1.85387 -1.243726,-3.61385 -1.408859,-3.91107 -0.165133,-0.29722 -0.269704,-1.15263 -0.232384,-1.90092 0.04332,-0.86854 -0.106377,-1.42738 -0.413974,-1.54542 -0.288474,-0.1107 -0.39633,-0.4543 -0.268766,-0.85622 0.117189,-0.36922 -0.03799,-1.17457 -0.344838,-1.78966 -0.306847,-0.6151 -0.557905,-1.49364 -0.557905,-1.95232 0,-0.45869 -0.169384,-0.83397 -0.376408,-0.83397 -0.207024,0 -0.284387,-0.1489 -0.171915,-0.33087 0.112469,-0.18198 0.02897,-0.43935 -0.185542,-0.57193 -0.219208,-0.13547 -0.29334,-0.62627 -0.169266,-1.12062 0.141649,-0.56438 0.08867,-0.79795 -0.147842,-0.65178 -0.247841,0.15318 -0.263441,-0.0488 -0.04762,-0.61643 0.26003,-0.68393 0.175465,-0.93484 -0.445361,-1.32142 -0.684353,-0.42613 -0.716964,-0.41742 -0.304793,0.0814 0.27526,0.33314 0.32459,0.64325 0.122226,0.76832 -0.18663,0.11534 -0.249171,0.55445 -0.138988,0.9758 0.144365,0.55204 0.07673,0.68969 -0.242044,0.49267 -0.243314,-0.15037 -0.363453,-0.57524 -0.266982,-0.94415 0.09647,-0.36891 0.04777,-0.67075 -0.108218,-0.67075 -0.284213,0 -0.883991,-1.72047 -0.774423,-2.22144 0.03206,-0.14661 -0.111079,-0.26657 -0.318103,-0.26657 -0.207024,0 -0.276297,-0.16198 -0.15394,-0.35996 0.122357,-0.19797 -0.02815,-0.86232 -0.334453,-1.47633 -0.306307,-0.614 -0.556921,-1.28313 -0.556921,-1.48695 0,-0.69445 -1.863845,-3.06288 -2.231521,-2.83565 -0.211253,0.13056 -0.25897,0.0527 -0.112717,-0.18394 0.139485,-0.22569 0.08423,-0.41035 -0.122798,-0.41035 -0.207024,0 -0.376408,-0.15994 -0.376408,-0.35543 0,-0.19549 0.239916,-0.35543 0.533146,-0.35543 0.692713,0 0.68023,-0.50175 -0.02708,-1.08877 -0.464299,-0.38534 -0.615531,-0.37757 -0.883135,0.0453 -0.20268,0.32031 -0.324923,0.35269 -0.328339,0.087 -0.0028,-0.23282 0.154498,-0.52216 0.349985,-0.64298 0.195487,-0.12082 0.355431,-0.37961 0.355431,-0.5751 0,-0.19548 -0.159944,-0.25658 -0.355431,-0.13576 -0.195487,0.12082 -0.35543,-0.0297 -0.35543,-0.33445 0,-0.30477 -0.134271,-0.55413 -0.298381,-0.55413 -0.315522,0 -1.123341,-1.56069 -1.123341,-2.17028 0,-0.19783 0.191399,-0.24139 0.425333,-0.0968 0.23393,0.14458 0.09742,-0.20586 -0.30336,-0.77875 -0.40078,-0.57288 -0.824517,-1.60141 -0.941639,-2.28561 -0.117121,-0.68421 -0.291314,-1.60388 -0.387096,-2.04373 -0.09578,-0.43984 -0.0405,-0.79972 0.122851,-0.79972 0.163346,0 0.39048,-0.24361 0.50474,-0.54137 0.169487,-0.44168 0.07831,-0.4721 -0.495122,-0.16521 -0.705995,0.37784 -0.861567,0.049 -0.798983,-1.68875 0.0087,-0.24225 -0.126021,-0.35277 -0.299439,-0.24559 -0.173415,0.10717 -0.33966,-0.25442 -0.369435,-0.80355 -0.0688,-1.26877 -0.11448,-1.54963 -0.393642,-2.42013 -0.125382,-0.39097 -0.310437,-1.86108 -0.411237,-3.26689 -0.1008,-1.40582 -0.276895,-2.92905 -0.391318,-3.38495 -0.114424,-0.4559 -0.06143,-1.22501 0.117772,-1.70913 0.320093,-0.86476 0.330991,-0.85837 0.620265,0.36378 0.161948,0.68421 0.305926,1.32398 0.319958,1.42172 0.01404,0.0978 0.155675,0.38286 0.31477,0.63358 0.159094,0.25073 0.419888,0.8905 0.579543,1.42173 0.159653,0.53122 0.416856,1.28574 0.571561,1.67672 0.250205,0.63232 0.215025,0.65696 -0.318412,0.22305 -0.329833,-0.2683 -0.602142,-0.34827 -0.605135,-0.17772 -0.0028,0.17055 -0.160488,0.0702 -0.349989,-0.22305 -0.246136,-0.38087 -0.3461,-0.40153 -0.349989,-0.0723 -0.0028,0.25345 0.473377,0.73328 1.058604,1.06629 1.363268,0.77574 1.364259,1.20086 0.0021,0.96091 -0.607381,-0.10701 -1.066291,-0.0327 -1.066291,0.17264 0,0.19828 0.16938,0.3605 0.376404,0.3605 0.207024,0 0.27756,0.15995 0.156742,0.35543 -0.120818,0.19549 0.01635,0.35543 0.304835,0.35543 0.288474,0 0.599447,-0.19993 0.691049,-0.44428 0.341107,-0.90995 1.926128,2.20638 1.717394,3.37659 -0.02616,0.14661 0.110247,0.26657 0.303111,0.26657 0.460816,0 1.459629,2.3612 1.607889,3.80107 0.06937,0.67369 -0.08826,1.3056 -0.387678,1.55409 -0.590097,0.48974 -0.673367,1.39802 -0.128176,1.39802 0.207024,0 0.287917,-0.14319 0.179759,-0.31819 -0.108157,-0.175 0.01347,-0.39882 0.270302,-0.49737 0.548667,-0.21054 1.419369,2.59488 1.079908,3.47949 -0.11849,0.30878 0.06296,0.86904 0.403214,1.24502 0.405134,0.44767 0.56393,1.05646 0.460098,1.76391 -0.111541,0.76005 -0.01251,1.08032 0.334016,1.08032 0.279517,0 0.393284,-0.19217 0.263029,-0.44429 -0.349431,-0.67636 1.216358,1.23114 1.677607,2.04373 0.375452,0.66143 0.356213,0.67421 -0.276685,0.18383 -0.629744,-0.48793 -0.627473,-0.46239 0.03067,0.34437 0.390973,0.47927 0.910791,1.08772 1.155149,1.35213 0.244359,0.26441 0.444288,0.62685 0.444288,0.80544 0,0.17859 0.491415,1.12336 1.092032,2.09949 0.600621,0.97613 0.99104,1.93819 0.867602,2.13792 -0.123441,0.19973 -0.07779,0.36314 0.101454,0.36314 0.527075,0 2.934051,4.14934 3.081131,5.3115 0.07422,0.58646 0.251848,1.25543 0.394724,1.48661 0.163153,0.26399 0.107148,0.326 -0.150568,0.16673 -0.225691,-0.13949 -0.410348,-0.0792 -0.410348,0.13395 0,0.21316 0.253326,0.48477 0.562949,0.60359 0.453252,0.17393 0.470565,0.27458 0.08886,0.51654 -0.363068,0.23015 -0.328428,0.3018 0.147913,0.30597 0.36165,0.003 0.622003,0.27515 0.622003,0.64981 0,0.3544 0.491063,1.11413 1.091247,1.68829 1.116069,1.06768 2.818489,4.07742 2.818489,4.98287 0,0.27717 0.159944,0.50394 0.35543,0.50394 0.195487,0 0.355431,0.24629 0.355431,0.54731 0,0.86815 1.388205,3.36987 3.049188,5.49501 0.840348,1.07518 2.021376,2.9945 2.62451,4.26517 0.603134,1.27066 1.61257,3.06992 2.243193,3.99835 0.630622,0.92843 1.856516,2.91654 2.724208,4.41801 0.867687,1.50148 2.028825,3.24386 2.580304,3.87196 0.574571,0.65439 0.914996,1.37051 0.797306,1.67721 -0.11296,0.29437 -0.03455,0.6408 0.174281,0.76986 0.208812,0.12905 0.383371,0.0253 0.387907,-0.23062 0.0045,-0.2559 0.563467,0.15121 1.242073,0.90467 0.678602,0.75347 1.130009,1.53791 1.003128,1.74321 -0.126885,0.2053 -0.06384,0.27015 0.140103,0.14411 0.417325,-0.25792 2.319856,2.04063 1.974722,2.38576 -0.12187,0.12187 -0.02879,0.22159 0.206818,0.22159 0.235622,0 1.094218,0.63977 1.90799,1.42172 0.813776,0.78195 1.349005,1.42172 1.189399,1.42172 -0.159606,0 -0.02524,0.40438 0.2986,0.89862 0.323837,0.49423 0.477465,1.07875 0.341391,1.29892 -0.136073,0.22017 -0.09028,0.3032 0.101757,0.18452 0.192035,-0.11869 0.947531,0.50005 1.678876,1.37498 0.731344,0.87492 1.138746,1.5471 0.905338,1.49374 -0.233411,-0.0534 -0.505113,0.12516 -0.60378,0.39673 -0.109871,0.3024 -0.02378,0.39758 0.222144,0.24559 0.371485,-0.22959 0.54174,0.27809 0.497027,1.48208 -0.0091,0.24436 0.125669,0.44429 0.299436,0.44429 0.173766,0 0.315938,0.39986 0.315938,0.88858 0,1.13048 -0.628735,1.15085 -1.053315,0.0341 z m -3.034136,-6.28378 c 0,-0.27694 -0.259908,-0.48465 -0.577574,-0.46157 -0.389268,0.0283 -0.577575,-0.24563 -0.577575,-0.84014 0,-0.48516 -0.19222,-1.0009 -0.427153,-1.1461 -0.234936,-0.1452 -0.374886,-0.54869 -0.311001,-0.89664 0.06766,-0.36853 -0.122197,-0.67033 -0.454781,-0.72293 -0.504956,-0.0799 -0.494688,0.0675 0.08886,1.27533 0.362884,0.75108 0.659789,1.75986 0.659789,2.24173 0,0.84991 0.516693,1.32453 1.244007,1.1427 0.195487,-0.0489 0.35543,-0.31545 0.35543,-0.59238 z m -4.561357,-3.78703 c 0,-0.33978 -0.214132,-0.83191 -0.47585,-1.09362 -0.39751,-0.39751 -0.450618,-0.3397 -0.322603,0.3512 0.08428,0.45487 0.16513,0.947 0.179656,1.09362 0.05522,0.55732 0.618797,0.23746 0.618797,-0.3512 z m -1.650544,-2.06935 c 0.210518,-0.5537 0.506883,-0.81051 0.756981,-0.65594 0.254887,0.15753 0.314677,0.0981 0.157403,-0.15633 -0.139485,-0.22569 -0.08423,-0.41035 0.122798,-0.41035 0.207024,0 0.376408,0.12938 0.376408,0.2875 0,0.15813 0.247656,0.59797 0.550352,0.97744 0.486108,0.6094 0.485041,0.55509 -0.0091,-0.46522 -0.852966,-1.7611 -1.342113,-1.55965 -2.589165,1.06629 -0.06963,0.14662 -0.03323,0.26658 0.08089,0.26658 0.114122,0 0.363175,-0.40949 0.553459,-0.90997 z m -0.935344,-1.01742 c -0.186089,-0.48494 -1.205372,-1.08718 -1.205372,-0.71219 0,0.28411 0.85984,1.1893 1.143996,1.20433 0.140477,0.007 0.168098,-0.21402 0.06138,-0.49214 z m 0.927212,-1.53493 c -0.293231,-0.11402 -0.72799,-0.46127 -0.966132,-0.77165 -0.238138,-0.31039 -0.44052,-0.4044 -0.449729,-0.20891 -0.0092,0.19548 -0.171791,0.11551 -0.361292,-0.17772 -0.207955,-0.32178 -0.346705,-0.365 -0.349989,-0.10901 -0.0069,0.53911 1.402842,1.5396 2.117371,1.50267 0.476568,-0.0246 0.477762,-0.0534 0.0098,-0.23538 z m -4.087451,-1.15828 c -0.120818,-0.19549 -0.490132,-0.35298 -0.820696,-0.34999 -0.517959,0.005 -0.527342,0.0531 -0.06788,0.34999 0.696065,0.44983 1.166587,0.44983 0.888577,0 z m -2.132583,-2.84344 c 0.120818,-0.19549 0.05029,-0.35543 -0.156738,-0.35543 -0.207024,0 -0.376408,0.15994 -0.376408,0.35543 0,0.19548 0.07053,0.35543 0.156738,0.35543 0.08621,0 0.25559,-0.15995 0.376408,-0.35543 z m 1.954867,0.16199 c 0,-0.0412 -0.213258,-0.25194 -0.473906,-0.46826 -0.35414,-0.29391 -0.473909,-0.27497 -0.473909,0.075 0,0.25754 0.213258,0.46826 0.473909,0.46826 0.260648,0 0.473906,-0.0337 0.473906,-0.075 z m -17.771525,-30.5513 c 0,-0.29323 -0.150503,-0.53315 -0.334453,-0.53315 -0.448191,0 -0.769187,0.55504 -0.485223,0.839 0.400282,0.40028 0.819676,0.24379 0.819676,-0.30585 z m -0.787182,-2.00901 c 0.01752,-0.61624 0.241788,-1.25356 0.498377,-1.41628 0.256585,-0.16271 0.306577,-0.29553 0.11109,-0.29515 -0.585561,10e-4 -2.027582,1.7158 -1.779953,2.11647 0.126298,0.20435 0.378526,0.27954 0.560506,0.16707 0.181977,-0.11247 0.330871,-0.0351 0.330871,0.17191 0,0.92647 0.250607,0.25842 0.279109,-0.74402 z m -1.102603,-4.27767 c -0.11346,-0.28354 -0.197683,-0.19932 -0.214737,0.21474 -0.01543,0.37468 0.06857,0.58461 0.18668,0.4665 0.118106,-0.1181 0.130731,-0.42466 0.02804,-0.68124 z m -3.797103,-2.95451 c 0,-0.29323 -0.154925,-0.53315 -0.344277,-0.53315 -0.189348,0 -0.25221,0.23992 -0.139688,0.53315 0.112526,0.29323 0.267448,0.53314 0.344277,0.53314 0.07683,0 0.139688,-0.23991 0.139688,-0.53314 z m -3.984578,-9.91621 c -0.252068,-0.27351 -0.514305,-0.4441 -0.582754,-0.37908 -0.21082,0.20027 0.323492,0.87638 0.692585,0.87638 0.191659,0 0.142233,-0.22379 -0.109831,-0.4973 z m -1.346879,-4.47873 c 0,-0.19549 -0.159944,-0.35543 -0.355431,-0.35543 -0.195487,0 -0.35543,0.15994 -0.35543,0.35543 0,0.19549 0.159943,0.35543 0.35543,0.35543 0.195487,0 0.355431,-0.15994 0.355431,-0.35543 z m -1.184768,-1.24401 c 0,-0.29323 -0.133286,-0.53314 -0.296194,-0.53314 -0.354972,0 -0.390547,0.49803 -0.05924,0.82933 0.329456,0.32946 0.35543,0.30781 0.35543,-0.29619 z m 1.027977,-1.41042 c 0.379464,-0.28701 0.499447,-0.52692 0.266626,-0.53314 -0.232821,-0.006 -0.532716,0.16571 -0.666432,0.38207 -0.169484,0.27423 -0.335676,0.24731 -0.548682,-0.0889 -0.238028,-0.37565 -0.306761,-0.34476 -0.311002,0.13977 -0.0066,0.75895 0.35091,0.78738 1.25949,0.10016 z m -1.426919,-1.96617 c -0.01653,-1.24374 -0.21163,-1.33249 -0.812866,-0.36977 -0.362201,0.57999 -0.331904,0.75659 0.181078,1.05549 0.338832,0.19743 0.622789,0.36382 0.631013,0.36977 0.0082,0.006 0.0086,-0.46903 7.11e-4,-1.05549 z m -1.029618,-6.13458 c -0.109359,-0.26452 -0.279102,-0.12257 -0.42432,0.35484 -0.133123,0.43765 -0.383805,0.70811 -0.557066,0.60103 -0.173262,-0.10709 -0.315022,0.1562 -0.315022,0.58507 0,0.75141 0.02691,0.74559 0.739342,-0.16015 0.406641,-0.51696 0.657319,-1.13831 0.557066,-1.38079 z m 0.480745,1.51399 c 0,-0.19549 -0.07053,-0.35543 -0.156738,-0.35543 -0.08621,0 -0.25559,0.15994 -0.376408,0.35543 -0.120818,0.19548 -0.05029,0.35543 0.156738,0.35543 0.207024,0 0.376408,-0.15995 0.376408,-0.35543 z m -2.096621,-7.00636 c -0.341423,-0.58668 -0.370604,-0.57862 -0.380584,0.10508 -0.01201,0.82277 0.439035,1.4643 0.628945,0.89457 0.06678,-0.20035 -0.04498,-0.65019 -0.248361,-0.99965 z m 375.694567,44.97547 c 0.2473,-0.45465 0.4773,-1.31842 0.51103,-1.9195 0.0338,-0.60108 0.35522,-1.54141 0.71445,-2.08962 0.64262,-0.98078 0.64056,-1.0069 -0.12873,-1.62984 -0.43,-0.34819 -0.78181,-0.79506 -0.78181,-0.99304 0,-0.62662 2.08531,-2.49547 2.29886,-2.06023 0.10837,0.22086 0.13023,0.0415 0.0485,-0.39865 -0.0817,-0.44011 -0.004,-0.71057 0.17381,-0.60102 0.17725,0.10955 0.3356,0.0698 0.35187,-0.0884 0.16482,-1.59982 0.27042,-1.96997 0.66868,-2.34389 0.37075,-0.34809 0.42054,-0.25962 0.25708,0.4569 -0.22062,0.96708 0.58845,2.44225 0.98636,1.79843 0.12806,-0.20719 0.13396,-0.53665 0.0131,-0.73213 -0.12081,-0.19549 -0.0604,-0.35543 0.13421,-0.35543 0.19463,0 0.41841,-0.51982 0.49725,-1.15515 0.12425,-1.00134 0.15091,-0.95401 0.20025,0.35543 0.042,1.11644 -0.13955,1.707 -0.69594,2.26339 -0.58386,0.58386 -0.64884,0.81709 -0.28942,1.0392 0.34206,0.21143 0.36097,0.40978 0.0722,0.75777 -0.21514,0.25925 -0.40192,0.59205 -0.41504,0.73955 -0.13161,1.47932 -0.53364,2.04212 -1.45883,2.04212 -1.06452,0 -1.70578,0.9239 -1.07745,1.55225 0.25249,0.25248 0.36709,0.17846 0.36709,-0.23715 0,-0.33233 0.15994,-0.60424 0.35543,-0.60424 0.4413,0 0.44119,0.003 -0.0388,1.38032 -0.30613,0.87811 -0.54452,1.08327 -1.06629,0.91766 -0.55824,-0.17717 -0.67205,-0.0308 -0.67205,0.86444 0,0.72707 -0.24005,1.20621 -0.73776,1.47258 -0.6926,0.37066 -0.71022,0.34422 -0.28804,-0.43178 z m -357.959004,-4.57962 c 0,-0.20703 0.159943,-0.27756 0.35543,-0.15674 0.195487,0.12082 0.355431,0.2902 0.355431,0.37641 0,0.0862 -0.159944,0.15673 -0.355431,0.15673 -0.195487,0 -0.35543,-0.16938 -0.35543,-0.3764 z m 362.544554,-7.51095 c -0.004,-0.33056 0.15451,-0.69987 0.34999,-0.82069 0.44984,-0.27801 0.44984,0.19251 0,0.88857 -0.29692,0.45947 -0.3453,0.45008 -0.34999,-0.0679 z m -373.75523,-6.35351 c -0.128855,-0.20849 -0.158053,-0.45531 -0.06488,-0.54848 0.09316,-0.0932 0.264106,0.0774 0.379866,0.37908 0.240335,0.62631 0.03551,0.73647 -0.314982,0.1694 z m 377.3041,-74.60561 c 0,-0.18935 -0.22961,-0.25617 -0.51022,-0.14849 -0.37711,0.14472 -0.50226,-0.0834 -0.47976,-0.87459 0.0235,-0.82911 0.22815,-1.12001 0.90759,-1.29053 1.16524,-0.29247 1.49746,0.10208 0.62385,0.7409 -0.59279,0.43346 -0.63355,0.62164 -0.26302,1.21495 0.26174,0.41908 0.29398,0.70204 0.08,0.70204 -0.19716,0 -0.35845,-0.15493 -0.35845,-0.34428 z m -1.03825,-4.48365 c 0.0171,-0.41406 0.1013,-0.49828 0.21475,-0.21474 0.10268,0.25657 0.0901,0.56314 -0.0281,0.68124 -0.11811,0.11811 -0.20213,-0.0918 -0.18671,-0.4665 z m -80.81891,-33.98265 c -1.1075,-0.59949 -1.33258,-0.90064 -1.24401,-1.66449 0.10092,-0.87028 0.24368,-0.93968 2.13701,-1.03874 1.82735,-0.0956 2.13624,-0.004 3.11001,0.92706 1.39221,1.33047 1.38308,2.05101 -0.0296,2.33354 -1.72276,0.34456 -2.51166,0.23389 -3.97345,-0.55737 z m 57.42131,-32.89161 c -0.24436,-0.0847 -0.45552,-0.42058 -0.46928,-0.7464 -0.0199,-0.47272 -0.0867,-0.4488 -0.33044,0.1185 -0.16801,0.39097 -0.31673,0.52956 -0.33045,0.30802 -0.0224,-0.3591 -0.6875,-0.68641 -2.08637,-1.02656 -1.18206,-0.28744 -1.66424,-1.3131 -2.05524,-4.37204 -0.0923,-0.72178 -0.0331,-0.76638 0.47268,-0.35543 0.50702,0.41215 0.5425,0.38251 0.28819,-0.24088 -0.15949,-0.39097 -0.37082,-1.08552 -0.46967,-1.54338 -0.16655,-0.77154 -0.12412,-0.7978 0.57885,-0.35881 0.41721,0.26056 0.75856,0.68463 0.75856,0.94235 0,0.25776 0.16254,0.36816 0.36123,0.24539 0.19868,-0.1228 0.26707,-0.41212 0.15202,-0.64297 -0.11509,-0.23086 0.20138,0.0601 0.70329,0.64656 0.5019,0.58646 0.91331,1.33475 0.91427,1.66288 0,0.32814 0.24169,0.83654 0.53492,1.12977 0.29323,0.29323 0.53315,0.79244 0.53315,1.10934 0,0.3169 0.24962,1.0589 0.55472,1.64891 0.61109,1.18166 0.57142,1.71115 -0.11043,1.47475 z m -2.9323,-2.22734 c 0,-0.19548 -0.1694,-0.35543 -0.37641,-0.35543 -0.20703,0 -0.27755,0.15995 -0.15674,0.35543 0.12081,0.19549 0.29021,0.35543 0.3764,0.35543 0.0862,0 0.15675,-0.15994 0.15675,-0.35543 z m -3.83858,-5.13956 c -0.24077,-0.52838 -0.26789,-0.95891 -0.0682,-1.08232 0.18237,-0.11274 0.43547,0.20889 0.56243,0.7147 0.30933,1.23249 0.004,1.45997 -0.49426,0.36762 z m 0.28427,-2.90116 c 0,-1.10418 -0.0759,-1.2245 -0.53315,-0.84504 -0.44542,0.36965 -0.53314,0.31832 -0.53314,-0.31193 0,-0.41489 0.13517,-0.75436 0.30034,-0.75436 0.46988,0 1.47681,1.24287 1.47681,1.82289 0,0.28762 0.19193,0.71488 0.42652,0.94947 0.33172,0.33172 0.25274,0.42651 -0.35543,0.42651 -0.66174,0 -0.78195,-0.19794 -0.78195,-1.28754 z m -320.656494,-14.34824 c -0.19709,-0.59129 0.667491,-1.64493 1.042247,-1.27016 0.131644,0.13165 0.06804,0.35059 -0.141348,0.48658 -0.209384,0.13599 -0.457997,0.48719 -0.55247,0.78042 -0.151762,0.47102 -0.192349,0.47141 -0.348429,0.004 z m 0.632542,-2.06906 c -0.09815,-0.15881 0.212299,-0.74349 0.689883,-1.29932 0.477585,-0.55578 0.868338,-1.17224 0.868338,-1.36993 0,-0.19766 0.08596,-0.2734 0.191023,-0.16833 0.252619,0.2526 -0.578939,2.06004 -0.94778,2.06004 -0.157975,0 -0.19516,0.23991 -0.08264,0.53314 0.211062,0.55 -0.401277,0.75821 -0.718826,0.2444 z m 266.849272,-21.20286 c -2.08266,-0.88253 -3.99556,-6.47836 -2.42112,-7.08255 1.73354,-0.66523 5.30695,0.0644 6.49164,1.32543 l 0.78104,0.83139 -0.73125,0.92963 c -0.40219,0.51129 -0.90114,1.41696 -1.10877,2.01259 -0.23556,0.67571 -0.62248,1.083 -1.0289,1.083 -0.36662,0 -0.70102,0.29909 -0.76495,0.6842 -0.10371,0.62474 -0.20953,0.64354 -1.21769,0.21631 z m -249.565465,-1.13666 c -0.245578,-0.099 -0.346232,-0.34225 -0.22368,-0.54054 0.135935,-0.21994 -0.06199,-0.20811 -0.507565,0.0302 -1.00193,0.5362 -1.132551,0.49895 -1.132551,-0.32305 0,-0.82556 1.927318,-3.63801 2.263012,-3.30234 0.232619,0.23263 0.358732,-0.4214 0.243342,-1.26199 -0.03624,-0.26398 0.07932,-0.39023 0.256795,-0.28054 0.325553,0.20121 1.363012,-1.01604 2.19055,-2.57012 0.28127,-0.52824 0.30283,-0.75248 0.05779,-0.60103 -0.883813,0.54622 -0.293255,-0.5174 1.144529,-2.06132 1.520795,-1.6331 2.369247,-2.06253 2.379757,-1.20449 0.0038,0.31221 0.08306,0.32647 0.266573,0.0479 0.504988,-0.76652 1.736296,-0.89412 2.254677,-0.23362 0.445063,0.56705 0.434794,0.58333 -0.102748,0.16278 -0.51059,-0.39947 -0.654753,-0.35973 -0.993873,0.27393 -0.218159,0.40761 -0.30439,0.89043 -0.191626,1.07287 0.287994,0.46601 -0.184913,2.17566 -0.540941,1.95561 -0.161124,-0.0996 -0.372896,-0.0517 -0.470604,0.10642 -0.09771,0.1581 0.131154,0.31068 0.508585,0.33912 0.452872,0.0341 0.686237,-0.17541 0.686237,-0.61611 0,-0.36726 0.166448,-0.77064 0.36989,-0.89639 0.203437,-0.12572 0.272633,-0.53503 0.153762,-0.90955 -0.120817,-0.38067 -0.04882,-0.68093 0.163257,-0.68093 0.327838,0 0.457698,0.48111 0.349025,1.29312 -0.04614,0.34477 0.846489,0.81632 1.168534,0.61732 0.40202,-0.24849 0.351549,-1.83012 -0.08439,-2.64469 -0.275701,-0.51516 -0.252583,-0.68747 0.09222,-0.68747 0.253085,0 0.6696527,-0.3355 0.9257083,-0.74548 0.2560557,-0.41003 0.558616,-0.65243 0.6723573,-0.5387 0.1137413,0.11374 0.4094701,-0.0703 0.6571732,-0.4091 0.65621,-0.89742 0.9157987,-0.39047 0.3271347,0.63886 -0.9320632,1.62982 -1.1728354,2.2927 -1.6056964,4.42077 -0.452591,2.22503 -0.5282088,2.32156 -4.4631571,5.69712 -2.009466,1.72377 -5.522807,4.09531 -6.012139,4.05824 -0.195487,-0.0149 -0.556355,-0.10791 -0.801933,-0.20693 z m 1.735848,-1.09672 c 0.442109,-0.56375 0.429538,-0.57633 -0.134196,-0.13421 -0.342102,0.26828 -0.622004,0.54818 -0.622004,0.622 0,0.29252 0.291876,0.10425 0.7562,-0.48779 z m 2.863266,-3.36475 c -0.255042,-0.25506 -0.420591,-0.27603 -0.420591,-0.0533 0,0.20199 0.106629,0.4739 0.236955,0.60423 0.130322,0.13034 0.319588,0.15433 0.420591,0.0533 0.101003,-0.10101 -0.0056,-0.37292 -0.236955,-0.60423 z m 2.600568,-2.76642 c 0.120818,-0.19549 0.05029,-0.35544 -0.156738,-0.35544 -0.207024,0 -0.376408,0.15995 -0.376408,0.35544 0,0.19548 0.07053,0.35543 0.156738,0.35543 0.08621,0 0.25559,-0.15995 0.376408,-0.35543 z m 18.8836125,-16.9866 c -0.1266576,-0.2049 0.1656733,-0.68406 0.6496239,-1.06472 0.4839506,-0.38067 0.798464,-0.7736 0.6989186,-0.87316 -0.099545,-0.0995 0.065822,-0.27567 0.3674831,-0.39143 0.7595123,-0.29145 0.6892046,0.33712 -0.1009138,0.90222 -0.357165,0.25542 -0.8148635,0.76485 -1.0171071,1.13209 -0.2226772,0.4043 -0.458548,0.52067 -0.5980047,0.295 z m 41.5988115,-23.41402 c -0.130326,-0.13033 -0.236955,-0.40224 -0.236955,-0.60423 0,-0.22271 0.165549,-0.20174 0.420592,0.0533 0.231328,0.23131 0.337957,0.50321 0.236955,0.60423 -0.101003,0.10101 -0.29027,0.077 -0.420592,-0.0533 z m 14.868881,-8.59089 c 0.586481,-0.35767 1.328147,-0.6503 1.648149,-0.6503 0.648955,0 0.65621,1.00903 0.0088,1.22481 -0.25039,0.0835 -0.328542,-0.0835 -0.198138,-0.42331 0.193987,-0.50553 0.114722,-0.5087 -0.799477,-0.032 -1.438104,0.75003 -1.936869,0.65978 -0.659345,-0.11932 z m 6.042279,-2.54592 c -0.120818,-0.19548 -0.05029,-0.35543 0.156738,-0.35543 0.207024,0 0.376408,0.15995 0.376408,0.35543 0,0.19549 -0.07053,0.35543 -0.156738,0.35543 -0.08621,0 -0.25559,-0.15994 -0.376408,-0.35543 z"
       id="path3345"/>
  </g>
</svg>
