<svg xmlns="http://www.w3.org/2000/svg" xmlns:xlink="http://www.w3.org/1999/xlink" width="1200" height="1200" viewBox="0 0 1200 1200"><rect width="100%" height="100%" fill="#0283B3" rx="60" ry="60"></rect><g transform="translate(600 600) scale(0.69 0.69) rotate(0) translate(-600 -600)" style="fill:#9AFF68"><svg fill="#9AFF68" xmlns:x="http://ns.adobe.com/Extensibility/1.0/" xmlns:i="http://ns.adobe.com/AdobeIllustrator/10.0/" xmlns:graph="http://ns.adobe.com/Graphs/1.0/" xmlns="http://www.w3.org/2000/svg" xmlns:xlink="http://www.w3.org/1999/xlink" version="1.1" x="0px" y="0px" viewBox="0 0 72 71.133" enable-background="new 0 0 72 71.133" xml:space="preserve"><g><g i:extraneous="self"><g><path d="M44.824,17.567c0,0.842,0.682,1.522,1.522,1.522c0.657,0,1.179-0.534,1.418-1c0.328-0.648,0.366-2.13-0.81-3.192     c-2.335-2.111-6.978-2.923-10.954-2.923s-8.62,0.812-10.954,2.923c-1.175,1.062-1.137,2.544-0.809,3.192     c0.239,0.466,0.761,1,1.417,1c0.842,0,1.523-0.681,1.523-1.522c0-0.782-0.599-1.402-1.358-1.487     c1.149-1.74,6.602-2.889,10.181-2.889s9.032,1.149,10.18,2.889C45.422,16.165,44.824,16.786,44.824,17.567z M33.007,61.902     c-3.79,0.169-8.394-1.741-12.329-4.6c-3.936-2.859-7.172-6.65-8.184-10.311c-0.208-0.752-0.045-1.455,0.332-1.914l-5.397,1.753     c-2.473,1.032-3.697,2.823-2.815,5.759c1.223,4.076,4.94,9.145,10.115,12.903c5.173,3.76,11.137,5.733,15.391,5.636     c3.068-0.067,4.393-1.79,4.605-4.463v-5.669C34.404,61.497,33.786,61.868,33.007,61.902z M6.641,44.406l5.396-1.753     c-0.575-0.153-1.12-0.625-1.394-1.355c-1.333-3.554-0.94-8.526,0.563-13.152c1.503-4.628,4.106-8.88,7.272-10.973     c0.65-0.43,1.368-0.493,1.923-0.277l-3.332-4.588c-1.743-2.036-3.827-2.65-6.349-0.901c-3.497,2.423-7.165,7.527-9.141,13.608     c-1.976,6.086-2.008,12.372-0.603,16.387C1.991,44.298,4.033,45.025,6.641,44.406z M56.864,41.793     c0.718,0.114,2.139-0.309,2.786-1.756c1.288-2.872,0.623-7.539-0.606-11.32c-1.229-3.783-3.436-7.948-6.163-9.516     c-1.375-0.789-2.771-0.296-3.285,0.217c-0.371,0.372-0.718,1.033-0.515,1.657c0.26,0.8,1.118,1.238,1.918,0.978     c0.745-0.241,1.15-1.003,0.995-1.751c2.009,0.556,4.788,5.388,5.894,8.789c1.105,3.405,1.697,8.948,0.4,10.577     c-0.317-0.694-1.091-1.073-1.836-0.831c-0.8,0.26-1.236,1.118-0.977,1.917C55.675,41.379,56.348,41.711,56.864,41.793z      M22.466,15.397c-0.034-0.595,0.248-1.258,0.857-1.744c2.967-2.365,7.814-3.529,12.678-3.529c4.864,0,9.709,1.164,12.677,3.529     c0.611,0.487,0.893,1.15,0.858,1.745l3.337-4.592c1.394-2.289,1.331-4.458-1.108-6.314C48.38,1.914,42.397,0,36.001,0     c-6.393,0-12.378,1.914-15.763,4.492c-2.442,1.857-2.502,4.029-1.105,6.318L22.466,15.397z M38.144,31.808l5.836-8.069     c1.105-1.653,0.664-3.891-0.989-4.999c-1.069-0.717-2.381-0.78-3.477-0.292c-0.146-1.537-1.225-3.407-3.513-3.407     s-3.308,1.644-3.513,3.407c-1.096-0.488-2.408-0.425-3.477,0.292c-1.653,1.108-2.095,3.346-0.988,4.999l5.835,8.069     c0.298-0.145,0.61-0.261,0.938-0.345v-4.974c0-0.665,0.54-1.205,1.204-1.205c0.666,0,1.207,0.54,1.207,1.205v4.974     C37.535,31.547,37.845,31.663,38.144,31.808z M21.003,22.053c0.8,0.26,1.658-0.177,1.917-0.978     c0.203-0.624-0.145-1.285-0.514-1.657c-0.515-0.513-1.912-1.006-3.285-0.217c-2.729,1.567-4.936,5.733-6.165,9.516     c-1.229,3.781-1.892,8.448-0.606,11.32c0.648,1.447,2.07,1.87,2.787,1.756c0.517-0.082,1.187-0.414,1.389-1.039     c0.26-0.799-0.177-1.657-0.977-1.917c-0.744-0.242-1.519,0.137-1.835,0.831c-1.298-1.629-0.707-7.172,0.4-10.577     c1.105-3.401,3.884-8.233,5.893-8.789C19.854,21.05,20.258,21.812,21.003,22.053z M56.126,29.665     c-0.705-2.177-2.584-2.638-4.325-2.289c0.126-1.193-0.339-2.42-1.353-3.217c-1.564-1.23-3.829-0.958-5.058,0.606l-5.873,8.042     c0.23,0.239,0.437,0.5,0.618,0.784l4.73-1.537c0.636-0.205,1.314,0.142,1.521,0.773c0.203,0.634-0.141,1.314-0.773,1.52     l-4.732,1.538c0.021,0.338,0.007,0.669-0.036,0.999l9.478,3.057c1.913,0.541,3.903-0.571,4.446-2.487     c0.352-1.236,0.007-2.505-0.796-3.395C55.39,33.443,56.834,31.841,56.126,29.665z M39.662,59.88     c3.128,0.335,7.363-1.737,10.581-4.074c3.217-2.338,6.495-5.723,7.143-8.802c0.327-1.552-0.574-2.729-1.222-3.059     c-0.466-0.237-1.202-0.363-1.734,0.023c-0.681,0.494-0.831,1.443-0.337,2.125c0.458,0.633,1.31,0.783,1.972,0.406     c0.095,2.081-3.642,6.218-6.539,8.321c-2.893,2.104-7.979,4.378-9.934,3.646c0.564-0.515,0.684-1.367,0.226-2.002     c-0.497-0.68-1.445-0.83-2.127-0.336c-0.53,0.387-0.639,1.125-0.559,1.642C37.247,58.489,38.088,59.711,39.662,59.88z      M32.185,56.466c-0.459,0.635-0.34,1.487,0.224,2.002c-1.953,0.731-7.04-1.543-9.933-3.646c-2.896-2.104-6.632-6.24-6.539-8.321     c0.664,0.377,1.513,0.227,1.972-0.406c0.496-0.682,0.344-1.631-0.336-2.125c-0.531-0.387-1.268-0.261-1.733-0.023     c-0.648,0.33-1.549,1.507-1.223,3.059c0.647,3.079,3.927,6.464,7.144,8.802c3.217,2.337,7.452,4.409,10.579,4.074     c1.575-0.169,2.417-1.391,2.53-2.108c0.082-0.517-0.028-1.255-0.557-1.642C33.63,55.636,32.681,55.786,32.185,56.466z      M70.419,25.015c-1.976-6.081-5.642-11.185-9.141-13.608c-2.521-1.75-4.604-1.135-6.348,0.901L51.6,16.896     c0.556-0.216,1.273-0.153,1.923,0.277c3.166,2.092,5.768,6.344,7.271,10.973c1.504,4.626,1.896,9.598,0.563,13.152     c-0.273,0.73-0.816,1.202-1.392,1.355l5.396,1.753c2.609,0.619,4.65-0.108,5.663-3.004     C72.427,37.387,72.395,31.102,70.419,25.015z M64.572,46.831l-5.397-1.753c0.379,0.459,0.538,1.162,0.332,1.914     c-1.011,3.66-4.247,7.451-8.183,10.311c-3.935,2.858-8.539,4.769-12.329,4.6c-0.78-0.034-1.398-0.405-1.719-0.905v5.669     c0.214,2.673,1.537,4.396,4.604,4.463c4.256,0.098,10.221-1.876,15.392-5.636c5.177-3.759,8.894-8.827,10.116-12.903     C68.269,49.654,67.044,47.863,64.572,46.831z M39,36.204c0-1.658-1.343-3-3-3s-3,1.342-3,3c0,1.657,1.344,3,3,3     S39,37.861,39,36.204z M31.266,44.772c-0.391,0.537-1.144,0.657-1.682,0.267c-0.54-0.391-0.66-1.146-0.267-1.684l2.922-4.025     c-0.215-0.261-0.4-0.537-0.556-0.83l-9.463,3.098c-1.867,0.688-2.824,2.758-2.138,4.627c0.443,1.208,1.469,2.031,2.641,2.278     c-0.784,1.33-1.012,3.477,0.839,4.821c1.853,1.346,3.642,0.614,4.844-0.691c0.6,1.039,1.698,1.759,2.985,1.81     c1.99,0.074,3.661-1.477,3.738-3.465l0.022-9.957c-0.326-0.06-0.646-0.147-0.961-0.272L31.266,44.772z M40.612,54.442     c1.285-0.051,2.384-0.771,2.982-1.81c1.202,1.306,2.992,2.037,4.845,0.691c1.852-1.345,1.624-3.491,0.838-4.821     c1.174-0.247,2.199-1.07,2.644-2.278c0.687-1.869-0.271-3.939-2.139-4.627L40.319,38.5c-0.155,0.293-0.34,0.569-0.556,0.83     l2.922,4.025c0.394,0.538,0.271,1.293-0.267,1.684c-0.539,0.391-1.292,0.271-1.684-0.267l-2.923-4.024     c-0.315,0.125-0.635,0.213-0.962,0.272l0.022,9.957C36.95,52.966,38.619,54.517,40.612,54.442z M27.133,32.054l4.733,1.537     c0.179-0.285,0.386-0.545,0.616-0.784l-5.871-8.042c-1.229-1.564-3.494-1.837-5.058-0.606c-1.014,0.797-1.479,2.024-1.354,3.217     c-1.739-0.349-3.618,0.112-4.325,2.289c-0.707,2.176,0.738,3.778,2.154,4.393c-0.803,0.89-1.148,2.159-0.795,3.395     c0.542,1.916,2.535,3.028,4.446,2.487l9.48-3.057c-0.046-0.33-0.061-0.66-0.039-0.999l-4.733-1.538     c-0.633-0.206-0.977-0.886-0.773-1.52C25.82,32.196,26.5,31.85,27.133,32.054z"></path></g></g></g></svg></g></svg>